<?xml version="1.0" encoding="UTF-8"?>
<svg id="at_map" xmlns="http://www.w3.org/2000/svg" viewBox="0 0 1000 513">
    <defs>
        <pattern id="diagonalHatch" patternUnits="userSpaceOnUse" width="15" height="15" patternTransform="rotate(0)">
            <rect x="0" y="0" width="15" height="15" th:fill="${disabledFill}"/>
            <line x1="0" y1="0" x2="15" y2="15" stroke="#f5f5f510" stroke-width="5"/>
            <line x1="-15" y1="0" x2="15" y2="30" stroke="#f5f5f510" stroke-width="5"/>
            <line x1="0" y1="-15" x2="30" y2="15" stroke="#f5f5f510" stroke-width="5"/>
        </pattern>
        <style th:utext="${style}">
        </style>
    </defs>
    <polygon th:if="${showStroke}" id="stroke" points="955.833 204.094 954.18 202.564 952.456 200.968 952.157 200.691 951.774 200.553 948.141 199.249 946.155 198.146 946.486 196.543 946.725 195.387 945.829 194.62 944.941 193.859 944.85 193.781 945.392 191.228 945.919 189.647 946.483 188.942 947.532 187.63 946.421 186.37 945.494 185.32 945.358 185.145 945.363 185.14 944.647 183.826 943.323 181.399 943.086 180.967 942.676 180.693 941.863 180.151 941.499 179.908 941.066 179.84 939.57 179.603 938.163 178.776 935.422 175.761 934.726 173.323 934.726 169.654 934.726 169.468 934.692 169.286 934.119 166.228 934.1 166.126 934.07 166.027 932.227 159.817 932.227 159.11 932.321 157.198 932.33 157.024 932.308 156.851 932.248 156.372 932.19 155.903 931.928 155.51 931.838 155.375 931.48 154.839 930.877 154.613 930.563 154.495 929.523 153.536 929.287 153.318 928.995 153.185 928.113 152.783 927.539 152.401 927.306 151.817 927.235 151.185 927.205 150.915 927.104 150.663 926.754 149.789 926.74 149.753 926.725 149.718 926.386 148.957 926.293 148.75 926.157 148.569 926.042 148.417 925.807 148.104 925.759 148.075 925.789 147.937 926.165 146.904 926.334 146.455 926.59 145.769 926.344 145.08 926.029 144.199 925.905 143.851 925.664 143.571 924.652 142.39 924.517 142.232 924.353 142.106 923.189 141.211 923.081 141.127 922.962 141.06 922.514 140.804 922.129 140.584 921.688 140.547 919.767 140.387 919.353 140.111 919.134 139.509 919.219 137.81 919.36 137.248 919.513 136.992 919.654 136.757 919.727 136.491 919.971 135.598 920.011 135.451 920.029 135.299 921.116 125.805 921.581 123.387 922.69 121.17 925.647 116.878 925.852 116.579 925.94 116.228 926.467 114.121 927.212 112.713 928.987 111.293 929.113 111.192 929.221 111.073 930.926 109.188 931.207 108.877 931.34 108.479 931.563 107.81 931.584 107.746 931.601 107.682 932.143 105.603 932.241 105.225 932.191 104.838 931.154 96.921 931.078 96.343 930.703 95.896 928.496 93.264 928.239 92.957 928.067 92.868 926.975 91.542 925.348 80.148 925.283 79.693 925.025 79.312 922.723 75.9 922.201 75.128 921.274 75.03 919.962 74.892 919.498 74.843 919.059 75.005 914.846 76.562 914.703 76.562 914.546 76.562 914.39 76.587 912.844 76.831 910.998 76.076 907.779 73.93 907.739 73.903 907.697 73.878 906.81 73.347 906.665 73.26 906.507 73.199 904.982 72.606 904.591 72.454 904.171 72.472 899.83 72.661 899.094 72.498 898.989 72.474 898.882 72.462 898.3 72.398 897.244 71.623 896.494 69.79 896.133 67.537 896.091 67.271 895.979 67.026 895.201 65.314 894.87 64.584 894.126 64.285 894.023 64.244 892.512 63.532 892.189 63.381 891.834 63.35 889.809 63.173 885.106 61.801 882.951 61.146 881.196 60.005 880.945 59.842 880.656 59.759 880.19 59.626 880.171 59.616 879.574 59.318 878.919 59.437 878.287 59.552 878.005 59.604 877.749 59.732 877.715 59.749 875.893 60.477 874.97 60.554 873.29 60.274 872.111 60.052 871.31 59.902 870.632 60.354 869.063 61.4 868.678 61.657 868.444 62.057 862.675 71.961 862.515 72.237 862.514 72.242 861.611 73.075 860.211 73.517 859.996 73.456 858.906 72.57 858.206 72.001 857.316 72.149 855.509 72.45 855.213 72.5 855.162 72.525 850.978 71.874 844.272 70.873 838.988 70.091 838.752 70.056 838.515 70.077 837.569 70.163 828.568 70.664 828.523 70.667 828.478 70.671 827.79 70.741 825.169 69.566 824.993 69.479 824.944 69.454 824.893 69.433 823.556 68.86 823.481 68.828 823.403 68.802 823.19 68.73 821.832 68.096 810.269 59.714 810.225 59.31 810.225 58.478 810.225 57.646 809.634 57.059 808.834 56.264 807.732 56.531 807.459 56.599 807.445 56.328 807.401 55.494 806.777 54.939 806.441 54.64 805.937 54.192 805.265 54.14 804.903 54.112 805.152 53.761 802.925 52.769 802.538 52.596 801.584 51.863 801.083 51.477 800.451 51.45 798.681 51.373 798.309 51.187 797.969 50.677 797.668 49.102 797.537 48.413 797.004 47.957 796.754 47.743 796.193 47.262 795.454 47.262 794.724 47.262 794.683 47.262 794.643 47.264 792.262 47.36 792.105 47.366 791.95 47.397 791.221 47.543 790.834 47.621 790.505 47.84 790.421 47.895 790.277 47.967 789.677 48.267 786.564 49.921 786.31 49.985 786.254 49.999 786.199 50.016 784.769 50.462 782.334 50.462 779.887 49.918 770.786 44.732 770.651 44.655 770.506 44.6 763.478 41.928 760.96 40.901 760.187 40.214 759.382 39.509 755.238 35.958 755.11 35.848 754.965 35.761 752.626 34.358 752.448 34.251 752.252 34.183 749.75 33.317 748.839 33.014 747.105 32.436 741.444 29.605 741.296 29.531 741.138 29.483 738.761 28.751 738.474 28.662 738.173 28.662 733.085 28.662 732.924 28.528 732.689 28.059 732.544 27.768 732.356 27.58 732.121 27.307 730.434 25.34 728.959 27.471 728.677 27.878 728.6 28.396 728.348 30.494 728.043 31.179 727.724 31.657 726.654 32.906 726.302 33.14 717.504 35.557 716.559 35.518 716.933 34.301 717.022 34.014 717.022 33.713 717.022 31.562 717.022 31.364 716.983 31.17 716.512 28.817 716.492 28.718 716.462 28.621 715.877 26.719 715.478 25.42 714.123 25.313 707.239 24.77 707.16 24.764 707.082 24.764 706.565 24.764 705.635 24.68 699.391 22.504 698.908 22.335 698.404 22.419 698.09 22.472 696.484 22.624 695.128 22.753 694.751 24.062 694.697 24.251 694.62 24.521 694.62 24.803 694.62 25.413 694.62 25.513 694.629 25.612 694.699 26.309 693.273 29.697 693.124 30.051 693.117 30.435 693.022 35.388 693.02 35.498 693.03 35.607 693.521 41.006 693.521 45.855 691.061 57.069 690.227 59.2 690.151 59.395 690.117 59.601 689.962 60.534 689.907 60.863 689.962 61.191 690.115 62.108 690.155 62.346 690.25 62.568 690.803 63.857 691.262 64.958 691.304 65.061 690.443 67.215 688.877 67.345 683.004 64.977 682.786 64.889 682.553 64.854 676.743 63.983 676.596 63.961 676.447 63.961 676.384 63.961 676.059 63.961 675.751 64.064 675.355 64.196 675.255 64.229 675.159 64.273 674.467 64.588 673.747 64.916 673.446 65.647 672.929 66.904 672.865 67.059 672.828 67.222 672.38 69.195 671.342 71.013 671.167 71.32 671.107 71.667 670.597 74.643 666.293 78.385 666.241 78.431 666.191 78.48 666.138 78.533 664.684 79.805 664.445 80.014 664.282 80.288 662.281 83.653 662.046 84.049 662.007 84.509 661.63 89.038 661.624 89.121 661.624 89.204 661.624 94.701 661.069 98.954 660.854 99.221 659.986 100.043 659.25 100.74 658.214 100.686 657.593 99.94 657.001 98.503 656.9 98.26 656.74 98.05 655.768 96.779 655.271 96.129 654.461 96.014 654.391 96.004 653.941 95.94 653.508 96.077 652.027 96.544 651.877 96.527 651.826 96.424 651.826 95.506 651.826 95.415 651.817 95.324 651.757 94.668 651.685 93.874 651.085 93.347 650.888 93.174 650.206 92.575 649.305 92.695 648.147 92.849 647.841 92.889 647.561 93.02 644.501 94.455 644.478 94.466 644.454 94.478 644.188 94.612 642.758 94.93 641.703 94.628 637.257 92.263 635.065 89.769 633.889 88.431 632.425 89.444 631.857 89.837 631.824 89.86 631.793 89.883 631.656 89.986 631.194 90.334 630.988 90.874 628.467 97.504 627.618 98.353 626.849 99.122 625.219 99.847 622.432 101.041 622.406 101.052 622.381 101.063 621.155 101.63 621.08 101.655 620.744 101.766 620.467 101.985 618.304 103.698 617.673 103.978 616.768 104.054 616.642 104.012 615.316 103.538 615.071 103.415 614.874 103.317 614.66 103.263 614.414 103.202 605.36 100.053 605.149 99.98 604.927 99.955 588.293 98.084 584.552 96.401 583.737 95.748 581.77 93.313 581.371 92.515 580.917 90.62 581.486 90.392 581.821 89.68 582.276 88.712 583.747 88.942 584.124 87.064 584.159 86.89 584.252 86.427 584.128 85.971 583.984 85.442 583.797 84.755 583.219 84.341 582.916 84.124 582.701 83.97 582.454 83.878 581.979 83.699 581.639 83.359 580.931 82.032 580.885 81.945 580.831 81.864 578.888 78.949 578.829 78.86 578.76 78.778 577.919 77.768 577.67 77.469 577.327 77.285 574.699 75.877 574.673 75.863 574.647 75.85 574.295 75.675 572.247 74.505 572.199 74.478 572.151 74.453 571.776 74.265 569.6 73.034 567.072 70.895 567.038 70.867 567.003 70.839 564.908 69.221 564.768 69.113 564.611 69.031 562.486 67.922 562.293 67.822 562.084 67.765 558.201 66.713 556.577 66.273 555.865 67.797 552.779 74.411 552.663 74.66 552.618 74.931 552.552 75.33 552.353 76.539 553.148 77.125 554.27 79.283 554.412 79.557 554.63 79.775 554.996 80.14 555.246 80.39 555.565 80.539 555.565 80.539 555.303 80.785 554.785 81.27 554.689 81.974 554.453 83.703 554.421 83.94 554.445 84.179 555.026 89.795 554.931 92.665 554.549 95.143 553.887 97.413 551.961 101.747 551.471 102.401 550.652 103.219 550.04 103.491 547.704 103.865 546.666 104.031 546.215 104.981 545.573 106.33 545.478 106.528 545.429 106.743 544.662 110.091 540.9 108.367 539.243 105.925 539.07 105.67 538.828 105.478 537.122 104.131 536.976 104.016 536.811 103.93 534.885 102.921 534.702 102.825 534.504 102.769 522.511 99.356 522.095 99.237 521.667 99.301 517.978 99.854 517.784 99.883 517.599 99.95 513.979 101.249 513.604 101.383 513.309 101.651 512.507 102.38 512.207 102.653 512.037 103.022 511.614 103.938 511.429 104.337 511.429 104.776 511.429 104.944 511.429 105.369 511.602 105.757 511.862 106.341 512.308 109.201 512.374 109.621 512.605 109.979 513.465 111.308 513.619 112.536 513.366 114.054 511.841 117.293 511.806 117.367 511.778 117.443 511.235 118.891 511.15 119.118 511.121 119.359 510.944 120.861 510.926 121.017 510.932 121.174 511.126 126.124 510.949 127.717 510.534 128.796 510.1 129.447 509.893 129.758 509.812 130.124 509.653 130.842 509.645 130.877 509.639 130.912 508.979 134.495 507.452 137.01 496.049 147.134 492.29 149.202 476.153 152.055 475.954 152.09 475.767 152.164 463.582 156.979 463.34 157.075 463.13 157.229 461.386 158.514 461.284 158.59 461.192 158.677 456.927 162.748 453.216 164.841 453.058 164.93 452.918 165.047 451.647 166.106 450.913 166.718 450.915 166.837 445.289 167.946 444.979 168.007 444.704 168.16 443.184 169.005 442.9 169.163 442.681 169.402 441.754 170.413 441.626 170.552 441.527 170.713 439.521 173.96 438.058 175.606 433.562 178.763 433.345 178.916 433.176 179.119 432.803 179.566 432.717 179.669 432.646 179.782 431.148 182.162 430.923 182.258 430.509 182.258 430.148 182.258 429.81 182.385 429.513 182.496 428.845 182.745 428.485 183.361 428.078 184.058 427.85 184.449 427.812 184.901 427.645 186.911 427.618 187.241 427.698 187.562 428.234 189.704 428.283 189.898 428.369 190.078 429.304 192.041 429.349 192.135 429.403 192.224 430.42 193.888 430.532 194.071 430.68 194.226 438.888 202.825 440.563 206.547 440.644 207.058 440.721 207.543 440.584 207.6 440.862 208.434 441.042 209.569 441.216 209.496 441.531 210.44 441.627 210.725 441.801 210.97 442.602 212.091 442.825 212.403 443.148 212.611 445.696 214.248 447.933 216.485 448.107 216.659 448.318 216.786 449.116 217.265 450.887 218.948 454.77 228.071 454.843 228.243 454.946 228.398 457.439 232.138 457.549 232.302 457.657 232.41 450.404 243.994 450.353 244.075 450.31 244.161 449.699 245.384 449.565 245.653 449.516 245.95 449.347 246.965 449.335 247.038 449.328 247.112 449.235 248.132 449.07 249.119 448.578 249.963 448.419 250.07 448.193 250.429 446.603 252.958 445.754 254.308 446.882 255.436 448.097 256.651 448.539 257.093 449.154 257.205 455.275 258.318 455.618 258.38 455.961 258.323 457.468 258.072 457.71 258.032 457.935 257.935 460.556 256.799 461.913 257.013 463.024 257.886 464.402 259.54 466.625 263.406 467.551 265.719 467.823 267.805 467.729 269.775 467.555 271.692 467.506 271.758 467.346 271.97 467.248 272.216 465.931 275.508 465.862 275.679 465.826 275.859 465.789 276.044 464.063 278.315 463.525 278.874 463.546 279.709 463.608 282.192 463.625 282.862 463.665 282.912 462.601 285.483 462.469 285.815 462.326 286.172 462.326 286.557 462.326 289.319 462.326 289.41 462.334 289.5 462.425 290.501 462.434 290.608 462.456 290.713 462.624 291.552 462.667 291.769 462.757 291.971 463.081 292.702 463.326 293.597 463.326 294.504 460.207 298.264 459.717 298.693 459.111 298.739 458.775 298.5 458.235 297.959 458.031 297.755 457.778 297.617 457.028 297.208 456.58 296.964 456.071 296.964 455.329 296.964 454.723 296.964 454.219 297.3 453.694 297.65 453.154 297.812 452.208 297.475 446.612 293.229 441.333 287.266 441.219 287.137 441.085 287.029 440.291 286.394 440.013 286.172 439.675 286.059 438.719 285.74 438.569 285.69 438.414 285.664 436.958 285.422 434.555 283.433 433.958 279.762 435.231 276.281 436.835 275.479 439.317 274.239 437.355 272.276 436.103 271.024 435.968 270.889 435.811 270.783 432.908 268.816 431.472 267.078 431.84 266.13 433.085 262.915 429.676 263.43 429.58 263.444 423.195 261.825 422.953 261.763 422.704 261.763 418.646 261.763 418.411 261.763 418.182 261.818 414.2 262.766 413.993 262.815 413.8 262.907 411.733 263.896 411.46 264.027 411.237 264.233 407.828 267.392 407.287 267.894 406.366 268.661 406.19 268.807 404.624 269.503 402.247 269.96 400.167 269.873 398.766 269.214 395.416 266.438 394.585 265.524 394.069 264.233 392.783 260.575 392.753 260.491 392.716 260.41 392.459 259.845 392.009 258.856 390.935 258.695 389.732 258.515 389.212 258.437 388.72 258.625 384.368 260.292 382.659 260.549 376.119 259.127 375.756 259.048 375.389 259.104 373.143 259.45 372.803 259.503 372.5 259.666 370.203 260.903 369.547 261.003 368.879 260.391 368.38 259.037 368.626 258.241 369.181 257.546 369.432 257.233 369.542 256.847 369.87 255.699 369.903 255.581 369.922 255.461 370.054 254.625 370.626 251.005 367.272 252.483 367.213 252.509 367.034 252.588 366.873 252.701 365.977 253.327 365.928 253.362 365.881 253.399 363.104 255.602 362.103 256.047 360.735 256.655 360.933 258.138 361.015 258.753 361.053 259.039 361.171 259.302 361.467 259.967 361.558 260.173 361.693 260.354 362.498 261.428 362.552 261.5 362.612 261.566 363.398 262.439 363.566 262.626 363.775 262.765 364.012 262.923 364.234 263.478 364.423 267.922 364.246 269.34 363.932 270.282 360.861 274.165 360.432 274.26 333.294 273.071 333.042 273.06 332.796 273.112 323.073 275.154 322.765 275.218 322.492 275.375 321.531 275.924 320.925 276.27 320.666 276.917 319.767 279.162 319.264 279.33 312.929 278.006 312.726 277.964 312.52 277.964 303.029 277.964 298.032 276.907 297.827 276.864 297.618 276.864 296.003 276.864 295.042 276.864 294.441 277.615 294.401 277.665 291.246 280.357 290.901 280.651 290.716 281.065 290.049 282.565 289.967 282.751 289.923 282.949 289.059 286.888 288.547 288.339 286.643 290.416 284.36 291.294 279.087 292.142 276.678 291.428 276.533 291.385 276.383 291.365 273.736 291 273.38 290.951 273.029 291.029 270.829 291.518 270.181 291.662 269.748 292.165 265.381 297.234 263.562 299.345 266.044 300.352 266.999 301.013 267.215 301.575 266.621 302.585 265.097 303.271 260.341 303.363 260.063 303.369 259.797 303.45 257.846 304.044 257.414 304.175 257.08 304.48 255.033 306.349 254.861 306.506 254.729 306.699 253.34 308.736 251.828 310.338 249.651 311.343 247.98 311.17 248.176 308.035 248.264 306.62 246.958 306.068 245.342 305.385 244.679 305.104 243.989 305.311 241.486 306.062 241.183 306.153 240.922 306.334 233.382 311.554 231.381 312.163 219.402 311.97 218.185 311.254 217.49 309.865 217.662 309.523 217.75 309.346 217.884 309.078 217.934 308.782 218.095 307.812 218.123 307.648 218.123 307.482 218.123 306.601 218.123 306.129 217.912 305.707 217.681 305.245 217.554 304.992 217.362 304.783 211.691 298.632 211.425 298.343 211.068 298.176 205.333 295.494 205.154 295.18 208.156 293.178 208.398 293.017 208.584 292.793 208.817 292.513 210.163 290.896 208.48 289.634 206.568 288.2 206.475 288.131 206.375 288.072 205.432 287.522 205.02 287.282 204.543 287.254 203.255 287.178 202.907 287.157 202.572 287.255 201.108 287.687 200.97 287.727 200.839 287.787 196.251 289.89 193.114 290.249 192.655 290.111 192.3 289.579 192.011 288.929 191.86 288.59 191.598 288.328 191.38 288.11 191.078 287.808 190.68 287.656 175.352 281.798 175.007 281.666 174.638 281.666 172.233 281.666 171.612 281.666 171.1 282.018 169.895 282.846 169.617 283.037 169.416 283.309 167.095 286.466 165.882 287.437 164.895 287.649 160.133 286.902 158.506 286.088 157.73 285.623 157.384 285.103 157.247 284.075 157.511 283.347 157.869 282.87 158.176 282.46 158.249 281.953 158.282 281.722 158.343 281.292 158.221 280.876 157.959 279.984 157.375 277.994 155.408 278.65 155.265 278.697 153.412 279.068 153.241 279.102 153.078 279.166 152.092 279.55 150.628 280.12 150.835 281.677 150.909 282.232 150.954 282.563 151.103 282.862 152.01 284.677 152.698 286.399 152.536 287.697 151.46 293.984 151.215 295.411 152.495 296.089 153.38 296.557 154.172 297.507 154.771 298.792 155.223 300.779 155.223 304.33 154.183 308.111 152.564 311.445 150.715 313.94 149.974 314.459 147.759 315.168 147.475 315.259 147.23 315.429 146.219 316.129 145.887 316.359 145.671 316.699 145.109 317.582 145.049 317.676 145 317.775 142.467 322.939 140.38 325.69 138.218 327.664 133.077 330.865 130.676 331.788 124.349 332.61 123.385 332.735 122.352 332.849 122.312 332.854 123.179 331.276 123.346 331.176 124.597 330.785 125.066 330.638 125.414 330.291 125.652 330.052 126.027 329.677 126.167 329.165 126.35 328.495 126.445 328.146 126.413 327.786 126.336 326.943 126.322 326.79 126.284 326.641 126.074 325.8 128.133 319.719 128.228 319.438 128.238 319.141 128.313 316.804 128.352 315.574 127.271 314.984 125.916 314.245 125.308 313.913 124.624 314.03 120.017 314.812 119.499 314.9 119.091 315.231 118.959 315.338 118.841 315.471 117.734 316.735 117.6 316.842 116.933 316.397 116.429 316.061 115.824 316.061 115.736 316.061 115.318 316.061 114.934 316.229 113.64 316.795 113.411 316.895 113.214 317.048 112.683 317.461 112.616 317.461 111.887 316.793 111.417 315.463 111.328 313.765 111.322 313.653 111.304 313.542 111.06 312.075 110.967 311.519 110.598 311.093 110.172 310.602 111.773 309.358 112.307 308.943 112.479 308.289 112.8 307.07 112.986 306.362 112.672 305.7 111.863 304.001 111.795 303.859 111.706 303.73 106.328 295.891 105.373 294.499 103.84 295.207 103.446 295.389 103.167 295.517 102.94 295.724 102.086 296.5 101.723 296.645 101.223 296.338 101.108 295.764 101.028 295.363 101.028 295.068 101.028 294.652 100.862 294.271 100.021 292.336 99.87 291.988 99.601 291.719 98.284 290.402 97.194 288.977 97.112 288.18 96.737 284.542 94.008 286.716 92.588 286.953 89.348 286.675 86.197 285.537 85.542 285.301 84.882 285.522 84.715 285.578 84.508 285.647 84.321 285.759 83.104 286.49 82.732 286.532 80.981 285.583 80.644 284.369 80.815 282.49 80.84 282.21 80.787 281.935 80.467 280.257 80.359 279.689 79.965 279.266 78.922 278.149 78.602 277.807 78.163 277.642 77.007 277.208 76.559 277.04 76.083 277.092 74.698 277.246 74.343 277.286 74.024 277.445 72.562 278.176 72.206 278.354 71.945 278.655 69.579 281.385 69.373 281.624 69.25 281.914 67.949 284.981 66.354 287.373 63.603 288.662 56.359 288.758 50.317 287.117 47.11 286.247 47.842 289.488 48.147 290.839 48.311 291.738 48.385 292.14 48.61 292.48 51.839 297.369 52.156 297.85 52.68 298.088 56.68 299.906 59.726 302.604 59.635 309.341 58.57 311.737 54.147 317.315 53.951 317.561 53.841 317.855 53.326 319.229 53.267 319.386 53.235 319.551 52.664 322.506 52.344 323.463 48.422 328.151 48.31 328.285 48.223 328.436 44.766 334.44 44.167 335.481 44.803 336.498 45.395 337.445 45.575 337.734 45.84 337.946 46.18 338.218 47.213 339.182 46.983 340.045 46.753 340.62 46.457 341.362 46.754 342.103 47.158 343.114 47.252 343.35 47.402 343.555 48.352 344.851 49.217 347.014 49.151 347.809 48.105 350.161 47.933 350.549 47.933 350.973 47.933 351.672 47.933 352.849 48.962 353.421 50.212 354.115 51.834 355.105 54.42 358.8 54.863 360.304 55.364 362.304 55.372 362.336 55.381 362.368 55.509 362.816 54.792 366.937 54.553 367.236 52.64 369.723 50.734 372.2 53.781 372.893 54.247 372.999 54.576 373.073 54.912 373.036 60.914 372.37 62.71 372.639 84.357 379.47 84.308 379.961 84.088 382.16 85.933 382.16 85.933 382.515 85.503 383.975 85.443 384.18 85.427 384.393 85.14 388.318 84.789 389.99 84.72 390.317 84.761 390.649 84.91 391.843 84.97 392.322 85.242 392.722 86.509 394.581 86.702 394.864 86.979 395.067 89.712 397.071 89.969 397.259 90.271 397.359 102.705 401.438 107.053 405.597 107.227 405.764 107.436 405.884 109.841 407.272 110.022 407.377 110.219 407.441 115.169 409.059 115.472 409.158 115.791 409.158 115.882 409.158 116.607 409.158 116.807 409.703 118.608 409.163 118.624 409.158 118.75 409.158 118.738 409.124 121.319 408.35 121.5 408.296 121.666 408.209 126.585 405.655 126.981 405.45 127.252 405.095 128.28 403.751 128.553 403.394 128.648 402.955 128.886 401.843 128.915 401.706 128.925 401.567 129.014 400.311 129.46 398.349 131.05 395.756 132.298 395.493 134.229 395.997 134.51 396.07 134.801 396.06 136.689 395.997 138.622 395.933 138.622 393.998 138.622 391.912 140.551 388.237 143.363 385.05 146.563 383.222 146.836 383.176 147.156 383.222 147.484 383.441 148.63 384.587 150.976 388.435 151.159 388.736 151.434 388.956 155.221 391.986 156.094 393.017 156.596 395.442 155.194 400.959 155.112 401.279 155.138 401.609 155.391 404.811 155.46 405.678 156.14 406.219 159.479 408.873 159.921 409.224 160.481 409.292 164.902 409.833 165.3 409.882 165.686 409.774 177.504 406.453 179.432 406.277 180.929 406.693 189.717 411.909 190.469 413.035 190.224 413.524 187.82 415.484 187.561 415.694 187.385 415.977 187.261 416.176 186.688 417.096 187.146 418.079 187.369 418.557 187.864 419.616 189.029 419.705 189.552 419.745 189.942 419.775 190.314 419.656 192.307 419.019 193.307 419.376 196.446 421.13 196.824 421.341 197.255 421.377 198.042 421.443 198.437 421.476 198.815 421.356 200.678 420.763 201.546 420.763 202.253 421.188 204.183 422.75 204.406 422.931 204.672 423.042 205.515 423.393 205.965 423.58 206.45 423.539 207.288 423.469 207.527 423.449 207.754 423.374 211.453 422.141 213.345 421.87 217.212 422.248 218.995 422.843 219.419 422.984 219.862 422.932 220.963 422.802 221.718 422.712 222.224 422.144 223.506 420.702 223.636 420.555 223.736 420.386 226.322 415.98 226.58 415.722 227.44 415.391 227.925 415.204 228.258 414.803 228.436 414.589 228.747 414.217 228.852 413.743 228.969 413.215 229.028 412.946 229.013 412.672 228.926 411.104 228.994 410.63 231.109 405.535 231.181 405.362 231.219 405.179 232.476 399.188 233.35 397.351 240.846 389.855 242.747 388.678 250.861 386.039 258.891 384.685 262.885 385.614 266.304 387.277 266.666 387.453 267.068 387.475 270.028 387.639 270.906 387.688 271.535 387.074 275.239 383.461 275.402 383.302 275.525 383.111 276.263 381.963 277.021 381.412 277.79 381.284 279.55 381.703 280.011 381.966 280.566 382.522 281.005 383.107 281.24 383.421 281.577 383.623 282.253 384.028 282.565 384.215 282.923 384.28 283.665 384.415 284.023 384.48 284.381 384.415 285.162 384.273 285.443 384.222 285.698 384.094 286.686 383.6 290.017 382.649 292.572 382.375 298.412 383.619 298.618 383.663 298.829 383.663 298.969 383.663 299.702 383.745 299.924 383.77 300.145 383.745 300.835 383.668 302.654 383.834 306.211 386.478 306.445 386.653 306.72 386.753 308.512 387.405 309.053 387.602 309.616 387.481 310.496 387.292 310.973 387.189 311.349 386.878 313.428 385.162 314.501 384.42 319.499 383.693 320.039 383.614 320.465 383.271 324.281 380.199 329.131 377.58 334.226 375.754 342.355 375.371 342.794 375.35 343.184 375.147 354.964 369.014 356.115 368.784 356.37 368.734 358.095 368.395 362.152 367.597 364.029 368.268 364.029 371.447 364.029 371.447 364.029 371.822 361.757 374.792 355.037 378.619 354.429 378.965 354.17 379.615 353.257 381.899 352.943 382.683 353.286 383.454 353.879 384.786 354.35 386.672 355.025 390.523 355.064 390.746 355.151 390.954 355.907 392.75 355.924 392.789 355.942 392.827 356.629 394.285 356.629 395.232 356.346 395.498 353.462 398.223 357.368 398.921 359.595 399.319 360.626 399.874 361.82 401.068 362.282 401.914 362.42 402.168 362.624 402.371 363.169 402.916 363.475 403.223 363.88 403.375 365.127 403.843 365.428 403.956 365.75 403.969 370.302 404.151 371.669 405.086 372.629 408.404 372.629 410.339 372.377 411.348 371.953 412.365 371.859 412.592 371.822 412.836 371.551 414.64 371.529 414.788 371.529 414.937 371.529 417.039 371.529 417.285 371.589 417.524 371.792 418.336 371.926 418.874 372.318 419.265 372.767 419.714 372.877 419.825 373.004 419.917 373.925 420.587 374.156 420.755 374.424 420.852 376.702 421.672 376.879 421.735 377.064 421.765 379.262 422.117 380.76 423.091 381.644 426.45 381.679 426.585 381.733 426.713 383.92 431.942 384.093 432.355 384.425 432.655 388.232 436.09 388.486 436.32 388.803 436.451 393.341 438.342 393.548 438.429 393.77 438.467 396.559 438.948 399.949 439.513 403.424 441.86 403.515 441.922 403.613 441.973 405.297 442.859 405.631 443.035 406.007 443.077 407.492 443.242 407.746 443.27 408 443.233 414.65 442.269 419.952 442.809 420.248 442.839 421.144 443.29 421.197 443.317 423.133 444.793 423.312 444.929 423.517 445.023 424.317 445.387 424.712 445.566 425.146 445.566 425.927 445.566 426.331 445.566 426.703 445.409 428.282 444.744 428.836 444.682 429.612 444.915 432.487 445.873 438.958 450.155 439.395 450.445 439.919 450.482 467.477 452.457 477.042 454.702 484.333 459.174 484.478 459.263 484.635 459.326 486.906 460.235 487.206 460.355 487.527 460.374 492.129 460.656 492.403 460.673 492.672 460.615 504.447 458.086 509.339 458.932 509.576 458.973 509.816 458.956 516.778 458.479 517.145 458.617 518.597 460.24 518.767 460.429 518.979 460.571 519.539 460.944 520.007 461.255 520.569 461.278 525.248 461.461 539.419 466.086 539.615 466.15 539.819 466.173 541.379 466.346 541.655 466.376 541.928 466.331 543.487 466.071 545.181 466.16 552.773 468.01 553.006 468.067 553.246 468.067 554.742 468.067 554.91 468.067 555.075 468.039 562.525 466.781 565.821 467.331 576.439 472.396 576.749 472.544 577.091 472.58 578.693 472.749 578.947 472.776 579.199 472.738 581.073 472.457 581.112 472.451 581.151 472.444 583.098 472.072 584.948 472.161 586.668 472.704 588.281 473.421 594.719 478.994 595.019 479.254 595.396 479.38 596.254 479.666 596.562 479.768 596.886 479.768 596.988 479.768 607.988 480.168 622.171 480.564 622.421 480.571 622.665 480.516 626.311 479.697 626.936 479.853 627.243 480.262 627.532 480.983 627.658 481.299 627.882 481.555 628.326 482.063 628.613 482.392 629.011 482.571 630.775 483.365 632.235 484.094 632.519 484.235 632.832 484.282 634.481 484.529 634.869 484.587 635.251 484.494 638.529 483.695 639.754 485.281 640.935 488.007 641.074 488.328 641.314 488.583 642.315 489.646 643.274 490.665 644.56 490.113 645.616 489.66 646.418 489.316 646.711 488.494 647.051 487.541 647.635 486.08 647.666 486 647.691 485.918 648.638 482.797 650.091 480.574 650.859 480.254 653.215 480.072 653.383 480.059 653.547 480.018 654.497 479.78 654.833 479.696 655.12 479.504 656.085 478.861 656.268 478.74 656.419 478.582 658.594 476.317 658.654 476.293 659.143 476.354 660.715 476.721 661.375 475.18 661.885 473.992 663.121 472.49 663.265 472.315 663.366 472.113 663.857 471.13 664.329 470.591 665.613 470.013 665.816 470.155 666.481 470.62 667.281 470.491 669.845 470.076 670.116 470.033 670.364 469.918 672.713 468.834 672.965 468.718 673.176 468.537 673.587 468.185 673.954 467.871 674.137 467.424 674.934 465.478 676.215 462.618 676.251 462.538 676.28 462.454 677.166 459.895 678.053 457.136 679.393 454.362 681.18 451.681 682.153 451.292 683.364 451.443 683.629 451.476 683.894 451.438 685.791 451.167 685.821 451.167 686.417 451.167 686.916 450.841 689.227 449.33 690.609 448.516 691.537 448.68 692.779 450.463 694.418 452.815 696.06 450.464 699.449 445.611 705.811 443.49 708.303 443.846 713.575 444.599 713.358 444.346 718.819 444.961 722.547 445.353 722.704 445.37 722.862 445.361 737.983 444.565 744.372 444.178 747.608 445.436 749.549 447.1 749.944 447.494 750.102 447.653 750.292 447.772 752.575 449.21 753.219 449.616 753.97 449.491 756.932 448.997 757.457 448.909 757.869 448.572 759.673 447.096 760.052 446.786 760.244 446.337 760.435 445.894 760.862 445.039 760.987 444.788 761.038 444.513 761.306 443.084 761.377 442.8 762.331 440.72 763.876 439.582 766.067 438.968 768.296 438.968 769.679 439.352 770.248 439.51 770.811 439.334 771.992 438.965 772.267 438.879 772.506 438.72 772.942 438.429 773.03 438.37 773.111 438.302 773.499 437.979 773.843 437.693 774.032 437.288 774.544 436.191 774.732 435.789 774.732 435.345 774.732 433.441 774.896 432.333 775.322 432.602 775.674 432.825 776.086 432.888 784.874 434.24 785.087 434.273 785.302 434.259 788.234 434.076 788.554 434.056 788.852 433.937 792.203 432.597 796.675 430.75 799.671 430.478 802.697 431.12 810.542 435.09 810.82 435.231 811.129 435.28 813.475 435.655 815.517 436.01 816.532 436.791 816.755 437.062 820.766 441.932 820.293 435.64 820.244 434.988 820.214 434.595 820.038 434.242 819.44 433.047 818.966 432.021 818.713 431.473 818.199 431.157 816.179 429.914 815.027 426.104 814.933 423.267 814.933 423.267 815.031 420.705 815.033 420.667 815.033 420.628 815.033 420.246 815.898 415.054 815.939 414.809 815.919 414.561 815.87 413.967 815.79 413.003 815.503 412.812 815.946 412.368 816.408 412.104 819.928 411.242 819.949 411.682 821.359 410.892 821.915 410.756 821.906 410.585 822.765 410.104 824.315 409.235 824.348 409.216 824.381 409.196 829.184 406.254 830.832 405.56 831.193 405.408 831.47 405.131 832.776 403.826 832.886 403.715 832.978 403.589 837.195 397.802 838.486 396.42 841.427 394.332 843.668 393.305 843.812 393.239 843.945 393.151 844.597 392.716 844.96 392.473 845.19 392.101 845.727 391.229 846.024 390.747 846.024 390.18 846.024 389.513 846.024 389.414 846.014 389.314 845.937 388.547 846.105 387.931 846.888 387.278 847.655 387.087 848.078 386.981 848.418 386.709 848.96 386.276 849.536 385.815 849.676 385.091 850.076 383.008 850.852 381.597 851.882 381.476 855.963 382.311 856.283 382.376 856.607 382.336 861.223 381.771 863.322 382.023 865.078 383.428 865.121 383.462 865.166 383.494 865.655 383.843 866.029 384.111 866.483 384.187 866.69 384.222 867.022 384.279 867.355 384.223 867.474 384.203 868.105 384.097 868.557 383.645 868.615 383.586 870.22 383.265 873.111 383.265 873.335 383.265 873.554 383.215 874.636 382.969 876.654 382.511 876.126 380.509 875.962 379.887 875.816 379.333 875.399 378.941 874.061 377.682 873.754 377.393 873.356 377.252 871.96 376.759 871.75 376.685 871.528 376.659 870.607 376.551 875.2 374.731 875.381 374.659 875.545 374.554 876.594 373.88 877.13 373.535 877.368 372.943 877.493 372.632 877.809 371.845 877.464 371.071 877.381 370.885 877.089 370.231 876.449 369.911 875.433 369.403 875.306 369.34 875.171 369.295 873.282 368.665 872.683 367.133 873.264 365.314 875.309 364.006 875.613 363.811 875.83 363.521 878.312 360.213 878.533 359.918 878.635 359.563 879.051 358.104 879.317 357.176 878.756 356.392 877.798 355.051 877.275 354.318 876.379 354.224 875.206 354.101 874.647 354.042 874.14 354.284 870.888 355.828 870.223 355.412 870.223 355.128 871.109 352.47 871.233 352.096 871.207 351.704 871.139 350.688 871.101 350.111 870.76 349.644 870.393 349.14 869.866 348.415 868.973 348.327 868.468 348.277 868.37 348.267 868.272 348.267 867.792 348.267 867.66 348.154 867.353 345.925 868.899 342.659 869.15 342.129 869.075 341.548 868.801 339.419 871.782 337.808 872.011 337.684 872.201 337.505 873.627 336.163 873.984 335.827 874.145 335.364 874.78 333.54 874.95 333.052 874.862 332.542 874.429 330.031 874.383 329.762 874.266 329.515 870.768 322.13 870.681 321.946 870.558 321.783 870.506 321.714 870.131 321.216 869.539 321.019 869.341 320.953 869.185 320.86 869.121 320.731 869.121 320.348 869.209 320.277 869.587 320.026 869.967 319.773 870.2 319.379 870.229 319.33 870.532 318.818 870.506 318.223 870.232 312.102 871.11 310.492 871.74 310.282 872.766 311.052 873.603 312.427 874.53 313.95 876.149 313.203 888.035 307.724 888.244 307.628 888.425 307.487 892.834 304.058 894.1 303.09 894.956 302.436 894.881 301.361 894.448 295.211 895.319 294.206 898.266 293.027 898.919 292.766 899.265 292.154 900.272 290.372 900.511 289.949 900.529 289.462 900.612 287.221 900.628 286.79 900.465 286.39 899.723 284.576 899.57 284.204 899.286 283.919 897.829 282.462 897.628 282.261 897.378 282.124 896.146 281.446 896.654 278.903 896.749 278.428 896.616 277.962 895.733 274.873 895.631 274.518 895.409 274.222 893.571 271.772 893.268 271.368 892.81 271.156 890.713 270.188 890.166 269.936 889.571 270.028 886.228 270.542 884.403 269.846 878.904 267.571 878.302 267.322 877.668 267.476 875.003 268.122 868.657 265.469 867.612 264.872 867.878 264.527 867.948 264.435 868.008 264.336 869.716 261.489 869.726 261.479 869.768 261.534 869.856 261.621 870.103 261.868 871.229 262.995 872.579 262.149 872.884 261.958 873.015 261.876 873.133 261.775 874.488 260.6 878.956 258.223 879.22 258.083 879.431 257.872 880.201 257.102 880.45 256.852 880.599 256.533 881.112 255.434 881.337 254.952 881.293 254.422 881.135 252.528 881.592 251.416 885.368 249.7 889.963 250.344 899.234 253.954 900.387 254.8 900.866 256.079 901.332 257.758 901.376 257.914 901.444 258.061 902.009 259.288 902.023 259.318 902.038 259.348 902.252 259.774 902.397 260.062 902.625 260.291 903.727 261.393 903.893 261.559 904.093 261.682 905.125 262.317 905.461 262.523 905.85 262.587 912.14 263.62 912.571 263.69 912.991 263.576 913.625 263.403 914.137 263.263 914.513 262.887 915.544 261.857 915.707 261.694 915.828 261.498 917.978 258.039 918.364 257.726 919.38 260.475 919.779 261.555 920.914 261.753 924.741 262.419 925.153 262.49 925.559 262.391 934.707 260.153 943.192 258.984 943.518 258.939 943.812 258.792 944.491 258.453 946.901 257.249 945.093 255.334 944.215 254.105 943.714 252.685 943.522 247.129 943.516 246.945 943.476 246.764 942.712 243.328 942.544 240.728 943.521 239.642 944.605 238.437 943.651 237.127 943.419 236.808 942.473 233.968 942.264 233.342 941.723 232.963 941.061 232.499 940.927 232.404 940.779 232.333 938.538 231.257 938.201 230.872 938.152 229.953 938.966 229.519 942.786 228.7 943.274 228.595 943.655 228.274 945.255 226.926 945.473 226.742 945.631 226.505 946.67 224.946 946.833 224.701 946.919 224.42 947.556 222.328 947.597 222.193 947.619 222.054 948.007 219.569 948.268 217.894 946.664 217.363 946.555 217.291 946.555 217.288 946.556 217.286 947.365 216.771 947.551 216.653 947.708 216.496 948.133 216.068 948.26 215.469 948.475 214.396 948.909 213.527 949.12 213.105 949.12 212.633 949.12 212.139 949.12 211.4 948.638 210.838 948.332 210.481 954.118 205.554 955.833 204.094"/>
    <g id="features">
        <path id="la" d="M942.207,185.578l.856-.856-1.324-2.427-.813-.542-1.684-.266c-.124-.02-.243-.062-.351-.126l-1.7-1c-.087-.051-.165-.115-.233-.189l-3-3.3c-.103-.114-.179-.25-.222-.398l-.8-2.8c-.026-.089-.038-.182-.038-.275v-3.807l-.573-3.058-1.885-6.35c-.027-.092-.041-.188-.041-.285v-.9l.097-1.962-.06-.479-.09-.135-.498-.187c-.121-.045-.232-.114-.327-.202l-1.182-1.091-.954-.434c-.049-.022-.096-.048-.141-.078l-.9-.6c-.168-.112-.299-.273-.374-.461l-.4-1c-.033-.084-.055-.171-.065-.261l-.085-.765-.35-.874-.339-.761-.115-.153-.332-.199c-.369-.221-.555-.654-.462-1.074l.2-.9c.009-.042.022-.084.036-.125l.4-1.1.175-.467-.315-.881-1.012-1.181-1.164-.895-.448-.256-2.179-.182c-.169-.014-.331-.071-.472-.165l-.9-.6c-.177-.118-.312-.29-.385-.49l-.4-1.1c-.046-.125-.066-.259-.059-.392l.1-2c.003-.065.013-.129.029-.193l.2-.8c.024-.096.062-.187.113-.272l.229-.382.244-.893,1.091-9.524c.003-.025.007-.05.011-.075l.5-2.6c.017-.09.047-.177.088-.258l1.2-2.4c.021-.042.044-.082.071-.12l2.997-4.351.556-2.224c.02-.078.049-.154.086-.225l.9-1.7c.064-.121.152-.227.259-.313l1.937-1.55,1.705-1.885.223-.669.542-2.079-1.037-7.917-2.207-2.632c-.118-.061-.224-.146-.311-.252l-1.4-1.7c-.117-.142-.192-.313-.218-.494l-1.667-11.672-2.303-3.412-1.312-.138-4.381,1.619c-.111.041-.228.062-.347.062h-.322l-1.822.288c-.052.008-.104.012-.156.012-.129,0-.258-.025-.379-.074l-2.2-.9c-.062-.025-.121-.057-.176-.094l-3.3-2.2-.887-.531-1.525-.593-4.39.191h-.143c-.073,0-.146-.007-.217-.023l-.847-.188-.846-.094c-.174-.019-.34-.084-.481-.187l-1.5-1.1c-.149-.109-.264-.257-.334-.428l-.9-2.2c-.029-.071-.05-.145-.062-.221l-.379-2.367-.778-1.712-.127-.051c-.018-.007-.036-.015-.054-.024l-1.539-.724-2.122-.185c-.066-.006-.13-.018-.193-.036l-4.8-1.4-2.311-.703c-.09-.027-.175-.067-.254-.118l-1.874-1.218-.556-.159c-.059-.017-.117-.039-.172-.067l-.102-.051-.632.115-.072.036c-.025.012-.05.024-.076.034l-2,.8c-.092.037-.189.06-.288.068l-1.2.1c-.028.002-.055.003-.083.003-.055,0-.11-.005-.164-.014l-1.8-.3-1.22-.229-1.569,1.046-5.769,9.904c-.043.201-.147.386-.3.528l-1.3,1.2c-.108.1-.237.174-.377.219l-1.9.6c-.098.031-.2.046-.301.046-.092,0-.185-.013-.275-.038l-.7-.2c-.13-.037-.251-.1-.356-.185l-1.25-1.016-1.807.301-.066.033c-.139.07-.293.106-.447.106-.051,0-.103-.004-.154-.012l-4.5-.7-6.694-.999-5.281-.782-.981.089-9.035.503-.956.097c-.033.003-.066.005-.099.005-.141,0-.28-.03-.409-.088l-2.9-1.3-.21-.104-1.337-.573-.26-.087c-.036-.012-.072-.026-.107-.042l-1.5-.7c-.058-.027-.113-.059-.164-.096l-12-8.7c-.228-.165-.376-.419-.407-.699l-.1-.9c-.004-.037-.006-.074-.006-.11v-.886l-.007-.007-1.451.363c-.08.02-.162.03-.243.03-.212,0-.421-.067-.594-.196-.24-.178-.388-.453-.404-.752l-.078-1.483-.336-.299-.794-.061-1.336.356c-.085.023-.172.034-.258.034-.322,0-.631-.156-.821-.429-.241-.345-.239-.804.004-1.148l.205-.29-.494-.22c-.072-.032-.141-.073-.204-.121l-1.049-.807-1.984-.086c-.141-.006-.278-.042-.404-.105l-.8-.4c-.156-.078-.288-.195-.385-.34l-.6-.9c-.074-.111-.125-.236-.15-.368l-.338-1.773-.25-.214h-.73l-2.381.096-.729.146-.135.09c-.034.023-.07.044-.107.062l-.2.1-.6.3-3.178,1.689c-.072.038-.148.067-.227.087l-.372.093-1.573.491c-.097.03-.197.046-.298.046h-2.7c-.073,0-.146-.008-.217-.024l-2.7-.6c-.098-.022-.191-.058-.278-.107l-9.233-5.262-7.028-2.672-2.722-1.109c-.105-.043-.202-.103-.287-.179l-.9-.8-.794-.695-4.128-3.538-2.339-1.403-2.502-.866-.889-.296-1.8-.6c-.045-.015-.089-.033-.131-.054l-5.726-2.863-2.377-.732h-5.45c-.234,0-.46-.082-.64-.232l-.6-.5c-.106-.088-.193-.198-.254-.321l-.328-.656c-.013-.013-.025-.027-.037-.041l-.26-.303-.018.026-.27,2.246c-.012.099-.039.196-.079.287l-.4.9c-.023.052-.05.102-.082.149l-.4.6c-.022.033-.047.065-.073.096l-1.2,1.4c-.06.07-.128.13-.205.181l-.6.4c-.089.059-.187.104-.29.132l-9.1,2.5c-.086.024-.175.036-.265.036-.014,0-.028,0-.042,0l-2.4-.1c-.31-.013-.596-.169-.775-.422s-.23-.575-.139-.871l.756-2.456v-2.151l-.471-2.353-.585-1.902-6.884-.543h-.56c-.03,0-.06-.001-.091-.004l-1.1-.1c-.081-.007-.161-.025-.239-.052l-6.359-2.216-.348.058c-.023.004-.046.007-.07.009l-1.641.156-.054.188v.61l.095.95c.017.166-.009.334-.073.487l-1.525,3.623-.095,4.953.495,5.445c.003.03.004.06.004.091v5c0,.072-.008.144-.023.214l-2.5,11.4c-.011.051-.026.101-.046.15l-.862,2.203-.155.933.153.917.553,1.289.467,1.12.146.219c.183.274.219.62.096.926l-1.2,3c-.01.026-.022.051-.034.076l-.1.2c-.156.312-.464.521-.811.549l-2.4.2c-.028.002-.055.003-.083.003-.128,0-.255-.025-.374-.073l-6.091-2.456-5.81-.871h-.063l-.396.132-.692.315-.517,1.257-.481,2.118c-.022.096-.058.189-.107.275l-1.112,1.947-.57,3.326c-.039.227-.155.434-.329.586l-4.574,3.977-.075.075c-.016.016-.032.031-.049.046l-1.48,1.295-2.001,3.365-.377,4.529v5.558c0,.043-.003.086-.008.129l-.6,4.6c-.024.181-.097.353-.211.495l-.057.071,1.666,1.59,7.23,1.639c.061.014.121.033.179.059l3.9,1.7c.022.01.044.02.066.032l3.644,1.918,4.225.576c.072.01.143.027.211.052l1.9.7c.105.039.203.095.29.166l1.7,1.4c.088.073.163.16.222.257l1.2,2c.074.123.12.261.136.404l.2,1.8c.009.078.008.157-.002.234l-.1.8c-.034.269-.175.513-.392.676l-.4.3c-.174.13-.384.2-.6.2-.025,0-.049,0-.074-.003l-2.404-.178-.022.152v1.529c0,.06-.005.12-.016.179l-.184,1.011v1.28l.421,1.599,2.405,3.385,2.69.897c.373.124.638.455.678.846l.556,5.377,1.965,1.538c.145.113.255.264.32.436l.6,1.6c.024.063.041.128.051.194l1.4,8.8c.011.071.015.143.011.215l-.898,15.471v3.971c0,.423-.266.8-.664.942-.11.039-.224.058-.336.058-.294,0-.58-.13-.774-.367l-1.673-2.045-1.238-.661-1.04-.32-5.534.281-1.862.846-1.515,1.515-1.753,2.434c-.044.062-.096.118-.153.168l-1.6,1.4c-.122.107-.268.182-.425.22l-17.1,4.1c-.077.018-.155.028-.233.028-.091,0-.182-.012-.27-.037l-2.5-.7c-.157-.044-.301-.126-.419-.238l-2-1.9c-.048-.046-.092-.096-.13-.15l-3.276-4.666-1.381-1.657-1.568-1.045-1.828-.609-4.782-.09-1.316,1.069c-.057.046-.118.086-.183.118l-.685.343-.679.594-.262.262-.127.255-.136.272-.167.919-.696,7.059c-.003.029-.007.058-.012.086l-.3,1.6c-.012.064-.03.127-.054.187l-.583,1.458-.227.758.566,4.714.142.497.232.387c.027.046.051.094.071.143l.2.5c.047.118.072.244.072.371v.7c0,.19-.054.376-.156.537l-.7,1.1c-.027.043-.058.083-.091.122l-1.241,1.418-.041.166-.07.281v.777c0,.055-.005.11-.014.164l-.1.6c-.018.106-.053.209-.103.305l-1.7,3.2c-.061.115-.143.216-.243.299l-.6.5-.515.413c-.119.095-.259.162-.408.195l-.023.005,1.599,1.889,19.038,14.477,6.035,3.017,3.712,1.075c.077.022.152.054.222.094l2.6,1.5c.044.025.086.054.125.085l2.5,2c.058.046.11.099.156.156l1.2,1.5c.014.018.028.036.041.055l.9,1.3c.121.175.184.385.177.599l-.1,3.4c-.006.195-.068.384-.18.544l-1.992,2.846-1.53,6.312-.097,3.993c0,.022-.002.044-.004.066l-.2,2.2c-.011.121-.044.239-.097.348l-1.751,3.585,3.303,2.674,12.041-.097s.005,0,.008,0c.174,0,.345.045.496.132l.7.4c.09.051.171.116.241.193l1.055,1.15,3.321,2.768,2.031.244,2.668-.623,2.76-1.713c.041-.025.083-.047.127-.067l4.8-2.1c.051-.022.104-.04.158-.054l2.4-.6c.061-.015.124-.025.187-.028l1.8-.1c.018-.001.037-.002.055-.002.066,0,.132.007.196.019l1.903.381h.952l3.419-1.045,6.064-2.386c.05-.02.101-.035.154-.047l4.433-.964,1.003-.617.936-1.192.659-1.224c.027-.051.059-.099.094-.144l3.3-4.2c.191-.243.482-.382.786-.382.054,0,.107.004.161.013l4.758.777.599-.075,7.243-1.786c.078-.019.159-.029.239-.029.028,0,.055.001.083.003l2.4.2c.105.009.208.034.305.075l1.9.8c.11.046.21.112.297.193l4.889,4.595,9.763,4.733c.051.025.1.054.147.087l4.377,3.14,7.727.676c.247.022.478.135.647.317l2.5,2.7c.031.033.059.069.085.106l1.288,1.84,1.497.969,2.145,1.119,1.064.246h.987l.903-.181c.065-.013.13-.019.196-.019s.131.006.196.019l1.5.3c.174.035.336.115.468.233l.9.8c.119.106.212.239.269.388l.5,1.3c.028.072.047.147.057.223l.693,5.046.471,1.885.77,1.968.566.411.717-.055,3.81-2.096c.089-.049.186-.084.286-.104l1.5-.3c.065-.013.131-.019.196-.019.196,0,.389.058.555.168l.9.6c.076.051.145.112.205.181l.6.7c.041.048.078.1.109.155l.8,1.4c.053.093.091.195.112.3l.1.5.2,1c.007.037.013.075.016.113l.1,1.2c.007.078.004.157-.008.235l-.2,1.3c-.007.044-.016.087-.029.13l-.477,1.622-.065.523.139.51.209.119.645.143h2.79c.222,0,.437.074.612.209l3.1,2.4c.111.086.203.195.269.318l1.5,2.8c.024.046.045.093.062.142l1.206,3.446,9.221,1.6c.109.019.215.056.312.11l2.9,1.6c.082.045.158.102.224.168l.969.969.536.238h.526l.978-.326,2.737-1.368c.14-.07.294-.106.447-.106.126,0,.252.024.371.072l.5.2c.16.064.302.169.409.304l.4.5c.053.067.098.14.133.219l.4.9c.026.058.046.119.061.181l.3,1.3c.011.047.018.094.022.142l.093,1.119.167.669.662,1.797,1.184,2.369,3.678,3.139,6.434.186,2.744-.549,2.791-1.489,1.769-1.396,5.944-6.423.237-1.423v-1.977l-.562-1.965c-.011-.038-.02-.077-.026-.117l-.4-2.5c-.014-.086-.016-.173-.007-.26l.4-3.9c.006-.063.019-.125.037-.185l.6-2c.022-.073.052-.143.09-.209l1.2-2.1.701-1.103,3.712-7.145-3.147-4.856-4.057-4.75c-.039-.046-.074-.095-.104-.147l-1.8-3.1c-.023-.04-.043-.081-.061-.123l-.9-2.2c-.049-.12-.074-.249-.074-.379v-10.8c0-.505.377-.931.879-.993l3.8-.463,1.118-.958,1.35-1.53.594-1.358.364-1.819.297-6.823c.006-.144.044-.285.11-.414l1.8-3.5c.044-.085.099-.163.164-.231l1.9-2c.033-.034.068-.067.105-.096l5.7-4.5c.095-.075.204-.133.32-.169l3.5-1.1c.081-.026.166-.041.251-.045l4.1-.2c.016,0,.032-.001.049-.001.104,0,.207.016.306.048l8.016,2.577,4.178-2.045,2.177-2.272c.044-.046.092-.088.145-.125l4.043-2.86,1.533-1.443,1.086-1.991,1.573-4.425c.062-.175.172-.33.318-.446l3-2.4c.059-.047.124-.088.192-.121l2.5-1.2c.071-.034.146-.06.223-.076l1.4-.3c.069-.015.139-.022.21-.022.047,0,.094.003.141.01l1.108.158,4.64-2.134,4.818-3.54c.05-.037.103-.068.158-.095l2.7-1.3c.099-.048.205-.079.315-.092l2.5-.3c.04-.005.079-.007.119-.007.155,0,.308.036.447.106l1.8.9c.055.027.107.06.156.097l3.635,2.751,1.312.69.701-.45.667-1.186.076-1.134-.271-1.263c-.009-.042-.015-.084-.019-.126l-.1-1.2c-.006-.077-.004-.154.007-.23l.4-2.7c.031-.212.13-.409.282-.56l1.6-1.6c.087-.087.189-.157.301-.207l.9-.4c.129-.057.268-.086.406-.086.153,0,.307.035.447.106l1.2.6c.031.015.061.032.09.051l.948.604.973.209.672-.201.577-.289ZM886.59,178.313c-.191.247-.485.387-.79.387-.063,0-.126-.006-.189-.018l-8.18-1.577-5.361.287-1.37.403-.738.664-.283.425-.365.822c-.039.089-.091.171-.154.245l-.6.7c-.06.07-.128.13-.205.181l-1.2.8c-.164.109-.357.168-.555.168h-2.7c-.089,0-.177-.012-.263-.035l-1.1-.3c-.052-.014-.102-.032-.151-.054l-2.2-1c-.053-.024-.104-.053-.153-.086l-1.344-.924h-2.696l-3.109.583c-.061.011-.122.017-.184.017-.027,0-.055-.001-.082-.003l-7.3-.6c-.146-.012-.287-.056-.414-.128l-1.4-.8c-.192-.11-.342-.28-.427-.484l-.437-1.049-.592-.677c-.041-.047-.078-.098-.109-.151l-1-1.7c-.124-.211-.166-.459-.119-.699l.955-4.87-.221-.812-.41-.983-.786-.873c-.039-.043-.074-.09-.105-.139l-1-1.6c-.099-.159-.152-.343-.152-.53v-1.6c0-.093.013-.185.038-.275l.4-1.4c.017-.059.039-.117.067-.172l.3-.6c.019-.037.039-.073.062-.108l.8-1.2c.037-.055.078-.106.125-.152l.9-.9c.192-.192.448-.293.707-.293.147,0,.296.033.435.099l2.634,1.272,1.24-.155,1.263-.337.799-.559,1.246-1.156.527-.878c.078-.13.185-.241.312-.324l8-5.2c.039-.026.081-.048.123-.068l4.3-2c.044-.02.088-.037.134-.051l1.814-.544.599-.479.312-1.093c.123-.432.518-.725.961-.725.027,0,.054.001.081.003l3.7.3c.279.023.536.162.709.383l.7.9c.031.039.058.081.083.124l2.661,4.74.415-.675c.149-.242.393-.409.673-.46l2.2-.4c.06-.011.119-.016.179-.016.235,0,.464.083.646.237l1.3,1.1c.125.106.222.24.283.392l.531,1.327,1.173,1.264c.119.128.202.285.242.456l.3,1.3.44,2.025.692.692c.09.09.162.196.212.313l.288.673.187.374c.094.189.127.403.092.612l-.1.6c-.004.024-.009.048-.015.072l-.886,3.643-.566,4.624.713,2.228,2.572,5.44c.161.341.117.743-.114,1.04Z"/>
        <path id="ua" d="M691.871,160.918l1.5.8c.117.062.22.147.303.249l.026.032v-1.199c0-.019,0-.039.002-.058l.894-15.392-1.367-8.593-.466-1.242-2.079-1.627c-.214-.167-.35-.414-.378-.685l-.534-5.158-2.388-.796c-.201-.067-.376-.196-.499-.37l-2.7-3.8c-.07-.098-.121-.208-.152-.325l-.5-1.9c-.022-.083-.033-.169-.033-.255v-1.5c0-.06.005-.12.016-.179l.184-1.011v-1.51c0-.047.003-.095.01-.141l.1-.7c.021-.148.075-.289.158-.413l.2-.3c.147-.221.376-.374.636-.426l.5-.1c.065-.013.13-.019.196-.019.025,0,.049,0,.074.003l2.111.156.008-.066-.163-1.466-.999-1.665-1.436-1.183-1.638-.604-4.292-.585c-.116-.016-.227-.052-.331-.106l-3.768-1.983-3.78-1.648-7.408-1.679c-.176-.04-.339-.127-.469-.252l-1.875-1.789-1.047.992c-.186.176-.433.274-.688.274-.018,0-.035,0-.053-.001l-1.9-.1c-.278-.015-.537-.145-.716-.358l-1-1.2c-.065-.078-.118-.166-.156-.259l-.65-1.578-.972-1.271-.07-.01-1.683.531c-.098.031-.199.046-.301.046-.037,0-.074-.002-.11-.006l-.9-.1c-.337-.037-.632-.243-.784-.547l-.4-.8c-.069-.139-.106-.292-.106-.447v-1.155l-.06-.656-.197-.173-1.158.154-3.06,1.435-.377.189c-.073.037-.15.064-.23.082l-1.8.4c-.072.016-.144.024-.217.024-.093,0-.185-.013-.275-.039l-1.4-.4c-.068-.019-.133-.046-.195-.079l-4.7-2.5c-.107-.057-.202-.132-.282-.223l-2.312-2.631-.568.393-.137.103-2.597,6.83c-.05.132-.128.252-.228.352l-1,1-.9.9c-.087.087-.189.157-.301.207l-1.8.8-2.812,1.205-1.275.589c-.033.015-.068.029-.103.041l-.133.044-2.262,1.791c-.066.052-.138.096-.215.13l-.9.4c-.102.045-.212.073-.323.083l-1.2.1c-.028.002-.055.003-.083.003h-.1c-.107,0-.214-.017-.316-.051l-.3-.1-1.42-.507c-.038-.014-.075-.029-.111-.047l-.302-.151-.293-.073c-.029-.007-.058-.016-.086-.026l-9.094-3.163-16.789-1.888c-.103-.012-.204-.039-.299-.082l-4-1.8c-.077-.034-.149-.079-.214-.131l-1-.8c-.056-.045-.108-.096-.153-.153l-2.1-2.6c-.045-.056-.084-.117-.117-.181l-.5-1c-.034-.068-.06-.14-.078-.214l-.6-2.5c-.061-.255-.02-.523.115-.748l.3-.5c.112-.187.283-.333.486-.414l.257-.103.609-1.294c.07-.148.174-.276.305-.374l.4-.3c.173-.13.384-.2.6-.2h.1c.046,0,.093.003.138.01l.035-.174-.144-.529-.303-.217-.677-.254c-.134-.05-.255-.128-.356-.229l-.6-.6c-.07-.07-.129-.149-.175-.237l-.777-1.457-1.943-2.915-.841-1.01-2.628-1.408-.375-.187c-.017-.008-.033-.017-.049-.026l-2.076-1.186-.375-.188c-.015-.008-.03-.016-.045-.024l-2.3-1.3c-.055-.031-.106-.067-.154-.107l-2.6-2.2-2.095-1.618-2.125-1.109-3.883-1.052-3.086,6.614-.066.399c.118.087.218.202.29.341l1.229,2.363.366.366,1.34.625c.301.14.512.421.565.749s-.061.66-.304.887l-1.341,1.257-.236,1.729.588,5.681c.005.045.006.091.005.136l-.1,3c-.001.04-.005.079-.011.119l-.4,2.6c-.007.043-.016.086-.028.128l-.7,2.4c-.013.043-.028.085-.046.126l-2,4.5c-.031.069-.069.134-.114.194l-.6.8c-.028.038-.059.074-.093.107l-1,1c-.087.087-.189.157-.301.207l-.9.4c-.079.035-.163.06-.248.074l-2.466.395-.642,1.349-1.075,4.693c-.081.355-.349.637-.698.738-.091.026-.184.039-.276.039-.262,0-.517-.103-.707-.293l-.173-.173-4.637-2.125c-.166-.076-.308-.196-.411-.348l-1.813-2.672-1.706-1.347-1.926-1.009-11.993-3.413-3.689.553-3.62,1.299-.802.729-.423.916v.168l.314.706c.036.08.061.165.074.252l.467,2.99.984,1.521c.082.126.134.27.153.419l.2,1.6c.012.096.01.193-.006.289l-.3,1.8c-.015.091-.043.178-.082.261l-1.583,3.363-.543,1.448-.177,1.502.197,5.022c.002.05,0,.1-.005.15l-.2,1.8c-.009.085-.03.169-.061.249l-.5,1.3c-.026.069-.06.134-.101.196l-.496.744-.159.718-.693,3.764c-.022.12-.066.234-.129.338l-1.7,2.8c-.052.085-.116.163-.191.229l-11.6,10.3c-.056.049-.117.093-.182.128l-4,2.2c-.096.053-.2.089-.308.109l-16.301,2.882-12.185,4.815-1.744,1.285-4.354,4.156c-.06.057-.127.107-.199.148l-3.821,2.155-1.271,1.059c.003.193-.05.385-.156.551-.147.231-.382.392-.651.445l-6.445,1.27-1.52.845-.927,1.011-2.05,3.319c-.03.049-.065.096-.103.139l-1.6,1.8c-.051.058-.109.11-.173.154l-4.591,3.224-.373.447-1.664,2.644c-.108.172-.266.306-.452.386l-.7.3c-.125.053-.258.081-.394.081h-.619l-.297.111-.407.697-.167,2.01.536,2.142.935,1.963,1.017,1.664,8.326,8.722c.078.082.142.177.189.28l1.8,4c.036.081.062.167.076.254l.102.644,1.227-.511c.041-.017.083-.031.126-.043l5.425-1.453,1.074-.767.242-.424.869-2.606c.057-.172.16-.325.298-.443l1.4-1.2c.102-.087.22-.153.348-.194l2.2-.7c.079-.025.161-.04.244-.045l5.1-.3c.02-.001.039-.002.059-.002.055,0,.11.005.164.014l3,.5c.12.02.236.062.341.124l2.9,1.7c.082.048.156.107.221.176l3.422,3.618.454.303.483.242,4.543,1.547,4.279.571,6.614-.767,7.952-3.731c.135-.063.28-.095.425-.095.207,0,.412.064.586.189l3.534,2.552,1.128.564c.049.025.096.053.141.086l1.1.8c.067.049.127.105.18.169l1,1.2c.166.199.248.454.229.711l-.1,1.4c-.015.212-.097.413-.234.575l-1.1,1.3c-.138.164-.326.278-.534.328l-1.7.4c-.075.018-.152.027-.229.027-.02,0-.039,0-.059-.002l-1.7-.1c-.081-.005-.162-.019-.24-.044l-2.932-.916-.343.086-.324.231-.257.579-.364,1.366-.286,2-.293,4.886.194,2.227.289,2.209,1.481,6.416.439,1.404.901,1.228,1.6,1.095,21.312,4.758c.167.037.321.116.448.23l2.8,2.5c.394.352.446.951.119,1.366l-1.5,1.9c-.156.197-.38.329-.629.368l-1.9.3c-.031.005-.061.008-.092.01l-4.402.281-.277.208-.032.129.431,1.006.294.441.428.428.937.511,2.331,1.026,2.859.381c.312.042.585.227.739.501l.9,1.6c.031.055.057.114.077.174l.5,1.5c.067.201.068.418.004.62l-4.167,13.082,1.782,3.119c.053.093.091.195.112.3l.3,1.5c.024.119.026.241.006.36l-.3,1.8c-.016.098-.047.194-.092.283l-.7,1.4c-.009.019-.019.037-.03.055l-1.742,3-.612,2.01.174,2.352.864,2.074,3.988,4.083,6.545,4.235,10.557,2.092.782-.427c.07-.038.144-.068.221-.088l1.03-.275.108-.253c.06-.139.15-.263.264-.362l2.973-2.577.36-.36.281-.562.435-1.653-.09-2.068-.561-2.71-1.03-2.246-.825-1.374-1.439-1.631c-.016-.018-.03-.036-.045-.054l-1.3-1.7c-.03-.039-.056-.079-.08-.122l-1-1.8c-.049-.087-.084-.182-.104-.28l-.4-1.9c-.01-.049-.017-.098-.02-.147l-.1-1.7c-.002-.039-.002-.077,0-.116l.2-3.5c.001-.026.004-.052.008-.078l.3-2.2c.006-.045.016-.09.028-.135l.7-2.5c.033-.119.089-.231.163-.33l1.5-2c.051-.067.109-.128.175-.181l2-1.6c.054-.043.113-.081.175-.112l12.7-6.4c.094-.047.194-.079.298-.095l1.3-.2c.05-.008.101-.012.152-.012.03,0,.06.001.091.004l1.1.1c.155.014.305.064.437.146l2.816,1.748,1.43.536,3.518.684c.058.011.115.028.17.049l3.024,1.171,1.652.348,5.029-.677c.045-.006.089-.009.133-.009.292,0,.573.128.764.355l5.4,6.4c.072.086.13.183.17.288l1.3,3.4c.025.066.044.135.054.205l.186,1.208.288.817,1.96-1.388c.095-.067.2-.117.312-.148l5.715-1.577,4.32-2.062c.06-.029.123-.052.188-.068l1.6-.4c.08-.02.161-.03.243-.03.06,0,.12.005.179.016l1.1.2c.14.025.273.08.39.161l6.735,4.655,2.35,1.128,2.283.639h3.211l2.583-.802,5.157-3.989c.031-.024.064-.046.097-.067l3-1.8c.074-.044.154-.079.236-.103l3.712-1.075,1.773-.887,1.045-1.045.424-1.017c.03-.071.067-.138.112-.201l1.3-1.8c.11-.153.262-.271.437-.342l16.959-6.843,7.312-5.965,1.923-3.938.18-1.984.099-4.067c.002-.071.011-.142.028-.211l1.6-6.6c.029-.121.081-.236.153-.338l1.928-2.755.082-2.773-.693-1.001-1.109-1.386-2.354-1.883-2.429-1.401-3.684-1.066c-.058-.017-.115-.039-.169-.066l-6.2-3.1c-.056-.028-.109-.061-.158-.098l-19.2-14.6c-.058-.044-.111-.094-.158-.15l-2.2-2.6c-.208-.246-.285-.576-.207-.888l.2-.8c.092-.367.383-.651.753-.734l.673-.15.319-.255.434-.362,1.531-2.883.06-.358v-.817c0-.082.01-.163.03-.242l.1-.4.1-.4c.039-.154.113-.297.218-.416l1.35-1.543.503-.79v-.216l-.099-.247-.259-.431c-.045-.075-.08-.156-.104-.24l-.2-.7c-.015-.051-.025-.103-.031-.156l-.6-5c-.016-.136-.004-.275.035-.406l.3-1c.009-.028.018-.056.029-.084l.564-1.409.274-1.461.696-7.057c.003-.027.006-.054.011-.081l.2-1.1c.017-.093.047-.183.089-.268l.2-.4.2-.4c.048-.096.111-.184.187-.26l.4-.4c.016-.016.032-.031.049-.045l.8-.7c.064-.056.135-.104.211-.142l.702-.351,1.515-1.231c.178-.145.401-.224.631-.224.006,0,.013,0,.019,0l5.3.1c.101.002.201.019.297.051l2.1.7c.084.028.165.067.238.117l1.8,1.2c.08.053.152.118.214.192l1.5,1.8c.018.021.034.043.05.066l3.243,4.618,1.748,1.66,2.011.563,16.608-3.982,1.328-1.162,1.733-2.407c.031-.044.066-.085.104-.123l1.7-1.7c.085-.085.184-.154.293-.203l2.2-1c.114-.052.238-.082.363-.088l5.9-.3c.017,0,.034-.001.051-.001.1,0,.199.015.294.044l1.3.4c.061.019.12.043.176.073Z"/>
        <path id="bl" d="M946.103,210.222c.021-.265.146-.511.349-.683l6.542-5.57-1.724-1.596-3.708-1.331c-.051-.018-.1-.041-.148-.067l-2.7-1.5c-.382-.212-.582-.648-.494-1.077l.48-2.322-.888-.761-.428-.257c-.366-.22-.552-.647-.464-1.065l.7-3.3c.008-.037.018-.073.03-.109l.6-1.8c.037-.112.094-.216.168-.309l.675-.844-.944-1.07c-.015-.017-.03-.035-.044-.053l-.599.599c-.076.076-.164.139-.26.187l-.8.4c-.051.026-.105.047-.16.063l-1,.3c-.094.028-.19.042-.287.042-.07,0-.14-.007-.209-.022l-1.4-.3c-.116-.025-.227-.07-.327-.134l-1.056-.672-.732-.366-.299.133-1.235,1.235-.335,2.259.085,1.021.286,1.337c.019.091.026.184.02.276l-.1,1.5c-.01.149-.053.294-.126.424l-.9,1.6c-.08.142-.194.263-.331.351l-1.4.9c-.164.106-.352.159-.541.159-.16,0-.32-.038-.466-.115l-1.9-1c-.048-.025-.094-.055-.138-.087l-3.626-2.744-1.449-.724-2.037.244-2.467,1.188-4.825,3.545c-.054.04-.113.074-.174.103l-5,2.3c-.132.061-.274.091-.418.091-.047,0-.094-.003-.141-.01l-1.223-.175-1.11.238-2.29,1.099-2.689,2.151-1.505,4.232c-.018.05-.039.098-.064.144l-1.2,2.2c-.051.093-.116.177-.193.249l-1.7,1.6c-.034.032-.07.061-.108.088l-4.022,2.845-2.234,2.331c-.081.085-.177.155-.282.206l-4.7,2.3c-.138.068-.289.102-.44.102-.103,0-.206-.016-.306-.048l-8.227-2.644-3.79.185-3.202,1.006-5.5,4.342-1.752,1.844-1.634,3.178-.291,6.681c-.002.051-.008.102-.018.153l-.4,2c-.014.07-.036.139-.064.205l-.7,1.6c-.042.095-.098.183-.166.261l-1.5,1.7c-.031.035-.064.067-.099.098l-1.4,1.2c-.15.128-.334.21-.53.233l-3.221.393v9.718l.799,1.954,1.72,2.962,4.041,4.731c.029.033.055.069.079.106l3.5,5.4c.196.302.214.686.048,1.005l-4,7.7c-.013.026-.028.051-.044.076l-.7,1.1-1.119,1.96-.54,1.8-.377,3.675.37,2.311.584,2.042c.026.089.038.182.038.275v2.2c0,.055-.005.11-.014.164l-.3,1.8c-.032.193-.12.372-.252.515l-6.2,6.7c-.035.038-.073.073-.114.106l-1.9,1.5c-.047.037-.097.069-.149.097l-3,1.6c-.086.046-.179.079-.274.098l-3,.6c-.065.013-.13.019-.196.019-.01,0-.019,0-.029,0l-6.452-.187-6.592,6.974c-.072.076-.156.141-.248.191l-2.2,1.2c-.152.083-.316.122-.478.122-.348,0-.685-.181-.869-.504l-.4-.7c-.033-.057-.06-.117-.08-.18l-.365-1.096-.205-.342-.513.068-.904.903-1.645,2.285-.301,1.13.156,1.17,2.048,4.877c.014.034.027.069.037.104l1.3,4.4c.006.021.012.043.017.064l1.1,4.9c.005.023.009.046.013.069l1,6.6c.006.038.009.076.011.114l.096,2.69,3.272,12.594c.021.082.032.167.032.251v4.7c0,.077-.009.155-.027.23l-1.26,5.332.178,1.601.367,2.205.979,1.78,4.25,5.437c.096.123.162.267.193.42l.3,1.5c.019.094.024.191.015.287l-.1,1.1c-.009.102-.034.203-.074.298l-.8,1.9c-.027.064-.061.126-.101.183l-3.2,4.6-5.721,7.629c-.041.054-.087.104-.138.149l-4.173,3.688-.748,1.329-.347,1.477-.095,1.712c-.002.038-.006.077-.013.114l-.478,2.771.062.687.354.471,1.401,1.121c.072.058.136.125.189.2l.5.7c.03.042.057.087.081.134l.2.4c.062.124.097.259.104.397l.062,1.246,1.55-.869,4.866-2.98c.043-.026.088-.049.134-.069l1.719-.724,1.306-1.306,4.254-5.837c.024-.033.05-.064.077-.093l1.4-1.5c.046-.049.097-.094.152-.133l3.1-2.2c.051-.036.105-.068.162-.094l2.328-1.067.652-.435.537-.872v-.667l-.095-.95c-.012-.122-.002-.245.03-.363l.3-1.1c.054-.198.167-.374.325-.505l1.2-1c.116-.096.252-.165.398-.202l.988-.247.542-.433.43-2.238c.02-.103.055-.201.106-.293l1.1-2c.156-.283.439-.474.759-.511l1.7-.2c.039-.005.078-.007.117-.007.067,0,.134.007.2.02l4.24.867,4.738-.58c.04-.005.081-.007.122-.007.04,0,.08.002.119.007l2.5.3c.185.022.36.096.506.212l1.979,1.583.489.349.207.035.119-.02.273-.273c.14-.14.317-.235.511-.273l2-.4c.065-.013.13-.019.196-.019h2.988l1.082-.246-.164-.622-1.338-1.259-1.396-.493-3.289-.387c-.387-.045-.712-.311-.833-.681-.121-.37-.017-.777.268-1.043l1.5-1.4c.091-.085.198-.153.314-.199l5.209-2.064,1.049-.674.125-.311-.083-.186-1.016-.508-2.333-.778c-.282-.094-.507-.308-.615-.584l-.9-2.3c-.084-.214-.091-.45-.021-.669l.8-2.5c.071-.222.217-.412.413-.537l2.348-1.503,2.481-3.308.417-1.459-.958-1.341-1.173-.123-3.746,1.779c-.136.065-.283.097-.429.097-.185,0-.369-.051-.53-.152l-1.6-1c-.292-.183-.47-.503-.47-.848v-1c0-.107.017-.214.051-.316l.938-2.813-.068-1.016-.367-.504-.505-.05h-.85c-.239,0-.47-.085-.651-.241l-.7-.6c-.186-.159-.306-.381-.34-.623l-.4-2.9c-.027-.193.004-.389.087-.565l1.674-3.535-.362-2.809c-.053-.41.152-.811.516-1.008l3.585-1.938,1.426-1.342.635-1.824-.433-2.511-3.498-7.385-.052-.069-.304-.101c-.069-.023-.136-.054-.198-.091l-.5-.3c-.163-.098-.295-.24-.38-.41l-.3-.6c-.069-.139-.106-.292-.106-.447v-1.1c0-.304.138-.591.375-.781l.5-.4c.023-.018.046-.035.07-.051l.413-.275.029-.049-.286-6.399c-.008-.182.034-.363.121-.524l1.2-2.2c.121-.222.322-.39.562-.47l1.5-.5c.103-.034.21-.051.316-.051.214,0,.425.068.6.2l1.6,1.2c.102.076.188.171.254.28l.937,1.539,11.886-5.479,4.409-3.429,1.279-.978-.462-6.563c-.019-.264.068-.525.242-.725l1.3-1.5c.104-.12.236-.214.384-.274l3.174-1.269,1.007-1.782.083-2.241-.742-1.814-1.457-1.457-1.875-1.031c-.382-.21-.584-.644-.499-1.072l.652-3.262-.883-3.089-1.838-2.45-2.097-.968-3.602.554c-.05.008-.101.012-.152.012-.121,0-.242-.022-.356-.065l-2.1-.8-5.525-2.286-2.983.723c-.078.019-.157.028-.236.028-.132,0-.263-.026-.386-.077l-6.7-2.8c-.038-.016-.075-.034-.111-.054l-2.1-1.2c-.251-.143-.427-.388-.484-.672s.012-.577.188-.806l.965-1.254,1.77-2.951c.042-.07.093-.135.15-.193l.9-.9c.188-.188.443-.293.707-.293.021,0,.041,0,.062.002.286.018.551.158.727.384l.662.851.247.247.305-.191,1.441-1.249c.057-.049.119-.092.185-.127l4.568-2.43.77-.77.513-1.099-.178-2.135c-.013-.158.011-.317.072-.464l.7-1.7c.097-.235.279-.424.511-.53l4.4-2c.13-.059.272-.09.414-.09.046,0,.093.003.139.01l5,.7c.077.011.152.03.224.059l9.5,3.7c.081.032.158.074.228.125l1.5,1.1c.157.115.277.273.345.455l.6,1.6c.01.027.019.055.027.083l.478,1.722.566,1.227.214.426,1.102,1.102,1.032.635,6.291,1.033.634-.173,1.031-1.031,2.239-3.602c.059-.094.133-.178.219-.248l1.6-1.3c.18-.147.404-.224.631-.224.088,0,.177.012.264.036.311.085.562.315.674.618l1.5,4.06,3.827.666,9.197-2.25c.033-.008.067-.015.101-.019l8.537-1.177.679-.339c-.033-.035-.064-.072-.092-.111l-1-1.4c-.055-.076-.098-.16-.129-.248l-.6-1.7c-.034-.096-.053-.197-.056-.298l-.197-5.708-.78-3.51c-.011-.05-.018-.101-.022-.153l-.2-3.1c-.017-.269.074-.533.255-.733l1.258-1.398-.324-.445c-.06-.083-.108-.175-.14-.272l-.995-2.987-.662-.464-2.426-1.165c-.122-.059-.231-.141-.32-.243l-.7-.8c-.148-.169-.234-.382-.246-.606l-.1-1.9c-.02-.388.185-.752.528-.935l1.5-.8c.082-.044.17-.076.261-.095l3.956-.848,1.6-1.348,1.039-1.559.637-2.092.388-2.485-.127-.042c-.084-.028-.165-.067-.238-.117l-.6-.4c-.242-.161-.402-.42-.438-.708l-.1-.8c-.028-.222.02-.447.135-.639l.3-.5c.08-.133.19-.246.321-.329l1.007-.641.008-.008.241-1.203c.017-.087.046-.172.086-.251l.494-.989v-.494l-.959-1.119c-.173-.202-.259-.464-.238-.729Z"/>
        <path id="vb" d="M120.518,316.726l-1.166,1.332c-.039.044-.082.085-.128.122l-.5.4c-.177.142-.398.219-.625.219h-.6c-.197,0-.39-.058-.555-.168l-.948-.632h-.088l-1.294.566-.801.623c-.175.137-.392.211-.614.211h-.8c-.25,0-.491-.094-.676-.263l-1.2-1.1c-.121-.111-.213-.25-.267-.404l-.6-1.7c-.032-.09-.051-.185-.056-.28l-.097-1.844-.244-1.467-1.116-1.287c-.18-.207-.266-.479-.24-.753s.165-.523.381-.692l2.433-1.892.321-1.219-.809-1.699-5.378-7.839-.394.182-.986.896c-.088.08-.19.144-.301.189l-1,.4c-.12.048-.246.071-.371.071-.183,0-.364-.05-.524-.148l-1.3-.8c-.237-.146-.402-.383-.456-.656l-.2-1-.1-.5c-.013-.065-.019-.13-.019-.196v-.392l-.841-1.935-1.366-1.366c-.031-.031-.06-.065-.087-.1l-1.3-1.7c-.112-.146-.181-.321-.2-.505l-.111-1.077-.069.055c-.133.107-.292.177-.46.206l-1.8.3c-.054.009-.109.014-.164.014-.029,0-.057-.001-.085-.004l-3.5-.3c-.087-.007-.172-.026-.254-.056l-3.273-1.182-.167.056-1.406.844c-.123.074-.261.12-.404.136l-.9.1c-.037.004-.074.006-.11.006-.166,0-.33-.041-.476-.121l-2.4-1.3c-.239-.129-.415-.35-.487-.612l-.5-1.8c-.032-.117-.043-.238-.032-.358l.187-2.06-.32-1.678-1.043-1.117-1.156-.434-1.385.154-1.462.731-2.366,2.73-1.338,3.155c-.024.057-.054.112-.089.164l-1.8,2.7c-.101.152-.242.273-.408.351l-3.2,1.5c-.129.06-.269.093-.411.094l-7.6.1s-.009,0-.013,0c-.088,0-.177-.012-.262-.035l-6.177-1.677.314,1.391.172.94,3.229,4.889,4.138,1.881c.091.041.175.096.249.162l3.5,3.1c.218.193.341.471.337.762l-.1,7.4c-.002.135-.031.269-.086.393l-1.2,2.7c-.034.077-.078.149-.13.215l-4.502,5.677-.515,1.374-.584,3.018c-.008.043-.019.085-.033.126l-.4,1.2c-.04.119-.101.229-.182.326l-4.044,4.833-3.457,6.004.592.947.367.294c.02.016.039.032.058.05l1.5,1.4c.27.252.379.632.284.989l-.4,1.5c-.01.039-.023.077-.038.114l-.251.629.404,1.011,1.025,1.398c.05.068.091.142.122.22l1,2.5c.058.144.081.3.068.454l-.1,1.2c-.009.112-.037.221-.083.323l-1.114,2.506v.699l1.286.714,1.836,1.121c.117.072.219.167.298.28l2.8,4c.062.089.11.187.14.291l.5,1.7.511,2.04.191.668c.041.145.049.297.024.446l-.8,4.6c-.029.166-.099.322-.204.453l-.4.5-1.89,2.457.466.106,6.132-.681c.037-.004.074-.006.11-.006.05,0,.099.004.148.011l2,.3c.052.008.103.02.153.035l22.5,7.1c.451.142.741.582.694,1.053l-.13,1.3h.135c.265,0,.52.105.707.293l.5.5c.188.188.293.442.293.707v1c0,.096-.014.191-.041.282l-.47,1.597-.292,3.993c-.003.045-.01.089-.019.133l-.365,1.736.149,1.194,1.267,1.859,2.733,2.004,12.649,4.15c.142.047.272.124.379.227l4.513,4.317,2.405,1.388,4.95,1.618h.091l-1.754-4.761-2.648-4.316c-.067-.11-.113-.232-.134-.359l-.3-1.8c-.024-.146-.016-.296.025-.439l.4-1.4c.034-.117.088-.228.161-.325l1.5-2c.043-.057.091-.109.145-.156l1.412-1.224,1.142-1.582.621-1.863.376-2.914-.092-1.753-.391-2.344c-.006-.039-.011-.078-.012-.117l-.1-2.1c-.002-.04-.001-.081.002-.121l.2-2.7c.003-.041.009-.082.017-.122l1.4-7c.01-.049.024-.098.041-.146l1.2-3.3c.027-.073.061-.143.104-.207l4.547-6.919,1.701-4.158.286-4.675-.093-1.576-1.472-7.75-1.594-4.194-1.03.114c-.037.004-.074.006-.11.006-.181,0-.358-.049-.514-.142l-.5-.3c-.411-.246-.589-.749-.425-1.199l.4-1.1c.018-.048.039-.095.064-.14l1.1-2c.085-.155.21-.285.362-.376l.5-.3c.068-.041.141-.073.216-.097l1.365-.427.238-.238.183-.67-.077-.843-.281-1.125c-.047-.186-.039-.382.023-.563l2.153-6.36.075-2.337-1.355-.739-4.607.782Z"/>
        <g id="ty">
            <path d="M328.563,375.659l5.3-1.9c.093-.034.191-.053.29-.058l8.28-.39,11.905-6.198c.084-.044.173-.075.266-.094l1.292-.258v-.01s-.289-6.393-.289-6.393l-.458-1.648-.809-2.156-.718-.718-1.969-1.674c-.076-.065-.142-.141-.196-.225l-.7-1.1c-.044-.069-.079-.143-.105-.221l-.6-1.8c-.017-.052-.031-.106-.039-.16l-.3-1.9c-.008-.052-.012-.104-.012-.156v-3.2c0-.038.002-.077.007-.115l.3-2.6c.004-.037.011-.075.019-.111l1.568-6.76-.192-3.357c-.022-.386.18-.75.52-.935l3.3-1.8c.092-.05.191-.086.295-.105l1.6-.3c.061-.011.122-.017.184-.017.009,0,.018,0,.027,0l3.511.095,13.024-4.7,4.111-2.545c.124-.077.264-.126.409-.143l1.7-.2c.039-.005.078-.007.117-.007.066,0,.131.007.196.019l1.5.3c.107.021.209.06.304.114l2.504,1.445,1.376.43,1.571.087,3.706-.57,2.116-.736,1.321-.793,1.328-1.24,1.066-1.688,1.062-3.185c.015-.045.033-.089.054-.131l.8-1.6c.029-.059.065-.115.105-.167l.7-.9c.101-.13.233-.233.383-.3l.9-.4c.053-.023.108-.042.164-.056l1.2-.3c.046-.012.094-.02.141-.025l5.734-.583,1.078-.497,1.094-.73.985-.806.811-.991.826-1.193,2.463-5.418c.013-.028.027-.056.042-.082l1.2-2.1c.026-.045.055-.088.087-.129l2.351-2.939.74-1.295.549-1.19.102-.358-.213-.779-2.281-5.851c-.022-.057-.039-.116-.051-.176l-.4-2.1-.208-1.446c-.026-.182-.001-.367.071-.535l.544-1.27.048-.384-.221-.497-.908-.99-4.099-2.733c-.043-.029-.084-.061-.122-.096l-2.5-2.3c-.077-.071-.142-.153-.193-.243l-2.41-4.257-.28.233c-.071.059-.15.108-.234.146l-1.8.8c-.07.031-.143.054-.217.068l-2.6.5c-.062.012-.126.018-.189.018-.014,0-.028,0-.042,0l-2.4-.1c-.133-.006-.264-.038-.384-.094l-1.7-.8c-.076-.036-.147-.081-.212-.135l-3.5-2.9c-.036-.03-.07-.062-.102-.097l-1-1.1c-.08-.088-.144-.19-.189-.301l-.6-1.5-1.3-3.698-.257-.565-1.203-.18-4.454,1.706c-.068.026-.138.044-.209.055l-2,.3c-.049.007-.099.011-.148.011-.071,0-.143-.008-.212-.023l-6.719-1.461-2.246.346-2.448,1.318c-.1.054-.209.091-.322.108l-1.3.2c-.051.008-.102.012-.152.012-.248,0-.49-.093-.676-.263l-1.2-1.1c-.117-.108-.207-.242-.263-.391l-.7-1.9c-.076-.206-.082-.43-.017-.64l.4-1.3c.037-.12.096-.232.175-.331l.674-.843.328-1.148.132-.836-.059.026-.896.627-2.877,2.282c-.066.052-.138.096-.215.13l-1.116.496.082.615.296.665.805,1.074.786.873.495.33c.168.112.299.273.374.461l.4,1c.042.105.066.216.071.329l.2,4.7c.002.056,0,.111-.007.167l-.2,1.6c-.008.065-.023.13-.044.192l-.4,1.2c-.037.11-.092.213-.164.304l-3.4,4.3c-.143.18-.343.306-.568.356l-.9.2c-.071.016-.144.024-.217.024-.015,0-.029,0-.044,0l-27.274-1.195-9.723,2.042-.961.549-1.071,2.676c-.109.273-.333.484-.612.577l-1.2.4c-.102.034-.209.051-.316.051-.068,0-.137-.007-.205-.021l-6.599-1.379h-9.597c-.07,0-.139-.007-.207-.022l-5.098-1.078h-1.615l-.1.125c-.04.049-.084.095-.132.136l-3.227,2.753-.667,1.5-.878,4.001c-.009.04-.02.08-.034.118l-.6,1.7c-.045.127-.115.244-.206.343l-2.2,2.4c-.104.114-.234.202-.378.258l-2.6,1c-.065.025-.132.043-.2.054l-5.6.9c-.053.008-.106.013-.159.013-.096,0-.192-.014-.284-.041l-2.628-.778-2.647-.365-2.2.489-4.367,5.069c.069.028.134.063.195.105l1.3.9c.165.114.292.276.364.463l.5,1.3c.109.284.083.603-.071.866l-1,1.7c-.105.179-.263.32-.452.405l-2,.9c-.123.055-.256.085-.391.088l-4.961.097-1.951.594-2.047,1.869-1.434,2.103c-.03.044-.063.085-.099.123l-1.7,1.8c-.088.093-.192.168-.308.221l-2.6,1.2c-.132.061-.275.092-.419.092-.034,0-.069-.002-.103-.005l-2.9-.3c-.534-.055-.929-.522-.895-1.057l.256-4.093-1.616-.683-2.503.751-7.67,5.31c-.085.059-.179.104-.278.134l-2.3.7c-.094.029-.193.043-.291.043-.005,0-.011,0-.016,0l-12.4-.2c-.173-.003-.342-.05-.491-.138l-1.7-1c-.167-.098-.301-.242-.387-.415l-1.2-2.4c-.155-.31-.138-.678.044-.973.118-.192.296-.335.501-.411l.088-.176.162-.97v-.881l-.231-.462-5.671-6.151-6.022-2.817c-.187-.087-.342-.231-.445-.41l-.8-1.4c-.261-.456-.124-1.037.314-1.328l3.779-2.519.233-.28-1.912-1.434-.943-.55-1.288-.076-1.464.431-4.734,2.17c-.096.044-.198.072-.303.084l-3.5.4c-.038.004-.076.006-.113.006-.097,0-.194-.014-.287-.042l-1-.3c-.223-.067-.416-.209-.545-.403l-.6-.9c-.031-.047-.059-.097-.082-.148l-.325-.73-.218-.218-15.328-5.858h-2.405l-1.205.828-2.4,3.264c-.052.07-.113.134-.181.188l-1.5,1.2c-.121.097-.263.164-.415.197l-1.4.3c-.069.015-.139.022-.209.022-.052,0-.104-.004-.155-.012l-5.1-.8c-.102-.016-.2-.047-.292-.094l-1.8-.9c-.023-.011-.045-.024-.067-.037l-1-.6c-.127-.076-.235-.18-.318-.303l-.6-.9c-.085-.127-.139-.271-.159-.422l-.2-1.5c-.021-.16-.004-.322.051-.474l.4-1.1c.034-.093.081-.18.14-.258l.446-.595.033-.231-.262-.892-.201.067c-.039.013-.079.024-.12.032l-1.915.383-.986.384.074.555.925,1.851c.012.025.024.05.034.076l.8,2c.063.157.085.328.064.495l-.2,1.6-1.084,6.331,1.06.561c.115.061.217.144.3.244l1,1.2c.055.066.102.139.138.217l.7,1.5c.03.064.053.132.069.201l.5,2.2c.017.073.025.147.025.222v3.8c0,.09-.012.179-.036.265l-1.1,4c-.016.059-.038.117-.065.172l-1.7,3.5c-.027.056-.059.109-.096.158l-2,2.7c-.064.087-.142.162-.23.224l-1,.7c-.082.058-.173.103-.269.133l-2.358.755-1.011.7-.562.883-2.576,5.25c-.028.058-.062.113-.101.164l-2.2,2.9c-.037.048-.078.093-.122.134l-2.3,2.1c-.045.041-.094.078-.146.11l-5.3,3.3c-.054.033-.111.062-.17.084l-2.6,1c-.074.029-.151.048-.23.058l-6.444.837,1.45,3.816c.021.055.037.111.048.169l1.5,7.9c.008.042.013.085.016.128l.1,1.7c.002.04.002.08,0,.12l-.3,4.9c-.007.109-.031.216-.073.318l-1.8,4.4c-.024.06-.055.117-.09.171l-4.536,6.903-1.134,3.118-1.373,6.865-.191,2.578.094,1.98.39,2.342c.006.037.01.074.012.112l.1,1.9c.003.06,0,.121-.007.18l-.4,3.1c-.008.064-.023.127-.043.188l-.7,2.1c-.032.096-.079.187-.138.269l-1.3,1.8c-.045.063-.097.12-.156.17l-1.419,1.23-1.325,1.767-.287,1.006.231,1.385,2.598,4.234c.034.056.063.116.086.177l2.074,5.628,2.711-.813,4.919-2.554,1.028-1.344.238-1.112.095-1.33c.004-.051.011-.101.022-.15l.5-2.2c.024-.106.066-.208.123-.301l1.9-3.1c.144-.234.378-.399.647-.456l1.9-.4c.068-.014.137-.021.206-.021.085,0,.17.011.252.032l2.159.563,1.888-.063v-2.333c0-.162.039-.321.115-.465l2.1-4c.037-.071.083-.137.136-.197l3-3.4c.073-.082.158-.152.254-.207l3.5-2c.103-.059.215-.099.332-.118l.6-.1c.054-.009.109-.014.164-.014.047,0,.095.003.141.01l.7.1c.148.021.289.075.413.158l.6.4c.055.036.106.078.152.125l1.3,1.3c.056.056.105.119.147.187l2.408,3.95,3.862,3.09c.051.04.097.086.139.135l1.1,1.3c.108.128.182.28.216.443l.6,2.9c.031.148.027.302-.01.449l-1.459,5.74.253,3.202,3.339,2.654,4.421.541,11.907-3.346c.059-.017.119-.028.18-.033l2.2-.2c.03-.003.06-.004.09-.004.09,0,.18.012.268.036l1.8.5c.085.024.167.058.243.103l9.1,5.4c.129.076.239.181.322.305l1.2,1.8c.199.299.223.681.062,1.002l-.6,1.2c-.063.127-.153.238-.263.328l-2.571,2.095-.124.199.223.478.523.04,2.314-.74c.099-.032.202-.048.305-.048.114,0,.228.019.336.058l1.4.5c.052.019.103.042.151.069l3.211,1.794.787.066,2.011-.64c.098-.031.2-.047.303-.047h1.3c.181,0,.359.049.515.143l1,.6c.04.024.078.051.115.08l1.988,1.609.843.351.838-.07,3.786-1.262c.057-.019.115-.033.175-.041l2.1-.3c.047-.007.094-.01.141-.01.032,0,.065.002.097.005l4.1.4c.075.007.148.023.219.047l1.888.63,1.101-.13,1.282-1.442,2.65-4.515c.043-.073.095-.141.155-.201l.5-.5c.099-.099.217-.176.348-.226l1.057-.407.178-.214.117-.528-.092-1.662c-.004-.066,0-.132.008-.197l.1-.7c.012-.083.034-.164.066-.242l2.164-5.213,1.281-6.108c.016-.078.042-.153.076-.225l1-2.1c.049-.103.115-.197.196-.277l7.7-7.7c.055-.055.115-.103.181-.143l2.1-1.3c.068-.042.141-.076.217-.101l8.3-2.7c.047-.015.095-.027.143-.035l8.3-1.4c.055-.009.111-.014.166-.014.076,0,.152.009.227.026l4.3,1c.073.017.144.042.211.075l3.519,1.712,2.96.164,3.704-3.613.839-1.305c.067-.104.153-.195.253-.268l1.1-.8c.126-.091.271-.152.424-.178l1.2-.2c.055-.009.109-.014.164-.014.078,0,.156.009.232.027l2.1.5c.093.022.182.057.264.105l.7.4c.077.044.148.098.211.161l.7.7c.033.033.065.069.093.107l.482.643.676.405.742.135.781-.142,1.072-.536c.055-.028.113-.05.173-.067l3.5-1c.055-.016.111-.027.168-.033l2.8-.3c.035-.004.071-.006.107-.006.07,0,.14.007.208.022l5.997,1.278h.195c.037,0,.074.002.11.006l.79.088.79-.088c.037-.004.074-.006.11-.006.03,0,.06.001.091.004l2.2.2c.183.017.358.084.506.193l3.783,2.813,1.792.652.88-.189,2.112-1.744c.022-.018.044-.035.068-.051l1.3-.9c.127-.088.272-.145.425-.167l5.23-.761,3.887-3.129c.047-.038.098-.072.152-.101l5-2.7c.044-.024.09-.044.138-.061Z"/>
            <path d="M453.227,422.358l.034-.202-.518-1.037-7.114-9.88-5.453-5.751c-.039-.041-.075-.086-.106-.133l-1.2-1.8c-.056-.083-.098-.175-.127-.271l-.8-2.7c-.015-.051-.026-.102-.033-.155l-.293-2.243-.562-2.248-.791-1.669-1.333-1.422-1.13-.848c-.026-.02-.052-.041-.076-.063l-2.4-2.2c-.09-.082-.164-.181-.219-.29l-.96-1.919-1.146-1.528c-.031-.041-.058-.084-.082-.129l-.8-1.5c-.041-.076-.071-.157-.091-.242l-.4-1.7c-.008-.035-.014-.07-.019-.105l-.1-.8c-.005-.041-.008-.083-.008-.124v-.7c0-.051.004-.102.012-.152l.2-1.3c.004-.024.008-.049.014-.073l.3-1.3c.013-.055.03-.108.051-.16l1.434-3.44.072-1.358-.59-.767-10.014-3.403c-.122-.042-.236-.107-.333-.191l-1.5-1.3c-.051-.044-.097-.093-.138-.146l-1-1.3c-.116-.151-.187-.332-.203-.522l-.267-3.026-4.334-4.149-1.776-.977-2.086-.544-3.103-.194c-.089-.006-.177-.023-.262-.052l-3.358-1.151-2.84-.092-4.091.779c-.062.012-.124.018-.187.018h-2.72l-2.291.366-1.718.773-6.974,6.777c-.083.081-.179.146-.284.194l-10.566,4.785-2.747,1.498v1.806c0,.22-.072.433-.206.608l-2.6,3.4c-.081.106-.183.195-.3.262l-6.896,3.927-.913,2.284.629,1.414c.023.053.042.108.056.164l.5,2c.006.023.011.047.015.07l.681,3.889.756,1.796.783,1.662c.063.133.095.279.095.426v1.6c0,.275-.113.538-.313.727l-.596.563,2.385.426c.104.019.205.054.298.104l1.3.7c.086.046.164.105.233.173l1.4,1.4c.068.068.125.144.171.228l.531.974.545.545,1.247.468,4.839.194c.188.008.37.068.525.174l1.9,1.3c.191.131.331.324.396.547l1.1,3.8c.026.09.039.184.039.278v2.2c0,.082-.01.163-.03.242l-.3,1.2c-.012.049-.028.096-.047.142l-.452,1.086-.271,1.804v2.102l.203.812.449.449.921.67,2.278.82,2.407.385c.138.022.27.073.387.149l2,1.3c.208.135.359.344.422.584l.982,3.733,2.187,5.229,3.807,3.435,4.538,1.891,2.789.481,3.595.599c.142.024.276.077.395.158l3.655,2.469,1.684.886,1.485.165,6.773-.982c.047-.007.095-.01.143-.01.034,0,.068.002.101.005l5.425.552.266-.576,3.887-7.775.869-2.413.566-1.981.291-2.911c.034-.341.241-.641.548-.795l2.6-1.3c.094-.047.194-.079.298-.094l10.47-1.58,4.679-2.047c.083-.036.17-.061.259-.074l1.4-.2c.047-.007.094-.01.141-.01.122,0,.244.022.359.067l1.3.5c.088.034.172.081.247.138l4.016,3.06.499.1.026-.026.113-.282.066-.198Z"/>
        </g>
        <path id="sb" d="M570.855,354.589l.194-1.164-.679-1.018-3.351-2.393c-.078-.055-.147-.122-.206-.197l-4-5.1c-.031-.04-.06-.082-.085-.127l-.9-1.6c-.031-.055-.057-.114-.077-.174l-.6-1.8c-.013-.039-.024-.079-.032-.12l-.286-1.43-.539-1.526-2.539-4.004c-.016-.026-.031-.052-.045-.079l-1.892-3.69-.892-.654-1.182.394-1.689,1.126c-.131.087-.281.143-.438.161l-3.268.385-1.736.694-1.482,1.204c-.089.072-.19.129-.298.167l-1.7.6c-.108.038-.22.057-.333.057-.095,0-.19-.013-.282-.041l-1.7-.5c-.097-.028-.189-.071-.273-.127l-2.1-1.4c-.051-.034-.099-.073-.143-.115l-3.7-3.6c-.082-.08-.149-.173-.2-.275l-3.2-6.5c-.025-.051-.046-.103-.062-.157l-3.5-11.8c-.011-.037-.02-.074-.026-.112l-1.1-6.3c-.014-.082-.018-.166-.012-.249l.1-1.3c.005-.063.016-.125.032-.186l.9-3.3c.006-.022.013-.043.02-.064l.644-1.859-6.142-3.974c-.062-.04-.12-.088-.172-.141l-4.2-4.3c-.089-.091-.159-.197-.208-.314l-1-2.4c-.041-.099-.066-.204-.074-.311l-.2-2.7c-.009-.123.005-.247.041-.365l.7-2.3c.022-.074.053-.144.092-.211l1.784-3.073.619-1.238.245-1.471-.232-1.161-1.919-3.359c-.139-.243-.17-.533-.085-.8l4.201-13.189-.367-1.1-.608-1.082-2.505-.334c-.093-.012-.184-.038-.271-.076l-2.5-1.1c-.026-.011-.051-.024-.076-.037l-1.1-.6c-.084-.046-.161-.103-.228-.171l-.6-.6c-.047-.047-.088-.098-.125-.152l-.4-.6c-.034-.051-.063-.105-.087-.161l-.6-1.4c-.086-.201-.104-.424-.051-.636l.2-.8c.056-.223.186-.42.37-.557l.8-.6c.156-.117.342-.186.536-.198l4.654-.297,1.468-.232.674-.854-1.904-1.7-21.246-4.743c-.124-.028-.242-.079-.347-.151l-1.9-1.3c-.093-.064-.175-.143-.242-.234l-1.1-1.5c-.065-.089-.115-.188-.148-.293l-.5-1.6c-.008-.024-.014-.049-.02-.073l-1.5-6.5c-.007-.032-.013-.063-.017-.096l-.3-2.3-.205-2.343c-.004-.049-.005-.098-.002-.146l.3-5c.002-.027.004-.055.008-.082l.3-2.1c.006-.039.013-.078.024-.116l.4-1.5c.014-.051.031-.1.052-.148l.4-.9c.073-.163.187-.304.333-.408l.7-.5c.102-.073.217-.126.339-.156l.8-.2c.08-.02.161-.03.243-.03.101,0,.201.015.298.046l3.083.963,1.432.084,1.237-.291.676-.799.048-.673-.662-.795-.933-.678-1.126-.563c-.048-.024-.094-.052-.138-.084l-3.123-2.255-7.567,3.55c-.098.046-.202.076-.31.088l-6.9.8c-.038.004-.077.007-.115.007-.044,0-.088-.003-.132-.009l-4.5-.6c-.065-.009-.128-.024-.19-.045l-4.7-1.6c-.043-.015-.084-.032-.125-.052l-.6-.3c-.037-.019-.073-.039-.107-.062l-.6-.4c-.062-.042-.12-.09-.172-.145l-3.402-3.596-2.618-1.535-2.707-.451-4.863.286-1.887.6-1.036.888-.812,2.437c-.021.062-.048.123-.08.18l-.4.7c-.072.125-.17.234-.287.318l-1.4,1c-.098.07-.207.121-.323.152l-5.536,1.483-1.481.617.359,1.076.801,1.121,2.639,1.696c.06.039.116.084.166.134l2.313,2.313.894.537c.063.038.121.082.174.133l2,1.9c.099.094.178.208.231.333l3.964,9.314,2.493,3.74.53.53c.329.329.388.843.141,1.238l-7.675,12.259-.611,1.223-.169,1.015-.097,1.063c-.002.025-.005.049-.01.074l-.2,1.2c-.02.12-.061.235-.123.339l-.7,1.2c-.077.132-.181.242-.303.324l-1.59,2.529,1.215,1.215,6.121,1.113,1.507-.251,2.888-1.251c.126-.055.261-.082.398-.082.052,0,.104.004.156.012l1.9.3c.169.027.328.096.462.201l1.4,1.1c.055.043.105.092.15.146l1.5,1.8c.037.044.07.092.099.142l2.3,4c.023.041.044.083.062.127l1,2.5c.031.078.052.159.063.242l.3,2.3c.008.059.01.118.007.177l-.1,2.1-.203,2.243c-.017.185-.085.361-.196.509l-.221.294-1.317,3.292-.082.41c-.03.149-.093.288-.184.409l-1.9,2.5c-.024.031-.049.061-.076.089l.062,2.483c.24.302.288.719.112,1.07l-.084.168-1.186,2.867-.124.31v2.762l.091,1.001.168.839.355.799c.021.046.038.094.051.143l.3,1.1c.023.086.035.174.035.263v1.4c0,.233-.081.459-.23.638l-3.4,4.1c-.034.041-.071.079-.111.114l-.8.7c-.162.142-.367.228-.582.245l-1.3.1c-.026.002-.051.003-.077.003-.208,0-.411-.065-.581-.186l-.7-.5c-.045-.032-.087-.068-.126-.107l-.598-.598-.75-.409h-.742l-.648.432c-.082.055-.172.097-.267.126l-1,.3c-.094.028-.191.042-.287.042-.114,0-.228-.019-.336-.058l-1.4-.5c-.096-.034-.187-.083-.268-.145l-5.8-4.4c-.052-.04-.101-.085-.144-.134l-5.343-6.036-.794-.635-.956-.319-1.722-.287c-.174-.029-.337-.104-.473-.216l-2.9-2.4c-.186-.154-.311-.371-.349-.61l-.7-4.3c-.028-.169-.011-.343.048-.504l1.5-4.1c.088-.24.264-.437.492-.551l1.959-.979-1.252-1.252-3.021-2.047c-.079-.053-.15-.118-.21-.191l-1.9-2.3c-.23-.279-.292-.661-.162-.998l.579-1.495-.298.045c-.049.007-.099.011-.148.011-.083,0-.165-.01-.246-.031l-6.579-1.669h-4.058l-3.982.948-2.067.989-3.409,3.159,2.533,4.475,2.327,2.141,4.135,2.757c.067.045.128.097.182.156l1.1,1.2c.073.08.133.171.177.27l.4.9c.074.166.101.35.078.53l-.1.8c-.012.093-.036.184-.073.27l-.49,1.142.16,1.122.375,1.964,2.267,5.815c.013.033.024.066.033.1l.3,1.1c.048.176.047.362-.003.538l-.2.7c-.014.049-.032.098-.054.144l-.6,1.3c-.012.026-.025.052-.04.077l-.8,1.4c-.026.045-.055.088-.087.129l-2.351,2.939-1.138,1.992-2.481,5.458c-.025.054-.054.106-.088.155l-.9,1.3c-.015.022-.031.043-.048.064l-.9,1.1c-.042.051-.089.099-.141.141l-1.1.9c-.025.021-.051.04-.079.058l-1.2.8c-.043.029-.089.054-.136.076l-1.3.6c-.1.046-.208.076-.318.087l-5.828.593-1.046.261-.591.263-.485.624-.724,1.448-1.078,3.232c-.025.076-.06.15-.103.218l-1.2,1.9c-.046.072-.101.139-.163.197l-1.5,1.4c-.051.048-.108.09-.168.126l-1.5.9c-.059.035-.121.064-.186.087l-2.3.8c-.057.02-.116.035-.176.044l-3.9.6c-.05.008-.101.012-.152.012-.018,0-.037,0-.055-.002l-1.8-.1c-.082-.005-.164-.019-.243-.044l-1.6-.5c-.07-.022-.138-.052-.201-.088l-2.458-1.418-1.183-.237-1.322.156-4.011,2.483c-.059.036-.122.067-.187.09l-13.3,4.8c-.109.039-.224.059-.34.059-.009,0-.018,0-.027,0l-3.593-.097-1.34.251-2.605,1.421.164,2.868c.005.095-.003.19-.024.283l-1.587,6.845-.287,2.487v3.064l.275,1.741.535,1.605.553.869,1.885,1.602c.021.017.04.036.06.055l.9.9c.101.101.179.222.229.356l.9,2.4c.01.027.019.055.027.083l.5,1.8c.02.073.032.147.035.222l.282,6.214,4.326-.85c.064-.013.128-.019.193-.019.114,0,.228.02.336.058l2.8,1c.398.142.664.519.664.942v.515l1.821-.993c.022-.012.044-.023.066-.033l10.441-4.728,6.975-6.778c.083-.081.18-.147.287-.195l2-.9c.08-.036.165-.062.252-.076l2.5-.4c.052-.008.105-.013.158-.013h2.706l4.107-.782c.062-.012.124-.018.187-.018.011,0,.022,0,.032,0l3.1.1c.099.003.198.021.292.054l3.372,1.156,3.066.192c.064.004.128.014.19.03l2.3.6c.08.021.157.052.23.091l2,1.1c.076.042.147.094.21.154l4.121,3.945.75-.5.26-.26.287-.431.121-.303.082-.493c.016-.098.047-.194.092-.283l.2-.4c.011-.023.024-.045.037-.067l.3-.5c.098-.163.24-.295.41-.38l.6-.3c.139-.07.292-.106.447-.106.03,0,.06.001.091.004l1.1.1c.115.01.228.041.332.09l1.5.7c.04.019.078.04.115.063l4.653,2.97,5.353,2.628,7.142,1.761,3.745.493c.056.007.112.02.166.036l5.8,1.8c.088.027.173.067.25.118l9.468,6.179,1.863,1.025,2.01.548,3.44.382,8.729-.49,4.51-1.056,6.094-2.902,2.574-2.097,2.97-2.871c.133-.128.298-.217.478-.257l1.8-.4c.042-.009.084-.016.126-.02l2.2-.2c.03-.003.06-.004.091-.004.103,0,.206.016.304.047l4.676,1.492,10.888,2.87,2.509.193c.043.003.085.009.127.018l11.945,2.489,5.245.495c.066.006.13.019.193.038l3,.9c.061.018.12.042.177.072l4.2,2.2c.053.028.103.06.149.096l10.3,8c.072.056.136.122.191.195l2.617,3.541,3.74-4.797,5.129-9.369,1.265-3.309.536-1.697-.19-3.317c-.003-.049-.002-.099.003-.148l.2-2.2c.014-.156.065-.307.148-.439l1-1.6c.043-.068.093-.131.151-.187l3.448-3.349,2.104-2.744Z"/>
        <path id="ct" d="M701.842,433.752c-.083-.097-.147-.208-.188-.329l-1.4-4.1c-.03-.088-.048-.179-.052-.271l-.296-5.715-1.361-6.027-1.764-4.116c-.02-.046-.036-.093-.048-.142l-.6-2.3c-.011-.042-.019-.085-.025-.128l-.2-1.6c-.013-.107-.009-.215.012-.32l.2-1c.005-.026.012-.053.019-.078l.6-2.1c.019-.068.046-.134.079-.196l.757-1.419.634-1.993.274-4.746-9.192-14.081-4.595-5.671-1.68-1.307-.991-.661-1.391-.232-13.005,3.054c-.048.011-.098.019-.147.023l-14.7,1.2c-.027.002-.054.003-.081.003-.138,0-.274-.028-.401-.084l-2.971-1.3-7.551.581c-.026.002-.051.003-.077.003-.031,0-.062-.001-.093-.004l-2.981-.279-11.993,4.227c-.107.038-.219.057-.333.057-.016,0-.032,0-.047-.001l-2.1-.1c-.044-.002-.088-.007-.131-.015l-1.1-.2c-.283-.052-.531-.223-.679-.469l-.213-.355-.965-.804-1.823-.82-8.445-2.683c-.098-.031-.191-.077-.275-.137l-4.721-3.344-2.827-1.277-3.886-.093-3.269.654-12.802,6.105-1.726,1.272-.862,1.035-.427.769-.478,1.148c-.017.04-.036.08-.058.117l-1.8,3.1c-.099.171-.248.309-.426.396l-4.406,2.154-7.218,5.636c-.09.07-.191.124-.299.16l-2.1.7c-.073.024-.149.04-.226.047l-2.2.2c-.03.003-.06.004-.091.004-.142,0-.284-.03-.414-.09l-1.1-.5c-.057-.026-.112-.057-.163-.093l-1.7-1.2c-.021-.015-.041-.03-.06-.046l-4.6-3.8c-.063-.052-.119-.111-.167-.177l-3.318-4.489-10.121-7.861-4.036-2.114-2.814-.844-5.201-.491c-.037-.004-.074-.009-.11-.017l-11.937-2.487-2.536-.195c-.06-.005-.12-.015-.178-.03l-11-2.9c-.016-.004-.033-.009-.049-.014l-4.507-1.438-1.934.176-1.462.325-2.797,2.704c-.02.02-.041.038-.063.056l-2.7,2.2c-.062.05-.13.093-.202.128l-6.3,3c-.065.031-.132.055-.202.071l-4.7,1.1c-.056.013-.114.021-.172.025l-8.9.5c-.019.001-.037.002-.056.002-.037,0-.074-.002-.11-.006l-3.6-.4c-.052-.006-.103-.015-.153-.029l-2.2-.6c-.076-.021-.15-.051-.219-.089l-2-1.1c-.022-.012-.044-.025-.065-.039l-9.383-6.124-5.585-1.733-3.715-.489c-.037-.005-.073-.012-.109-.021l-7.3-1.8c-.07-.017-.137-.042-.201-.073l-5.5-2.7c-.033-.016-.066-.035-.097-.055l-4.644-2.964-1.282-.598-.643-.058-.085.043-.131.218-.115.231-.075.452c-.012.071-.031.14-.058.207l-.2.5c-.026.064-.058.126-.096.183l-.4.6c-.036.055-.078.106-.125.152l-.4.4c-.047.047-.098.088-.152.125l-1.006.671.222,2.518.761.989,1.276,1.106,10.115,3.437c.187.064.351.181.471.337l1,1.3c.145.189.219.424.206.662l-.1,1.9c-.006.114-.032.227-.076.332l-1.468,3.522-.273,1.181-.183,1.188v.561l.086.685.358,1.521.702,1.317,1.154,1.539c.036.048.068.099.094.153l.917,1.835,2.228,2.042,1.161.87c.046.035.09.074.13.116l1.5,1.6c.071.076.13.162.174.256l.9,1.9c.028.06.05.122.066.186l.6,2.4c.009.037.016.075.021.113l.29,2.221.734,2.479,1.069,1.603,5.441,5.738c.031.033.06.067.086.104l7.2,10c.031.043.059.089.083.137l.7,1.4c.095.189.127.403.092.612l-.1.6c-.009.052-.021.102-.038.152l-.1.3c-.006.019-.013.037-.02.055l-.2.5c-.05.126-.126.24-.221.336l-.4.4c-.128.128-.289.219-.465.263l-.4.1c-.08.02-.161.03-.243.03-.066,0-.131-.006-.196-.019l-1-.2c-.149-.03-.289-.093-.41-.185l-4.086-3.113-.924-.355-1.008.144-4.675,2.045c-.08.035-.165.06-.252.073l-10.444,1.576-1.965.983-.245,2.452c-.006.059-.017.118-.034.175l-.6,2.1c-.006.022-.013.043-.021.064l-.9,2.5c-.013.037-.029.073-.046.109l-3.9,7.8-.181.392.133.067c.056.028.109.061.159.099l2.01,1.532.8.364h.781l1.714-.722c.089-.037.182-.062.278-.072l.9-.1c.037-.004.074-.006.11-.006.097,0,.194.014.287.042l1,.3,3.029,1.009c.083.028.162.066.236.115l6.581,4.355,27.638,1.981c.053.004.105.012.157.024l9.8,2.3c.104.024.203.065.294.121l7.428,4.556,2.271.909,4.602.282,11.966-2.571c.069-.015.14-.022.21-.022.057,0,.114.005.171.015l5.081.879,7.18-.492c.023-.002.046-.002.068-.002.12,0,.239.021.351.064l.8.3c.151.057.286.149.394.27l1.615,1.805.56.373,4.819.189c.092.004.183.02.271.049l14.302,4.668,1.56.173,1.663-.277c.054-.009.109-.014.164-.014.018,0,.035,0,.053.001l1.9.1c.062.003.124.012.184.027l7.683,1.872h1.496l7.617-1.286c.055-.009.111-.014.166-.014.055,0,.11.005.164.014l3.6.6c.092.015.182.044.266.084l10.745,5.126,1.602.169,1.874-.281,2.061-.393c.062-.012.124-.018.187-.018.016,0,.032,0,.047.001l2.1.1c.086.004.171.019.254.045l1.9.6c.036.011.071.025.105.04l1.8.8c.09.04.174.093.248.158l6.55,5.67.858.286h.138l11.036.401,14.166.396,3.878-.872c.072-.016.146-.024.219-.024.081,0,.163.01.243.03l1.2.3c.223.056.42.186.557.37l.6.8c.053.07.096.147.128.229l.337.841.444.508,1.801.811,1.495.746,1.649.247,3.909-.953c.079-.019.158-.029.237-.029.305,0,.599.14.791.389l1.7,2.2c.051.066.093.138.126.214l1.23,2.84,1.001,1.063,1.056-.453.353-.989.597-1.495.988-3.259c.028-.091.068-.178.12-.257l1.7-2.6c.11-.168.267-.299.452-.376l1.2-.5c.098-.041.202-.066.308-.074l2.516-.194.95-.238.965-.643,2.324-2.421c.099-.103.218-.183.35-.236l.5-.2c.118-.047.245-.072.371-.072.041,0,.083.003.124.008l.8.1c.031.004.062.009.092.016l.565-1.318c.037-.087.087-.169.147-.242l1.328-1.613.549-1.099c.038-.076.086-.147.142-.211l.7-.8c.095-.108.211-.194.342-.253l2-.9c.131-.059.271-.088.41-.088.202,0,.403.061.574.181l.668.467,2.564-.414,2.349-1.084.411-.352.809-1.976,1.295-2.89.886-2.559.893-2.779c.014-.044.031-.087.051-.129l1.4-2.9c.02-.041.043-.082.068-.12l2-3c.112-.168.273-.299.461-.374l1.5-.6c.118-.047.245-.072.371-.072.041,0,.083.003.124.008l1.467.183,1.967-.281c.047-.007.094-.01.141-.01h.102l2.351-1.537,1.74-1.025c.155-.091.33-.138.507-.138.058,0,.116.005.174.015l1.7.3c.262.046.495.195.647.413l1.48,2.124,3.579-5.125c.123-.176.3-.308.504-.376l6.9-2.3c.102-.034.209-.051.316-.051.047,0,.094.003.141.01l2.725.389-6.924-8.047Z"/>
        <path id="st" d="M828.612,369.516c-.033-.042-.063-.087-.088-.134l-1.1-2c-.054-.099-.092-.206-.11-.318l-.4-2.4c-.003-.018-.005-.036-.008-.054l-.2-1.8c-.013-.114-.006-.229.021-.34l1.273-5.387v-4.456l-3.268-12.576c-.018-.071-.029-.143-.031-.216l-.098-2.742-.986-6.509-1.085-4.834-1.275-4.314-2.079-4.949c-.034-.082-.058-.167-.069-.255l-.2-1.5c-.017-.13-.009-.263.025-.39l.4-1.5c.031-.117.084-.228.155-.327l1.8-2.5c.031-.044.066-.085.104-.123l1.2-1.2c.155-.155.357-.255.575-.284l1.5-.2c.044-.006.089-.009.132-.009.348,0,.675.182.857.486l.6,1c.038.063.068.129.091.198l.281.843,1.152-.629,6.069-6.42-3.3-2.817c-.102-.087-.185-.194-.245-.313l-1.3-2.6c-.016-.033-.031-.067-.044-.101l-.7-1.9c-.012-.034-.023-.068-.032-.103l-.2-.8c-.013-.052-.022-.106-.026-.159l-.094-1.128-.262-1.136-.309-.694-.072-.089-2.32,1.16c-.042.021-.086.039-.131.054l-1.2.4c-.102.034-.209.051-.316.051h-.9c-.14,0-.278-.029-.406-.086l-.9-.4c-.112-.05-.214-.12-.301-.207l-1-1-2.629-1.451-9.635-1.671c-.357-.062-.653-.313-.773-.655l-1.374-3.927-1.363-2.543-2.661-2.06h-2.558c-.073,0-.146-.008-.217-.024l-.9-.2c-.098-.022-.192-.058-.279-.108l-.7-.4c-.23-.132-.399-.349-.469-.605l-.3-1.1c-.034-.126-.044-.258-.027-.387l.1-.8c.007-.054.018-.106.033-.158l.481-1.636.172-1.117-.085-1.025-.189-.944-.068-.341-.672-1.176-.448-.523-.441-.294-.943.189-3.865,2.126c-.125.069-.263.11-.405.121l-1.3.1c-.026.002-.051.003-.077.003-.211,0-.417-.067-.588-.191l-1.1-.8c-.154-.112-.273-.266-.343-.444l-.9-2.3c-.016-.04-.029-.08-.039-.122l-.5-2c-.009-.035-.016-.071-.021-.107l-.684-4.985-.371-.965-.516-.458-1.038-.208-.804.161c-.065.013-.13.019-.196.019h-1.2c-.076,0-.151-.009-.225-.026l-1.3-.3c-.083-.019-.163-.049-.238-.088l-2.3-1.2c-.028-.014-.055-.03-.081-.047l-1.7-1.1c-.108-.07-.202-.16-.276-.266l-1.361-1.944-2.192-2.367-7.616-.666c-.179-.016-.35-.079-.496-.184l-4.53-3.25-9.823-4.763c-.091-.044-.175-.102-.249-.171l-4.869-4.577-1.588-.669-2.078-.173-7.141,1.761c-.038.009-.077.016-.115.021l-.8.1c-.041.005-.083.008-.124.008-.054,0-.108-.004-.161-.013l-4.317-.705-2.882,3.668-.659,1.224c-.027.051-.059.099-.094.144l-1.1,1.4c-.073.093-.162.172-.262.234l-1.3.8c-.096.059-.201.102-.312.126l-4.521.983-6.025,2.37c-.024.01-.049.018-.074.026l-3.6,1.1c-.095.029-.193.044-.292.044h-1.2c-.066,0-.132-.006-.196-.019l-1.875-.375-1.578.088-2.227.557-4.657,2.038-2.839,1.762c-.093.057-.194.099-.3.124l-3,.7c-.075.017-.151.026-.227.026-.04,0-.079-.002-.119-.007l-2.5-.3c-.192-.023-.373-.101-.521-.225l-3.6-3c-.034-.029-.067-.06-.097-.092l-.995-1.085-.33-.189-12.13.098h-.008c-.229,0-.451-.079-.629-.223l-3.568-2.889-6.971,5.687c-.078.063-.165.115-.258.152l-16.832,6.792-1.063,1.472-.455,1.093c-.05.121-.124.23-.216.323l-1.3,1.3c-.076.076-.164.139-.26.187l-2,1c-.054.027-.111.049-.169.066l-3.675,1.064-2.838,1.703-5.253,4.064c-.095.073-.201.129-.315.164l-2.9.9c-.096.03-.196.045-.296.045h-3.5c-.091,0-.182-.012-.27-.037l-2.5-.7c-.056-.016-.111-.036-.163-.061l-2.5-1.2c-.047-.023-.093-.049-.136-.079l-6.622-4.577-.676-.123-1.293.323-4.309,2.057c-.053.025-.108.046-.165.062l-5.631,1.553-2.257,1.599c-.169.12-.371.184-.578.184h-.8c-.424,0-.802-.267-.943-.667l-.6-1.7c-.021-.059-.036-.119-.045-.181l-.184-1.195-1.201-3.142-4.937-5.851-4.656.627c-.044.006-.089.009-.133.009-.069,0-.138-.007-.206-.021l-1.9-.4c-.053-.011-.105-.026-.155-.046l-3.017-1.168-3.513-.683c-.055-.011-.108-.026-.16-.045l-1.6-.6c-.061-.023-.12-.052-.176-.087l-2.699-1.675-.742-.068-1.023.157-12.465,6.282-1.819,1.456-1.311,1.748-.631,2.253-.285,2.093-.194,3.403.092,1.568.354,1.679.891,1.604,1.234,1.614,1.477,1.674c.04.046.076.095.108.147l.9,1.5c.019.032.036.064.052.098l1.1,2.4c.031.068.055.14.07.214l.6,2.9c.011.052.017.106.02.159l.1,2.3c.004.1-.006.201-.032.298l-.5,1.9c-.018.067-.042.131-.073.193l-.4.8c-.048.096-.111.184-.187.26l-.5.5c-.017.017-.034.033-.052.049l-2.826,2.449-.209.489c-.121.282-.365.493-.661.572l-1.384.369-.995.543c-.148.081-.313.122-.479.122-.065,0-.13-.006-.194-.019l-10.246-2.031-.604,1.745-.866,3.176-.083,1.08,1.068,6.12,3.46,11.663,3.086,6.269,3.51,3.416,1.897,1.264,1.244.366,1.232-.435,1.466-1.191c.078-.064.166-.115.259-.152l2-.8c.082-.033.167-.054.255-.065l3.162-.372,1.6-1.067c.074-.049.154-.089.238-.117l1.8-.6c.103-.034.21-.051.316-.051.21,0,.418.066.591.194l1.5,1.1c.125.092.228.212.298.35l1.979,3.859,2.576,4.061c.04.064.073.132.098.203l.6,1.7c.016.045.028.09.038.137l.288,1.439.55,1.65.816,1.45,3.864,4.927,3.383,2.417c.099.07.184.158.251.259l1,1.5c.141.211.196.469.154.719l-.3,1.8c-.027.162-.093.314-.193.444l-2.3,3c-.03.039-.062.075-.097.109l-3.413,3.315-.81,1.295-.172,1.889.196,3.426c.007.121-.008.242-.045.358l-.6,1.9c-.006.019-.013.038-.02.056l-1.3,3.4c-.016.042-.035.083-.057.123l-5.2,9.5c-.026.047-.055.092-.089.135l-4.002,5.133,3.821,3.157,1.592,1.124.773.352,1.821-.166,1.827-.609,7.164-5.594c.055-.043.114-.08.176-.11l4.227-2.067,1.615-2.781.475-1.139c.014-.035.031-.068.049-.101l.5-.9c.03-.055.066-.106.106-.155l1-1.2c.051-.062.11-.117.175-.165l1.9-1.4c.051-.038.106-.07.163-.098l13-6.2c.075-.036.153-.062.234-.078l3.5-.7c.065-.013.13-.019.196-.019.008,0,.016,0,.023,0l4.2.1c.134.003.266.033.388.088l3.1,1.4c.058.026.114.058.166.095l4.673,3.31,8.352,2.653c.037.012.073.025.108.041l2,.9c.083.037.16.086.23.144l1.2,1c.086.072.16.158.217.254l.067.112.589.107,1.839.088,12.015-4.235c.107-.038.219-.057.332-.057.031,0,.062.001.093.004l3.115.292,7.715-.593c.026-.002.051-.003.077-.003.138,0,.274.028.401.084l2.969,1.299,14.374-1.173,13.127-3.083c.075-.018.152-.026.229-.026.055,0,.11.005.164.014l1.8.3c.14.023.273.076.39.154l1.2.8c.02.014.04.028.059.043l1.8,1.4c.06.047.115.1.163.16l4.7,5.8c.022.027.042.054.06.083l9.4,14.4c.117.179.173.391.161.604l-.3,5.2c-.005.083-.02.166-.045.246l-.7,2.2c-.018.058-.042.114-.071.167l-.75,1.406-.56,1.959-.16.801.172,1.374.565,2.164,1.77,4.131c.024.056.043.114.056.174l1.4,6.2c.013.055.02.112.023.169l.293,5.661,1.293,3.785,7.274,8.454.835,1.001,7.619.857,3.714.391,15.121-.796,6.592-.4c.02-.001.04-.002.061-.002.124,0,.247.023.362.068l3.6,1.4c.105.041.203.099.288.173l2.1,1.8c.019.017.038.034.056.052l.421.421,2.283,1.438,2.962-.494,1.804-1.476.204-.475c.008-.018.016-.036.025-.053l.437-.875.274-1.462c.004-.02.008-.039.013-.058l.1-.4c.015-.06.035-.118.061-.174l1.1-2.4c.071-.154.179-.288.316-.388l1.9-1.4c.097-.072.207-.125.324-.158l2.5-.7c.088-.025.179-.037.27-.037h2.5c.09,0,.18.012.268.036l1.516.421,1.181-.369.436-.291.388-.323.512-1.097v-1.978c0-.049.004-.098.011-.147l.4-2.7c.05-.334.265-.621.572-.762.133-.061.275-.091.417-.091.186,0,.372.052.534.155l1.724,1.089,8.788,1.352,2.932-.183,3.351-1.34,4.59-1.896c.093-.038.191-.063.291-.072l3.3-.3c.03-.003.06-.004.091-.004.07,0,.139.007.207.022l3.3.7c.085.018.167.047.244.086l7.961,4.029,2.346.375,2.313.402c.16.028.31.094.438.193l1.3,1c.06.046.115.099.163.158l.294.357-.049-.652-.012-.024-.6-1.2-.487-1.054-2.343-1.442c-.208-.128-.362-.328-.433-.562l-1.3-4.3c-.025-.083-.039-.169-.042-.256l-.1-3c0-.024,0-.048,0-.072l.1-2.6v-.462c0-.055.004-.11.013-.164l.88-5.277-.049-.594-.198-.132c-.207-.138-.355-.348-.415-.59l-.1-.4c-.085-.341.015-.701.263-.95l1.2-1.2c.063-.063.134-.117.211-.161l.7-.4c.081-.046.168-.081.258-.103l4.039-.989-.089-1.78-.071-.142-.374-.523-1.392-1.113c-.066-.053-.125-.113-.175-.181l-.6-.8c-.111-.148-.179-.325-.196-.509l-.1-1.1c-.008-.087-.004-.174.01-.26l.49-2.843.097-1.742c.003-.059.012-.117.025-.174l.4-1.7c.021-.091.056-.179.102-.261l.9-1.6c.055-.097.126-.185.209-.259l4.223-3.732,5.639-7.518,3.119-4.485.699-1.66.073-.801-.225-1.125-4.154-5.313Z"/>
        <path id="vi" d="M884.053,176.345l-1.757-3.718c-.019-.04-.035-.081-.048-.123l-.8-2.5c-.044-.138-.058-.283-.04-.426l.6-4.9c.005-.039.012-.077.021-.115l.891-3.664.04-.243-.055-.109c-.009-.018-.017-.035-.025-.053l-.224-.523-.764-.764c-.136-.136-.229-.307-.27-.495l-.5-2.3-.237-1.028-1.118-1.204c-.084-.09-.15-.195-.196-.309l-.508-1.269-.75-.634-1.297.236-.516.838-.266.709c-.146.39-.519.649-.936.649h-.1c-.304,0-.591-.138-.781-.375l-.4-.5c-.034-.043-.064-.088-.091-.135l-3.163-5.635-.384-.494-2.444-.198-.175.612c-.057.2-.175.376-.337.506l-1,.8c-.1.08-.215.14-.337.177l-1.931.579-4.171,1.94-7.747,5.036-.481.802c-.048.081-.108.154-.177.218l-1.4,1.3c-.034.031-.069.06-.107.086l-1,.7c-.096.067-.203.117-.316.147l-1.5.4c-.044.012-.089.02-.134.026l-1.6.2c-.041.005-.083.008-.124.008-.15,0-.299-.034-.435-.099l-2.26-1.091-.328.328-.71,1.066-.231.461-.336,1.176v1.173l.802,1.283.842.935c.076.084.136.18.18.284l.5,1.2c.016.04.03.08.042.122l.3,1.1c.041.149.046.304.017.456l-.927,4.728.76,1.292.638.729c.071.081.129.174.171.274l.369.885.911.521,6.945.571,3.068-.575c.061-.011.122-.017.184-.017h3.1c.202,0,.4.061.567.176l1.527,1.05,2.047.93.893.244h2.263l.833-.556.415-.484.341-.766c.023-.052.05-.101.082-.149l.4-.6c.046-.069.101-.133.163-.189l1-.9c.111-.1.243-.174.387-.216l1.7-.5c.074-.022.151-.035.229-.039l5.6-.3c.018,0,.036-.001.053-.001.064,0,.127.006.189.018l6.364,1.227Z"/>
    </g>
</svg>