<?xml version="1.0" encoding="UTF-8"?>
<svg id="at_map" xmlns="http://www.w3.org/2000/svg" viewBox="0 0 1000 513">
    <defs>
        <pattern id="diagonalHatch" patternUnits="userSpaceOnUse" width="15" height="15" patternTransform="rotate(0)">
            <rect x="0" y="0" width="15" height="15" th:fill="${disabledFill}"/>
            <line x1="0" y1="0" x2="15" y2="15" stroke="#f5f5f510" stroke-width="5"/>
            <line x1="-15" y1="0" x2="15" y2="30" stroke="#f5f5f510" stroke-width="5"/>
            <line x1="0" y1="-15" x2="30" y2="15" stroke="#f5f5f510" stroke-width="5"/>
        </pattern>
        <style th:utext="${style}">
        </style>
    </defs>
    <polygon th:if="${showStroke}" id="stroke" points="956.415 200.673 954.691 199.077 953.943 198.385 952.983 198.04 949.742 196.876 950.218 194.572 948.351 192.973 948.488 192.328 948.792 191.414 949.022 191.127 951.646 187.846 948.867 184.696 948.077 183.801 947.477 182.701 946.153 180.274 945.562 179.192 944.537 178.508 943.724 177.966 942.812 177.358 941.73 177.187 940.797 177.04 940.273 176.732 938.311 174.573 937.922 173.214 937.922 169.965 937.922 169.501 937.837 169.044 937.264 165.986 937.216 165.732 937.142 165.484 935.423 159.693 935.423 159.496 935.514 157.657 935.536 157.221 935.481 156.789 935.421 156.31 935.275 155.139 934.62 154.157 934.53 154.022 933.636 152.682 932.363 152.204 931.754 151.642 931.164 151.097 930.434 150.765 930.366 150.734 930.338 150.489 930.086 149.858 929.736 148.984 929.7 148.896 929.661 148.809 929.322 148.048 929.285 147.963 929.339 147.818 929.982 146.104 929.365 144.381 929.05 143.5 928.74 142.631 928.139 141.93 927.127 140.749 926.789 140.355 926.378 140.039 925.214 139.143 924.943 138.935 924.647 138.766 924.199 138.51 923.237 137.961 922.728 137.918 922.817 137.593 923.061 136.7 923.162 136.331 923.206 135.951 924.28 126.572 924.646 124.67 925.475 123.012 928.314 118.89 928.827 118.145 929.047 117.267 929.485 115.514 929.769 114.978 931.058 113.946 931.372 113.695 931.642 113.396 933.347 111.511 934.051 110.733 934.383 109.738 934.605 109.069 934.658 108.911 934.7 108.749 935.242 106.671 935.488 105.727 935.362 104.76 934.325 96.843 934.135 95.397 933.198 94.279 930.991 91.647 930.347 90.879 930.188 90.797 930.022 90.596 928.514 80.035 928.351 78.897 927.708 77.945 925.405 74.533 924.102 72.601 921.784 72.358 920.472 72.22 919.311 72.097 918.216 72.502 914.506 73.873 914.118 73.934 913.4 74.048 912.608 73.724 909.64 71.745 909.539 71.677 909.434 71.615 908.547 71.084 908.185 70.867 907.791 70.714 906.266 70.121 905.287 69.74 904.237 69.786 900.29 69.958 899.941 69.88 899.832 69.856 899.598 69.285 899.292 67.374 899.186 66.709 898.907 66.095 898.129 64.383 897.3 62.559 895.44 61.812 895.427 61.807 893.985 61.129 893.179 60.749 892.291 60.672 890.561 60.521 886.168 59.24 884.427 58.71 883.028 57.801 882.399 57.392 881.678 57.186 881.479 57.129 880.218 56.498 878.578 56.797 877.946 56.912 877.244 57.04 876.683 57.32 875.392 57.836 875.291 57.845 874.032 57.635 872.86 57.415 870.859 57.039 869.164 58.169 867.595 59.215 866.632 59.858 866.048 60.858 860.592 70.226 859.244 69.13 857.019 69.501 855.29 69.789 851.635 69.221 844.911 68.217 839.624 67.434 839.034 67.347 838.44 67.401 837.545 67.482 828.598 67.98 828.484 67.986 828.482 67.986 826.644 67.163 826.52 67.101 826.398 67.04 826.271 66.986 824.935 66.413 824.746 66.333 824.551 66.268 824.5 66.25 823.557 65.81 813.421 58.461 813.421 56.718 811.956 55.254 809.954 53.251 809.528 53.357 809.909 52.818 807.597 51.789 807.372 51.589 807.101 51.568 804.342 50.34 804.28 50.312 803.61 49.796 802.357 48.832 800.795 48.765 800.483 47.129 799.151 45.989 798.901 45.775 797.498 44.573 795.65 44.573 794.92 44.573 794.819 44.573 794.719 44.577 792.338 44.673 791.944 44.689 791.557 44.766 790.828 44.912 789.859 45.107 789.11 45.606 788.532 45.895 788.476 45.923 788.421 45.952 785.676 47.411 785.639 47.42 785.501 47.463 784.508 47.773 782.86 47.773 781.176 47.399 772.468 42.436 772.131 42.244 771.769 42.107 764.797 39.456 762.765 38.628 762.377 38.283 761.554 37.563 761.535 37.546 761.515 37.529 757.387 33.991 757.067 33.716 756.705 33.499 754.366 32.096 753.921 31.829 753.429 31.659 750.927 30.793 750.9 30.784 750.872 30.774 749.983 30.478 748.453 29.968 742.982 27.233 742.613 27.048 742.218 26.927 739.841 26.195 739.122 25.973 738.369 25.973 734.877 25.973 734.754 25.85 734.595 25.664 730.376 20.748 726.689 26.074 725.984 27.093 725.818 28.349 725.62 29.998 725.602 30.038 725.526 30.152 725.016 30.747 720.218 32.065 720.218 31.873 720.218 31.378 720.121 30.892 719.65 28.539 719.6 28.291 719.526 28.05 718.941 26.148 717.942 22.901 714.555 22.634 707.671 22.091 707.475 22.075 707.278 22.075 706.897 22.075 706.471 22.036 700.574 19.982 699.368 19.561 698.107 19.771 697.9 19.806 696.397 19.949 693.005 20.271 692.064 23.546 692.01 23.734 691.816 24.41 691.816 25.114 691.816 25.724 691.816 25.973 691.835 26.16 690.705 28.844 690.332 29.729 690.314 30.688 690.219 35.641 690.214 35.916 690.239 36.19 690.717 41.453 690.717 45.84 688.378 56.506 687.63 58.418 687.439 58.905 687.354 59.42 687.199 60.353 687.062 61.175 687.199 61.996 687.352 62.913 687.451 63.508 687.586 63.822 684.323 62.506 683.777 62.286 683.194 62.198 677.384 61.327 677.016 61.272 676.643 61.272 676.58 61.272 675.769 61.272 674.999 61.529 674.603 61.661 674.353 61.744 674.112 61.853 673.42 62.168 671.62 62.988 670.868 64.817 670.351 66.074 670.192 66.461 670.099 66.869 669.75 68.406 668.933 69.836 668.496 70.602 668.347 71.472 668.018 73.392 664.521 76.432 664.39 76.546 664.285 76.652 662.905 77.858 662.307 78.382 661.9 79.066 659.899 82.431 659.31 83.422 659.214 84.571 658.837 89.1 658.82 89.307 658.82 89.515 658.82 94.816 658.701 95.729 658.348 95.268 657.106 93.644 655.083 93.355 655.013 93.345 654.814 93.317 654.76 92.72 653.261 91.404 653.064 91.231 651.357 89.732 649.106 90.032 647.948 90.186 647.183 90.288 646.484 90.615 643.424 92.05 643.372 92.075 643.047 92.147 643.029 92.142 639.345 90.182 637.515 88.1 634.576 84.755 630.914 87.288 630.346 87.681 630.266 87.737 630.188 87.796 630.051 87.899 628.894 88.767 628.38 90.119 626.088 96.148 625.693 96.543 625.318 96.918 624.23 97.402 621.446 98.594 621.382 98.622 621.319 98.651 620.249 99.146 619.495 99.395 618.801 99.944 617.153 101.249 616.692 101.085 616.609 101.043 616.116 100.797 615.581 100.663 615.466 100.635 606.542 97.531 606.014 97.347 605.459 97.284 589.292 95.466 586.326 94.132 586.063 93.921 584.858 92.43 586.319 92.657 587.262 87.966 587.297 87.792 587.529 86.634 587.219 85.494 587.075 84.965 586.608 83.249 585.162 82.213 584.859 81.996 584.322 81.612 584.091 81.525 583.775 80.931 583.659 80.715 583.523 80.511 581.58 77.596 581.433 77.374 581.262 77.17 580.421 76.16 579.798 75.412 578.94 74.952 576.312 73.544 576.248 73.509 576.183 73.477 575.904 73.338 573.931 72.211 573.813 72.143 573.692 72.082 573.406 71.939 571.518 70.872 569.207 68.916 569.121 68.844 569.033 68.776 566.938 67.158 566.588 66.887 566.195 66.682 564.07 65.573 563.589 65.322 563.064 65.18 559.181 64.128 555.121 63.028 553.343 66.84 550.257 73.454 549.967 74.076 549.855 74.753 549.789 75.152 549.289 78.173 551.004 79.438 551.805 80.978 551.988 81.33 551.913 81.879 551.677 83.608 551.596 84.202 551.658 84.799 552.218 90.21 552.135 92.697 551.811 94.804 551.26 96.69 549.554 100.53 549.396 100.74 549.207 100.929 547.426 101.214 544.831 101.63 543.702 104.002 543.06 105.351 542.824 105.848 542.818 105.872 541.922 104.552 541.489 103.913 540.883 103.435 539.177 102.088 538.812 101.799 538.399 101.583 536.473 100.574 536.017 100.335 535.521 100.194 523.528 96.781 522.488 96.485 521.419 96.645 517.73 97.198 517.244 97.271 516.782 97.437 513.162 98.736 512.225 99.072 511.488 99.742 510.686 100.471 509.935 101.154 509.51 102.075 509.087 102.991 508.626 103.988 508.626 105.087 508.626 105.255 508.626 106.317 509.057 107.287 509.156 107.508 509.541 109.975 509.705 111.026 510.283 111.919 510.77 112.672 510.784 112.785 510.671 113.463 509.323 116.327 509.237 116.51 509.165 116.7 508.622 118.148 508.409 118.717 508.338 119.319 508.161 120.821 508.115 121.21 508.131 121.602 508.316 126.326 508.207 127.312 508.05 127.72 507.801 128.094 507.281 128.872 507.079 129.786 506.92 130.504 506.901 130.592 506.885 130.68 506.325 133.72 505.319 135.378 494.505 144.979 491.475 146.645 475.827 149.412 475.33 149.499 474.86 149.685 462.675 154.5 462.071 154.739 461.547 155.125 459.803 156.41 459.547 156.599 459.317 156.818 455.323 160.631 451.939 162.539 451.543 162.762 451.194 163.053 449.923 164.112 449.589 164.391 444.905 165.314 444.132 165.466 443.442 165.849 441.922 166.694 441.214 167.088 440.667 167.685 439.74 168.696 439.42 169.045 439.171 169.448 437.302 172.473 436.244 173.663 432.034 176.619 431.493 177 431.069 177.508 430.696 177.955 430.481 178.212 430.303 178.495 429.573 179.655 428.956 179.885 428.659 179.996 426.99 180.62 426.091 182.159 425.684 182.856 425.113 183.834 425.019 184.963 424.852 186.973 424.784 187.798 424.984 188.601 425.52 190.743 425.642 191.228 425.857 191.679 426.792 193.642 426.904 193.877 427.04 194.1 428.057 195.764 428.336 196.221 428.706 196.609 436.56 204.836 437.16 206.17 437.052 206.215 438.134 209.459 438.872 214.115 440 213.645 440.358 214.146 440.916 214.927 441.723 215.446 443.999 216.908 446.009 218.918 446.443 219.352 446.969 219.668 447.485 219.978 448.567 221.006 452.206 229.557 452.389 229.985 452.647 230.373 454.264 232.8 448.058 242.713 447.931 242.917 447.823 243.132 447.212 244.355 446.876 245.027 446.753 245.768 446.584 246.783 446.554 246.966 446.537 247.15 446.454 248.059 446.424 248.24 446.414 248.246 445.85 249.143 444.26 251.672 442.137 255.048 444.957 257.869 446.173 259.084 447.277 260.188 448.814 260.468 454.934 261.581 455.791 261.736 456.651 261.593 458.158 261.342 458.762 261.242 459.323 260.998 461.004 260.27 461.118 260.361 462.128 261.572 464.115 265.029 464.821 266.793 465.01 268.24 464.932 269.879 464.832 270.979 464.659 271.413 463.342 274.705 463.197 275.067 461.979 276.67 460.691 278.005 460.743 280.095 460.806 282.578 460.81 282.751 460.026 284.647 460.014 284.674 460.004 284.701 459.88 285.011 459.522 285.905 459.522 286.868 459.522 289.63 459.522 289.857 459.543 290.083 459.634 291.084 459.658 291.351 459.71 291.613 459.878 292.452 459.987 292.995 460.212 293.5 460.387 293.895 459.284 295.225 458.661 294.886 457.542 294.275 456.267 294.275 455.525 294.275 454.011 294.275 453.335 294.726 448.858 291.329 443.776 285.588 443.491 285.266 443.155 284.997 442.361 284.362 441.665 283.806 440.821 283.524 439.865 283.205 439.492 283.081 439.104 283.016 438.445 282.907 437.532 282.151 437.241 280.366 437.835 278.742 438.372 278.474 444.579 275.372 439.673 270.466 438.421 269.214 438.084 268.877 437.69 268.61 435.144 266.885 435.101 266.833 437.946 259.488 429.927 260.699 424.13 259.228 423.524 259.074 422.9 259.074 418.842 259.074 418.255 259.074 417.684 259.21 413.702 260.158 413.183 260.282 412.702 260.512 410.635 261.501 409.951 261.828 409.395 262.344 405.986 265.503 405.502 265.951 404.788 266.545 403.916 266.933 402.219 267.259 401.093 267.212 400.584 266.972 397.689 264.574 397.366 264.218 397.074 263.488 395.809 259.891 395.736 259.681 395.644 259.479 395.387 258.914 394.262 256.441 391.575 256.039 390.372 255.859 389.072 255.665 387.844 256.135 383.796 257.685 382.955 257.811 376.953 256.506 376.046 256.309 375.129 256.45 372.965 256.784 373.034 256.541 373.082 256.24 373.214 255.404 374.643 246.354 366.259 250.049 366.2 250.075 365.751 250.272 365.35 250.553 364.454 251.18 364.331 251.267 364.213 251.36 361.734 253.326 361.081 253.616 357.661 255.136 358.156 258.846 358.238 259.461 358.333 260.175 358.626 260.833 358.922 261.498 359.151 262.013 359.489 262.464 360.294 263.538 360.429 263.718 360.579 263.885 361.365 264.758 361.474 264.878 361.611 268.11 361.502 268.984 361.448 269.145 359.569 271.522 333.622 270.385 332.992 270.357 332.376 270.487 322.653 272.529 321.883 272.691 321.2 273.081 320.239 273.63 318.725 274.494 318.077 276.113 318.013 276.274 313.739 275.381 313.233 275.275 312.716 275.275 303.538 275.275 298.849 274.283 298.337 274.175 297.814 274.175 296.199 274.175 293.796 274.175 292.433 275.879 289.495 278.385 288.632 279.121 288.172 280.158 287.504 281.658 287.298 282.121 287.189 282.617 286.365 286.374 286.118 287.074 285.104 288.18 283.771 288.693 279.48 289.382 277.725 288.863 277.363 288.756 276.989 288.704 274.342 288.339 273.452 288.216 272.574 288.411 270.374 288.9 268.754 289.26 267.671 290.518 263.304 295.587 258.758 300.864 258.951 300.942 257.169 301.485 256.088 301.814 255.254 302.576 253.207 304.445 252.776 304.838 252.447 305.32 251.479 306.741 251.588 304.995 248.323 303.616 246.707 302.933 245.048 302.231 243.323 302.749 240.82 303.5 240.062 303.728 239.411 304.178 232.256 309.131 231.155 309.467 221.136 309.305 221.251 308.617 221.319 308.208 221.319 307.793 221.319 306.912 221.319 305.732 220.791 304.676 220.56 304.214 220.244 303.581 219.764 303.061 214.093 296.91 213.427 296.187 212.536 295.77 211.045 295.073 211.087 295.023 211.32 294.743 214.684 290.701 210.476 287.545 208.564 286.111 208.333 285.938 208.083 285.792 207.14 285.242 206.108 284.64 204.916 284.57 203.628 284.494 202.757 284.442 201.921 284.689 200.457 285.12 200.112 285.221 199.786 285.371 195.632 287.275 194.666 287.385 194.571 287.173 193.916 286.518 193.698 286.3 192.944 285.545 191.947 285.165 176.619 279.307 175.757 278.977 174.834 278.977 172.429 278.977 170.877 278.977 169.598 279.856 168.393 280.684 167.696 281.163 167.196 281.843 165.109 284.681 164.854 284.886 161.254 284.321 161.04 284.214 161.234 283.956 161.415 282.688 161.448 282.457 161.601 281.383 161.296 280.341 161.034 279.449 159.573 274.476 154.689 276.103 153.02 276.437 152.592 276.523 152.186 276.681 151.2 277.065 147.539 278.491 148.058 282.385 148.132 282.94 148.242 283.768 148.616 284.514 149.466 286.215 149.822 287.105 149.764 287.569 148.699 293.788 148.088 297.358 151.288 299.051 151.65 299.243 151.814 299.44 152.114 300.081 152.419 301.426 152.419 304.236 151.56 307.36 150.183 310.195 148.803 312.058 147.041 312.622 146.331 312.849 145.719 313.273 144.708 313.973 143.878 314.548 143.336 315.4 142.774 316.283 142.625 316.516 142.504 316.765 140.098 321.668 138.352 323.97 136.595 325.574 131.93 328.478 130.13 329.17 129.536 329.247 129.679 328.725 129.597 327.824 129.52 326.981 129.484 326.598 129.395 326.239 131.171 320.992 131.409 320.29 131.433 319.549 131.508 317.212 131.606 314.135 128.904 312.662 127.549 311.923 126.027 311.093 124.318 311.383 119.711 312.165 118.418 312.384 117.399 313.211 117.2 313.372 116.02 313.372 115.932 313.372 114.887 313.372 114.49 313.546 114.459 313.361 114.215 311.894 114.19 311.742 115.146 310.999 115.576 309.363 115.897 308.145 116.363 306.374 115.577 304.722 114.768 303.023 114.599 302.668 114.376 302.344 108.998 294.505 106.61 291.024 103.423 292.496 102.969 291.451 102.59 290.58 101.919 289.909 100.743 288.733 100.288 288.138 99.355 279.085 92.943 284.196 92.665 284.242 90.192 284.03 87.413 283.027 85.775 282.435 84.125 282.989 84.003 283.03 84.062 282.373 83.931 281.684 83.611 280.006 83.34 278.586 82.354 277.53 81.311 276.413 80.511 275.556 79.414 275.144 78.258 274.71 77.137 274.29 75.948 274.422 74.563 274.576 73.677 274.674 72.879 275.073 71.417 275.804 70.527 276.249 69.875 277.002 67.509 279.732 66.992 280.328 66.684 281.054 65.493 283.862 64.519 285.323 63.113 285.982 56.936 286.063 51.299 284.533 43.283 282.357 45.112 290.459 45.403 291.751 45.557 292.589 45.741 293.593 46.303 294.445 49.532 299.334 50.325 300.535 51.635 301.13 55.225 302.762 56.904 304.249 56.84 308.996 56.179 310.482 51.993 315.761 51.504 316.377 51.228 317.113 50.713 318.487 50.566 318.88 50.486 319.292 49.952 322.055 49.875 322.285 46.318 326.537 46.037 326.872 45.819 327.25 42.362 333.254 40.865 335.855 42.456 338.4 43.048 339.347 43.498 340.067 43.927 340.411 43.423 341.674 44.164 343.528 44.568 344.539 44.804 345.128 45.179 345.64 45.904 346.629 46.294 347.603 45.56 349.253 45.129 350.223 45.129 351.284 45.129 351.983 45.129 354.926 47.702 356.355 48.898 357.018 49.932 357.65 51.877 360.429 52.164 361.403 52.634 363.28 52.163 365.989 50.458 368.205 45.695 374.397 53.312 376.129 53.778 376.235 54.601 376.422 55.439 376.329 61.052 375.705 62.227 375.882 81.326 381.908 80.969 385.471 82.559 385.471 82.359 388.209 82.049 389.684 81.877 390.502 81.981 391.331 82.13 392.525 82.279 393.724 82.96 394.722 84.227 396.581 84.71 397.29 85.402 397.797 88.135 399.801 88.776 400.272 89.533 400.52 101.319 404.387 105.176 408.076 105.611 408.493 106.133 408.794 108.538 410.182 108.989 410.442 109.484 410.604 114.434 412.222 114.646 412.291 115.164 413.698 119.26 412.469 123.249 412.469 122.85 411.388 123.245 411.183 128.164 408.629 129.154 408.115 129.832 407.229 130.86 405.885 131.542 404.992 131.777 403.894 132.016 402.782 132.089 402.44 132.114 402.091 132.187 401.064 132.473 399.807 132.953 399.024 133.669 399.21 134.371 399.394 135.097 399.369 136.985 399.306 141.818 399.145 141.818 394.309 141.818 392.963 143.236 390.262 145.48 387.719 146.632 387.061 148.611 390.308 149.069 391.059 149.757 391.609 153.316 394.457 153.507 394.683 153.714 395.684 152.482 400.531 152.279 401.332 152.344 402.156 152.597 405.358 152.768 407.526 154.47 408.879 157.809 411.532 158.913 412.41 160.313 412.581 164.734 413.122 165.729 413.244 166.694 412.973 178.247 409.726 179.354 409.626 179.937 409.788 186.129 413.462 186.121 413.469 185.476 413.995 185.036 414.701 184.912 414.9 183.478 417.201 184.624 419.658 184.847 420.136 186.083 422.785 188.997 423.008 189.52 423.048 190.494 423.122 191.424 422.825 192.406 422.511 195.18 424.06 196.123 424.587 197.2 424.678 197.987 424.744 198.976 424.827 199.922 424.526 200.997 424.183 202.492 425.393 203.051 425.846 203.715 426.122 204.558 426.473 205.683 426.941 206.897 426.84 207.735 426.77 208.331 426.72 208.899 426.531 212.341 425.383 213.609 425.202 216.781 425.512 218.242 425.999 219.301 426.353 220.411 426.222 221.512 426.092 223.399 425.869 224.662 424.448 225.944 423.007 226.271 422.639 226.519 422.215 228.695 418.509 228.714 418.501 229.929 418.034 230.761 417.033 230.939 416.819 231.715 415.887 231.977 414.703 232.094 414.175 232.243 413.504 232.205 412.817 232.141 411.659 234.076 406.996 234.256 406.564 234.352 406.106 235.535 400.465 236.033 399.418 242.918 392.533 244.215 391.73 251.775 389.272 258.994 388.054 262.073 388.77 265.188 390.285 266.093 390.726 267.099 390.782 270.059 390.946 272.253 391.067 273.827 389.533 277.531 385.919 277.938 385.522 278.245 385.044 278.414 384.781 278.485 384.798 278.491 384.804 278.801 385.217 279.389 386.003 280.232 386.507 280.908 386.912 281.688 387.38 282.582 387.542 283.324 387.677 284.219 387.84 285.114 387.678 285.895 387.536 286.598 387.408 287.237 387.088 287.975 386.719 290.789 385.915 292.612 385.72 297.983 386.864 298.498 386.974 298.999 386.974 299.567 387.038 300.12 387.099 300.674 387.038 301.062 386.994 301.738 387.056 304.617 389.197 305.204 389.633 305.891 389.883 307.683 390.535 309.035 391.027 310.442 390.725 311.322 390.536 312.515 390.28 313.456 389.503 315.434 387.869 315.826 387.598 320.127 386.972 321.479 386.776 322.543 385.919 326.144 383.02 330.554 380.639 335.012 379.04 342.692 378.679 343.791 378.627 344.766 378.119 356.167 372.184 356.899 372.037 357.158 371.986 358.87 371.649 361.163 371.199 359.94 372.798 353.749 376.323 352.229 377.189 351.58 378.812 350.667 381.096 349.884 383.056 350.742 384.984 351.228 386.078 351.61 387.606 352.266 391.352 352.364 391.908 352.583 392.429 353.339 394.225 353.379 394.322 353.424 394.416 353.493 394.563 347.271 400.441 357.037 402.185 358.792 402.499 359.013 402.618 359.59 403.195 359.844 403.662 360.189 404.294 360.699 404.804 361.244 405.349 362.009 406.114 363.022 406.494 364.27 406.962 365.022 407.245 365.826 407.277 369.327 407.417 369.825 409.14 369.825 410.281 369.717 410.713 369.38 411.523 369.143 412.092 369.052 412.701 368.781 414.505 368.725 414.875 368.725 415.248 368.725 417.35 368.725 417.966 368.875 418.563 369.077 419.375 369.413 420.718 370.393 421.698 370.842 422.147 371.119 422.424 371.436 422.654 372.357 423.324 372.934 423.744 373.605 423.986 375.883 424.806 376.324 424.964 376.787 425.038 378.351 425.289 378.939 427.524 379.027 427.861 379.161 428.181 381.348 433.41 381.78 434.443 382.612 435.193 386.419 438.628 387.055 439.202 387.845 439.532 392.383 441.423 392.902 441.639 393.457 441.734 396.246 442.215 399.008 442.676 401.941 444.657 402.169 444.811 402.412 444.939 404.096 445.825 404.933 446.265 405.872 446.37 407.357 446.535 407.993 446.605 408.627 446.513 414.91 445.602 419.589 446.078 419.796 446.183 421.511 447.49 421.959 447.831 422.471 448.064 423.271 448.428 424.258 448.877 425.342 448.877 426.123 448.877 427.133 448.877 428.064 448.485 428.963 448.106 431.359 448.905 437.499 452.968 438.592 453.692 439.9 453.785 467.22 455.743 476.082 457.824 482.961 462.042 483.323 462.264 483.717 462.422 485.988 463.331 486.736 463.63 487.54 463.68 492.142 463.962 492.827 464.004 493.498 463.86 504.705 461.452 509.024 462.199 509.617 462.302 510.218 462.26 515.946 461.868 516.558 462.551 516.982 463.026 517.512 463.378 518.072 463.751 519.243 464.531 520.648 464.586 524.91 464.753 538.684 469.249 539.173 469.409 539.685 469.466 541.245 469.639 541.934 469.715 542.617 469.601 543.853 469.395 544.94 469.453 552.259 471.236 552.843 471.378 553.443 471.378 554.939 471.378 555.358 471.378 555.771 471.308 562.725 470.134 565.107 470.531 575.344 475.415 576.119 475.784 576.972 475.874 578.574 476.044 579.209 476.111 579.84 476.016 581.714 475.735 581.812 475.72 581.909 475.702 583.506 475.397 584.613 475.45 585.8 475.825 586.852 476.292 592.952 481.573 593.702 482.223 594.644 482.537 595.502 482.823 596.271 483.079 597.083 483.079 597.13 483.079 608.075 483.477 622.283 483.874 622.909 483.892 623.52 483.754 625.379 483.336 625.82 483.841 626.264 484.349 626.982 485.17 627.976 485.617 629.686 486.387 631.092 487.089 631.801 487.443 632.584 487.56 634.233 487.807 635.204 487.952 636.158 487.72 637.465 487.401 638.379 489.51 638.726 490.314 639.327 490.951 640.328 492.014 642.725 494.56 645.939 493.181 646.995 492.728 648.999 491.868 649.733 489.814 650.054 488.913 650.617 487.504 650.697 487.305 650.759 487.1 651.58 484.389 652.17 483.488 653.642 483.374 654.063 483.342 654.473 483.239 655.423 483.001 656.261 482.791 656.98 482.312 657.945 481.669 658.401 481.365 658.78 480.971 659.845 479.861 662.681 480.518 664.329 476.673 664.67 475.879 665.634 474.708 665.994 474.271 666.097 474.063 667.956 473.763 670.52 473.349 671.196 473.24 671.818 472.953 674.167 471.869 674.797 471.578 675.324 471.127 675.735 470.775 676.652 469.989 677.11 468.872 677.888 466.971 679.15 464.156 679.24 463.955 679.311 463.747 680.197 461.188 680.216 461.135 680.233 461.082 681.042 458.564 682.201 456.164 683.159 454.727 683.189 454.731 683.853 454.814 684.515 454.719 686.2 454.478 687.507 454.478 688.754 453.663 690.526 452.505 694.612 458.37 698.716 452.493 701.536 448.454 706.285 446.871 708.075 447.127 721.256 449.009 720.798 448.476 722.43 448.648 722.822 448.689 723.216 448.668 738.337 447.872 744.094 447.523 746.24 448.358 747.705 449.613 748.018 449.927 748.415 450.323 748.889 450.622 751.172 452.06 752.783 453.074 754.66 452.761 757.622 452.267 758.935 452.048 759.965 451.205 761.769 449.729 762.715 448.955 763.197 447.832 763.354 447.468 763.742 446.69 764.055 446.064 764.184 445.377 764.424 444.092 764.931 442.986 765.41 442.634 766.676 442.279 768.084 442.279 769.073 442.554 770.494 442.948 771.902 442.509 773.083 442.14 773.77 441.925 774.368 441.526 774.804 441.235 775.024 441.088 775.227 440.919 775.615 440.596 776.474 439.881 776.947 438.868 777.459 437.771 777.928 436.766 777.928 436.487 784.614 437.516 785.147 437.598 785.686 437.564 788.618 437.381 789.418 437.331 790.163 437.034 793.514 435.694 793.54 435.683 793.566 435.672 797.596 434.008 799.689 433.817 801.888 434.284 809.383 438.077 810.08 438.43 810.852 438.553 813.163 438.923 814.471 439.15 814.629 439.272 814.635 439.28 824.663 451.456 823.481 435.726 823.432 435.074 823.358 434.093 822.918 433.213 822.34 432.057 821.886 431.074 821.253 429.704 819.968 428.913 818.918 428.267 818.209 425.922 818.131 423.585 818.225 421.131 818.229 421.035 818.229 420.939 818.229 420.805 819.02 416.064 822.666 414.02 825.231 413.392 825.192 412.603 825.978 412.163 826.062 412.115 826.144 412.065 830.754 409.242 832.193 408.636 833.095 408.256 833.787 407.564 835.093 406.258 835.369 405.982 835.599 405.667 839.709 400.027 840.667 399.001 843.13 397.253 845.114 396.344 845.475 396.178 845.806 395.957 846.458 395.522 847.367 394.916 847.94 393.985 848.477 393.113 849.22 391.907 849.22 390.491 849.22 390.148 849.636 390.044 850.487 389.364 851.029 388.931 852.47 387.779 852.818 385.968 852.997 385.037 855.558 385.561 856.358 385.724 857.168 385.625 861.424 385.104 862.312 385.211 863.401 386.082 863.508 386.167 863.619 386.247 864.108 386.596 865.044 387.264 866.178 387.456 866.385 387.491 867.217 387.632 868.049 387.492 868.168 387.472 869.744 387.207 870.291 386.661 870.713 386.576 873.307 386.576 873.868 386.576 874.415 386.452 875.497 386.206 880.543 385.059 879.224 380.055 879.06 379.433 878.694 378.048 877.738 377.148 878.412 376.715 879.754 375.853 880.348 374.373 880.473 374.062 881.264 372.095 880.4 370.159 880.316 369.973 879.587 368.339 877.987 367.539 876.971 367.031 876.891 366.991 877.122 366.843 877.884 366.356 878.427 365.632 880.908 362.324 881.462 361.586 881.715 360.698 882.132 359.239 882.795 356.921 881.393 354.959 880.435 353.618 879.127 351.786 876.888 351.551 875.715 351.428 874.361 351.286 874.329 350.798 874.232 349.357 873.382 348.189 873.015 347.685 871.696 345.873 871.069 345.811 871.807 344.254 872.434 342.929 872.247 341.475 872.236 341.389 873.405 340.758 873.979 340.447 874.454 340 875.88 338.658 876.772 337.819 877.175 336.661 877.81 334.837 878.235 333.617 878.015 332.344 877.582 329.833 877.466 329.159 877.174 328.542 873.676 321.157 873.457 320.696 873.362 320.569 873.765 319.885 873.699 318.4 873.683 318.045 877.601 316.239 889.487 310.76 890.009 310.519 890.463 310.166 894.872 306.737 896.119 305.784 898.259 304.148 898.07 301.461 897.745 296.856 899.576 296.124 901.208 295.471 902.073 293.941 903.08 292.159 903.678 291.1 903.724 289.884 903.807 287.643 903.846 286.564 903.438 285.565 902.696 283.751 902.315 282.82 901.604 282.109 900.147 280.652 899.71 280.215 899.792 279.802 900.03 278.614 899.696 277.448 898.813 274.359 898.56 273.471 898.006 272.733 896.168 270.283 895.41 269.273 894.264 268.744 892.167 267.776 890.799 267.144 889.311 267.373 886.752 267.767 885.708 267.369 880.248 265.11 878.742 264.487 877.158 264.871 875.449 265.285 874.53 264.901 874.673 264.812 875.001 264.606 875.294 264.353 876.393 263.4 880.561 261.183 881.221 260.832 881.749 260.304 882.519 259.534 883.141 258.911 883.514 258.113 884.027 257.014 884.589 255.809 884.479 254.484 884.424 253.825 886.012 253.103 889.396 253.577 897.974 256.918 898.088 257.001 898.208 257.321 898.638 258.872 898.746 259.261 898.916 259.629 899.482 260.856 899.517 260.931 899.554 261.006 899.768 261.432 900.13 262.152 900.7 262.723 901.802 263.825 902.218 264.24 902.718 264.548 903.75 265.183 904.588 265.699 905.56 265.858 911.851 266.891 912.926 267.068 913.977 266.781 914.611 266.608 915.892 266.258 916.83 265.32 917.724 264.427 917.76 264.526 920.596 265.019 924.423 265.685 925.453 265.865 926.468 265.616 935.462 263.416 943.798 262.266 944.613 262.154 945.348 261.787 946.027 261.448 952.053 258.439 947.612 253.735 947.1 253.018 946.893 252.432 946.717 247.337 946.701 246.875 946.601 246.425 945.888 243.215 945.816 242.106 945.948 241.96 948.658 238.948 946.315 235.729 945.516 233.331 944.994 231.764 944.852 231.665 945.785 230.879 947.384 229.531 947.929 229.072 948.324 228.48 949.363 226.921 949.771 226.309 949.985 225.605 950.622 223.513 950.725 223.176 950.779 222.828 951.167 220.343 951.821 216.156 951.464 216.038 951.534 215.689 951.789 215.179 952.316 214.124 952.316 212.944 952.316 212.45 952.316 211.507 956.26 208.149 960.547 204.499 956.415 200.673"/>
    <g id="features">
        <path id="la" d="M942.207,185.578l.856-.856-1.324-2.427-.813-.542-1.684-.266c-.124-.02-.243-.062-.351-.126l-1.7-1c-.087-.051-.165-.115-.233-.189l-3-3.3c-.103-.114-.179-.25-.222-.398l-.8-2.8c-.026-.089-.038-.182-.038-.275v-3.807l-.573-3.058-1.885-6.35c-.027-.092-.041-.188-.041-.285v-.9l.097-1.962-.06-.479-.09-.135-.498-.187c-.121-.045-.232-.114-.327-.202l-1.182-1.091-.954-.434c-.049-.022-.096-.048-.141-.078l-.9-.6c-.168-.112-.299-.273-.374-.461l-.4-1c-.033-.084-.055-.171-.065-.261l-.085-.765-.35-.874-.339-.761-.115-.153-.332-.199c-.369-.221-.555-.654-.462-1.074l.2-.9c.009-.042.022-.084.036-.125l.4-1.1.175-.467-.315-.881-1.012-1.181-1.164-.895-.448-.256-2.179-.182c-.169-.014-.331-.071-.472-.165l-.9-.6c-.177-.118-.312-.29-.385-.49l-.4-1.1c-.046-.125-.066-.259-.059-.392l.1-2c.003-.065.013-.129.029-.193l.2-.8c.024-.096.062-.187.113-.272l.229-.382.244-.893,1.091-9.524c.003-.025.007-.05.011-.075l.5-2.6c.017-.09.047-.177.088-.258l1.2-2.4c.021-.042.044-.082.071-.12l2.997-4.351.556-2.224c.02-.078.049-.154.086-.225l.9-1.7c.064-.121.152-.227.259-.313l1.937-1.55,1.705-1.885.223-.669.542-2.079-1.037-7.917-2.207-2.632c-.118-.061-.224-.146-.311-.252l-1.4-1.7c-.117-.142-.192-.313-.218-.494l-1.667-11.672-2.303-3.412-1.312-.138-4.381,1.619c-.111.041-.228.062-.347.062h-.322l-1.822.288c-.052.008-.104.012-.156.012-.129,0-.258-.025-.379-.074l-2.2-.9c-.062-.025-.121-.057-.176-.094l-3.3-2.2-.887-.531-1.525-.593-4.39.191h-.143c-.073,0-.146-.007-.217-.023l-.847-.188-.846-.094c-.174-.019-.34-.084-.481-.187l-1.5-1.1c-.149-.109-.264-.257-.334-.428l-.9-2.2c-.029-.071-.05-.145-.062-.221l-.379-2.367-.778-1.712-.127-.051c-.018-.007-.036-.015-.054-.024l-1.539-.724-2.122-.185c-.066-.006-.13-.018-.193-.036l-4.8-1.4-2.311-.703c-.09-.027-.175-.067-.254-.118l-1.874-1.218-.556-.159c-.059-.017-.117-.039-.172-.067l-.102-.051-.632.115-.072.036c-.025.012-.05.024-.076.034l-2,.8c-.092.037-.189.06-.288.068l-1.2.1c-.028.002-.055.003-.083.003-.055,0-.11-.005-.164-.014l-1.8-.3-1.22-.229-1.569,1.046-5.769,9.904c-.043.201-.147.386-.3.528l-1.3,1.2c-.108.1-.237.174-.377.219l-1.9.6c-.098.031-.2.046-.301.046-.092,0-.185-.013-.275-.038l-.7-.2c-.13-.037-.251-.1-.356-.185l-1.25-1.016-1.807.301-.066.033c-.139.07-.293.106-.447.106-.051,0-.103-.004-.154-.012l-4.5-.7-6.694-.999-5.281-.782-.981.089-9.035.503-.956.097c-.033.003-.066.005-.099.005-.141,0-.28-.03-.409-.088l-2.9-1.3-.21-.104-1.337-.573-.26-.087c-.036-.012-.072-.026-.107-.042l-1.5-.7c-.058-.027-.113-.059-.164-.096l-12-8.7c-.228-.165-.376-.419-.407-.699l-.1-.9c-.004-.037-.006-.074-.006-.11v-.886l-.007-.007-1.451.363c-.08.02-.162.03-.243.03-.212,0-.421-.067-.594-.196-.24-.178-.388-.453-.404-.752l-.078-1.483-.336-.299-.794-.061-1.336.356c-.085.023-.172.034-.258.034-.322,0-.631-.156-.821-.429-.241-.345-.239-.804.004-1.148l.205-.29-.494-.22c-.072-.032-.141-.073-.204-.121l-1.049-.807-1.984-.086c-.141-.006-.278-.042-.404-.105l-.8-.4c-.156-.078-.288-.195-.385-.34l-.6-.9c-.074-.111-.125-.236-.15-.368l-.338-1.773-.25-.214h-.73l-2.381.096-.729.146-.135.09c-.034.023-.07.044-.107.062l-.2.1-.6.3-3.178,1.689c-.072.038-.148.067-.227.087l-.372.093-1.573.491c-.097.03-.197.046-.298.046h-2.7c-.073,0-.146-.008-.217-.024l-2.7-.6c-.098-.022-.191-.058-.278-.107l-9.233-5.262-7.028-2.672-2.722-1.109c-.105-.043-.202-.103-.287-.179l-.9-.8-.794-.695-4.128-3.538-2.339-1.403-2.502-.866-.889-.296-1.8-.6c-.045-.015-.089-.033-.131-.054l-5.726-2.863-2.377-.732h-5.45c-.234,0-.46-.082-.64-.232l-.6-.5c-.106-.088-.193-.198-.254-.321l-.328-.656c-.013-.013-.025-.027-.037-.041l-.26-.303-.018.026-.27,2.246c-.012.099-.039.196-.079.287l-.4.9c-.023.052-.05.102-.082.149l-.4.6c-.022.033-.047.065-.073.096l-1.2,1.4c-.06.07-.128.13-.205.181l-.6.4c-.089.059-.187.104-.29.132l-9.1,2.5c-.086.024-.175.036-.265.036-.014,0-.028,0-.042,0l-2.4-.1c-.31-.013-.596-.169-.775-.422s-.23-.575-.139-.871l.756-2.456v-2.151l-.471-2.353-.585-1.902-6.884-.543h-.56c-.03,0-.06-.001-.091-.004l-1.1-.1c-.081-.007-.161-.025-.239-.052l-6.359-2.216-.348.058c-.023.004-.046.007-.07.009l-1.641.156-.054.188v.61l.095.95c.017.166-.009.334-.073.487l-1.525,3.623-.095,4.953.495,5.445c.003.03.004.06.004.091v5c0,.072-.008.144-.023.214l-2.5,11.4c-.011.051-.026.101-.046.15l-.862,2.203-.155.933.153.917.553,1.289.467,1.12.146.219c.183.274.219.62.096.926l-1.2,3c-.01.026-.022.051-.034.076l-.1.2c-.156.312-.464.521-.811.549l-2.4.2c-.028.002-.055.003-.083.003-.128,0-.255-.025-.374-.073l-6.091-2.456-5.81-.871h-.063l-.396.132-.692.315-.517,1.257-.481,2.118c-.022.096-.058.189-.107.275l-1.112,1.947-.57,3.326c-.039.227-.155.434-.329.586l-4.574,3.977-.075.075c-.016.016-.032.031-.049.046l-1.48,1.295-2.001,3.365-.377,4.529v5.558c0,.043-.003.086-.008.129l-.6,4.6c-.024.181-.097.353-.211.495l-.057.071,1.666,1.59,7.23,1.639c.061.014.121.033.179.059l3.9,1.7c.022.01.044.02.066.032l3.644,1.918,4.225.576c.072.01.143.027.211.052l1.9.7c.105.039.203.095.29.166l1.7,1.4c.088.073.163.16.222.257l1.2,2c.074.123.12.261.136.404l.2,1.8c.009.078.008.157-.002.234l-.1.8c-.034.269-.175.513-.392.676l-.4.3c-.174.13-.384.2-.6.2-.025,0-.049,0-.074-.003l-2.404-.178-.022.152v1.529c0,.06-.005.12-.016.179l-.184,1.011v1.28l.421,1.599,2.405,3.385,2.69.897c.373.124.638.455.678.846l.556,5.377,1.965,1.538c.145.113.255.264.32.436l.6,1.6c.024.063.041.128.051.194l1.4,8.8c.011.071.015.143.011.215l-.898,15.471v3.971c0,.423-.266.8-.664.942-.11.039-.224.058-.336.058-.294,0-.58-.13-.774-.367l-1.673-2.045-1.238-.661-1.04-.32-5.534.281-1.862.846-1.515,1.515-1.753,2.434c-.044.062-.096.118-.153.168l-1.6,1.4c-.122.107-.268.182-.425.22l-17.1,4.1c-.077.018-.155.028-.233.028-.091,0-.182-.012-.27-.037l-2.5-.7c-.157-.044-.301-.126-.419-.238l-2-1.9c-.048-.046-.092-.096-.13-.15l-3.276-4.666-1.381-1.657-1.568-1.045-1.828-.609-4.782-.09-1.316,1.069c-.057.046-.118.086-.183.118l-.685.343-.679.594-.262.262-.127.255-.136.272-.167.919-.696,7.059c-.003.029-.007.058-.012.086l-.3,1.6c-.012.064-.03.127-.054.187l-.583,1.458-.227.758.566,4.714.142.497.232.387c.027.046.051.094.071.143l.2.5c.047.118.072.244.072.371v.7c0,.19-.054.376-.156.537l-.7,1.1c-.027.043-.058.083-.091.122l-1.241,1.418-.041.166-.07.281v.777c0,.055-.005.11-.014.164l-.1.6c-.018.106-.053.209-.103.305l-1.7,3.2c-.061.115-.143.216-.243.299l-.6.5-.515.413c-.119.095-.259.162-.408.195l-.023.005,1.599,1.889,19.038,14.477,6.035,3.017,3.712,1.075c.077.022.152.054.222.094l2.6,1.5c.044.025.086.054.125.085l2.5,2c.058.046.11.099.156.156l1.2,1.5c.014.018.028.036.041.055l.9,1.3c.121.175.184.385.177.599l-.1,3.4c-.006.195-.068.384-.18.544l-1.992,2.846-1.53,6.312-.097,3.993c0,.022-.002.044-.004.066l-.2,2.2c-.011.121-.044.239-.097.348l-1.751,3.585,3.303,2.674,12.041-.097s.005,0,.008,0c.174,0,.345.045.496.132l.7.4c.09.051.171.116.241.193l1.055,1.15,3.321,2.768,2.031.244,2.668-.623,2.76-1.713c.041-.025.083-.047.127-.067l4.8-2.1c.051-.022.104-.04.158-.054l2.4-.6c.061-.015.124-.025.187-.028l1.8-.1c.018-.001.037-.002.055-.002.066,0,.132.007.196.019l1.903.381h.952l3.419-1.045,6.064-2.386c.05-.02.101-.035.154-.047l4.433-.964,1.003-.617.936-1.192.659-1.224c.027-.051.059-.099.094-.144l3.3-4.2c.191-.243.482-.382.786-.382.054,0,.107.004.161.013l4.758.777.599-.075,7.243-1.786c.078-.019.159-.029.239-.029.028,0,.055.001.083.003l2.4.2c.105.009.208.034.305.075l1.9.8c.11.046.21.112.297.193l4.889,4.595,9.763,4.733c.051.025.1.054.147.087l4.377,3.14,7.727.676c.247.022.478.135.647.317l2.5,2.7c.031.033.059.069.085.106l1.288,1.84,1.497.969,2.145,1.119,1.064.246h.987l.903-.181c.065-.013.13-.019.196-.019s.131.006.196.019l1.5.3c.174.035.336.115.468.233l.9.8c.119.106.212.239.269.388l.5,1.3c.028.072.047.147.057.223l.693,5.046.471,1.885.77,1.968.566.411.717-.055,3.81-2.096c.089-.049.186-.084.286-.104l1.5-.3c.065-.013.131-.019.196-.019.196,0,.389.058.555.168l.9.6c.076.051.145.112.205.181l.6.7c.041.048.078.1.109.155l.8,1.4c.053.093.091.195.112.3l.1.5.2,1c.007.037.013.075.016.113l.1,1.2c.007.078.004.157-.008.235l-.2,1.3c-.007.044-.016.087-.029.13l-.477,1.622-.065.523.139.51.209.119.645.143h2.79c.222,0,.437.074.612.209l3.1,2.4c.111.086.203.195.269.318l1.5,2.8c.024.046.045.093.062.142l1.206,3.446,9.221,1.6c.109.019.215.056.312.11l2.9,1.6c.082.045.158.102.224.168l.969.969.536.238h.526l.978-.326,2.737-1.368c.14-.07.294-.106.447-.106.126,0,.252.024.371.072l.5.2c.16.064.302.169.409.304l.4.5c.053.067.098.14.133.219l.4.9c.026.058.046.119.061.181l.3,1.3c.011.047.018.094.022.142l.093,1.119.167.669.662,1.797,1.184,2.369,3.678,3.139,6.434.186,2.744-.549,2.791-1.489,1.769-1.396,5.944-6.423.237-1.423v-1.977l-.562-1.965c-.011-.038-.02-.077-.026-.117l-.4-2.5c-.014-.086-.016-.173-.007-.26l.4-3.9c.006-.063.019-.125.037-.185l.6-2c.022-.073.052-.143.09-.209l1.2-2.1.701-1.103,3.712-7.145-3.147-4.856-4.057-4.75c-.039-.046-.074-.095-.104-.147l-1.8-3.1c-.023-.04-.043-.081-.061-.123l-.9-2.2c-.049-.12-.074-.249-.074-.379v-10.8c0-.505.377-.931.879-.993l3.8-.463,1.118-.958,1.35-1.53.594-1.358.364-1.819.297-6.823c.006-.144.044-.285.11-.414l1.8-3.5c.044-.085.099-.163.164-.231l1.9-2c.033-.034.068-.067.105-.096l5.7-4.5c.095-.075.204-.133.32-.169l3.5-1.1c.081-.026.166-.041.251-.045l4.1-.2c.016,0,.032-.001.049-.001.104,0,.207.016.306.048l8.016,2.577,4.178-2.045,2.177-2.272c.044-.046.092-.088.145-.125l4.043-2.86,1.533-1.443,1.086-1.991,1.573-4.425c.062-.175.172-.33.318-.446l3-2.4c.059-.047.124-.088.192-.121l2.5-1.2c.071-.034.146-.06.223-.076l1.4-.3c.069-.015.139-.022.21-.022.047,0,.094.003.141.01l1.108.158,4.64-2.134,4.818-3.54c.05-.037.103-.068.158-.095l2.7-1.3c.099-.048.205-.079.315-.092l2.5-.3c.04-.005.079-.007.119-.007.155,0,.308.036.447.106l1.8.9c.055.027.107.06.156.097l3.635,2.751,1.312.69.701-.45.667-1.186.076-1.134-.271-1.263c-.009-.042-.015-.084-.019-.126l-.1-1.2c-.006-.077-.004-.154.007-.23l.4-2.7c.031-.212.13-.409.282-.56l1.6-1.6c.087-.087.189-.157.301-.207l.9-.4c.129-.057.268-.086.406-.086.153,0,.307.035.447.106l1.2.6c.031.015.061.032.09.051l.948.604.973.209.672-.201.577-.289ZM886.59,178.313c-.191.247-.485.387-.79.387-.063,0-.126-.006-.189-.018l-8.18-1.577-5.361.287-1.37.403-.738.664-.283.425-.365.822c-.039.089-.091.171-.154.245l-.6.7c-.06.07-.128.13-.205.181l-1.2.8c-.164.109-.357.168-.555.168h-2.7c-.089,0-.177-.012-.263-.035l-1.1-.3c-.052-.014-.102-.032-.151-.054l-2.2-1c-.053-.024-.104-.053-.153-.086l-1.344-.924h-2.696l-3.109.583c-.061.011-.122.017-.184.017-.027,0-.055-.001-.082-.003l-7.3-.6c-.146-.012-.287-.056-.414-.128l-1.4-.8c-.192-.11-.342-.28-.427-.484l-.437-1.049-.592-.677c-.041-.047-.078-.098-.109-.151l-1-1.7c-.124-.211-.166-.459-.119-.699l.955-4.87-.221-.812-.41-.983-.786-.873c-.039-.043-.074-.09-.105-.139l-1-1.6c-.099-.159-.152-.343-.152-.53v-1.6c0-.093.013-.185.038-.275l.4-1.4c.017-.059.039-.117.067-.172l.3-.6c.019-.037.039-.073.062-.108l.8-1.2c.037-.055.078-.106.125-.152l.9-.9c.192-.192.448-.293.707-.293.147,0,.296.033.435.099l2.634,1.272,1.24-.155,1.263-.337.799-.559,1.246-1.156.527-.878c.078-.13.185-.241.312-.324l8-5.2c.039-.026.081-.048.123-.068l4.3-2c.044-.02.088-.037.134-.051l1.814-.544.599-.479.312-1.093c.123-.432.518-.725.961-.725.027,0,.054.001.081.003l3.7.3c.279.023.536.162.709.383l.7.9c.031.039.058.081.083.124l2.661,4.74.415-.675c.149-.242.393-.409.673-.46l2.2-.4c.06-.011.119-.016.179-.016.235,0,.464.083.646.237l1.3,1.1c.125.106.222.24.283.392l.531,1.327,1.173,1.264c.119.128.202.285.242.456l.3,1.3.44,2.025.692.692c.09.09.162.196.212.313l.288.673.187.374c.094.189.127.403.092.612l-.1.6c-.004.024-.009.048-.015.072l-.886,3.643-.566,4.624.713,2.228,2.572,5.44c.161.341.117.743-.114,1.04Z"/>
        <path id="ua" d="M691.871,160.918l1.5.8c.117.062.22.147.303.249l.026.032v-1.199c0-.019,0-.039.002-.058l.894-15.392-1.367-8.593-.466-1.242-2.079-1.627c-.214-.167-.35-.414-.378-.685l-.534-5.158-2.388-.796c-.201-.067-.376-.196-.499-.37l-2.7-3.8c-.07-.098-.121-.208-.152-.325l-.5-1.9c-.022-.083-.033-.169-.033-.255v-1.5c0-.06.005-.12.016-.179l.184-1.011v-1.51c0-.047.003-.095.01-.141l.1-.7c.021-.148.075-.289.158-.413l.2-.3c.147-.221.376-.374.636-.426l.5-.1c.065-.013.13-.019.196-.019.025,0,.049,0,.074.003l2.111.156.008-.066-.163-1.466-.999-1.665-1.436-1.183-1.638-.604-4.292-.585c-.116-.016-.227-.052-.331-.106l-3.768-1.983-3.78-1.648-7.408-1.679c-.176-.04-.339-.127-.469-.252l-1.875-1.789-1.047.992c-.186.176-.433.274-.688.274-.018,0-.035,0-.053-.001l-1.9-.1c-.278-.015-.537-.145-.716-.358l-1-1.2c-.065-.078-.118-.166-.156-.259l-.65-1.578-.972-1.271-.07-.01-1.683.531c-.098.031-.199.046-.301.046-.037,0-.074-.002-.11-.006l-.9-.1c-.337-.037-.632-.243-.784-.547l-.4-.8c-.069-.139-.106-.292-.106-.447v-1.155l-.06-.656-.197-.173-1.158.154-3.06,1.435-.377.189c-.073.037-.15.064-.23.082l-1.8.4c-.072.016-.144.024-.217.024-.093,0-.185-.013-.275-.039l-1.4-.4c-.068-.019-.133-.046-.195-.079l-4.7-2.5c-.107-.057-.202-.132-.282-.223l-2.312-2.631-.568.393-.137.103-2.597,6.83c-.05.132-.128.252-.228.352l-1,1-.9.9c-.087.087-.189.157-.301.207l-1.8.8-2.812,1.205-1.275.589c-.033.015-.068.029-.103.041l-.133.044-2.262,1.791c-.066.052-.138.096-.215.13l-.9.4c-.102.045-.212.073-.323.083l-1.2.1c-.028.002-.055.003-.083.003h-.1c-.107,0-.214-.017-.316-.051l-.3-.1-1.42-.507c-.038-.014-.075-.029-.111-.047l-.302-.151-.293-.073c-.029-.007-.058-.016-.086-.026l-9.094-3.163-16.789-1.888c-.103-.012-.204-.039-.299-.082l-4-1.8c-.077-.034-.149-.079-.214-.131l-1-.8c-.056-.045-.108-.096-.153-.153l-2.1-2.6c-.045-.056-.084-.117-.117-.181l-.5-1c-.034-.068-.06-.14-.078-.214l-.6-2.5c-.061-.255-.02-.523.115-.748l.3-.5c.112-.187.283-.333.486-.414l.257-.103.609-1.294c.07-.148.174-.276.305-.374l.4-.3c.173-.13.384-.2.6-.2h.1c.046,0,.093.003.138.01l.035-.174-.144-.529-.303-.217-.677-.254c-.134-.05-.255-.128-.356-.229l-.6-.6c-.07-.07-.129-.149-.175-.237l-.777-1.457-1.943-2.915-.841-1.01-2.628-1.408-.375-.187c-.017-.008-.033-.017-.049-.026l-2.076-1.186-.375-.188c-.015-.008-.03-.016-.045-.024l-2.3-1.3c-.055-.031-.106-.067-.154-.107l-2.6-2.2-2.095-1.618-2.125-1.109-3.883-1.052-3.086,6.614-.066.399c.118.087.218.202.29.341l1.229,2.363.366.366,1.34.625c.301.14.512.421.565.749s-.061.66-.304.887l-1.341,1.257-.236,1.729.588,5.681c.005.045.006.091.005.136l-.1,3c-.001.04-.005.079-.011.119l-.4,2.6c-.007.043-.016.086-.028.128l-.7,2.4c-.013.043-.028.085-.046.126l-2,4.5c-.031.069-.069.134-.114.194l-.6.8c-.028.038-.059.074-.093.107l-1,1c-.087.087-.189.157-.301.207l-.9.4c-.079.035-.163.06-.248.074l-2.466.395-.642,1.349-1.075,4.693c-.081.355-.349.637-.698.738-.091.026-.184.039-.276.039-.262,0-.517-.103-.707-.293l-.173-.173-4.637-2.125c-.166-.076-.308-.196-.411-.348l-1.813-2.672-1.706-1.347-1.926-1.009-11.993-3.413-3.689.553-3.62,1.299-.802.729-.423.916v.168l.314.706c.036.08.061.165.074.252l.467,2.99.984,1.521c.082.126.134.27.153.419l.2,1.6c.012.096.01.193-.006.289l-.3,1.8c-.015.091-.043.178-.082.261l-1.583,3.363-.543,1.448-.177,1.502.197,5.022c.002.05,0,.1-.005.15l-.2,1.8c-.009.085-.03.169-.061.249l-.5,1.3c-.026.069-.06.134-.101.196l-.496.744-.159.718-.693,3.764c-.022.12-.066.234-.129.338l-1.7,2.8c-.052.085-.116.163-.191.229l-11.6,10.3c-.056.049-.117.093-.182.128l-4,2.2c-.096.053-.2.089-.308.109l-16.301,2.882-12.185,4.815-1.744,1.285-4.354,4.156c-.06.057-.127.107-.199.148l-3.821,2.155-1.271,1.059c.003.193-.05.385-.156.551-.147.231-.382.392-.651.445l-6.445,1.27-1.52.845-.927,1.011-2.05,3.319c-.03.049-.065.096-.103.139l-1.6,1.8c-.051.058-.109.11-.173.154l-4.591,3.224-.373.447-1.664,2.644c-.108.172-.266.306-.452.386l-.7.3c-.125.053-.258.081-.394.081h-.619l-.297.111-.407.697-.167,2.01.536,2.142.935,1.963,1.017,1.664,8.326,8.722c.078.082.142.177.189.28l1.8,4c.036.081.062.167.076.254l.102.644,1.227-.511c.041-.017.083-.031.126-.043l5.425-1.453,1.074-.767.242-.424.869-2.606c.057-.172.16-.325.298-.443l1.4-1.2c.102-.087.22-.153.348-.194l2.2-.7c.079-.025.161-.04.244-.045l5.1-.3c.02-.001.039-.002.059-.002.055,0,.11.005.164.014l3,.5c.12.02.236.062.341.124l2.9,1.7c.082.048.156.107.221.176l3.422,3.618.454.303.483.242,4.543,1.547,4.279.571,6.614-.767,7.952-3.731c.135-.063.28-.095.425-.095.207,0,.412.064.586.189l3.534,2.552,1.128.564c.049.025.096.053.141.086l1.1.8c.067.049.127.105.18.169l1,1.2c.166.199.248.454.229.711l-.1,1.4c-.015.212-.097.413-.234.575l-1.1,1.3c-.138.164-.326.278-.534.328l-1.7.4c-.075.018-.152.027-.229.027-.02,0-.039,0-.059-.002l-1.7-.1c-.081-.005-.162-.019-.24-.044l-2.932-.916-.343.086-.324.231-.257.579-.364,1.366-.286,2-.293,4.886.194,2.227.289,2.209,1.481,6.416.439,1.404.901,1.228,1.6,1.095,21.312,4.758c.167.037.321.116.448.23l2.8,2.5c.394.352.446.951.119,1.366l-1.5,1.9c-.156.197-.38.329-.629.368l-1.9.3c-.031.005-.061.008-.092.01l-4.402.281-.277.208-.032.129.431,1.006.294.441.428.428.937.511,2.331,1.026,2.859.381c.312.042.585.227.739.501l.9,1.6c.031.055.057.114.077.174l.5,1.5c.067.201.068.418.004.62l-4.167,13.082,1.782,3.119c.053.093.091.195.112.3l.3,1.5c.024.119.026.241.006.36l-.3,1.8c-.016.098-.047.194-.092.283l-.7,1.4c-.009.019-.019.037-.03.055l-1.742,3-.612,2.01.174,2.352.864,2.074,3.988,4.083,6.545,4.235,10.557,2.092.782-.427c.07-.038.144-.068.221-.088l1.03-.275.108-.253c.06-.139.15-.263.264-.362l2.973-2.577.36-.36.281-.562.435-1.653-.09-2.068-.561-2.71-1.03-2.246-.825-1.374-1.439-1.631c-.016-.018-.03-.036-.045-.054l-1.3-1.7c-.03-.039-.056-.079-.08-.122l-1-1.8c-.049-.087-.084-.182-.104-.28l-.4-1.9c-.01-.049-.017-.098-.02-.147l-.1-1.7c-.002-.039-.002-.077,0-.116l.2-3.5c.001-.026.004-.052.008-.078l.3-2.2c.006-.045.016-.09.028-.135l.7-2.5c.033-.119.089-.231.163-.33l1.5-2c.051-.067.109-.128.175-.181l2-1.6c.054-.043.113-.081.175-.112l12.7-6.4c.094-.047.194-.079.298-.095l1.3-.2c.05-.008.101-.012.152-.012.03,0,.06.001.091.004l1.1.1c.155.014.305.064.437.146l2.816,1.748,1.43.536,3.518.684c.058.011.115.028.17.049l3.024,1.171,1.652.348,5.029-.677c.045-.006.089-.009.133-.009.292,0,.573.128.764.355l5.4,6.4c.072.086.13.183.17.288l1.3,3.4c.025.066.044.135.054.205l.186,1.208.288.817,1.96-1.388c.095-.067.2-.117.312-.148l5.715-1.577,4.32-2.062c.06-.029.123-.052.188-.068l1.6-.4c.08-.02.161-.03.243-.03.06,0,.12.005.179.016l1.1.2c.14.025.273.08.39.161l6.735,4.655,2.35,1.128,2.283.639h3.211l2.583-.802,5.157-3.989c.031-.024.064-.046.097-.067l3-1.8c.074-.044.154-.079.236-.103l3.712-1.075,1.773-.887,1.045-1.045.424-1.017c.03-.071.067-.138.112-.201l1.3-1.8c.11-.153.262-.271.437-.342l16.959-6.843,7.312-5.965,1.923-3.938.18-1.984.099-4.067c.002-.071.011-.142.028-.211l1.6-6.6c.029-.121.081-.236.153-.338l1.928-2.755.082-2.773-.693-1.001-1.109-1.386-2.354-1.883-2.429-1.401-3.684-1.066c-.058-.017-.115-.039-.169-.066l-6.2-3.1c-.056-.028-.109-.061-.158-.098l-19.2-14.6c-.058-.044-.111-.094-.158-.15l-2.2-2.6c-.208-.246-.285-.576-.207-.888l.2-.8c.092-.367.383-.651.753-.734l.673-.15.319-.255.434-.362,1.531-2.883.06-.358v-.817c0-.082.01-.163.03-.242l.1-.4.1-.4c.039-.154.113-.297.218-.416l1.35-1.543.503-.79v-.216l-.099-.247-.259-.431c-.045-.075-.08-.156-.104-.24l-.2-.7c-.015-.051-.025-.103-.031-.156l-.6-5c-.016-.136-.004-.275.035-.406l.3-1c.009-.028.018-.056.029-.084l.564-1.409.274-1.461.696-7.057c.003-.027.006-.054.011-.081l.2-1.1c.017-.093.047-.183.089-.268l.2-.4.2-.4c.048-.096.111-.184.187-.26l.4-.4c.016-.016.032-.031.049-.045l.8-.7c.064-.056.135-.104.211-.142l.702-.351,1.515-1.231c.178-.145.401-.224.631-.224.006,0,.013,0,.019,0l5.3.1c.101.002.201.019.297.051l2.1.7c.084.028.165.067.238.117l1.8,1.2c.08.053.152.118.214.192l1.5,1.8c.018.021.034.043.05.066l3.243,4.618,1.748,1.66,2.011.563,16.608-3.982,1.328-1.162,1.733-2.407c.031-.044.066-.085.104-.123l1.7-1.7c.085-.085.184-.154.293-.203l2.2-1c.114-.052.238-.082.363-.088l5.9-.3c.017,0,.034-.001.051-.001.1,0,.199.015.294.044l1.3.4c.061.019.12.043.176.073Z"/>
        <path id="bl" d="M946.103,210.222c.021-.265.146-.511.349-.683l6.542-5.57-1.724-1.596-3.708-1.331c-.051-.018-.1-.041-.148-.067l-2.7-1.5c-.382-.212-.582-.648-.494-1.077l.48-2.322-.888-.761-.428-.257c-.366-.22-.552-.647-.464-1.065l.7-3.3c.008-.037.018-.073.03-.109l.6-1.8c.037-.112.094-.216.168-.309l.675-.844-.944-1.07c-.015-.017-.03-.035-.044-.053l-.599.599c-.076.076-.164.139-.26.187l-.8.4c-.051.026-.105.047-.16.063l-1,.3c-.094.028-.19.042-.287.042-.07,0-.14-.007-.209-.022l-1.4-.3c-.116-.025-.227-.07-.327-.134l-1.056-.672-.732-.366-.299.133-1.235,1.235-.335,2.259.085,1.021.286,1.337c.019.091.026.184.02.276l-.1,1.5c-.01.149-.053.294-.126.424l-.9,1.6c-.08.142-.194.263-.331.351l-1.4.9c-.164.106-.352.159-.541.159-.16,0-.32-.038-.466-.115l-1.9-1c-.048-.025-.094-.055-.138-.087l-3.626-2.744-1.449-.724-2.037.244-2.467,1.188-4.825,3.545c-.054.04-.113.074-.174.103l-5,2.3c-.132.061-.274.091-.418.091-.047,0-.094-.003-.141-.01l-1.223-.175-1.11.238-2.29,1.099-2.689,2.151-1.505,4.232c-.018.05-.039.098-.064.144l-1.2,2.2c-.051.093-.116.177-.193.249l-1.7,1.6c-.034.032-.07.061-.108.088l-4.022,2.845-2.234,2.331c-.081.085-.177.155-.282.206l-4.7,2.3c-.138.068-.289.102-.44.102-.103,0-.206-.016-.306-.048l-8.227-2.644-3.79.185-3.202,1.006-5.5,4.342-1.752,1.844-1.634,3.178-.291,6.681c-.002.051-.008.102-.018.153l-.4,2c-.014.07-.036.139-.064.205l-.7,1.6c-.042.095-.098.183-.166.261l-1.5,1.7c-.031.035-.064.067-.099.098l-1.4,1.2c-.15.128-.334.21-.53.233l-3.221.393v9.718l.799,1.954,1.72,2.962,4.041,4.731c.029.033.055.069.079.106l3.5,5.4c.196.302.214.686.048,1.005l-4,7.7c-.013.026-.028.051-.044.076l-.7,1.1-1.119,1.96-.54,1.8-.377,3.675.37,2.311.584,2.042c.026.089.038.182.038.275v2.2c0,.055-.005.11-.014.164l-.3,1.8c-.032.193-.12.372-.252.515l-6.2,6.7c-.035.038-.073.073-.114.106l-1.9,1.5c-.047.037-.097.069-.149.097l-3,1.6c-.086.046-.179.079-.274.098l-3,.6c-.065.013-.13.019-.196.019-.01,0-.019,0-.029,0l-6.452-.187-6.592,6.974c-.072.076-.156.141-.248.191l-2.2,1.2c-.152.083-.316.122-.478.122-.348,0-.685-.181-.869-.504l-.4-.7c-.033-.057-.06-.117-.08-.18l-.365-1.096-.205-.342-.513.068-.904.903-1.645,2.285-.301,1.13.156,1.17,2.048,4.877c.014.034.027.069.037.104l1.3,4.4c.006.021.012.043.017.064l1.1,4.9c.005.023.009.046.013.069l1,6.6c.006.038.009.076.011.114l.096,2.69,3.272,12.594c.021.082.032.167.032.251v4.7c0,.077-.009.155-.027.23l-1.26,5.332.178,1.601.367,2.205.979,1.78,4.25,5.437c.096.123.162.267.193.42l.3,1.5c.019.094.024.191.015.287l-.1,1.1c-.009.102-.034.203-.074.298l-.8,1.9c-.027.064-.061.126-.101.183l-3.2,4.6-5.721,7.629c-.041.054-.087.104-.138.149l-4.173,3.688-.748,1.329-.347,1.477-.095,1.712c-.002.038-.006.077-.013.114l-.478,2.771.062.687.354.471,1.401,1.121c.072.058.136.125.189.2l.5.7c.03.042.057.087.081.134l.2.4c.062.124.097.259.104.397l.062,1.246,1.55-.869,4.866-2.98c.043-.026.088-.049.134-.069l1.719-.724,1.306-1.306,4.254-5.837c.024-.033.05-.064.077-.093l1.4-1.5c.046-.049.097-.094.152-.133l3.1-2.2c.051-.036.105-.068.162-.094l2.328-1.067.652-.435.537-.872v-.667l-.095-.95c-.012-.122-.002-.245.03-.363l.3-1.1c.054-.198.167-.374.325-.505l1.2-1c.116-.096.252-.165.398-.202l.988-.247.542-.433.43-2.238c.02-.103.055-.201.106-.293l1.1-2c.156-.283.439-.474.759-.511l1.7-.2c.039-.005.078-.007.117-.007.067,0,.134.007.2.02l4.24.867,4.738-.58c.04-.005.081-.007.122-.007.04,0,.08.002.119.007l2.5.3c.185.022.36.096.506.212l1.979,1.583.489.349.207.035.119-.02.273-.273c.14-.14.317-.235.511-.273l2-.4c.065-.013.13-.019.196-.019h2.988l1.082-.246-.164-.622-1.338-1.259-1.396-.493-3.289-.387c-.387-.045-.712-.311-.833-.681-.121-.37-.017-.777.268-1.043l1.5-1.4c.091-.085.198-.153.314-.199l5.209-2.064,1.049-.674.125-.311-.083-.186-1.016-.508-2.333-.778c-.282-.094-.507-.308-.615-.584l-.9-2.3c-.084-.214-.091-.45-.021-.669l.8-2.5c.071-.222.217-.412.413-.537l2.348-1.503,2.481-3.308.417-1.459-.958-1.341-1.173-.123-3.746,1.779c-.136.065-.283.097-.429.097-.185,0-.369-.051-.53-.152l-1.6-1c-.292-.183-.47-.503-.47-.848v-1c0-.107.017-.214.051-.316l.938-2.813-.068-1.016-.367-.504-.505-.05h-.85c-.239,0-.47-.085-.651-.241l-.7-.6c-.186-.159-.306-.381-.34-.623l-.4-2.9c-.027-.193.004-.389.087-.565l1.674-3.535-.362-2.809c-.053-.41.152-.811.516-1.008l3.585-1.938,1.426-1.342.635-1.824-.433-2.511-3.498-7.385-.052-.069-.304-.101c-.069-.023-.136-.054-.198-.091l-.5-.3c-.163-.098-.295-.24-.38-.41l-.3-.6c-.069-.139-.106-.292-.106-.447v-1.1c0-.304.138-.591.375-.781l.5-.4c.023-.018.046-.035.07-.051l.413-.275.029-.049-.286-6.399c-.008-.182.034-.363.121-.524l1.2-2.2c.121-.222.322-.39.562-.47l1.5-.5c.103-.034.21-.051.316-.051.214,0,.425.068.6.2l1.6,1.2c.102.076.188.171.254.28l.937,1.539,11.886-5.479,4.409-3.429,1.279-.978-.462-6.563c-.019-.264.068-.525.242-.725l1.3-1.5c.104-.12.236-.214.384-.274l3.174-1.269,1.007-1.782.083-2.241-.742-1.814-1.457-1.457-1.875-1.031c-.382-.21-.584-.644-.499-1.072l.652-3.262-.883-3.089-1.838-2.45-2.097-.968-3.602.554c-.05.008-.101.012-.152.012-.121,0-.242-.022-.356-.065l-2.1-.8-5.525-2.286-2.983.723c-.078.019-.157.028-.236.028-.132,0-.263-.026-.386-.077l-6.7-2.8c-.038-.016-.075-.034-.111-.054l-2.1-1.2c-.251-.143-.427-.388-.484-.672s.012-.577.188-.806l.965-1.254,1.77-2.951c.042-.07.093-.135.15-.193l.9-.9c.188-.188.443-.293.707-.293.021,0,.041,0,.062.002.286.018.551.158.727.384l.662.851.247.247.305-.191,1.441-1.249c.057-.049.119-.092.185-.127l4.568-2.43.77-.77.513-1.099-.178-2.135c-.013-.158.011-.317.072-.464l.7-1.7c.097-.235.279-.424.511-.53l4.4-2c.13-.059.272-.09.414-.09.046,0,.093.003.139.01l5,.7c.077.011.152.03.224.059l9.5,3.7c.081.032.158.074.228.125l1.5,1.1c.157.115.277.273.345.455l.6,1.6c.01.027.019.055.027.083l.478,1.722.566,1.227.214.426,1.102,1.102,1.032.635,6.291,1.033.634-.173,1.031-1.031,2.239-3.602c.059-.094.133-.178.219-.248l1.6-1.3c.18-.147.404-.224.631-.224.088,0,.177.012.264.036.311.085.562.315.674.618l1.5,4.06,3.827.666,9.197-2.25c.033-.008.067-.015.101-.019l8.537-1.177.679-.339c-.033-.035-.064-.072-.092-.111l-1-1.4c-.055-.076-.098-.16-.129-.248l-.6-1.7c-.034-.096-.053-.197-.056-.298l-.197-5.708-.78-3.51c-.011-.05-.018-.101-.022-.153l-.2-3.1c-.017-.269.074-.533.255-.733l1.258-1.398-.324-.445c-.06-.083-.108-.175-.14-.272l-.995-2.987-.662-.464-2.426-1.165c-.122-.059-.231-.141-.32-.243l-.7-.8c-.148-.169-.234-.382-.246-.606l-.1-1.9c-.02-.388.185-.752.528-.935l1.5-.8c.082-.044.17-.076.261-.095l3.956-.848,1.6-1.348,1.039-1.559.637-2.092.388-2.485-.127-.042c-.084-.028-.165-.067-.238-.117l-.6-.4c-.242-.161-.402-.42-.438-.708l-.1-.8c-.028-.222.02-.447.135-.639l.3-.5c.08-.133.19-.246.321-.329l1.007-.641.008-.008.241-1.203c.017-.087.046-.172.086-.251l.494-.989v-.494l-.959-1.119c-.173-.202-.259-.464-.238-.729Z"/>
        <path id="vb" d="M120.518,316.726l-1.166,1.332c-.039.044-.082.085-.128.122l-.5.4c-.177.142-.398.219-.625.219h-.6c-.197,0-.39-.058-.555-.168l-.948-.632h-.088l-1.294.566-.801.623c-.175.137-.392.211-.614.211h-.8c-.25,0-.491-.094-.676-.263l-1.2-1.1c-.121-.111-.213-.25-.267-.404l-.6-1.7c-.032-.09-.051-.185-.056-.28l-.097-1.844-.244-1.467-1.116-1.287c-.18-.207-.266-.479-.24-.753s.165-.523.381-.692l2.433-1.892.321-1.219-.809-1.699-5.378-7.839-.394.182-.986.896c-.088.08-.19.144-.301.189l-1,.4c-.12.048-.246.071-.371.071-.183,0-.364-.05-.524-.148l-1.3-.8c-.237-.146-.402-.383-.456-.656l-.2-1-.1-.5c-.013-.065-.019-.13-.019-.196v-.392l-.841-1.935-1.366-1.366c-.031-.031-.06-.065-.087-.1l-1.3-1.7c-.112-.146-.181-.321-.2-.505l-.111-1.077-.069.055c-.133.107-.292.177-.46.206l-1.8.3c-.054.009-.109.014-.164.014-.029,0-.057-.001-.085-.004l-3.5-.3c-.087-.007-.172-.026-.254-.056l-3.273-1.182-.167.056-1.406.844c-.123.074-.261.12-.404.136l-.9.1c-.037.004-.074.006-.11.006-.166,0-.33-.041-.476-.121l-2.4-1.3c-.239-.129-.415-.35-.487-.612l-.5-1.8c-.032-.117-.043-.238-.032-.358l.187-2.06-.32-1.678-1.043-1.117-1.156-.434-1.385.154-1.462.731-2.366,2.73-1.338,3.155c-.024.057-.054.112-.089.164l-1.8,2.7c-.101.152-.242.273-.408.351l-3.2,1.5c-.129.06-.269.093-.411.094l-7.6.1s-.009,0-.013,0c-.088,0-.177-.012-.262-.035l-6.177-1.677.314,1.391.172.94,3.229,4.889,4.138,1.881c.091.041.175.096.249.162l3.5,3.1c.218.193.341.471.337.762l-.1,7.4c-.002.135-.031.269-.086.393l-1.2,2.7c-.034.077-.078.149-.13.215l-4.502,5.677-.515,1.374-.584,3.018c-.008.043-.019.085-.033.126l-.4,1.2c-.04.119-.101.229-.182.326l-4.044,4.833-3.457,6.004.592.947.367.294c.02.016.039.032.058.05l1.5,1.4c.27.252.379.632.284.989l-.4,1.5c-.01.039-.023.077-.038.114l-.251.629.404,1.011,1.025,1.398c.05.068.091.142.122.22l1,2.5c.058.144.081.3.068.454l-.1,1.2c-.009.112-.037.221-.083.323l-1.114,2.506v.699l1.286.714,1.836,1.121c.117.072.219.167.298.28l2.8,4c.062.089.11.187.14.291l.5,1.7.511,2.04.191.668c.041.145.049.297.024.446l-.8,4.6c-.029.166-.099.322-.204.453l-.4.5-1.89,2.457.466.106,6.132-.681c.037-.004.074-.006.11-.006.05,0,.099.004.148.011l2,.3c.052.008.103.02.153.035l22.5,7.1c.451.142.741.582.694,1.053l-.13,1.3h.135c.265,0,.52.105.707.293l.5.5c.188.188.293.442.293.707v1c0,.096-.014.191-.041.282l-.47,1.597-.292,3.993c-.003.045-.01.089-.019.133l-.365,1.736.149,1.194,1.267,1.859,2.733,2.004,12.649,4.15c.142.047.272.124.379.227l4.513,4.317,2.405,1.388,4.95,1.618h.091l-1.754-4.761-2.648-4.316c-.067-.11-.113-.232-.134-.359l-.3-1.8c-.024-.146-.016-.296.025-.439l.4-1.4c.034-.117.088-.228.161-.325l1.5-2c.043-.057.091-.109.145-.156l1.412-1.224,1.142-1.582.621-1.863.376-2.914-.092-1.753-.391-2.344c-.006-.039-.011-.078-.012-.117l-.1-2.1c-.002-.04-.001-.081.002-.121l.2-2.7c.003-.041.009-.082.017-.122l1.4-7c.01-.049.024-.098.041-.146l1.2-3.3c.027-.073.061-.143.104-.207l4.547-6.919,1.701-4.158.286-4.675-.093-1.576-1.472-7.75-1.594-4.194-1.03.114c-.037.004-.074.006-.11.006-.181,0-.358-.049-.514-.142l-.5-.3c-.411-.246-.589-.749-.425-1.199l.4-1.1c.018-.048.039-.095.064-.14l1.1-2c.085-.155.21-.285.362-.376l.5-.3c.068-.041.141-.073.216-.097l1.365-.427.238-.238.183-.67-.077-.843-.281-1.125c-.047-.186-.039-.382.023-.563l2.153-6.36.075-2.337-1.355-.739-4.607.782Z"/>
        <g id="ty">
            <path d="M328.563,375.659l5.3-1.9c.093-.034.191-.053.29-.058l8.28-.39,11.905-6.198c.084-.044.173-.075.266-.094l1.292-.258v-.01s-.289-6.393-.289-6.393l-.458-1.648-.809-2.156-.718-.718-1.969-1.674c-.076-.065-.142-.141-.196-.225l-.7-1.1c-.044-.069-.079-.143-.105-.221l-.6-1.8c-.017-.052-.031-.106-.039-.16l-.3-1.9c-.008-.052-.012-.104-.012-.156v-3.2c0-.038.002-.077.007-.115l.3-2.6c.004-.037.011-.075.019-.111l1.568-6.76-.192-3.357c-.022-.386.18-.75.52-.935l3.3-1.8c.092-.05.191-.086.295-.105l1.6-.3c.061-.011.122-.017.184-.017.009,0,.018,0,.027,0l3.511.095,13.024-4.7,4.111-2.545c.124-.077.264-.126.409-.143l1.7-.2c.039-.005.078-.007.117-.007.066,0,.131.007.196.019l1.5.3c.107.021.209.06.304.114l2.504,1.445,1.376.43,1.571.087,3.706-.57,2.116-.736,1.321-.793,1.328-1.24,1.066-1.688,1.062-3.185c.015-.045.033-.089.054-.131l.8-1.6c.029-.059.065-.115.105-.167l.7-.9c.101-.13.233-.233.383-.3l.9-.4c.053-.023.108-.042.164-.056l1.2-.3c.046-.012.094-.02.141-.025l5.734-.583,1.078-.497,1.094-.73.985-.806.811-.991.826-1.193,2.463-5.418c.013-.028.027-.056.042-.082l1.2-2.1c.026-.045.055-.088.087-.129l2.351-2.939.74-1.295.549-1.19.102-.358-.213-.779-2.281-5.851c-.022-.057-.039-.116-.051-.176l-.4-2.1-.208-1.446c-.026-.182-.001-.367.071-.535l.544-1.27.048-.384-.221-.497-.908-.99-4.099-2.733c-.043-.029-.084-.061-.122-.096l-2.5-2.3c-.077-.071-.142-.153-.193-.243l-2.41-4.257-.28.233c-.071.059-.15.108-.234.146l-1.8.8c-.07.031-.143.054-.217.068l-2.6.5c-.062.012-.126.018-.189.018-.014,0-.028,0-.042,0l-2.4-.1c-.133-.006-.264-.038-.384-.094l-1.7-.8c-.076-.036-.147-.081-.212-.135l-3.5-2.9c-.036-.03-.07-.062-.102-.097l-1-1.1c-.08-.088-.144-.19-.189-.301l-.6-1.5-1.3-3.698-.257-.565-1.203-.18-4.454,1.706c-.068.026-.138.044-.209.055l-2,.3c-.049.007-.099.011-.148.011-.071,0-.143-.008-.212-.023l-6.719-1.461-2.246.346-2.448,1.318c-.1.054-.209.091-.322.108l-1.3.2c-.051.008-.102.012-.152.012-.248,0-.49-.093-.676-.263l-1.2-1.1c-.117-.108-.207-.242-.263-.391l-.7-1.9c-.076-.206-.082-.43-.017-.64l.4-1.3c.037-.12.096-.232.175-.331l.674-.843.328-1.148.132-.836-.059.026-.896.627-2.877,2.282c-.066.052-.138.096-.215.13l-1.116.496.082.615.296.665.805,1.074.786.873.495.33c.168.112.299.273.374.461l.4,1c.042.105.066.216.071.329l.2,4.7c.002.056,0,.111-.007.167l-.2,1.6c-.008.065-.023.13-.044.192l-.4,1.2c-.037.11-.092.213-.164.304l-3.4,4.3c-.143.18-.343.306-.568.356l-.9.2c-.071.016-.144.024-.217.024-.015,0-.029,0-.044,0l-27.274-1.195-9.723,2.042-.961.549-1.071,2.676c-.109.273-.333.484-.612.577l-1.2.4c-.102.034-.209.051-.316.051-.068,0-.137-.007-.205-.021l-6.599-1.379h-9.597c-.07,0-.139-.007-.207-.022l-5.098-1.078h-1.615l-.1.125c-.04.049-.084.095-.132.136l-3.227,2.753-.667,1.5-.878,4.001c-.009.04-.02.08-.034.118l-.6,1.7c-.045.127-.115.244-.206.343l-2.2,2.4c-.104.114-.234.202-.378.258l-2.6,1c-.065.025-.132.043-.2.054l-5.6.9c-.053.008-.106.013-.159.013-.096,0-.192-.014-.284-.041l-2.628-.778-2.647-.365-2.2.489-4.367,5.069c.069.028.134.063.195.105l1.3.9c.165.114.292.276.364.463l.5,1.3c.109.284.083.603-.071.866l-1,1.7c-.105.179-.263.32-.452.405l-2,.9c-.123.055-.256.085-.391.088l-4.961.097-1.951.594-2.047,1.869-1.434,2.103c-.03.044-.063.085-.099.123l-1.7,1.8c-.088.093-.192.168-.308.221l-2.6,1.2c-.132.061-.275.092-.419.092-.034,0-.069-.002-.103-.005l-2.9-.3c-.534-.055-.929-.522-.895-1.057l.256-4.093-1.616-.683-2.503.751-7.67,5.31c-.085.059-.179.104-.278.134l-2.3.7c-.094.029-.193.043-.291.043-.005,0-.011,0-.016,0l-12.4-.2c-.173-.003-.342-.05-.491-.138l-1.7-1c-.167-.098-.301-.242-.387-.415l-1.2-2.4c-.155-.31-.138-.678.044-.973.118-.192.296-.335.501-.411l.088-.176.162-.97v-.881l-.231-.462-5.671-6.151-6.022-2.817c-.187-.087-.342-.231-.445-.41l-.8-1.4c-.261-.456-.124-1.037.314-1.328l3.779-2.519.233-.28-1.912-1.434-.943-.55-1.288-.076-1.464.431-4.734,2.17c-.096.044-.198.072-.303.084l-3.5.4c-.038.004-.076.006-.113.006-.097,0-.194-.014-.287-.042l-1-.3c-.223-.067-.416-.209-.545-.403l-.6-.9c-.031-.047-.059-.097-.082-.148l-.325-.73-.218-.218-15.328-5.858h-2.405l-1.205.828-2.4,3.264c-.052.07-.113.134-.181.188l-1.5,1.2c-.121.097-.263.164-.415.197l-1.4.3c-.069.015-.139.022-.209.022-.052,0-.104-.004-.155-.012l-5.1-.8c-.102-.016-.2-.047-.292-.094l-1.8-.9c-.023-.011-.045-.024-.067-.037l-1-.6c-.127-.076-.235-.18-.318-.303l-.6-.9c-.085-.127-.139-.271-.159-.422l-.2-1.5c-.021-.16-.004-.322.051-.474l.4-1.1c.034-.093.081-.18.14-.258l.446-.595.033-.231-.262-.892-.201.067c-.039.013-.079.024-.12.032l-1.915.383-.986.384.074.555.925,1.851c.012.025.024.05.034.076l.8,2c.063.157.085.328.064.495l-.2,1.6-1.084,6.331,1.06.561c.115.061.217.144.3.244l1,1.2c.055.066.102.139.138.217l.7,1.5c.03.064.053.132.069.201l.5,2.2c.017.073.025.147.025.222v3.8c0,.09-.012.179-.036.265l-1.1,4c-.016.059-.038.117-.065.172l-1.7,3.5c-.027.056-.059.109-.096.158l-2,2.7c-.064.087-.142.162-.23.224l-1,.7c-.082.058-.173.103-.269.133l-2.358.755-1.011.7-.562.883-2.576,5.25c-.028.058-.062.113-.101.164l-2.2,2.9c-.037.048-.078.093-.122.134l-2.3,2.1c-.045.041-.094.078-.146.11l-5.3,3.3c-.054.033-.111.062-.17.084l-2.6,1c-.074.029-.151.048-.23.058l-6.444.837,1.45,3.816c.021.055.037.111.048.169l1.5,7.9c.008.042.013.085.016.128l.1,1.7c.002.04.002.08,0,.12l-.3,4.9c-.007.109-.031.216-.073.318l-1.8,4.4c-.024.06-.055.117-.09.171l-4.536,6.903-1.134,3.118-1.373,6.865-.191,2.578.094,1.98.39,2.342c.006.037.01.074.012.112l.1,1.9c.003.06,0,.121-.007.18l-.4,3.1c-.008.064-.023.127-.043.188l-.7,2.1c-.032.096-.079.187-.138.269l-1.3,1.8c-.045.063-.097.12-.156.17l-1.419,1.23-1.325,1.767-.287,1.006.231,1.385,2.598,4.234c.034.056.063.116.086.177l2.074,5.628,2.711-.813,4.919-2.554,1.028-1.344.238-1.112.095-1.33c.004-.051.011-.101.022-.15l.5-2.2c.024-.106.066-.208.123-.301l1.9-3.1c.144-.234.378-.399.647-.456l1.9-.4c.068-.014.137-.021.206-.021.085,0,.17.011.252.032l2.159.563,1.888-.063v-2.333c0-.162.039-.321.115-.465l2.1-4c.037-.071.083-.137.136-.197l3-3.4c.073-.082.158-.152.254-.207l3.5-2c.103-.059.215-.099.332-.118l.6-.1c.054-.009.109-.014.164-.014.047,0,.095.003.141.01l.7.1c.148.021.289.075.413.158l.6.4c.055.036.106.078.152.125l1.3,1.3c.056.056.105.119.147.187l2.408,3.95,3.862,3.09c.051.04.097.086.139.135l1.1,1.3c.108.128.182.28.216.443l.6,2.9c.031.148.027.302-.01.449l-1.459,5.74.253,3.202,3.339,2.654,4.421.541,11.907-3.346c.059-.017.119-.028.18-.033l2.2-.2c.03-.003.06-.004.09-.004.09,0,.18.012.268.036l1.8.5c.085.024.167.058.243.103l9.1,5.4c.129.076.239.181.322.305l1.2,1.8c.199.299.223.681.062,1.002l-.6,1.2c-.063.127-.153.238-.263.328l-2.571,2.095-.124.199.223.478.523.04,2.314-.74c.099-.032.202-.048.305-.048.114,0,.228.019.336.058l1.4.5c.052.019.103.042.151.069l3.211,1.794.787.066,2.011-.64c.098-.031.2-.047.303-.047h1.3c.181,0,.359.049.515.143l1,.6c.04.024.078.051.115.08l1.988,1.609.843.351.838-.07,3.786-1.262c.057-.019.115-.033.175-.041l2.1-.3c.047-.007.094-.01.141-.01.032,0,.065.002.097.005l4.1.4c.075.007.148.023.219.047l1.888.63,1.101-.13,1.282-1.442,2.65-4.515c.043-.073.095-.141.155-.201l.5-.5c.099-.099.217-.176.348-.226l1.057-.407.178-.214.117-.528-.092-1.662c-.004-.066,0-.132.008-.197l.1-.7c.012-.083.034-.164.066-.242l2.164-5.213,1.281-6.108c.016-.078.042-.153.076-.225l1-2.1c.049-.103.115-.197.196-.277l7.7-7.7c.055-.055.115-.103.181-.143l2.1-1.3c.068-.042.141-.076.217-.101l8.3-2.7c.047-.015.095-.027.143-.035l8.3-1.4c.055-.009.111-.014.166-.014.076,0,.152.009.227.026l4.3,1c.073.017.144.042.211.075l3.519,1.712,2.96.164,3.704-3.613.839-1.305c.067-.104.153-.195.253-.268l1.1-.8c.126-.091.271-.152.424-.178l1.2-.2c.055-.009.109-.014.164-.014.078,0,.156.009.232.027l2.1.5c.093.022.182.057.264.105l.7.4c.077.044.148.098.211.161l.7.7c.033.033.065.069.093.107l.482.643.676.405.742.135.781-.142,1.072-.536c.055-.028.113-.05.173-.067l3.5-1c.055-.016.111-.027.168-.033l2.8-.3c.035-.004.071-.006.107-.006.07,0,.14.007.208.022l5.997,1.278h.195c.037,0,.074.002.11.006l.79.088.79-.088c.037-.004.074-.006.11-.006.03,0,.06.001.091.004l2.2.2c.183.017.358.084.506.193l3.783,2.813,1.792.652.88-.189,2.112-1.744c.022-.018.044-.035.068-.051l1.3-.9c.127-.088.272-.145.425-.167l5.23-.761,3.887-3.129c.047-.038.098-.072.152-.101l5-2.7c.044-.024.09-.044.138-.061Z"/>
            <path d="M453.227,422.358l.034-.202-.518-1.037-7.114-9.88-5.453-5.751c-.039-.041-.075-.086-.106-.133l-1.2-1.8c-.056-.083-.098-.175-.127-.271l-.8-2.7c-.015-.051-.026-.102-.033-.155l-.293-2.243-.562-2.248-.791-1.669-1.333-1.422-1.13-.848c-.026-.02-.052-.041-.076-.063l-2.4-2.2c-.09-.082-.164-.181-.219-.29l-.96-1.919-1.146-1.528c-.031-.041-.058-.084-.082-.129l-.8-1.5c-.041-.076-.071-.157-.091-.242l-.4-1.7c-.008-.035-.014-.07-.019-.105l-.1-.8c-.005-.041-.008-.083-.008-.124v-.7c0-.051.004-.102.012-.152l.2-1.3c.004-.024.008-.049.014-.073l.3-1.3c.013-.055.03-.108.051-.16l1.434-3.44.072-1.358-.59-.767-10.014-3.403c-.122-.042-.236-.107-.333-.191l-1.5-1.3c-.051-.044-.097-.093-.138-.146l-1-1.3c-.116-.151-.187-.332-.203-.522l-.267-3.026-4.334-4.149-1.776-.977-2.086-.544-3.103-.194c-.089-.006-.177-.023-.262-.052l-3.358-1.151-2.84-.092-4.091.779c-.062.012-.124.018-.187.018h-2.72l-2.291.366-1.718.773-6.974,6.777c-.083.081-.179.146-.284.194l-10.566,4.785-2.747,1.498v1.806c0,.22-.072.433-.206.608l-2.6,3.4c-.081.106-.183.195-.3.262l-6.896,3.927-.913,2.284.629,1.414c.023.053.042.108.056.164l.5,2c.006.023.011.047.015.07l.681,3.889.756,1.796.783,1.662c.063.133.095.279.095.426v1.6c0,.275-.113.538-.313.727l-.596.563,2.385.426c.104.019.205.054.298.104l1.3.7c.086.046.164.105.233.173l1.4,1.4c.068.068.125.144.171.228l.531.974.545.545,1.247.468,4.839.194c.188.008.37.068.525.174l1.9,1.3c.191.131.331.324.396.547l1.1,3.8c.026.09.039.184.039.278v2.2c0,.082-.01.163-.03.242l-.3,1.2c-.012.049-.028.096-.047.142l-.452,1.086-.271,1.804v2.102l.203.812.449.449.921.67,2.278.82,2.407.385c.138.022.27.073.387.149l2,1.3c.208.135.359.344.422.584l.982,3.733,2.187,5.229,3.807,3.435,4.538,1.891,2.789.481,3.595.599c.142.024.276.077.395.158l3.655,2.469,1.684.886,1.485.165,6.773-.982c.047-.007.095-.01.143-.01.034,0,.068.002.101.005l5.425.552.266-.576,3.887-7.775.869-2.413.566-1.981.291-2.911c.034-.341.241-.641.548-.795l2.6-1.3c.094-.047.194-.079.298-.094l10.47-1.58,4.679-2.047c.083-.036.17-.061.259-.074l1.4-.2c.047-.007.094-.01.141-.01.122,0,.244.022.359.067l1.3.5c.088.034.172.081.247.138l4.016,3.06.499.1.026-.026.113-.282.066-.198Z"/>
        </g>
        <path id="sb" d="M570.855,354.589l.194-1.164-.679-1.018-3.351-2.393c-.078-.055-.147-.122-.206-.197l-4-5.1c-.031-.04-.06-.082-.085-.127l-.9-1.6c-.031-.055-.057-.114-.077-.174l-.6-1.8c-.013-.039-.024-.079-.032-.12l-.286-1.43-.539-1.526-2.539-4.004c-.016-.026-.031-.052-.045-.079l-1.892-3.69-.892-.654-1.182.394-1.689,1.126c-.131.087-.281.143-.438.161l-3.268.385-1.736.694-1.482,1.204c-.089.072-.19.129-.298.167l-1.7.6c-.108.038-.22.057-.333.057-.095,0-.19-.013-.282-.041l-1.7-.5c-.097-.028-.189-.071-.273-.127l-2.1-1.4c-.051-.034-.099-.073-.143-.115l-3.7-3.6c-.082-.08-.149-.173-.2-.275l-3.2-6.5c-.025-.051-.046-.103-.062-.157l-3.5-11.8c-.011-.037-.02-.074-.026-.112l-1.1-6.3c-.014-.082-.018-.166-.012-.249l.1-1.3c.005-.063.016-.125.032-.186l.9-3.3c.006-.022.013-.043.02-.064l.644-1.859-6.142-3.974c-.062-.04-.12-.088-.172-.141l-4.2-4.3c-.089-.091-.159-.197-.208-.314l-1-2.4c-.041-.099-.066-.204-.074-.311l-.2-2.7c-.009-.123.005-.247.041-.365l.7-2.3c.022-.074.053-.144.092-.211l1.784-3.073.619-1.238.245-1.471-.232-1.161-1.919-3.359c-.139-.243-.17-.533-.085-.8l4.201-13.189-.367-1.1-.608-1.082-2.505-.334c-.093-.012-.184-.038-.271-.076l-2.5-1.1c-.026-.011-.051-.024-.076-.037l-1.1-.6c-.084-.046-.161-.103-.228-.171l-.6-.6c-.047-.047-.088-.098-.125-.152l-.4-.6c-.034-.051-.063-.105-.087-.161l-.6-1.4c-.086-.201-.104-.424-.051-.636l.2-.8c.056-.223.186-.42.37-.557l.8-.6c.156-.117.342-.186.536-.198l4.654-.297,1.468-.232.674-.854-1.904-1.7-21.246-4.743c-.124-.028-.242-.079-.347-.151l-1.9-1.3c-.093-.064-.175-.143-.242-.234l-1.1-1.5c-.065-.089-.115-.188-.148-.293l-.5-1.6c-.008-.024-.014-.049-.02-.073l-1.5-6.5c-.007-.032-.013-.063-.017-.096l-.3-2.3-.205-2.343c-.004-.049-.005-.098-.002-.146l.3-5c.002-.027.004-.055.008-.082l.3-2.1c.006-.039.013-.078.024-.116l.4-1.5c.014-.051.031-.1.052-.148l.4-.9c.073-.163.187-.304.333-.408l.7-.5c.102-.073.217-.126.339-.156l.8-.2c.08-.02.161-.03.243-.03.101,0,.201.015.298.046l3.083.963,1.432.084,1.237-.291.676-.799.048-.673-.662-.795-.933-.678-1.126-.563c-.048-.024-.094-.052-.138-.084l-3.123-2.255-7.567,3.55c-.098.046-.202.076-.31.088l-6.9.8c-.038.004-.077.007-.115.007-.044,0-.088-.003-.132-.009l-4.5-.6c-.065-.009-.128-.024-.19-.045l-4.7-1.6c-.043-.015-.084-.032-.125-.052l-.6-.3c-.037-.019-.073-.039-.107-.062l-.6-.4c-.062-.042-.12-.09-.172-.145l-3.402-3.596-2.618-1.535-2.707-.451-4.863.286-1.887.6-1.036.888-.812,2.437c-.021.062-.048.123-.08.18l-.4.7c-.072.125-.17.234-.287.318l-1.4,1c-.098.07-.207.121-.323.152l-5.536,1.483-1.481.617.359,1.076.801,1.121,2.639,1.696c.06.039.116.084.166.134l2.313,2.313.894.537c.063.038.121.082.174.133l2,1.9c.099.094.178.208.231.333l3.964,9.314,2.493,3.74.53.53c.329.329.388.843.141,1.238l-7.675,12.259-.611,1.223-.169,1.015-.097,1.063c-.002.025-.005.049-.01.074l-.2,1.2c-.02.12-.061.235-.123.339l-.7,1.2c-.077.132-.181.242-.303.324l-1.59,2.529,1.215,1.215,6.121,1.113,1.507-.251,2.888-1.251c.126-.055.261-.082.398-.082.052,0,.104.004.156.012l1.9.3c.169.027.328.096.462.201l1.4,1.1c.055.043.105.092.15.146l1.5,1.8c.037.044.07.092.099.142l2.3,4c.023.041.044.083.062.127l1,2.5c.031.078.052.159.063.242l.3,2.3c.008.059.01.118.007.177l-.1,2.1-.203,2.243c-.017.185-.085.361-.196.509l-.221.294-1.317,3.292-.082.41c-.03.149-.093.288-.184.409l-1.9,2.5c-.024.031-.049.061-.076.089l.062,2.483c.24.302.288.719.112,1.07l-.084.168-1.186,2.867-.124.31v2.762l.091,1.001.168.839.355.799c.021.046.038.094.051.143l.3,1.1c.023.086.035.174.035.263v1.4c0,.233-.081.459-.23.638l-3.4,4.1c-.034.041-.071.079-.111.114l-.8.7c-.162.142-.367.228-.582.245l-1.3.1c-.026.002-.051.003-.077.003-.208,0-.411-.065-.581-.186l-.7-.5c-.045-.032-.087-.068-.126-.107l-.598-.598-.75-.409h-.742l-.648.432c-.082.055-.172.097-.267.126l-1,.3c-.094.028-.191.042-.287.042-.114,0-.228-.019-.336-.058l-1.4-.5c-.096-.034-.187-.083-.268-.145l-5.8-4.4c-.052-.04-.101-.085-.144-.134l-5.343-6.036-.794-.635-.956-.319-1.722-.287c-.174-.029-.337-.104-.473-.216l-2.9-2.4c-.186-.154-.311-.371-.349-.61l-.7-4.3c-.028-.169-.011-.343.048-.504l1.5-4.1c.088-.24.264-.437.492-.551l1.959-.979-1.252-1.252-3.021-2.047c-.079-.053-.15-.118-.21-.191l-1.9-2.3c-.23-.279-.292-.661-.162-.998l.579-1.495-.298.045c-.049.007-.099.011-.148.011-.083,0-.165-.01-.246-.031l-6.579-1.669h-4.058l-3.982.948-2.067.989-3.409,3.159,2.533,4.475,2.327,2.141,4.135,2.757c.067.045.128.097.182.156l1.1,1.2c.073.08.133.171.177.27l.4.9c.074.166.101.35.078.53l-.1.8c-.012.093-.036.184-.073.27l-.49,1.142.16,1.122.375,1.964,2.267,5.815c.013.033.024.066.033.1l.3,1.1c.048.176.047.362-.003.538l-.2.7c-.014.049-.032.098-.054.144l-.6,1.3c-.012.026-.025.052-.04.077l-.8,1.4c-.026.045-.055.088-.087.129l-2.351,2.939-1.138,1.992-2.481,5.458c-.025.054-.054.106-.088.155l-.9,1.3c-.015.022-.031.043-.048.064l-.9,1.1c-.042.051-.089.099-.141.141l-1.1.9c-.025.021-.051.04-.079.058l-1.2.8c-.043.029-.089.054-.136.076l-1.3.6c-.1.046-.208.076-.318.087l-5.828.593-1.046.261-.591.263-.485.624-.724,1.448-1.078,3.232c-.025.076-.06.15-.103.218l-1.2,1.9c-.046.072-.101.139-.163.197l-1.5,1.4c-.051.048-.108.09-.168.126l-1.5.9c-.059.035-.121.064-.186.087l-2.3.8c-.057.02-.116.035-.176.044l-3.9.6c-.05.008-.101.012-.152.012-.018,0-.037,0-.055-.002l-1.8-.1c-.082-.005-.164-.019-.243-.044l-1.6-.5c-.07-.022-.138-.052-.201-.088l-2.458-1.418-1.183-.237-1.322.156-4.011,2.483c-.059.036-.122.067-.187.09l-13.3,4.8c-.109.039-.224.059-.34.059-.009,0-.018,0-.027,0l-3.593-.097-1.34.251-2.605,1.421.164,2.868c.005.095-.003.19-.024.283l-1.587,6.845-.287,2.487v3.064l.275,1.741.535,1.605.553.869,1.885,1.602c.021.017.04.036.06.055l.9.9c.101.101.179.222.229.356l.9,2.4c.01.027.019.055.027.083l.5,1.8c.02.073.032.147.035.222l.282,6.214,4.326-.85c.064-.013.128-.019.193-.019.114,0,.228.02.336.058l2.8,1c.398.142.664.519.664.942v.515l1.821-.993c.022-.012.044-.023.066-.033l10.441-4.728,6.975-6.778c.083-.081.18-.147.287-.195l2-.9c.08-.036.165-.062.252-.076l2.5-.4c.052-.008.105-.013.158-.013h2.706l4.107-.782c.062-.012.124-.018.187-.018.011,0,.022,0,.032,0l3.1.1c.099.003.198.021.292.054l3.372,1.156,3.066.192c.064.004.128.014.19.03l2.3.6c.08.021.157.052.23.091l2,1.1c.076.042.147.094.21.154l4.121,3.945.75-.5.26-.26.287-.431.121-.303.082-.493c.016-.098.047-.194.092-.283l.2-.4c.011-.023.024-.045.037-.067l.3-.5c.098-.163.24-.295.41-.38l.6-.3c.139-.07.292-.106.447-.106.03,0,.06.001.091.004l1.1.1c.115.01.228.041.332.09l1.5.7c.04.019.078.04.115.063l4.653,2.97,5.353,2.628,7.142,1.761,3.745.493c.056.007.112.02.166.036l5.8,1.8c.088.027.173.067.25.118l9.468,6.179,1.863,1.025,2.01.548,3.44.382,8.729-.49,4.51-1.056,6.094-2.902,2.574-2.097,2.97-2.871c.133-.128.298-.217.478-.257l1.8-.4c.042-.009.084-.016.126-.02l2.2-.2c.03-.003.06-.004.091-.004.103,0,.206.016.304.047l4.676,1.492,10.888,2.87,2.509.193c.043.003.085.009.127.018l11.945,2.489,5.245.495c.066.006.13.019.193.038l3,.9c.061.018.12.042.177.072l4.2,2.2c.053.028.103.06.149.096l10.3,8c.072.056.136.122.191.195l2.617,3.541,3.74-4.797,5.129-9.369,1.265-3.309.536-1.697-.19-3.317c-.003-.049-.002-.099.003-.148l.2-2.2c.014-.156.065-.307.148-.439l1-1.6c.043-.068.093-.131.151-.187l3.448-3.349,2.104-2.744Z"/>
        <path id="ct" d="M701.842,433.752c-.083-.097-.147-.208-.188-.329l-1.4-4.1c-.03-.088-.048-.179-.052-.271l-.296-5.715-1.361-6.027-1.764-4.116c-.02-.046-.036-.093-.048-.142l-.6-2.3c-.011-.042-.019-.085-.025-.128l-.2-1.6c-.013-.107-.009-.215.012-.32l.2-1c.005-.026.012-.053.019-.078l.6-2.1c.019-.068.046-.134.079-.196l.757-1.419.634-1.993.274-4.746-9.192-14.081-4.595-5.671-1.68-1.307-.991-.661-1.391-.232-13.005,3.054c-.048.011-.098.019-.147.023l-14.7,1.2c-.027.002-.054.003-.081.003-.138,0-.274-.028-.401-.084l-2.971-1.3-7.551.581c-.026.002-.051.003-.077.003-.031,0-.062-.001-.093-.004l-2.981-.279-11.993,4.227c-.107.038-.219.057-.333.057-.016,0-.032,0-.047-.001l-2.1-.1c-.044-.002-.088-.007-.131-.015l-1.1-.2c-.283-.052-.531-.223-.679-.469l-.213-.355-.965-.804-1.823-.82-8.445-2.683c-.098-.031-.191-.077-.275-.137l-4.721-3.344-2.827-1.277-3.886-.093-3.269.654-12.802,6.105-1.726,1.272-.862,1.035-.427.769-.478,1.148c-.017.04-.036.08-.058.117l-1.8,3.1c-.099.171-.248.309-.426.396l-4.406,2.154-7.218,5.636c-.09.07-.191.124-.299.16l-2.1.7c-.073.024-.149.04-.226.047l-2.2.2c-.03.003-.06.004-.091.004-.142,0-.284-.03-.414-.09l-1.1-.5c-.057-.026-.112-.057-.163-.093l-1.7-1.2c-.021-.015-.041-.03-.06-.046l-4.6-3.8c-.063-.052-.119-.111-.167-.177l-3.318-4.489-10.121-7.861-4.036-2.114-2.814-.844-5.201-.491c-.037-.004-.074-.009-.11-.017l-11.937-2.487-2.536-.195c-.06-.005-.12-.015-.178-.03l-11-2.9c-.016-.004-.033-.009-.049-.014l-4.507-1.438-1.934.176-1.462.325-2.797,2.704c-.02.02-.041.038-.063.056l-2.7,2.2c-.062.05-.13.093-.202.128l-6.3,3c-.065.031-.132.055-.202.071l-4.7,1.1c-.056.013-.114.021-.172.025l-8.9.5c-.019.001-.037.002-.056.002-.037,0-.074-.002-.11-.006l-3.6-.4c-.052-.006-.103-.015-.153-.029l-2.2-.6c-.076-.021-.15-.051-.219-.089l-2-1.1c-.022-.012-.044-.025-.065-.039l-9.383-6.124-5.585-1.733-3.715-.489c-.037-.005-.073-.012-.109-.021l-7.3-1.8c-.07-.017-.137-.042-.201-.073l-5.5-2.7c-.033-.016-.066-.035-.097-.055l-4.644-2.964-1.282-.598-.643-.058-.085.043-.131.218-.115.231-.075.452c-.012.071-.031.14-.058.207l-.2.5c-.026.064-.058.126-.096.183l-.4.6c-.036.055-.078.106-.125.152l-.4.4c-.047.047-.098.088-.152.125l-1.006.671.222,2.518.761.989,1.276,1.106,10.115,3.437c.187.064.351.181.471.337l1,1.3c.145.189.219.424.206.662l-.1,1.9c-.006.114-.032.227-.076.332l-1.468,3.522-.273,1.181-.183,1.188v.561l.086.685.358,1.521.702,1.317,1.154,1.539c.036.048.068.099.094.153l.917,1.835,2.228,2.042,1.161.87c.046.035.09.074.13.116l1.5,1.6c.071.076.13.162.174.256l.9,1.9c.028.06.05.122.066.186l.6,2.4c.009.037.016.075.021.113l.29,2.221.734,2.479,1.069,1.603,5.441,5.738c.031.033.06.067.086.104l7.2,10c.031.043.059.089.083.137l.7,1.4c.095.189.127.403.092.612l-.1.6c-.009.052-.021.102-.038.152l-.1.3c-.006.019-.013.037-.02.055l-.2.5c-.05.126-.126.24-.221.336l-.4.4c-.128.128-.289.219-.465.263l-.4.1c-.08.02-.161.03-.243.03-.066,0-.131-.006-.196-.019l-1-.2c-.149-.03-.289-.093-.41-.185l-4.086-3.113-.924-.355-1.008.144-4.675,2.045c-.08.035-.165.06-.252.073l-10.444,1.576-1.965.983-.245,2.452c-.006.059-.017.118-.034.175l-.6,2.1c-.006.022-.013.043-.021.064l-.9,2.5c-.013.037-.029.073-.046.109l-3.9,7.8-.181.392.133.067c.056.028.109.061.159.099l2.01,1.532.8.364h.781l1.714-.722c.089-.037.182-.062.278-.072l.9-.1c.037-.004.074-.006.11-.006.097,0,.194.014.287.042l1,.3,3.029,1.009c.083.028.162.066.236.115l6.581,4.355,27.638,1.981c.053.004.105.012.157.024l9.8,2.3c.104.024.203.065.294.121l7.428,4.556,2.271.909,4.602.282,11.966-2.571c.069-.015.14-.022.21-.022.057,0,.114.005.171.015l5.081.879,7.18-.492c.023-.002.046-.002.068-.002.12,0,.239.021.351.064l.8.3c.151.057.286.149.394.27l1.615,1.805.56.373,4.819.189c.092.004.183.02.271.049l14.302,4.668,1.56.173,1.663-.277c.054-.009.109-.014.164-.014.018,0,.035,0,.053.001l1.9.1c.062.003.124.012.184.027l7.683,1.872h1.496l7.617-1.286c.055-.009.111-.014.166-.014.055,0,.11.005.164.014l3.6.6c.092.015.182.044.266.084l10.745,5.126,1.602.169,1.874-.281,2.061-.393c.062-.012.124-.018.187-.018.016,0,.032,0,.047.001l2.1.1c.086.004.171.019.254.045l1.9.6c.036.011.071.025.105.04l1.8.8c.09.04.174.093.248.158l6.55,5.67.858.286h.138l11.036.401,14.166.396,3.878-.872c.072-.016.146-.024.219-.024.081,0,.163.01.243.03l1.2.3c.223.056.42.186.557.37l.6.8c.053.07.096.147.128.229l.337.841.444.508,1.801.811,1.495.746,1.649.247,3.909-.953c.079-.019.158-.029.237-.029.305,0,.599.14.791.389l1.7,2.2c.051.066.093.138.126.214l1.23,2.84,1.001,1.063,1.056-.453.353-.989.597-1.495.988-3.259c.028-.091.068-.178.12-.257l1.7-2.6c.11-.168.267-.299.452-.376l1.2-.5c.098-.041.202-.066.308-.074l2.516-.194.95-.238.965-.643,2.324-2.421c.099-.103.218-.183.35-.236l.5-.2c.118-.047.245-.072.371-.072.041,0,.083.003.124.008l.8.1c.031.004.062.009.092.016l.565-1.318c.037-.087.087-.169.147-.242l1.328-1.613.549-1.099c.038-.076.086-.147.142-.211l.7-.8c.095-.108.211-.194.342-.253l2-.9c.131-.059.271-.088.41-.088.202,0,.403.061.574.181l.668.467,2.564-.414,2.349-1.084.411-.352.809-1.976,1.295-2.89.886-2.559.893-2.779c.014-.044.031-.087.051-.129l1.4-2.9c.02-.041.043-.082.068-.12l2-3c.112-.168.273-.299.461-.374l1.5-.6c.118-.047.245-.072.371-.072.041,0,.083.003.124.008l1.467.183,1.967-.281c.047-.007.094-.01.141-.01h.102l2.351-1.537,1.74-1.025c.155-.091.33-.138.507-.138.058,0,.116.005.174.015l1.7.3c.262.046.495.195.647.413l1.48,2.124,3.579-5.125c.123-.176.3-.308.504-.376l6.9-2.3c.102-.034.209-.051.316-.051.047,0,.094.003.141.01l2.725.389-6.924-8.047Z"/>
        <path id="st" d="M828.612,369.516c-.033-.042-.063-.087-.088-.134l-1.1-2c-.054-.099-.092-.206-.11-.318l-.4-2.4c-.003-.018-.005-.036-.008-.054l-.2-1.8c-.013-.114-.006-.229.021-.34l1.273-5.387v-4.456l-3.268-12.576c-.018-.071-.029-.143-.031-.216l-.098-2.742-.986-6.509-1.085-4.834-1.275-4.314-2.079-4.949c-.034-.082-.058-.167-.069-.255l-.2-1.5c-.017-.13-.009-.263.025-.39l.4-1.5c.031-.117.084-.228.155-.327l1.8-2.5c.031-.044.066-.085.104-.123l1.2-1.2c.155-.155.357-.255.575-.284l1.5-.2c.044-.006.089-.009.132-.009.348,0,.675.182.857.486l.6,1c.038.063.068.129.091.198l.281.843,1.152-.629,6.069-6.42-3.3-2.817c-.102-.087-.185-.194-.245-.313l-1.3-2.6c-.016-.033-.031-.067-.044-.101l-.7-1.9c-.012-.034-.023-.068-.032-.103l-.2-.8c-.013-.052-.022-.106-.026-.159l-.094-1.128-.262-1.136-.309-.694-.072-.089-2.32,1.16c-.042.021-.086.039-.131.054l-1.2.4c-.102.034-.209.051-.316.051h-.9c-.14,0-.278-.029-.406-.086l-.9-.4c-.112-.05-.214-.12-.301-.207l-1-1-2.629-1.451-9.635-1.671c-.357-.062-.653-.313-.773-.655l-1.374-3.927-1.363-2.543-2.661-2.06h-2.558c-.073,0-.146-.008-.217-.024l-.9-.2c-.098-.022-.192-.058-.279-.108l-.7-.4c-.23-.132-.399-.349-.469-.605l-.3-1.1c-.034-.126-.044-.258-.027-.387l.1-.8c.007-.054.018-.106.033-.158l.481-1.636.172-1.117-.085-1.025-.189-.944-.068-.341-.672-1.176-.448-.523-.441-.294-.943.189-3.865,2.126c-.125.069-.263.11-.405.121l-1.3.1c-.026.002-.051.003-.077.003-.211,0-.417-.067-.588-.191l-1.1-.8c-.154-.112-.273-.266-.343-.444l-.9-2.3c-.016-.04-.029-.08-.039-.122l-.5-2c-.009-.035-.016-.071-.021-.107l-.684-4.985-.371-.965-.516-.458-1.038-.208-.804.161c-.065.013-.13.019-.196.019h-1.2c-.076,0-.151-.009-.225-.026l-1.3-.3c-.083-.019-.163-.049-.238-.088l-2.3-1.2c-.028-.014-.055-.03-.081-.047l-1.7-1.1c-.108-.07-.202-.16-.276-.266l-1.361-1.944-2.192-2.367-7.616-.666c-.179-.016-.35-.079-.496-.184l-4.53-3.25-9.823-4.763c-.091-.044-.175-.102-.249-.171l-4.869-4.577-1.588-.669-2.078-.173-7.141,1.761c-.038.009-.077.016-.115.021l-.8.1c-.041.005-.083.008-.124.008-.054,0-.108-.004-.161-.013l-4.317-.705-2.882,3.668-.659,1.224c-.027.051-.059.099-.094.144l-1.1,1.4c-.073.093-.162.172-.262.234l-1.3.8c-.096.059-.201.102-.312.126l-4.521.983-6.025,2.37c-.024.01-.049.018-.074.026l-3.6,1.1c-.095.029-.193.044-.292.044h-1.2c-.066,0-.132-.006-.196-.019l-1.875-.375-1.578.088-2.227.557-4.657,2.038-2.839,1.762c-.093.057-.194.099-.3.124l-3,.7c-.075.017-.151.026-.227.026-.04,0-.079-.002-.119-.007l-2.5-.3c-.192-.023-.373-.101-.521-.225l-3.6-3c-.034-.029-.067-.06-.097-.092l-.995-1.085-.33-.189-12.13.098h-.008c-.229,0-.451-.079-.629-.223l-3.568-2.889-6.971,5.687c-.078.063-.165.115-.258.152l-16.832,6.792-1.063,1.472-.455,1.093c-.05.121-.124.23-.216.323l-1.3,1.3c-.076.076-.164.139-.26.187l-2,1c-.054.027-.111.049-.169.066l-3.675,1.064-2.838,1.703-5.253,4.064c-.095.073-.201.129-.315.164l-2.9.9c-.096.03-.196.045-.296.045h-3.5c-.091,0-.182-.012-.27-.037l-2.5-.7c-.056-.016-.111-.036-.163-.061l-2.5-1.2c-.047-.023-.093-.049-.136-.079l-6.622-4.577-.676-.123-1.293.323-4.309,2.057c-.053.025-.108.046-.165.062l-5.631,1.553-2.257,1.599c-.169.12-.371.184-.578.184h-.8c-.424,0-.802-.267-.943-.667l-.6-1.7c-.021-.059-.036-.119-.045-.181l-.184-1.195-1.201-3.142-4.937-5.851-4.656.627c-.044.006-.089.009-.133.009-.069,0-.138-.007-.206-.021l-1.9-.4c-.053-.011-.105-.026-.155-.046l-3.017-1.168-3.513-.683c-.055-.011-.108-.026-.16-.045l-1.6-.6c-.061-.023-.12-.052-.176-.087l-2.699-1.675-.742-.068-1.023.157-12.465,6.282-1.819,1.456-1.311,1.748-.631,2.253-.285,2.093-.194,3.403.092,1.568.354,1.679.891,1.604,1.234,1.614,1.477,1.674c.04.046.076.095.108.147l.9,1.5c.019.032.036.064.052.098l1.1,2.4c.031.068.055.14.07.214l.6,2.9c.011.052.017.106.02.159l.1,2.3c.004.1-.006.201-.032.298l-.5,1.9c-.018.067-.042.131-.073.193l-.4.8c-.048.096-.111.184-.187.26l-.5.5c-.017.017-.034.033-.052.049l-2.826,2.449-.209.489c-.121.282-.365.493-.661.572l-1.384.369-.995.543c-.148.081-.313.122-.479.122-.065,0-.13-.006-.194-.019l-10.246-2.031-.604,1.745-.866,3.176-.083,1.08,1.068,6.12,3.46,11.663,3.086,6.269,3.51,3.416,1.897,1.264,1.244.366,1.232-.435,1.466-1.191c.078-.064.166-.115.259-.152l2-.8c.082-.033.167-.054.255-.065l3.162-.372,1.6-1.067c.074-.049.154-.089.238-.117l1.8-.6c.103-.034.21-.051.316-.051.21,0,.418.066.591.194l1.5,1.1c.125.092.228.212.298.35l1.979,3.859,2.576,4.061c.04.064.073.132.098.203l.6,1.7c.016.045.028.09.038.137l.288,1.439.55,1.65.816,1.45,3.864,4.927,3.383,2.417c.099.07.184.158.251.259l1,1.5c.141.211.196.469.154.719l-.3,1.8c-.027.162-.093.314-.193.444l-2.3,3c-.03.039-.062.075-.097.109l-3.413,3.315-.81,1.295-.172,1.889.196,3.426c.007.121-.008.242-.045.358l-.6,1.9c-.006.019-.013.038-.02.056l-1.3,3.4c-.016.042-.035.083-.057.123l-5.2,9.5c-.026.047-.055.092-.089.135l-4.002,5.133,3.821,3.157,1.592,1.124.773.352,1.821-.166,1.827-.609,7.164-5.594c.055-.043.114-.08.176-.11l4.227-2.067,1.615-2.781.475-1.139c.014-.035.031-.068.049-.101l.5-.9c.03-.055.066-.106.106-.155l1-1.2c.051-.062.11-.117.175-.165l1.9-1.4c.051-.038.106-.07.163-.098l13-6.2c.075-.036.153-.062.234-.078l3.5-.7c.065-.013.13-.019.196-.019.008,0,.016,0,.023,0l4.2.1c.134.003.266.033.388.088l3.1,1.4c.058.026.114.058.166.095l4.673,3.31,8.352,2.653c.037.012.073.025.108.041l2,.9c.083.037.16.086.23.144l1.2,1c.086.072.16.158.217.254l.067.112.589.107,1.839.088,12.015-4.235c.107-.038.219-.057.332-.057.031,0,.062.001.093.004l3.115.292,7.715-.593c.026-.002.051-.003.077-.003.138,0,.274.028.401.084l2.969,1.299,14.374-1.173,13.127-3.083c.075-.018.152-.026.229-.026.055,0,.11.005.164.014l1.8.3c.14.023.273.076.39.154l1.2.8c.02.014.04.028.059.043l1.8,1.4c.06.047.115.1.163.16l4.7,5.8c.022.027.042.054.06.083l9.4,14.4c.117.179.173.391.161.604l-.3,5.2c-.005.083-.02.166-.045.246l-.7,2.2c-.018.058-.042.114-.071.167l-.75,1.406-.56,1.959-.16.801.172,1.374.565,2.164,1.77,4.131c.024.056.043.114.056.174l1.4,6.2c.013.055.02.112.023.169l.293,5.661,1.293,3.785,7.274,8.454.835,1.001,7.619.857,3.714.391,15.121-.796,6.592-.4c.02-.001.04-.002.061-.002.124,0,.247.023.362.068l3.6,1.4c.105.041.203.099.288.173l2.1,1.8c.019.017.038.034.056.052l.421.421,2.283,1.438,2.962-.494,1.804-1.476.204-.475c.008-.018.016-.036.025-.053l.437-.875.274-1.462c.004-.02.008-.039.013-.058l.1-.4c.015-.06.035-.118.061-.174l1.1-2.4c.071-.154.179-.288.316-.388l1.9-1.4c.097-.072.207-.125.324-.158l2.5-.7c.088-.025.179-.037.27-.037h2.5c.09,0,.18.012.268.036l1.516.421,1.181-.369.436-.291.388-.323.512-1.097v-1.978c0-.049.004-.098.011-.147l.4-2.7c.05-.334.265-.621.572-.762.133-.061.275-.091.417-.091.186,0,.372.052.534.155l1.724,1.089,8.788,1.352,2.932-.183,3.351-1.34,4.59-1.896c.093-.038.191-.063.291-.072l3.3-.3c.03-.003.06-.004.091-.004.07,0,.139.007.207.022l3.3.7c.085.018.167.047.244.086l7.961,4.029,2.346.375,2.313.402c.16.028.31.094.438.193l1.3,1c.06.046.115.099.163.158l.294.357-.049-.652-.012-.024-.6-1.2-.487-1.054-2.343-1.442c-.208-.128-.362-.328-.433-.562l-1.3-4.3c-.025-.083-.039-.169-.042-.256l-.1-3c0-.024,0-.048,0-.072l.1-2.6v-.462c0-.055.004-.11.013-.164l.88-5.277-.049-.594-.198-.132c-.207-.138-.355-.348-.415-.59l-.1-.4c-.085-.341.015-.701.263-.95l1.2-1.2c.063-.063.134-.117.211-.161l.7-.4c.081-.046.168-.081.258-.103l4.039-.989-.089-1.78-.071-.142-.374-.523-1.392-1.113c-.066-.053-.125-.113-.175-.181l-.6-.8c-.111-.148-.179-.325-.196-.509l-.1-1.1c-.008-.087-.004-.174.01-.26l.49-2.843.097-1.742c.003-.059.012-.117.025-.174l.4-1.7c.021-.091.056-.179.102-.261l.9-1.6c.055-.097.126-.185.209-.259l4.223-3.732,5.639-7.518,3.119-4.485.699-1.66.073-.801-.225-1.125-4.154-5.313Z"/>
        <path id="vi" d="M884.053,176.345l-1.757-3.718c-.019-.04-.035-.081-.048-.123l-.8-2.5c-.044-.138-.058-.283-.04-.426l.6-4.9c.005-.039.012-.077.021-.115l.891-3.664.04-.243-.055-.109c-.009-.018-.017-.035-.025-.053l-.224-.523-.764-.764c-.136-.136-.229-.307-.27-.495l-.5-2.3-.237-1.028-1.118-1.204c-.084-.09-.15-.195-.196-.309l-.508-1.269-.75-.634-1.297.236-.516.838-.266.709c-.146.39-.519.649-.936.649h-.1c-.304,0-.591-.138-.781-.375l-.4-.5c-.034-.043-.064-.088-.091-.135l-3.163-5.635-.384-.494-2.444-.198-.175.612c-.057.2-.175.376-.337.506l-1,.8c-.1.08-.215.14-.337.177l-1.931.579-4.171,1.94-7.747,5.036-.481.802c-.048.081-.108.154-.177.218l-1.4,1.3c-.034.031-.069.06-.107.086l-1,.7c-.096.067-.203.117-.316.147l-1.5.4c-.044.012-.089.02-.134.026l-1.6.2c-.041.005-.083.008-.124.008-.15,0-.299-.034-.435-.099l-2.26-1.091-.328.328-.71,1.066-.231.461-.336,1.176v1.173l.802,1.283.842.935c.076.084.136.18.18.284l.5,1.2c.016.04.03.08.042.122l.3,1.1c.041.149.046.304.017.456l-.927,4.728.76,1.292.638.729c.071.081.129.174.171.274l.369.885.911.521,6.945.571,3.068-.575c.061-.011.122-.017.184-.017h3.1c.202,0,.4.061.567.176l1.527,1.05,2.047.93.893.244h2.263l.833-.556.415-.484.341-.766c.023-.052.05-.101.082-.149l.4-.6c.046-.069.101-.133.163-.189l1-.9c.111-.1.243-.174.387-.216l1.7-.5c.074-.022.151-.035.229-.039l5.6-.3c.018,0,.036-.001.053-.001.064,0,.127.006.189.018l6.364,1.227Z"/>
    </g>
</svg>