<?xml version="1.0" encoding="UTF-8"?>
<svg id="map" xmlns="http://www.w3.org/2000/svg" viewBox="0 0 180.889 281.4">
    <defs>
        <style th:utext="${style}">
        </style>
    </defs>
    <polygon th:if="${showStroke}" id="stroke" points="160.882 29.756 158.185 29.08 156.635 27.53 153.577 29.976 151.298 28.38 153.098 25.86 153.098 24.472 151.796 23.928 151.414 23.661 153.524 21.868 151.325 20.879 152.098 19.644 152.098 18.27 153.033 17.049 154.315 15.124 151.972 13.835 149.094 8.297 149.663 13.693 146.581 15.083 146.762 18.77 142.098 17.052 142.098 16.462 141.608 14.38 139.904 13.989 137.763 15.455 134.958 14.421 140.949 18.722 143.803 20.896 141.39 24.145 141.494 26.242 140.601 29.46 139.842 30.77 138.677 29.928 138.491 27.388 135.92 26.103 131.396 26.01 131.396 25.556 131.504 23.618 131.354 22.69 130.215 22.008 127.775 21.325 126.788 22.848 125.473 21.719 123.798 23.393 123.798 24.766 122.576 24.941 121.739 26.559 120.176 28.243 121.87 29.683 119.535 30.369 118.586 29.946 117.82 30.329 115.925 31.799 114.662 31.799 111.772 33.493 109.63 33.392 108.556 34.27 105.606 33.794 104.298 33.959 104.298 38.543 103.238 40.071 104.539 41.267 104.156 42.534 102.77 43.921 100.945 44.113 98.332 45.55 98.451 46.68 95.381 47.214 95.493 49.89 93.822 53.257 91.917 54.981 90.559 55.893 90.083 57.978 89.664 58.636 88.566 58.392 88.481 57.376 87.694 56.589 86.737 56.111 85.556 54.383 84.876 52.943 82.52 49.968 82.056 48.463 79.602 48.698 77.635 48.478 76.639 49.407 75.835 49.742 74.579 49.011 73.168 49.953 71.607 51.586 69.903 53.552 68.474 54.384 69.498 56.803 69.498 58.034 66.883 61.55 64.841 61.162 63.943 62.032 62.662 62.819 61.435 64.353 63.654 66.463 65.83 67.978 63.729 70.174 64.507 71.124 62.862 71.912 61.868 72.022 60.707 73.185 60.611 75.291 58.787 76.251 58.075 78.388 56.725 79.363 55.733 78.506 55.698 78.622 55.696 76.932 55.573 75.122 52.716 74.252 51.448 75.1 50.731 78.654 51.981 78.412 55.483 79.321 54.498 82.524 54.499 83.856 54.394 86.279 54.581 87.446 53.457 90.313 54.741 93.202 55.498 94.443 55.498 96.094 56.397 96.594 56.397 98.323 58.457 98.666 59.609 99.82 63.133 99.492 62.294 100.82 63.678 102.734 63.484 104.286 64.82 107.05 64.23 107.089 65.055 109.094 64.563 110.216 62.076 110.342 62.638 112.44 59.519 115.351 60.382 116.431 57.615 120.83 57.395 122.601 57.398 124.808 58.457 125.338 59.522 127.036 60.459 128.281 61.494 128.885 61.479 130.786 60.582 133.626 59.863 134.425 58.007 137.651 57.831 139.874 55.67 140.249 54.798 141.9 53.572 141.9 51.061 143.259 49.498 144.456 49.498 145.731 48.1 147.564 45.367 148.346 44.569 148.967 42.548 148.582 40.098 149.504 36.951 150.139 35.894 151.197 34.003 151.186 31.787 150.631 32.093 152.605 32.863 154.325 30.551 155.892 29.898 154.824 29.997 154.688 30.713 153.674 29.663 152.174 28.762 152.967 28.527 152.582 28.045 154.542 27.461 156.861 25.825 157.104 23.083 158.061 23.964 159.206 21.539 159.47 23.012 161.108 23.131 162.656 24.098 162.753 24.098 164.182 26.098 166.581 26.098 167.795 27.098 170.199 27.098 170.981 28.098 173.868 28.098 175.943 30.027 177.465 30.114 178.157 30.908 179.586 29.718 180.184 30.895 182.415 30.805 185.498 30.751 185.527 30.796 185.82 30.772 186.651 30.911 186.576 30.991 187.101 32.738 190.82 32.832 191.196 31.708 192.027 32.909 192.578 33.582 194.311 34.798 195.246 34.798 197.57 35.803 198.878 35.897 201.746 35.804 204.222 35.108 205.115 35.006 206.85 34.18 208.254 32.998 208.489 32.998 210.545 32.819 212.172 32.017 212.975 32.798 213.885 32.798 215.617 33.807 217.636 34.678 217.538 35.47 219.473 36.705 220.804 36.808 223.349 37.891 225.293 38.576 226.369 40.861 229.051 42.738 231.72 38.482 230.738 37.624 231.963 37.02 233.526 36.126 235.012 35.93 235.9 34.907 238.276 34.546 242.335 31.702 241.956 30.684 244.118 30.877 245.668 30.117 246.732 28.742 246.915 26.868 247.916 27.078 250.114 25.834 251.356 23.818 251.95 24.095 253.336 23.96 256.77 22.967 258.938 22.478 261.249 22.388 262.01 23.685 262.697 24.957 261.48 26.098 260.909 26.098 262.221 27.782 260.706 31.098 260.818 31.098 258.49 32.871 258.047 34.7 255.945 35.736 256.566 36.933 254.892 39.965 253.376 40.915 251.57 42.098 251.45 42.098 249.908 43.979 247.985 45.998 247.178 48.095 240.891 49.414 240.561 50.003 241.269 54.098 238.676 54.098 237.252 54.828 236.156 56.599 236.51 58.098 236.209 58.098 231.129 59.194 229.155 58.194 227.855 58.766 226.827 60.098 227.76 60.098 229.595 63.548 228.443 65.698 229.624 66.854 226.964 68.515 227.711 69.098 227.652 69.098 229.24 71.666 228.599 72.821 228.06 74.377 227.671 75.234 228.956 76.448 229.807 80.098 229.683 80.098 227.922 81.419 228.782 85.098 229.27 85.098 228.309 85.848 228.459 87.271 226.043 85.871 225.167 83.984 223.281 82.968 222.163 81.577 221.046 79.664 222.767 79.098 222.03 79.098 220.936 79.7 220.694 81.851 220.047 82.821 219.171 86.779 218.579 89.098 217.072 89.098 215.499 85.627 213.65 84.734 214.007 83.881 213.068 82.415 212.556 83.364 211.322 81.975 210.629 81.316 209.245 84.098 208.597 84.098 207.409 86.098 207.011 86.098 204.51 90.336 203.662 89.098 201.183 89.098 200.661 87.874 198.587 83.438 198.807 81.428 200.115 79.875 200.27 79.098 198.871 79.098 198.237 79.942 197.9 81.171 195.81 78.788 191.4 77.446 192.207 75.918 192.283 75.056 190.301 74.288 189.127 77.098 187.159 77.098 184.46 78.197 183.69 77.082 180.569 80.385 179.465 82.098 177.922 82.098 175.607 83.188 174.515 82.098 172.085 82.098 171.011 81.096 168.307 80.019 166.872 79 163.609 77.098 162.944 77.098 161.807 76.288 160.916 76.901 160.303 78.098 158.229 78.098 154.183 77.098 152.183 77.098 150.782 77.766 149.98 81.098 151.063 81.098 151.929 82.431 154.329 85.098 152.46 85.098 151.07 85.85 150.092 88.448 150.006 89.486 150.732 90.601 150.509 93.098 150.498 93.098 149.1 94.832 147.278 95.803 147.181 97.759 145.519 98.886 145.631 100.074 143.244 100.811 142.581 101.825 142.479 102.913 141.392 104.081 140.454 104.124 139.223 105.159 136.532 104.031 134.99 103.137 131.771 103.685 130.838 104.534 131.772 106.843 130.041 107.942 128.666 109.098 127.392 109.098 125.37 110.262 123.856 108.805 122.4 107.855 122.4 105.816 119.546 104.728 119.765 103.472 118.759 103.98 118.455 105.137 116.14 104.098 113.037 104.098 111.248 102.97 111.135 101.989 108.196 98.622 107.184 96.098 107.69 96.098 108.451 93.542 109.388 90.808 109.023 87.962 106.652 83.542 104.413 82.259 105.479 81.574 105.685 79.907 105.353 78.887 103.719 76.632 103.582 74.763 102.928 73.727 102.68 72.286 101.672 74.047 100.174 75.003 96.061 75.098 96.052 75.098 98.19 78.098 98.94 78.098 96.991 80.098 96.491 80.098 95.293 80.838 94.478 81.803 94.382 83.692 92.776 84.599 93.138 85.885 92.624 88.255 90.134 86.098 87.33 86.098 87.209 87.098 86.709 87.098 85.084 89.702 84.997 91.86 84.13 92.646 83.736 93.723 84.059 94.734 83.149 96.633 83.625 97.355 83.335 98.214 85.054 100.434 86.385 108.255 87.265 109.123 89.26 112.265 97.426 124 96.573 125.037 92.209 126.988 90.941 127.365 90.149 128.156 94.888 129.536 95.303 133.623 95.1 141.747 93.478 150.673 91.196 154.72 90.586 157.453 90.039 155.045 86.666 154.098 85.859 154.098 81.9 153.069 76.505 151.098 73.548 151.098 73.253 154.341 70.874 152.098 68.407 152.098 67.791 150.288 66.886 151.27 65.119 145.26 61.514 145.899 60.299 148.77 60.299 149.938 59.32 153.551 58.236 154.853 58.887 157.188 53.284 156.274 52.369 157.046 51.444 158.213 47.707 155.355 46.564 157.014 44.077 158.241 41.39 155.479 39.824 160.098 36.036 160.098 35.434 163.295 32.77 160.882 29.756"/>
    <polygon id="eisenstadt" points="84.098 71.4 86.402 69.04 90.098 67.468 90.098 64.49 89.16 61.959 87.516 60.068 85.709 61.332 84.646 61.12 82.672 61.894 80.805 62.174 79.784 62.991 78.098 63.076 78.098 63.477 79.098 64.378 79.098 66.04 80.239 67.638 79.098 68.893 79.098 69.935 80.999 72.502 82.907 74.402 83.994 75.095 84.824 76.174 85.721 76.085 84.098 73.651 84.098 71.4"/>
    <polygon id="rust" points="100.059 75.179 100.91 76.287 101.682 76.595 103.572 76.501 109.098 77.32 109.098 73.116 102.648 71.918 101.098 72.54 101.098 70.441 99.854 70.752 99.15 71.455 100.059 75.179"/>
    <polygon id="eisenstadt-umgebung" points="116.214 56.679 117.228 55.564 117.955 54.541 112.23 48.338 109.329 45.536 107.098 44.755 107.098 44.072 105.182 43.498 105.059 43.005 105.041 43.063 103.227 44.879 101.25 45.087 99.396 46.106 99.544 47.505 96.417 48.049 96.503 50.105 94.634 53.871 92.534 55.771 91.445 56.502 91.02 58.369 90.131 59.764 88.204 59.336 90.066 61.526 91.098 64.4 91.098 68.13 86.889 69.92 85.098 71.8 85.098 73.348 87.475 76.915 84.371 77.225 83.259 75.78 82.244 75.153 80.244 73.153 78.098 70.265 78.098 68.506 78.956 67.562 78.098 66.36 78.098 64.823 77.098 63.922 77.098 62.125 79.411 62.008 80.391 61.225 82.466 60.914 84.55 60.081 85.486 60.267 87.596 58.792 87.515 57.824 87.102 57.411 86.058 56.889 84.685 54.882 83.972 53.37 81.62 50.446 81.34 49.536 79.594 49.703 77.981 49.523 77.19 50.261 75.761 50.856 74.615 50.189 73.724 50.784 72.363 52.241 70.55 54.332 69.738 54.805 70.498 56.6 70.498 58.365 67.312 62.65 65.164 62.241 64.56 62.826 63.334 63.58 62.789 64.261 64.343 65.738 67.364 67.822 65.064 70.226 66.088 71.477 63.874 72.536 64.939 73.536 65.933 74.722 67.548 75.772 68.517 74.9 69.716 75.5 72.422 75.5 73.704 74.474 75.651 77.297 76.396 76.477 78.825 76.72 79.805 77.7 81.098 77.7 81.098 79.328 82.265 79.677 81.178 82.395 82.098 83.407 82.098 84.792 83.098 85.292 83.098 84.955 85.608 86.336 86.098 86.091 86.098 84.117 89.493 84.003 91.412 83.236 92.552 82.664 93.472 82.94 94.461 82.05 96.562 82.576 97.839 82.065 98.979 84.346 100.762 85.416 108.098 86.241 108.117 81.262 108.961 78.31 103.523 77.494 101.514 77.605 100.285 77.113 99.112 75.518 98.045 71.146 99.342 69.849 102.098 69.16 102.098 71.061 102.547 70.882 109.266 72.13 110.098 69.716 110.098 65.752 115.178 57.928 116.214 56.679"/>
    <polygon id="guessing" points="85.915 226.374 85.244 225.954 83.244 223.954 82.228 222.836 81.618 222.354 79.53 224.233 78.098 222.37 78.098 220.261 79.412 219.736 81.347 219.154 82.375 218.227 86.416 217.622 88.098 216.529 88.098 216.1 85.567 214.751 84.461 215.193 83.312 213.929 80.779 213.043 81.831 211.675 81.22 211.37 79.879 208.554 83.098 207.803 83.098 206.589 85.098 206.19 85.098 203.69 88.857 202.938 88.098 201.418 88.098 200.935 87.32 199.615 83.757 199.792 81.769 201.086 79.851 201.277 79.098 202.18 79.098 204.01 76.869 204.456 75.503 206.094 74.241 203.696 73.562 203.424 71.098 204.041 71.098 202.925 69.622 202.999 64.567 202.699 62.243 202.24 61.098 199.5 61.125 198.537 62.098 195.716 62.098 194.947 58.507 193.6 56.098 193.6 56.098 192.307 55.38 191.589 53.447 191.493 51.201 190.104 50.333 188.976 49.548 188.897 44.854 188.995 42.771 191.807 41.538 191.315 39.098 191.68 39.098 190.739 36.209 189.583 34.98 186.387 35.115 186.306 33.374 186.047 32.606 185.664 31.846 186.073 31.98 186.95 33.684 190.479 33.965 191.609 33.664 191.824 33.694 191.838 34.413 193.688 35.798 194.754 35.798 197.23 36.792 198.523 36.897 201.784 36.816 203.922 39.098 204.021 39.098 207.193 39.951 208.046 41.212 209.799 40.05 211.427 39.016 214.631 38.636 214.86 39.979 215.532 41.098 218.1 41.098 219.424 42.648 221.363 44.485 219.617 45.629 220.074 48.573 219.3 50.693 219.194 53.098 220.277 53.049 221.514 52.098 223.513 52.098 224.676 54.565 225.088 56.686 224.451 57.641 225.12 59.098 224.391 59.098 225.839 61.098 227.239 61.098 228.207 63.646 227.356 65.218 228.22 66.341 225.636 68.681 226.689 70.098 226.547 70.098 227.96 71.423 227.629 72.477 227.115 74.818 226.53 75.962 228.245 76.748 228.796 79.098 228.716 79.098 226.078 81.775 227.82 84.098 228.129 84.098 227.089 85.347 227.339 85.915 226.374"/>
    <polygon id="jennersdorf" points="57.001 227.944 58.068 226.023 57.555 226.28 56.51 225.548 54.63 226.113 51.098 225.524 51.146 223.185 52.098 221.187 52.098 220.923 50.502 220.206 48.676 220.297 45.566 221.127 44.71 220.783 42.547 222.838 40.098 219.776 40.098 218.209 39.216 216.268 36.56 214.94 38.18 213.967 39.19 210.909 39.983 209.799 39.19 208.691 38.098 207.607 38.098 204.978 36.534 204.911 36.088 205.484 35.99 207.149 34.815 209.146 33.998 209.31 33.998 210.6 33.775 212.63 33.379 213.026 33.798 213.515 33.798 215.381 34.389 216.564 35.318 216.461 36.326 218.926 37.689 220.394 37.798 223.07 38.735 224.756 39.42 225.832 41.679 228.476 45.058 233.28 38.914 231.864 38.442 232.537 37.927 233.958 37.068 235.387 36.886 236.209 35.889 238.524 35.45 243.464 32.295 243.044 31.712 244.282 31.918 245.932 30.679 247.667 29.053 247.883 27.927 248.484 28.118 250.488 26.361 252.244 24.978 252.651 25.099 253.257 24.952 257.008 23.876 259.355 23.458 261.445 23.515 261.476 24.374 260.653 27.098 259.292 27.098 259.977 27.413 259.693 30.098 259.784 30.098 257.71 32.323 257.153 34.495 254.656 35.459 255.234 36.263 254.108 39.23 252.625 40.28 250.63 41.098 250.547 41.098 249.5 43.412 247.136 45.196 246.422 47.098 240.719 47.098 240.109 49.781 239.438 50.21 239.954 53.098 238.125 53.098 236.949 54.367 235.045 56.598 235.49 57.098 235.39 57.098 230.87 58.001 229.244 57.001 227.944"/>
    <g id="mattersburg">
        <polygon points="51.998 77.39 52.013 77.387 54.698 78.084 54.698 77 54.622 75.878 52.878 75.347 52.345 75.703 51.998 77.39"/>
        <polygon points="79.098 94.907 80.356 93.521 81.393 93.418 83.504 91.624 84.598 92.061 85.311 91.776 86.94 90.065 85.098 87.67 85.098 87.196 84.098 86.645 84.098 86.909 81.098 85.409 81.098 83.794 80.018 82.604 80.931 80.322 80.098 80.072 80.098 78.7 79.391 78.7 78.37 77.679 76.799 77.522 75.544 78.903 73.491 75.925 72.773 76.5 69.479 76.5 68.679 76.099 67.647 77.028 65.214 75.421 64.214 74.22 62.824 72.922 62.327 72.977 61.688 73.617 61.584 75.909 59.609 76.949 58.922 79.01 56.67 80.636 56.239 80.264 55.498 82.675 55.498 83.9 55.397 86.221 55.612 87.557 54.54 90.289 55.655 92.796 56.498 94.159 56.498 95.506 57.397 96.006 57.397 97.476 58.938 97.733 59.985 98.781 65.062 98.308 63.501 100.782 64.719 102.467 64.513 104.117 65.896 106.979 68.444 106.809 69.098 106.417 69.098 104.477 70.192 103.492 71.098 101.6 71.098 101.369 73.148 99.626 74.191 95.138 76.098 94.947 76.098 97.409 77.098 97.659 77.098 96.21 79.098 95.71 79.098 94.907"/>
    </g>
    <g>
        <polygon points="160.312 30.644 159.098 30.34 159.098 31.407 156.561 28.87 153.617 31.224 149.897 28.62 152.098 25.54 152.098 25.138 151.311 24.809 149.78 23.738 151.671 22.131 149.87 21.321 151.098 19.357 151.098 17.93 152.201 16.495 152.88 15.476 151.224 14.565 150.643 13.447 150.733 14.307 147.613 15.715 147.834 20.231 141.532 17.909 141.79 18.094 145.193 20.702 142.406 24.454 142.501 26.354 141.53 29.851 140.153 32.229 137.713 30.466 137.535 28.028 135.675 27.098 130.397 26.99 130.397 25.5 130.499 23.671 130.44 23.309 129.701 22.866 128.221 22.476 127.006 24.352 125.524 23.081 124.798 23.807 124.798 25.633 123.228 25.858 122.564 27.139 121.619 28.157 123.929 30.12 119.464 31.432 118.61 31.052 118.268 31.223 116.271 32.799 114.934 32.799 112.022 34.506 109.966 34.409 108.841 35.329 105.589 34.804 105.298 34.841 105.298 38.856 104.557 39.925 105.546 40.834 106.014 42.703 108.098 43.328 108.098 44.046 109.945 44.741 112.945 47.64 119.241 54.46 118.005 56.191 116.968 57.336 115.981 58.52 111.098 66.048 111.07 69.963 110.098 72.784 110.078 78.038 109.098 81.47 109.098 86.696 110.057 88.901 112.932 96.375 123.196 95.629 124.157 91.589 126.207 90.257 127.829 86.849 129.04 94.11 129.659 94.296 133.573 94.101 141.499 92.509 150.474 90.215 154.523 89.606 155.741 89.362 154.231 87.247 153.098 86.34 153.098 81.9 152.126 76.893 150.098 73.851 150.098 72.747 152.854 70.725 151.098 68.794 151.098 68.409 148.907 67.314 149.926 65.479 143.935 61.885 145.296 59.299 148.406 59.299 149.454 58.421 153.644 57.164 154.342 57.513 156.008 53.517 154.921 52.43 156.15 50.956 156.982 48.292 153.84 47.035 156.182 43.522 156.954 41.81 153.717 39.975 159.098 35.563 159.098 34.965 161.901 32.63 160.312 30.644"/>
        <polygon points="140.107 15.062 138.838 15.931 139.311 16.309 141.098 17.596 141.098 16.462 140.787 15.218 140.107 15.062"/>
    </g>
    <polygon id="oberpullendorf" points="108.098 127.006 108.098 125.03 108.934 123.943 108.391 123.4 107.341 123.4 105.379 120.654 104.467 120.837 101.724 118.641 103.216 117.747 104.057 116.064 103.098 113.2 103.098 112.153 102.226 112.066 101.205 109.005 98.573 108.214 97.098 108.51 97.098 109.15 93.654 110.412 90.389 109.976 87.322 107.421 83.679 105.599 82.741 106.379 81.622 106.714 79.288 106.249 78.312 104.686 76.433 104.572 74.433 103.872 73.311 103.61 71.786 102.543 70.932 104.172 70.098 104.922 70.098 106.983 68.751 107.792 65.684 107.995 66.141 109.106 65.231 111.183 63.362 111.278 63.759 112.761 60.878 115.45 61.613 116.369 60.318 118.372 58.58 121.171 58.395 122.662 58.397 124.19 59.398 124.691 59.398 124.957 60.322 126.435 61.137 127.519 62.498 128.313 62.477 130.944 61.47 134.134 60.606 135.094 58.987 137.951 58.766 140.727 56.325 141.15 55.929 141.9 57.098 141.9 57.098 145.04 58.098 146.44 58.098 149.12 59.942 151.333 62.692 153.349 65.098 152.629 65.098 153.86 66.045 154.676 67.098 156.782 67.098 157.381 68.098 159.381 68.098 160.281 67.261 161.286 67.857 161.942 68.573 162.086 71.598 161.177 72.582 161.473 75.322 160.468 76.194 159.596 77.098 157.97 77.098 154.419 76.098 152.419 76.098 150.42 77.431 148.82 82.098 150.337 82.098 151.67 82.766 152.873 84.098 151.939 84.098 150.73 85.345 149.108 88.748 148.995 89.709 149.668 90.499 149.509 92.098 149.502 92.098 148.7 94.363 146.32 95.393 146.217 97.436 144.481 98.298 144.567 99.264 142.628 100.385 141.619 101.37 141.52 102.244 140.646 103.098 139.961 103.131 139.02 104.03 136.682 103.116 135.433 102.06 131.63 103.511 129.161 104.662 130.427 106.243 129.241 107.201 127.995 108.098 127.006"/>
    <g id="oberwart">
        <polygon points="29.245 153.874 29.188 154.101 29.495 153.678 29.485 153.663 29.245 153.874"/>
        <polygon points="81.098 172.299 81.098 171.19 80.158 168.654 79.12 167.349 78.195 164.388 76.098 163.654 76.098 162.193 75.454 161.485 72.613 162.526 71.598 162.222 68.622 163.115 67.338 162.858 65.935 161.313 67.098 159.92 67.098 159.618 66.098 157.618 66.098 157.018 65.199 155.222 64.098 154.34 64.098 153.971 62.503 154.451 59.214 152.02 57.098 149.48 57.098 146.76 56.098 145.36 56.098 142.9 53.825 142.9 51.536 144.139 50.498 144.945 50.498 146.069 48.694 148.435 45.828 149.254 44.827 150.033 42.647 149.619 41.783 149.963 40.366 150.47 37.445 151.06 36.305 152.2 33.877 152.185 33.006 151.967 33.081 152.452 34.134 154.672 30.245 157.308 28.926 155.15 28.398 157.3 28.398 157.731 25.973 158.094 24.715 158.542 25.844 160.008 23.588 160.253 23.983 160.692 24.064 161.744 25.098 161.848 25.098 163.819 27.098 166.219 27.098 167.596 28.098 170 28.098 170.813 29.098 173.7 29.098 175.458 30.969 176.934 31.082 177.841 32.288 180.012 31.078 180.619 31.902 182.182 31.822 184.95 32.589 184.537 33.746 185.116 38.08 185.693 36.215 186.813 36.986 188.817 40.098 190.061 40.098 190.52 41.657 190.286 42.425 190.592 44.342 188.005 49.588 187.9 50.862 188.023 51.937 189.42 53.748 190.506 55.815 190.611 57.098 191.893 57.098 192.6 58.773 192.632 63.098 194.254 63.07 195.963 62.098 198.784 62.098 199.395 62.952 201.36 64.696 201.71 69.628 202.001 72.098 201.875 72.098 202.759 73.633 202.376 74.954 202.904 75.692 204.305 76.326 203.544 78.098 203.19 78.098 201.819 78.994 200.743 78.098 199.13 78.098 197.561 79.253 197.099 80.023 195.789 78.406 192.797 77.747 193.193 75.277 193.316 74.139 190.699 72.91 188.871 76.098 186.639 76.098 183.939 76.999 183.309 76.212 181.106 75.454 180.879 75.499 179.91 76.499 179.71 79.87 178.582 81.098 177.477 81.098 175.193 81.994 174.296 81.098 172.299"/>
    </g>
</svg>