<?xml version="1.0" encoding="UTF-8"?>
<svg id="map" xmlns="http://www.w3.org/2000/svg" viewBox="0 0 372.444 334.722">
    <defs>
        <style th:utext="${style}">
        </style>
    </defs>
    <polygon id="zwettl" points="152.217 89.592 150.595 89.186 147.512 88.658 145.728 87.855 145.217 88.111 145.217 90.247 142.522 88.765 139.66 87.907 140.906 86.91 138.217 84.848 138.217 82.961 140.457 83.521 141.217 82.078 141.217 80.702 139.503 78.902 138.058 78.902 139.084 75.212 137.217 74.932 137.217 72.092 138.646 72.378 140.217 71.593 140.217 71.232 138.642 70.996 136.217 70.274 136.217 67.179 136.88 66.582 135.217 65.585 135.217 64.632 133.075 65.131 131.915 67.8 130.587 66.738 129.217 67.012 129.217 65.411 127.741 65.116 127.055 65.322 125.217 68.631 125.217 69.402 124.76 69.402 124.916 69.761 121.603 71.195 120.274 69.834 119.448 68.265 118.217 68.512 118.217 70.436 114.894 70.215 113.94 71.049 112.639 71.699 114.058 72.835 111.217 72.977 111.217 73.81 109.799 74.519 107.443 74.166 106.541 72.993 105.217 73.456 105.217 75.761 107.217 77.361 107.217 79.31 105.739 80.049 103.988 79.349 103.217 81.201 103.217 82.001 102.596 82.001 102.46 82.23 100.217 80.885 100.217 77.902 98.963 77.902 98.319 78.739 99.326 80.451 97.806 82.275 94.791 80.163 93.938 81.101 91.217 81.101 91.217 79.925 88.784 79.519 86.812 80.407 84.566 80.295 84.217 80.085 84.217 81.482 82.904 81.285 84.217 82.926 84.217 84.692 82.649 85.084 83.024 85.496 85.217 86.593 85.217 87.879 86.051 88.63 87.217 89.318 87.217 90.631 84.217 96.031 84.217 94.153 83.585 93.204 80.737 95.197 78.913 94.102 76.894 97.936 75.526 96.978 73.467 96.67 72.467 95.57 70.84 95.325 69.004 96.611 68.07 97.555 67.014 98.934 65.693 99.331 64.974 99.043 63.948 101.3 61.778 100.106 60.126 101.51 59.217 103.51 59.217 103.97 61.133 105.624 62.196 107.22 62.368 108.549 64.319 108.771 68.063 111.813 67.571 112.304 68.478 112.44 69.821 112.027 73.505 113.22 75.516 115.566 75.516 116.329 76.787 116.907 75.374 119.875 72.684 118.907 72.556 118.992 72.722 120.158 72.478 121.622 70.692 123.052 70.12 123.052 70.689 124.687 70.807 125.253 70.815 125.998 71.042 126.338 73.24 127.137 75.43 130.371 77.168 132.096 78.552 132.415 80.571 136.217 78.82 137.384 80.933 138.401 83.068 138.986 82.617 142.362 83.631 141.043 84.779 141.961 87.217 140.742 87.217 142.191 87.76 142.571 88.861 142.02 89.972 143.464 91.894 143.56 94.217 145.302 94.217 145.642 96.814 146.161 97.86 146.472 99.482 147.276 98.621 148.396 100.942 148.783 101.831 149.582 103.217 149.097 103.217 146.776 105.823 146.646 106.217 146.843 106.217 146.068 107.217 145.469 107.217 142.471 109.656 144.544 110.333 143.732 111.563 142.498 113.973 143.123 114.785 143.609 116.217 143.179 116.217 140.213 118.632 141.179 119.609 140.397 120.705 140.726 122.217 140.197 122.217 138.476 124.217 138.376 124.217 137.579 126.859 136.786 127.924 137.851 128.217 137.851 128.217 136.211 130.508 136.784 131.425 135.5 132.217 135.342 132.217 132.812 131.559 132.351 130.217 132.351 130.217 130.925 128.625 131.641 127.086 130.257 127.947 128.707 127.407 128.6 126.293 126.817 125.315 124.394 124.586 123.956 121.332 124.065 120.143 119.428 122.603 117.865 125.464 117.197 126.099 116.562 124.217 113.078 124.217 112.052 126.154 110.017 125.217 106.802 125.217 104.383 123.033 101.762 125.217 99.687 125.217 98.058 126.38 96.198 128.883 95.197 130.217 96.931 130.217 98.929 131.217 99.229 131.217 101.234 133.217 101.367 133.217 99.663 135.895 98.592 136.916 100.02 137.217 99.929 137.217 99.026 139.217 98.926 139.217 98.753 138.116 97.101 139.301 95.324 140.49 93.776 143.896 94.117 146.004 95.592 147.655 96.994 148.904 95.496 148.217 94.808 148.262 93.095 149.442 90.497 151.53 91.123 152.217 90.232 152.217 89.592"/>
    <g id="wr-neustadt">
        <polygon points="245.277 316.671 247.525 316.016 248.529 314.761 248.635 313.29 250.513 311.854 253.692 310.152 254.217 310.152 254.987 308.707 256.841 308.337 256.977 306.813 258.945 303.217 259.771 302.299 260.516 299.876 260.516 299.119 259.709 298.539 257.77 295.733 256.307 294.945 256.417 291.635 256.693 289.786 259.094 285.985 258.033 284.712 260.572 282.29 261.46 281.562 261.193 280.408 261.87 278.784 263.892 278.581 263.971 278.423 263.408 276.918 263.504 275.951 262.399 273.84 262.595 272.47 261.125 270.265 259.22 270.476 257.955 269.105 255.539 268.556 255.432 266.729 254.516 266.118 254.516 264.114 253.754 263.039 252.379 259.655 253.509 256.777 253.419 255.693 253.516 253.329 253.411 251.893 254.067 249.829 253.908 249.59 251.811 249.066 250.408 249.389 248.6 248.085 248.217 248.161 248.217 252.062 245.947 251.607 245.174 252.767 244.133 256.202 242.787 256.876 242.473 256.813 243.332 259.302 240.217 260.86 240.217 261.08 242.949 260.716 244.124 262.361 245.217 263.671 245.187 265.02 244.217 267.739 244.217 269.274 243.341 270.063 244.217 271.729 244.217 275.56 243.407 275.965 244.31 277.59 242.029 280.642 241.095 281.388 240.217 282.795 240.217 283.819 243.217 289.016 243.187 289.919 242.282 292.454 245.443 296.353 243.805 297.5 242.217 297.024 242.217 296.076 240.61 296.158 239.217 295.46 239.217 293.568 237.217 293.635 237.217 294.811 238.217 295.612 238.217 297.881 239.357 299.365 238.34 300.584 239.133 301.774 240.398 303.546 239.304 304.421 240.286 307.269 239.217 308.445 239.217 310.139 237.736 311.832 237.376 312.551 238.462 314.722 239.194 314.906 241.26 317.346 242.448 316.837 244.507 317.131 245.277 316.671"/>
        <polygon points="258.878 232.938 261.31 232.127 261.955 231.325 263.255 230.526 264.265 229.745 264.183 229.337 265.057 228.115 263.822 226.942 261.861 230.178 258.478 227.697 252.429 225.461 251.696 224.947 250.717 225.534 249.613 224.872 247.907 225.129 246.782 225.916 245.217 225.29 245.217 224.424 244.889 224.325 244.217 225.133 244.217 228.556 241.217 227.507 241.217 227.004 240.777 226.96 239.04 227.568 238.04 229.068 236.031 229.771 235.217 230.951 235.217 231.518 230.882 230.976 230.217 231.574 230.217 234.112 228.441 231.627 225.889 231.371 227.014 229.459 225.598 228.751 223.717 228.751 220.881 229.328 218.835 230.351 217.408 230.351 216.144 227.824 217.217 226.108 217.217 223.845 217.941 223.119 217.629 222.9 216.217 223.324 216.217 224.79 212.862 223.448 214.063 222.126 212.832 222.866 210.918 222.674 209.94 223.699 208.217 224.561 208.217 220.859 207.499 220.141 205.45 220.039 204.617 218.872 203.934 219.418 202.605 219.684 201.503 218.912 199.217 218.303 199.217 219.245 197.971 220.615 193.994 221.31 193.043 222.548 191.835 223.152 188.874 223.152 187.844 223.873 184.862 223.475 184.217 223.992 184.217 224.822 183.011 226.389 179.217 227.432 179.217 228.592 176.217 230.992 176.217 232.49 174.217 233.29 174.217 230.66 173.217 230.16 173.217 231.592 171.029 233.342 168.217 235.126 168.217 237.529 168.949 238.188 169.646 238.327 171.493 237.404 174.217 236.492 174.217 235.112 176.802 237.179 179.644 236.042 183.217 236.399 183.217 237.596 185.217 240.496 185.217 241.28 185.705 241.426 187.486 240.802 189.217 239.592 189.217 241.213 191.217 242.013 191.217 244.174 190.31 244.99 191.217 247.351 191.172 248.958 190.446 250.555 191.431 250.703 192.383 248.88 193.474 247.896 196.907 247.038 196.029 245.722 198.573 243.972 200.692 243.337 201.615 243.521 203.684 242.176 205.114 242.891 205.938 245.034 206.499 244.585 208.217 244.242 208.217 243.723 212.217 241.99 212.217 243.913 213.217 244.313 213.217 245.368 215.601 243.937 217.217 244.099 217.217 244.384 219.217 244.517 219.217 243.493 222.877 245.568 226.973 246.123 228.217 246.868 228.217 247.071 229.545 246.871 231.667 245.654 233.217 245.499 233.217 246.705 235.928 248.784 237.012 249.048 239.684 251.008 240.217 250.529 240.217 244.979 241.217 244.679 241.217 242.46 240.217 240.152 240.217 237.992 241.907 235.624 242.132 235.131 240.848 233.59 245.217 232.28 245.217 237.076 250.217 237.326 250.217 235.342 252.217 235.742 252.217 239.403 251.404 240.622 253.217 241.891 253.217 242.764 256.673 243.653 257.012 246.492 257.015 247.195 257.091 247.141 257.801 244.911 259.516 243.958 259.516 242.244 261.264 240.496 262.701 240.142 262.11 239.551 264.049 237.613 262.723 236.657 258.878 232.938"/>
        <polygon points="252.273 242.338 250.086 240.808 251.273 239.027 251.273 238.303 244.273 237.954 244.273 233.55 242.642 234.04 243.358 234.899 242.228 237.385 241.928 237.32 241.273 238.238 241.273 239.969 242.273 242.278 242.273 245.35 241.273 245.65 241.273 250.901 240.108 251.95 237.094 254.462 236.388 255.318 237.152 256.542 237.736 257.008 240.837 253.908 242.065 255.627 242.703 255.754 243.357 255.427 244.357 252.201 245.543 250.422 247.273 250.768 247.273 247.268 248.889 246.945 250.073 247.8 250.073 246.678 250.625 243.761 252.273 242.792 252.273 242.338"/>
    </g>
    <g id="waidhofen-an-der-thaya">
        <polygon points="158.608 51.106 160.045 50.532 159.394 49.101 157.217 49.101 157.217 47.509 156.217 46.509 156.217 43.892 157.636 44.602 158.009 44.266 157.346 43.538 156.053 42.244 156.617 41.511 153.493 39.949 149.552 38.573 147.434 38.155 146.217 36.572 146.217 33.92 143.505 32.655 141.807 31.474 140.787 32.699 139.519 31.684 137.493 31.449 135.493 30.449 133.46 29.23 132.395 28.811 131.35 27.349 129.506 25.873 126.635 25.395 125.003 25.401 123.837 27.383 122.657 26.321 121.717 26.885 119.217 25.385 119.217 23.911 118.958 23.86 118.351 24.829 119.297 25.775 118.217 28.691 118.217 30.442 116.824 31.555 113.631 30.598 111.83 30.508 109.076 31.976 107.929 33.926 105.82 33.081 105.033 33.789 105.217 33.863 105.217 35.026 108.217 36.926 108.217 37.562 107.217 38.262 107.217 43.095 108.217 44.095 108.217 46.042 105.913 45.466 105.217 46.371 105.217 46.872 106.217 48.672 106.217 50.139 103.217 50.539 103.217 52.165 104.217 53.865 104.217 55.418 105.124 56.011 106.464 57.887 104.217 59.011 104.217 61.91 102.769 61.187 101.217 62.351 101.217 64.258 102.392 66.138 100.004 67.811 99.547 68.273 103.217 70.199 103.217 74.511 104.217 74.761 104.217 72.746 106.905 71.806 108 73.339 109.635 73.583 110.217 73.292 110.217 72.126 111.374 72.068 110.794 71.604 113.421 70.29 114.531 69.18 117.217 69.449 117.217 67.811 119.976 67.121 121.13 69.312 121.846 70.1 124.217 69.074 124.217 68.475 126.388 64.457 127.717 64.192 130.217 64.691 130.217 65.792 130.846 65.665 131.518 66.202 132.362 64.263 136.217 63.492 136.217 65.118 138.591 66.542 137.217 67.642 137.217 69.629 138.86 70.122 141.217 70.471 141.217 72.31 138.787 73.525 138.217 73.411 138.217 74.171 140.448 74.538 141.52 72.501 142.832 73.287 144.414 73.129 145.372 71.501 146.217 71.163 146.217 68.363 146.959 68.066 145.688 66.16 149.676 66.692 149.926 66.617 149.408 65.84 147.217 65.292 147.217 63.894 149.082 62.029 148.108 60.471 150.021 57.986 147.944 56.324 149.525 54.902 151.217 54.902 151.217 53.492 152.747 54.258 155.217 53.352 155.217 53.05 156.44 51.215 158.608 51.106"/>
        <polygon points="106.217 77.942 104.81 76.817 104.334 78.388 105.682 78.86 106.217 78.593 106.217 77.942"/>
    </g>
    <polygon id="tulln" points="238.433 157.078 240.298 153.219 240.92 149.519 240.915 145.418 245.028 147.422 248.832 140.975 248.493 140.899 247.738 140.521 245.824 141.67 242.65 141.247 241.876 141.019 240.7 142.313 239.482 140.851 237.46 140.851 236.653 139.722 235.754 140.621 234.697 139.776 234.217 140.112 234.217 141.101 230.217 142.567 230.217 142.874 228.919 144.042 226.474 144.164 224.439 141.418 218.885 140.64 219.753 139.25 217.217 139.504 217.217 138.851 216.531 138.816 214.693 138.081 213.86 138.33 211.672 139.208 209.799 138.084 211.217 137.091 211.217 132.235 210.095 131.561 211.083 129.091 208.729 128.855 210.464 126.774 212.217 126.599 212.217 128.271 213.217 128.121 213.217 126.851 214.217 126.851 214.217 123.312 212.954 122.428 215.217 120.052 215.217 118.652 214.217 116.152 214.217 115.723 213.692 115.566 211.646 115.975 209.957 115.131 209.098 117.02 207.695 117.721 206.679 117.113 204.014 118.267 202.217 120.245 202.217 119.19 201.782 119.016 200.479 119.928 199.299 116.857 198.541 116.251 197.79 116.251 195.753 116.863 194.217 116.632 194.217 119.361 191.493 117.999 188.745 116.442 188.081 116.907 186.887 118.696 185.717 118.111 185.217 118.361 185.217 120.412 184.217 121.112 184.176 123.251 183.217 125.455 183.217 126.961 182.397 127.37 183.257 129.005 182.146 132.448 181.217 133.192 181.217 135.404 178.887 135.637 177.66 136.434 178.867 137.159 180.52 137.241 181.618 136.143 183.059 136.864 184.217 138.6 184.217 138.728 185.044 140.299 188.217 140.828 188.217 141.579 188.303 141.605 189.517 140.451 190.525 140.451 191.636 139.452 193.217 140.242 193.217 142.16 190.762 143.388 189.217 142.923 189.217 143.599 191.217 143.799 191.217 146.792 189.899 147.846 186.549 147.957 185.762 147.328 184.217 148.952 184.217 150.599 185.94 150.804 187.217 151.443 187.217 152.735 189.804 152.648 191.429 153.298 190.345 155.251 191.855 155.251 193.087 156.015 194.497 157.566 193.122 158.392 192.1 160.972 191.38 161.837 191.886 162.394 194.217 161.811 194.217 165.851 195.578 165.851 196.613 165.231 198.217 165.471 198.217 163.713 199.079 163.368 198.103 160.736 199.603 159.865 203.217 159.022 203.217 159.723 205.532 160.726 206.546 159.207 208.095 159.981 209.286 162.484 208.545 163.67 210.048 163.895 211.122 166.043 212.217 167.029 212.217 167.929 214.217 169.729 214.217 170.482 215.043 171.555 215.636 171.852 216.531 171.087 217.36 170.756 217.963 169.611 216.618 169.342 214.217 168.742 214.217 166.676 216.881 166.543 217.717 167.211 218.404 166.661 220.383 164.88 221.952 163.854 220.862 162.655 222.782 161.887 223.851 162.636 224.667 162.554 227.496 162.365 227.91 161.951 227.217 161.535 227.217 159.969 228.625 159.123 230.605 159.519 231.002 159.242 229.444 157.218 232.555 157.996 234 156.479 232.683 155.294 236.217 154.411 236.217 156.012 236.963 156.608 238.771 157.241 238.772 157.241 238.433 157.078"/>
    <g id="scheibbs">
        <polygon points="128.727 233.475 129.892 232.834 129.122 232.064 130.105 229.803 128.916 228.851 130.095 227.909 129.265 226.166 128.374 224.745 126.808 224.041 125.563 225.162 124.335 222.705 122.083 221.355 123.14 218.923 122.217 217.721 122.217 215.06 121.217 212.751 121.217 211.391 122.217 210.691 122.217 209.723 120.217 208.423 120.217 205.828 121.217 203.928 121.217 202.591 124.217 201.591 124.217 201.312 122.39 198.755 119.404 197.442 118.217 196.492 118.217 195.261 117.34 194.78 115.34 192.48 114.565 191.869 111.217 192.204 111.217 189.312 110.896 189.536 108.981 189.727 107.765 191.308 105.99 189.533 107.06 188.569 106.217 187.303 106.217 186.612 105.217 185.912 105.217 185.945 103.896 187.397 102.47 187.112 101.618 186.26 99.81 187.163 98.667 187.049 96.286 187.174 94.941 188.316 92.881 188.728 92.024 189.157 90.958 190.33 89.929 190.433 89.217 191.074 89.217 195.261 88.53 195.603 89.284 196.432 88.058 200.108 85.792 199.768 83.217 200.97 83.217 202.291 84.217 202.991 84.217 205.593 79.779 206.148 77.928 206.614 76.838 207.336 75.217 207.742 75.217 209.058 73.543 210.733 75.217 210.147 75.217 212.547 73.613 213.429 75.029 214.561 75.895 215.506 78.217 215.042 78.217 217.761 79.717 218.136 82.217 217.511 82.217 219.088 81.504 220.299 83.573 220.713 81.217 224.012 81.217 226.365 85.714 225.646 88.217 226.021 88.217 227.6 89.317 229.251 87.908 231.366 86.705 230.885 84.989 231.486 84.217 232.259 84.217 234.445 82.973 235.78 81.217 236.835 81.217 238.592 80.307 239.319 81.12 241.594 82.217 242.142 82.217 244.035 80.814 244.842 77.918 245.421 77.217 245.912 77.217 247.733 75.996 249.197 74.217 249.642 74.217 250.038 71.973 252.618 69.954 252.921 69.294 253.581 70.139 255.95 70.963 256.608 73.755 257.585 70.159 260.342 70.015 260.918 72.417 261.686 72.417 262.014 74.317 265.214 74.317 266.568 76.85 267.242 78.617 267.012 78.617 265.945 81.376 263.213 83.313 262.149 84.846 260.614 86.686 260.939 91.452 259.509 92.667 258.294 95.85 260.629 98.781 260.239 99.753 260.627 104.217 259.48 104.217 257.378 108.597 257.141 109.543 257.992 111.405 257.433 113.164 257.873 113.972 256.402 113.417 254.652 113.417 252.608 114.493 250.887 115.305 248.941 116.566 247.931 114.445 247.507 113.454 246.318 111.467 246.02 110.396 244.842 109.356 244.218 108.082 242.179 109.475 240.814 111.475 239.714 113.517 238.176 115.432 237.888 116.425 236.5 118.828 236.019 119.874 236.752 120.384 236.752 121.477 234.125 122.844 234.945 124.56 234.859 127.71 232.864 128.727 233.475"/>
        <polygon points="72.217 209.955 72.217 210.942 72.68 211.034 73.217 210.847 73.217 209.156 71.664 209.652 72.217 209.955"/>
    </g>
    <g id="st-poelten">
        <polygon points="235.217 155.692 234.75 155.809 235.217 156.229 235.217 155.692"/>
        <polygon points="189.916 141.451 189.406 141.936 190.671 142.315 192.217 141.542 192.217 140.961 191.779 140.742 190.892 141.451 189.916 141.451"/>
        <polygon points="174.217 171.468 175.563 170.661 178.217 170.484 178.217 169.268 179.217 168.668 179.217 166.921 178.177 163.283 179.217 161.515 179.217 160.756 177.585 161.327 176.66 160.402 174.84 161.676 172.776 161.366 172.13 161.624 171.062 165.361 167.841 164.502 165.922 166.134 165.217 166.204 165.217 167.552 162.824 167.552 161.217 168.275 161.217 169.945 160.217 171.045 160.217 175.642 158.217 176.142 158.217 179.468 158.696 179.756 159.559 179.152 162.084 179.152 163.316 183.093 161.217 184.247 161.217 185.868 161.91 186.284 164.217 186.861 164.217 187.334 166.847 187.246 167.785 187.809 169.217 187.379 169.217 182.545 168.217 181.445 168.217 177.191 170.987 176.268 170.132 174.727 171.416 172.802 172.704 172.544 174.217 172.771 174.217 171.468"/>
        <path d="M215.014,176.684l-1.057-2.346,1.016-1.698-.583-.292-1.174-1.526v-.647l-2-1.8v-.9l-.947-.899-.884-1.768-2.497-.375,1.259-2.014-.809-1.697-.451-.226-.986,1.48-3.685-1.597v-.098l-2.31.539-.577.346,1.024,2.768-1.138.455v2.242l-2.396-.36-.965.579h-2.639v-3.759l-1.669.417-1.494-1.644,1.226-1.471,1.032-2.684.625-.375-.54-.595-.818-.491h-2.861l-.186-.964.835-.334.638-1.148-.375-.15-3.412.113v-1.708l-.642-.321-2.908-.291-.094-.977.644-.193v-1.729l2.454-2.576,1.214.971,2.649-.088.683-.546v-1.607l-2-.2v-1.438l-1,.95v-2.341l-2.827-.471-1.115-2.12-.899-1.345-.56-.28-.902.902-2-.1-.696.697v1.393h-2.382l-2.072,1.036-1.082-.324-1.464.219v4.319l-2.379,1.735-1.783.446-1.087,2.066-1.527-.458-1.017-1.118-.779-.312-2.428.243v-1.244l-.438-.219-.865.692-2.984.298-2.007,1.806-2.706.18v2.28l2-.2v6.462l-1.652-.826-1.619-.243-.633.886.904,1.537v1.589l-2,.2v1.328l-3.721,1.023.721,1.152v1.487l-1.146,1.81-1,1-.854.605v1.625l-.854.512.731,1.535,1.122.561v2.449l1.071,1.5-.931,2.142,1.533.843,1.044.209,1.282,1.026v1.312l-1.682,1.093.296.266,1.842-.645,3.061.51,3.839-.383-2.141,1.497,1.146,1.49-2,.5.921,1.196-2.577,1.16-1.945.683-1.088.931-2.813,1.032-.807,1.614,1.002,2.306-2.209,4.198-2.201.661-1.644.575v1.474l-3.202,1.388-.928,1.02-1.093,1.764h-1.277l-.818-.156-.922,1.015-2.162.432-2.824.101-.986,1.419-1.787,1.25v.731l1,2.308v2.43l1.076,1.398-.942,2.168,1.748,1.049.771,1.543.755-.679,2.436,1.096,1.08,1.729,1.198,2.508-.821.657.811.649-1.017,2.338.633.633,1.679.168.87-.436,2.035-1.536,2.027-.203.467-.28-.94-1.505,1.449-1.392,1.848-.739,1.004-1.568.834-.751v-3.049l.709-.212-1-1.5,2.791-.815h2.732l.951-1.427,1.816-.545v-4.488l2.314-1.604,2.686-1.074v-.439l-.938-.88-1.062-1.913v-2.09l.818-1.145-1-.8,1.369-1.885,2.115-1.692.922-.092,1.057-1.479,2.183.437,2.168-.759,1.049,1.049,3.492-.437.96-1.92,2.162-.973,1.019-.723,3.25-.434,2.057.823,2.121.252,1.805.993,1.881-.659,2.358.118.975,1.558.589-.059,2.077-1.107,2.249-.337,1.098,1.098,2.033.711.86,1.118,1.648-.66,1.686-1.018v-.856l3.261-1.305,1.739-1.217v-3.715l2-.1v-.963l3.155-1.262,1.01-1.671,3.846-3.462,1.786-4.935ZM180.217,161.788l-.96,1.632.96,3.431v2.383l-1,.6v1.584l-3.347.223-.653.392v1.897l-2.487-.373-.712.142-.716,1.074,1.145,2.06-3.229,1.077v3.146l1,1.1v5.965l-2.568.771-1.062-.638-3.369.112v-.727l-1.757-.462-1.243-.745v-2.779l1.9-1.046-.768-2.458h-1.476l-1.137.795-1.521-.913v-4.674l2-.5v-4.203l1-1.1v-1.93l2.5-1.077h1.5v-1.253l1.295-.129,2.081-1.769,2.778.741.933-3.263,1.354-.542,1.937.291,2.18-1.527,1.075,1.075,2.368-.829v2.441Z"/>
    </g>
    <g id="neunkirchen">
        <polygon points="240.823 295.146 243.085 295.032 241.151 292.648 242.217 289.664 242.217 289.287 241.286 287.705 239.217 284.084 239.217 282.508 240.404 280.66 241.353 279.902 243.123 277.512 242.026 275.537 243.217 274.943 243.217 271.975 242.093 269.84 243.217 268.828 243.246 267.484 244.217 264.765 244.217 264.033 243.333 262.972 242.485 261.786 239.845 262.139 237.217 263.19 237.217 260.626 239.217 260.726 239.217 260.242 242.101 258.8 241.267 256.383 240.653 255.522 237.754 258.421 236.293 257.216 235.1 255.31 236.333 253.831 238.906 251.678 236.51 249.92 235.505 249.719 232.217 247.198 232.217 246.604 231.878 246.638 229.791 247.846 227.217 248.232 227.217 247.435 226.55 247.034 222.47 246.487 220.217 245.209 220.217 245.586 216.217 245.319 216.217 245.004 215.832 244.966 212.217 247.134 212.217 244.99 211.217 244.59 211.217 243.513 209.217 244.38 209.217 245.062 206.934 245.518 205.495 246.669 204.319 243.612 203.749 243.326 201.818 244.582 200.741 244.366 198.937 244.907 197.404 245.981 198.526 247.664 193.959 248.806 193.122 249.559 192.002 251.799 188.987 251.348 190.217 248.643 190.217 247.448 189.123 244.713 190.217 243.729 190.217 242.69 188.217 241.89 188.217 241.512 187.882 241.723 185.728 242.477 184.217 242.024 184.217 240.807 182.217 237.907 182.217 237.304 179.789 237.061 176.632 238.324 175.217 237.192 175.217 237.212 171.875 238.325 169.787 239.375 169.217 239.262 169.217 239.99 168.019 240.469 167.347 241.275 169.217 243.891 169.217 246.312 168.087 247.103 167.06 248.745 165.452 249.469 167.074 251.983 168.217 252.668 168.217 257.024 167.28 257.304 170.817 262.805 170.817 263.599 173.028 263.003 175.631 265.041 175.913 265.746 176.944 264.152 180.516 264.152 181.9 263.994 182.016 267.837 181.921 269.591 182.859 272.687 184.184 274.012 183.25 277.003 186.374 277.836 185.645 279.11 185.811 279.038 186.942 277.701 189.894 277.02 192.082 278.27 192.586 278.342 194.932 277.701 196.917 279.313 196.917 281.368 196.993 281.414 198.871 280.92 200.868 281.918 201.137 283.53 199.864 286.075 198.928 287.305 199.015 288.618 198.849 291.08 199.859 291.136 200.884 289.6 204.094 290.236 207.016 292.184 207.016 294.051 206.925 296.365 208.117 297.657 208.117 297.81 210.246 298.675 211.727 299.972 212.374 300.043 214.505 299.435 217.736 300.239 219.864 299.833 222.466 300.851 223.393 302.502 224.604 303.309 225.579 305.229 225.504 302.995 229.046 301.815 229.509 301.352 229.4 298.399 232.275 298.124 233.639 300.284 234.791 301.529 235.151 304.164 234.221 304.909 236.144 309.48 237.313 310.795 238.217 309.764 238.217 308.058 239.147 307.034 238.129 304.081 239.035 303.357 238.309 302.342 237.094 300.518 238.076 299.338 237.217 298.221 237.217 296.091 236.217 295.291 236.217 292.668 240.217 292.534 240.217 294.843 240.823 295.146"/>
        <polygon points="243.217 295.195 243.217 296.28 243.628 296.403 243.99 296.15 243.217 295.195"/>
    </g>
    <polygon id="moedling"points="267.217 198.524 265.217 197.924 265.217 192.237 266.806 190.726 265.531 190.216 261.022 189.207 262.717 185.221 259.917 184.662 259.917 184.507 256.437 183.293 255.793 185.18 254.131 187.08 250.753 185.27 250.676 184.652 250.617 184.652 248.174 184.281 247.263 185.091 246.198 184.878 244.149 186.005 240.947 184.695 242.001 183.839 238.775 180.52 237.741 180.796 237.627 177.826 236.192 176.869 234.217 177.097 234.217 178.112 233.217 179.512 233.217 180.435 231.026 181.748 230.11 182.665 228.868 184.653 225.78 182.595 225.217 183.159 225.217 185.261 223.623 184.463 221.936 184.632 220.217 186.266 220.217 188.068 221.399 188.778 220.262 190.712 220.914 192.734 221.414 192.134 222.802 191.579 223.802 192.379 225.018 191.892 226.033 194.835 227.217 194.48 227.217 196.311 227.503 196.54 228.385 194.334 230.553 194.443 231.717 193.512 235.217 196.311 235.217 197.534 236.084 199.269 238.029 200.161 238.87 200.834 240.811 200.64 243.1 201.831 243.75 202.611 245.493 200.904 246.705 200.298 248.217 200.978 248.217 200.391 250.66 202.101 254.217 198.545 254.217 200.052 256.952 201.51 261.606 203.369 261.025 203.95 262.996 206.019 264.728 206.626 266.346 206.141 267.217 204.052 267.217 198.524"/>
    <g id="mistelbach">
        <polygon points="326.217 82.093 326.217 78.024 325.217 77.124 325.217 71.998 324.361 69.859 321.457 69.471 320.822 68.709 320.041 70.272 315.217 70.754 315.217 70.595 314.925 70.917 311.84 70.711 310.676 71.409 309.586 70.537 307.669 70.921 305.531 70.066 304.217 69.284 304.217 67.44 303.672 67.658 301.566 66.395 299.778 66.305 298.92 66.562 295.973 68.33 295.745 67.949 295.217 68.001 294.154 65.013 295.164 63.7 294.217 60.501 294.217 59.862 293.217 59.162 293.217 58.325 291.609 57.601 289.938 57.601 288.948 58.691 286.742 58.801 284.217 58.432 284.217 57.511 282.575 56.69 280.407 56.473 279.317 54.511 277.669 52.946 277.111 53.335 275.949 55.777 274.646 55.125 272.75 55.505 269.553 55.292 268.217 54.423 268.217 54.81 266.217 55.81 266.185 57.375 265.217 59.991 265.217 62.385 263.217 63.585 263.217 63.562 263.137 63.618 262.139 66.51 260.016 68.101 257.86 69.381 255.574 70.066 254.217 68.708 254.217 67.942 253.541 67.402 253.217 67.402 253.217 69.312 251.717 69.611 249.484 69.165 248.509 68.287 244.876 68.014 243.847 68.838 241.619 68.392 239.077 68.401 238.275 70.807 239.217 72.032 239.217 75.112 237.792 75.396 238.217 75.779 238.217 77.428 236.217 81.128 236.217 82.809 237.016 84.889 239.48 84.15 240.556 83.29 244.217 83.534 244.217 86.41 243.308 86.865 244.217 90.201 244.217 92.508 244.896 93.256 250.217 92.192 250.217 94.179 252.051 95.83 254.217 97.269 254.217 95.883 252.928 94.336 254.635 93.483 257.217 93.871 257.217 95.189 258.073 96.987 259.217 97.329 259.217 98.249 261.515 98.019 260.051 101.273 258.217 102.924 258.217 103.126 260.895 104.823 262.907 105.124 263.939 105.847 263.978 105.84 266.404 110.266 266.217 110.361 266.217 111.251 267.591 111.251 266.319 113.414 267.217 114.581 267.217 118.951 266.055 118.951 265.124 121.242 264.217 122.512 264.217 124.052 265.217 124.052 265.217 123.176 268.003 123.036 269.359 125.478 268.551 126.125 269.298 126.648 268 131.06 267.217 130.512 267.202 131.673 266.217 135.613 266.217 135.861 268.007 136.308 269.217 137.882 269.217 139.451 269.855 139.451 272.578 141.085 273.626 139.618 276.041 141.671 278.016 143.152 279.9 144.182 281.52 144.587 282.561 143.233 284.922 144.295 289.569 146.247 290.665 144.932 291.735 145.896 294.404 143.761 295.846 142.242 293.217 141.19 293.217 139.342 290.784 138.734 291.973 137.426 288.326 134.788 287.354 132.845 286.357 132.446 284.121 128.086 285.217 126.77 285.217 126.161 283.625 126.48 282.217 125.635 282.217 123.005 281.424 119.357 281.217 119.461 281.217 118.252 281.516 118.252 281.493 118.204 284.61 116.646 286.94 116.804 288.502 117.586 289.484 115.72 292.051 116.78 292.657 117.325 294.217 115.376 294.217 115.259 293.444 114.486 291.217 113.706 291.217 110.782 292.49 109.127 293.452 109.222 294.363 107.748 295.46 106.673 296.46 106.073 298.615 104.671 298.902 104.729 297.297 100.796 296.217 99.824 296.217 97.289 299.217 94.389 299.217 91.831 298.217 90.031 298.217 88.784 295.217 86.985 295.217 86.229 297.217 85.63 297.217 86.071 301.595 87.931 300.535 88.991 302.387 90.04 303.331 86.175 306.531 86.388 308.688 84.338 309.934 85.335 312.217 85.791 312.217 87.593 312.835 87.902 314.835 87.902 317.717 89.343 318.087 89.158 317.173 86.781 318.454 84.09 322.808 85.505 324.217 85.575 324.217 83.75 325.546 81.757 326.217 82.093"/>
        <polygon points="265.029 109.837 263.455 106.964 263.217 107.012 263.217 110.168 263.738 110.482 265.029 109.837"/>
        <polygon points="250.217 95.54 248.217 96.34 248.217 100.149 249.547 100.282 250.217 99.679 250.217 95.54"/>
    </g>
    <polygon id="melk" points="150.7 185.755 147.761 185.265 145.602 186.021 143.898 184.488 146.217 182.98 146.217 182.692 145.499 182.118 144.475 181.889 142.076 180.57 143.145 178.112 142.217 176.812 142.217 174.66 141.339 174.221 140.07 171.556 141.217 170.868 141.217 169.291 142.429 168.442 143.322 167.539 144.217 166.108 144.217 165.195 142.937 163.147 147.217 161.971 147.217 160.499 149.217 160.299 149.217 159.888 148.121 158.025 149.488 156.112 151.94 156.504 152.217 156.642 152.217 152.904 150.217 153.104 150.217 151.204 147.887 150.971 145.756 152.889 144.465 151.986 140.373 154.441 142.105 151.322 141.537 150.698 140.729 150.859 139.217 150.632 139.217 151.751 138.182 157.793 136.07 159.905 134.727 160.854 132.584 159.461 129.86 159.643 127.86 160.73 125.574 161.416 124.435 160.278 122.015 159.31 123.217 157.028 123.217 155.6 123.986 154.445 123.046 153.975 124.398 151.366 128.217 148.216 128.217 146.275 125.749 145.864 124.659 146.191 122.358 144.925 120.388 141.675 119.824 141.506 118.802 142.324 117.217 141.69 117.217 143.924 114.648 144.694 113.523 144.018 111.87 143.605 111.07 144.405 109.777 145.959 108.217 144.633 108.217 146.034 107.217 146.635 107.217 148.461 105.61 147.658 104.217 147.727 104.217 149.806 101.602 150.721 100.49 149.721 96.811 149.107 97.95 147.627 97.493 147.399 96.573 147.131 93.217 146.461 93.217 145.802 91.539 144.543 89.461 144.439 88.572 143.283 87.674 143.732 86.217 142.712 86.217 142.361 84.654 143.142 83.803 142.46 82.497 144.076 81.617 145.103 81.617 142.922 81.332 143.088 80.565 145.386 81.567 146.989 80.267 150.692 80.869 150.646 85.095 151.869 85.412 157.359 86.336 160.23 85.667 163.095 87.349 164.777 83.944 165.871 83.617 166.395 83.617 168.809 82.88 169.863 82.552 171.171 82.746 171.493 83.414 172.921 84.302 173.555 83.796 175.174 83.914 175.268 85.766 175.454 85.766 176.449 85.047 176.521 83.992 178.736 82.217 178.292 82.217 178.711 83.217 179.511 83.217 184.482 84.217 185.782 84.217 190.222 84.815 191.3 85.44 190.613 88.217 189.78 88.217 190.479 88.466 190.405 89.504 189.471 90.475 189.373 91.493 188.304 92.619 187.761 94.492 187.387 97.217 185.071 97.217 186.126 98.691 186.052 99.621 186.14 101.815 185.043 102.963 186.191 103.537 186.305 104.217 185.558 104.217 183.991 107.217 186.091 107.217 187 108.373 188.734 107.443 189.571 107.668 189.795 108.452 188.775 110.537 188.567 112.217 187.391 112.217 191.099 114.87 190.833 116.029 191.762 118.028 194.048 119.217 194.642 119.217 196.011 119.976 196.619 123.043 197.948 125.217 200.992 125.217 202.312 122.217 203.312 122.217 204.175 121.217 206.075 121.217 207.88 123.217 209.18 123.217 209.991 123.352 209.896 124.443 208.26 127.7 208.152 129.457 207.794 130.537 206.606 131.814 206.861 132.437 206.854 133.293 205.486 134.517 204.193 137.217 203.023 137.217 201.496 139.552 200.679 141.372 200.133 143.163 196.731 142.165 194.437 143.358 192.051 146.454 190.915 147.552 189.98 149.552 189.28 150.935 188.656 149.855 187.252 151.855 186.752 151.061 185.72 150.7 185.755"/>
    <polygon id="lilienfeld" points="206.139 208.071 207.103 205.467 206.217 204.935 206.217 201.845 204.537 199.997 203.949 200.115 202.798 201.151 199.217 199.361 199.217 196.945 199.093 196.809 196.973 198.08 194.551 199.056 193.411 197.575 191.363 196.805 190.542 195.983 188.879 196.233 186.766 197.349 185.457 197.48 184.43 195.838 182.79 195.756 180.671 196.497 178.565 195.339 176.531 195.116 174.652 194.365 171.903 194.731 171.004 195.361 169.085 196.233 168.044 198.314 163.536 198.878 162.585 197.927 160.753 198.569 158.935 198.205 157.992 199.527 156.914 199.635 155.083 201.098 154.398 202.057 155.398 202.857 154.217 204.512 154.217 206.022 155.113 207.636 156.217 208.629 156.217 210.19 152.956 211.494 151.217 212.712 151.217 217.424 149.033 218.079 147.984 219.652 144.79 219.652 143.508 220.036 144.508 221.536 143.217 221.924 143.217 224.674 142.103 225.676 141.053 227.355 138.998 228.178 138.351 228.824 139.41 230.518 137.766 231.449 135.905 231.635 134.016 233.052 132.81 233.663 130.821 233.465 128.706 234.628 127.723 234.039 124.873 235.844 122.59 235.958 121.956 235.578 121.05 237.751 119.559 237.751 118.605 237.084 117.009 237.403 116.001 238.814 113.916 239.127 112.016 240.552 110.02 241.655 109.351 242.324 110.077 243.485 111.087 244.115 111.967 245.083 113.979 245.385 114.988 246.596 118.867 247.372 116.128 249.563 115.726 250.518 118.807 250.031 120.821 251.139 121.667 251.054 124.482 251.051 124.418 250.085 124.097 248.173 125.544 245.279 127.235 244.433 129.116 244.716 130.236 243.391 132.397 243.931 133.262 243.643 137.353 244.074 139.215 246.038 140.93 246.84 140.824 249.402 142.107 251.214 143.438 249.678 145.732 251.334 146.601 253.653 147.78 254.045 150.535 253.849 154.118 254.376 156.237 255.996 155.212 258.251 156.54 258.251 158.511 257.629 160.496 258.197 161.133 257.652 163.357 257.652 166.217 256.951 166.217 256.579 167.217 256.28 167.217 253.235 166.359 252.721 163.981 249.034 166.373 247.958 167.429 246.342 168.217 245.791 168.217 244.212 166.086 241.228 167.414 239.634 168.217 239.313 168.217 238.874 167.217 237.974 167.217 234.576 170.449 232.529 172.217 231.112 172.217 228.542 175.217 230.042 175.217 230.511 178.217 228.111 178.217 226.671 182.423 225.514 183.217 224.482 183.217 223.511 184.571 222.428 187.59 222.83 188.559 222.152 191.598 222.152 192.39 221.756 193.439 220.392 197.462 219.689 198.217 218.858 198.217 217.756 197.136 215.268 198.141 214.06 197.137 211.547 198.429 210.142 199.605 209.319 202.949 209.988 203.872 210.819 206.581 210.367 207.845 209.862 206.139 208.071"/>
    <g id="krems-an-der-donau">
        <polygon points="177.217 139.251 177.217 138.859 176.452 138.095 174.74 137.581 173.705 137.994 171.363 136.905 170.217 135.759 170.217 133.832 168.217 134.132 168.217 132.723 166.217 132.123 166.217 126.542 167.217 126.042 167.217 125.932 165.961 126.121 163.874 128.311 160.965 127.535 159.998 129.274 155.679 128.95 153.837 128.496 153.445 128.809 154.358 129.814 153.217 131.411 153.217 132.999 154.601 133.138 155.956 132.325 157.217 135.451 157.217 136.043 159.65 134.556 162.642 134.157 166.025 133.593 167.306 136.668 166.217 137.759 166.217 138.142 167.447 138.758 166.982 139.455 168.677 138.833 171.217 139.341 171.217 140.242 172.764 139.932 173.682 140.299 175.588 139.251 177.217 139.251"/>
        <polygon points="184.217 118.361 183.217 117.861 183.217 116.633 182.428 115.687 180.217 115.024 180.217 112.179 177.217 110.88 177.217 107.841 178.566 106.896 180.468 106.96 179.217 105.709 179.217 103.345 178.132 101.609 178.867 100.36 177.778 100.305 175.717 100.924 175.217 100.774 175.217 102.397 172.774 103.741 170.643 103.101 169.892 103.101 168.779 103.992 164.815 102.01 164.381 102.445 165.431 103.811 163.642 105.064 162.346 103.638 160.217 101.833 160.217 98.532 161.065 97.429 160.396 96.692 158.555 95.588 156.972 95.43 157.931 93.322 154.475 93.408 153.49 92.127 151.668 92.309 149.991 91.806 149.217 93.51 149.217 94.494 150.393 95.671 149.211 97.09 149.94 97.454 149.493 98.349 148.553 97.879 148.217 98.283 148.217 97.995 147.771 98.485 145.404 96.592 143.535 95.191 140.95 95.018 140.113 96.106 139.317 97.302 140.217 98.65 140.217 99.977 138.217 100.077 138.217 100.64 136.538 101.311 135.528 99.897 134.217 100.356 134.217 102.436 130.217 102.169 130.217 99.973 129.217 99.674 129.217 97.271 128.551 96.406 127.061 97.002 126.217 98.438 126.217 100.117 124.394 101.848 126.217 104.126 126.217 106.728 127.279 110.286 125.217 112.451 125.217 112.922 127.337 116.739 125.97 118.106 122.916 118.818 121.288 119.876 122.103 123.138 124.827 123.048 126.11 123.689 127.18 126.366 128.018 127.779 129.523 127.929 128.347 130.046 128.808 130.462 131.217 129.378 131.217 131.351 131.874 131.351 133.217 132.291 133.217 136.851 132.217 136.851 132.217 136.404 131.992 136.427 130.926 137.919 129.217 137.492 129.217 138.951 127.495 138.951 126.558 137.921 125.217 138.324 125.217 139.327 123.217 139.427 123.217 141.024 121.479 141.545 123.075 144.178 124.774 145.113 125.684 144.839 129.217 145.428 129.217 148.687 125.116 152.07 124.387 153.528 125.447 154.057 124.217 155.903 124.217 157.275 123.418 158.793 125.07 159.498 125.859 160.286 127.522 159.787 129.683 158.653 132.849 158.442 134.706 159.648 135.429 159.142 137.251 157.311 138.223 151.666 138.217 149.471 140.704 149.844 141.896 149.606 143.328 151.18 143.06 151.662 145.217 150.368 145.217 151.291 145.678 151.614 147.547 149.932 150.217 150.199 150.217 148.784 153.511 148.564 155.504 146.77 158.519 146.469 159.654 145.561 161.217 146.343 161.217 147.099 162.789 146.942 164.01 147.43 164.993 148.513 165.466 148.654 166.379 146.921 168.498 146.391 170.217 145.101 170.217 140.262 168.757 139.97 164.451 141.548 165.986 139.245 165.217 138.861 165.217 137.345 166.127 136.435 165.408 134.71 162.799 135.145 159.891 135.533 156.217 137.86 156.217 135.552 155.477 133.778 154.832 134.166 152.217 133.904 152.217 131.1 153.073 129.815 151.969 128.71 153.597 127.407 155.838 127.967 159.438 128.138 160.478 126.37 163.559 127.192 165.472 125.182 168.217 124.771 168.217 126.66 167.217 127.16 167.217 131.38 169.217 131.979 169.217 132.971 171.217 132.671 171.217 135.345 172.006 136.133 173.728 136.909 174.693 136.522 176.981 137.209 177.717 137.945 177.91 137.751 175.773 136.469 178.557 134.659 180.217 134.576 180.217 132.811 181.287 131.955 182.177 129.199 181.036 127.033 182.217 126.443 182.258 125.252 183.217 123.048 183.217 120.691 184.217 119.992 184.217 118.361"/>
    </g>
    <g id="stockerau">
        <polygon points="211.217 128.099 211.217 127.604 210.981 127.628 210.661 128.044 211.217 128.099"/>
        <polygon points="278.999 144.827 277.475 143.99 275.417 142.451 273.807 141.084 272.855 142.417 269.578 140.451 268.217 140.451 268.217 138.133 267.437 137.197 265.217 136.642 265.217 136.052 264.217 136.052 264.217 134.951 265.326 134.951 266.217 131.39 266.217 128.491 267.433 129.343 268.136 126.955 266.883 126.078 268.074 125.125 267.43 123.967 266.217 124.027 266.217 124.951 263.217 124.951 263.217 122.191 264.275 120.71 265.378 117.951 266.217 117.951 266.217 115.012 265.115 113.47 265.814 112.351 265.217 112.351 265.217 110.861 263.695 111.621 262.217 110.735 262.217 106.191 262.566 106.121 262.51 106.076 260.449 105.724 257.217 103.677 257.217 102.479 259.302 100.603 259.918 99.184 258.217 99.354 258.217 98.14 257.349 97.793 256.217 95.302 256.217 94.732 254.799 94.519 254.482 94.677 255.217 95.632 255.217 99.11 251.217 96.509 251.217 100.109 249.891 101.433 248.028 101.154 246.758 104.202 245.269 101.225 244.559 100.239 242.787 101.125 241.217 100.811 241.217 101.64 240.217 102.04 240.217 104.542 238.845 105.584 236.217 106.286 236.217 107.308 235.217 108.308 235.217 109.529 236.217 110.429 236.185 111.725 235.319 114.063 236.492 114.884 235.155 116.22 234.021 119.737 231.857 118.763 229.988 121.007 227.53 121.499 225.84 119.555 225.001 121.318 223.481 120.993 220.217 119.251 220.217 115.751 219.924 115.751 218.773 116.901 217.674 116.132 215.717 117.111 215.67 117.087 216.217 118.552 216.217 120.451 214.479 122.275 215.217 122.791 215.217 127.951 214.217 127.951 214.217 129.082 212.074 129.404 211.351 131.21 212.217 131.642 212.217 137.712 211.635 138.119 211.75 138.188 213.512 137.395 214.752 137.019 216.824 137.951 218.217 137.951 218.217 138.399 221.68 138.053 220.549 139.863 224.994 140.485 226.959 143.139 228.514 143.061 229.217 142.429 229.217 141.268 231.217 140.068 231.217 141.136 233.217 140.402 233.217 139.325 235.536 139.442 236.784 138.319 237.963 139.851 239.951 139.851 240.733 140.79 241.558 139.882 242.86 140.272 245.609 140.633 247.695 139.382 248.858 139.963 250.217 140.099 250.217 141.586 256.107 145.509 257.217 147.951 257.217 150.45 258.902 152.2 259.617 152.11 259.661 151.046 260.512 149.156 260.408 146.973 262.267 144.865 264.506 145.679 265.536 144.752 266.996 145.482 269.917 146.268 269.917 151.367 273.221 153.335 271.662 150.006 276.44 150.784 277.301 147.374 278.999 144.827"/>
    </g>
    <polygon id="horn" points="202.48 83.35 203.217 82.761 203.217 82.492 201.595 82.086 195.65 81.297 191.46 80.33 190.695 79.871 189.217 80.611 189.217 79.277 187.372 79.185 186.302 76.51 184.883 75.375 187.217 73.741 187.217 73.14 184.959 72.237 186.383 70.13 187.484 69.138 189.619 68.711 191.481 68.702 192.217 67.82 192.217 63.963 193.717 64.563 194.939 64.074 194.217 63.062 194.217 61.461 194.794 60.999 192.779 59.992 191.824 60.756 189.573 60.08 186.049 58.442 186.989 56.466 185.386 56.145 184.41 54.292 181.7 54.201 178.217 54.436 178.217 54.186 174.794 53.273 176.312 51.604 177.922 48.867 173.493 48.049 172.717 47.66 171.217 48.41 171.217 49.269 167.326 46.014 165.371 43.57 164.605 43.034 162.44 43.467 161.392 41.372 159.729 41.205 157.99 41.466 157.368 42.275 159.445 44.559 157.779 45.892 157.217 45.611 157.217 46.208 158.217 47.308 158.217 48.201 160.039 48.201 161.388 51.172 158.766 52.199 156.992 52.377 156.217 53.462 156.217 54.051 152.686 55.346 152.217 55.111 152.217 55.902 149.908 55.902 149.489 56.279 151.428 57.83 150.1 59.422 149.317 60.519 150.351 62.174 148.217 64.308 148.217 64.511 150.016 64.961 151.53 67.08 149.765 67.609 147.764 67.409 148.494 68.429 147.217 68.94 147.217 71.74 146.067 72.2 145.026 74.073 142.601 74.316 141.913 73.902 140.985 75.665 140.074 75.483 139.375 78.001 139.93 78.001 142.217 80.401 142.217 82.325 140.976 84.681 139.217 84.242 139.217 84.455 142.498 86.971 141.75 87.644 142.958 87.964 144.217 88.656 144.217 87.692 145.694 86.953 147.902 87.837 153.217 88.891 153.217 90.783 152.831 91.245 153.953 91.189 154.953 92.489 159.512 92.261 158.461 94.573 158.958 94.663 161.1 95.882 162.357 97.389 161.217 98.871 161.217 101.37 163.041 102.921 163.81 103.763 163.995 103.652 163.051 102.329 164.636 100.902 168.636 102.902 169.525 102.101 170.882 102.13 172.66 102.752 174.217 101.818 174.217 99.592 175.705 99.889 177.668 99.399 180.566 99.543 180.07 100.386 180.667 100.104 181.504 100.02 182.613 99.022 183.728 99.468 185.717 98.802 187.541 98.802 188.047 98.397 187.047 96.897 188.552 95.73 190.217 95.147 190.217 95.001 190.717 94.902 195.717 94.902 199.217 95.593 199.217 93.538 198.171 91.759 199.217 88.62 199.217 85.571 201.573 83.622 202.48 83.35"/>
    <polygon id="hollabrunn" points="247.217 95.878 249.217 94.978 249.217 93.611 244.217 94.611 244.217 94.083 243.217 92.883 243.217 90.27 242.125 86.338 243.217 85.792 243.217 84.469 240.877 84.313 239.86 85.08 236.417 86.114 235.217 82.902 235.217 80.772 237.217 77.172 237.217 76.162 235.472 74.94 238.217 74.391 238.217 72.471 237.158 71.096 238.051 68.417 235.65 68.097 233.661 68.101 229.89 67.253 229.539 67.64 230.989 68.582 230.46 69.43 228.5 68.255 227.709 68.413 224.696 67.71 222.217 68.082 222.217 67.74 218.531 66.266 216.475 65.139 212.493 63.149 209.409 61.813 208.39 60.592 205.47 58.936 204.39 58.397 203.217 56.871 203.217 54.831 203.95 53.877 203.717 53.761 201.706 54.766 198.944 53.247 200.086 51.878 199.517 51.083 197.423 51.712 196.564 49.566 195.768 50.521 194.217 49.124 194.217 48.106 192.602 48.671 191.504 47.683 188.91 47.423 190.14 45.208 189.551 44.205 187.771 45.362 186.644 44.911 184.709 45.105 181.997 44.743 181.159 46.334 179.113 49.006 177.07 52.455 176.683 52.842 178.758 53.395 181.667 53.104 185.021 53.321 186.042 55.157 188.444 55.637 187.385 57.861 189.928 59.048 191.628 59.554 192.667 58.826 196.658 60.689 195.217 61.842 195.217 62.742 196.494 64.529 193.717 65.64 193.217 65.44 193.217 68.182 191.951 69.701 189.717 69.701 187.95 70.064 187.103 70.826 186.458 71.859 188.217 72.563 188.217 74.362 186.551 75.528 187.132 75.993 188.061 78.318 190.217 78.426 190.217 79.093 190.738 78.832 191.905 79.531 195.826 80.414 201.783 81.206 204.217 81.811 204.217 83.442 202.86 84.48 201.961 84.75 200.217 86.233 200.191 89.159 199.265 91.936 200.217 93.458 200.217 97.012 195.217 96.001 190.79 96.001 188.968 96.548 188.383 97.074 189.383 98.474 187.908 99.802 185.802 99.802 183.705 100.535 182.802 100.174 181.934 100.868 180.89 101.076 179.421 101.885 180.217 103.158 180.217 105.394 182.966 108.143 178.867 108.007 178.217 108.462 178.217 110.313 181.217 111.513 181.217 114.28 183.005 114.816 184.217 116.27 184.217 117.313 184.694 117.504 185.717 116.992 186.546 117.407 187.429 116.142 188.688 115.261 191.963 117.117 193.217 117.743 193.217 115.599 195.679 115.845 197.217 115.461 197.217 115.251 198.892 115.251 200.132 116.243 200.963 118.321 201.672 117.895 202.596 118.265 203.517 117.392 206.754 115.991 207.738 116.582 208.335 116.284 209.476 113.772 211.787 114.928 213.741 114.537 215.217 114.979 215.217 115.813 215.705 116.009 217.77 115.079 218.642 115.689 219.495 114.751 221.217 114.751 221.217 118.652 223.887 120.075 224.432 120.185 225.594 117.748 227.903 120.404 229.445 120.096 231.576 117.54 233.412 118.367 234.278 115.683 234.941 115.019 234.114 114.439 235.217 111.462 235.217 110.874 234.217 109.974 234.217 107.994 235.217 106.994 235.217 105.617 238.486 104.745 239.217 104.161 239.217 101.429 240.217 101.129 240.217 99.821 242.645 100.185 244.886 99.178 246.124 100.911 246.663 101.93 247.217 100.601 247.217 95.878"/>
    <polygon id="schwechat" points="279.811 201.779 290.911 195.984 295.672 194.2 298.399 188.388 297.701 186.592 301.409 187.365 298.778 184.862 297.868 183.195 296.383 182.723 295.499 181.928 291.46 181.38 288.912 179.852 289.311 182.957 283.229 181.061 279.315 178.296 278.046 178.635 275.376 179.019 273.798 180.875 272.678 181.997 270.839 182.523 270.916 183.924 270.917 186.061 268.11 185.5 267.004 186.828 265.325 185.629 263.726 185.401 262.411 188.495 265.826 189.263 268.627 190.377 266.217 192.666 266.217 197.179 268.217 197.78 268.178 204.344 267.333 206.372 268.217 206.991 271.004 207.942 272.874 209.251 273.373 209.251 274.314 206.805 277.217 205.16 277.217 203.042 279.786 201.758 279.811 201.779"/>
    <polygon id="purkersdorf" points="237.516 167.537 232.975 167.403 236.903 164.904 236.084 164.494 237.605 160.667 238.461 159.432 238.817 158.242 238.662 158.262 236.404 157.442 235.303 156.561 232.878 159.107 231.989 158.885 232.431 159.461 230.828 160.584 228.808 160.18 228.217 160.534 228.217 160.968 229.523 161.752 227.937 163.338 223.582 163.668 222.651 163.016 222.571 163.048 223.482 164.05 220.989 165.671 219.051 167.423 217.717 168.492 216.553 167.56 215.217 167.627 215.217 167.961 216.838 168.367 219.47 168.893 218.073 171.548 216.985 171.983 215.957 172.908 215.984 172.926 215.096 174.409 216.108 176.653 214.217 181.847 214.217 182.513 216.571 182.827 217.717 181.911 218.858 182.825 220.907 182.517 221.917 183.629 223.81 183.44 224.217 183.642 224.217 182.744 225.653 181.308 228.565 183.25 229.363 181.998 230.46 180.923 232.217 179.868 232.217 179.191 233.217 177.791 233.217 176.206 236.003 175.885 237.652 172.86 238.637 169.626 238.771 169.469 237.516 168.998 237.516 167.537"/>
    <polygon id="klosterneuburg" points="256.217 150.871 256.217 148.064 255.326 146.194 253.444 144.971 249.217 142.117 249.217 141.8 245.323 148.401 241.665 146.617 241.665 149.582 240.997 153.498 239.215 157.186 239.6 157.138 242.341 158.452 243.783 160.37 244.358 161.851 244.617 161.851 244.617 161.619 246.497 160.035 246.381 158.641 248.894 158.184 249.068 158.035 247.234 156.316 251.178 155.172 251.992 154.99 253.11 154.096 256.559 152.529 258.446 152.922 256.217 150.871"/>
    <polygon id="gmuend" points="103.217 55.985 103.217 54.138 102.217 52.438 102.217 49.663 105.217 49.263 105.217 48.931 104.217 47.131 104.217 45.931 105.52 44.237 107.217 44.661 107.217 44.308 106.217 43.308 106.217 37.541 106.815 37.122 104.217 35.477 104.217 34.373 103.217 34.074 103.217 33.842 102.1 32.949 103.363 30.248 104.142 29.469 103.338 27.136 101.989 26.866 103.07 24.596 102.46 24.23 101.559 23.601 98.573 23.58 97.785 23.344 96.827 23.918 91.217 23.245 91.217 20.873 89.804 20.45 88.794 21.158 86.404 20.292 85.717 19.742 83.802 21.274 83.226 21.044 84.217 22.331 84.217 24.91 82.126 25.956 81.217 28.682 81.217 31.397 82.217 33.802 82.217 35.524 81.378 36.279 83.217 38.946 83.217 43.242 82.217 44.042 82.217 47.402 81.217 47.402 81.217 50.465 82.382 52.447 81.111 53.335 80.295 55.051 81.347 56.525 79.357 58.914 80.313 60.157 79.217 62.131 79.217 63.093 81.052 64.01 82.217 65.641 82.217 67.31 79.813 68.512 78.734 69.591 77.613 68.581 76.596 68.989 75.435 67.828 74.669 67.521 72.568 67.941 71.524 67.001 69.217 67.001 69.217 65.477 67.863 65.409 66.874 66.101 65.482 66.101 64.554 64.988 62.217 65.806 62.217 65.323 61.043 66.086 60.322 66.879 61.262 68.666 60.251 71.398 61.368 74.303 59.088 75.101 58.119 77.33 55.814 78.892 54.217 79.212 54.217 80.312 52.08 80.739 50.178 85.394 49.305 89.709 50.217 89.892 50.202 92.423 49.238 96.276 50.288 99.216 48.217 101.495 48.217 102.901 49.085 102.958 50.621 105.078 51.381 105.961 52.646 106.191 52.668 106.308 53.095 106.047 56.263 105.248 56.646 106.578 57.759 106.148 59.436 106.412 61.146 107.248 60.34 106.037 58.217 104.232 58.262 102.994 59.392 100.62 61.655 98.698 63.485 99.703 64.459 97.56 65.764 98.082 66.425 97.95 67.309 96.711 68.363 95.648 70.605 94.069 73.217 94.591 73.217 94.894 73.963 95.641 75.973 96.073 76.52 96.401 78.52 92.601 80.696 93.906 83.861 91.69 84.679 92.998 86.217 90.078 86.217 89.81 85.363 89.355 84.217 88.208 84.217 87.31 82.346 86.338 80.784 84.619 83.217 84.011 83.217 83.283 80.491 80.012 83.217 80.421 83.217 78.318 84.867 79.308 86.621 79.396 88.649 78.483 92.217 79.078 92.217 80.101 93.495 80.101 94.642 78.839 97.627 80.928 98.107 80.352 97.121 78.675 98.46 76.802 101.217 76.802 101.217 80.318 102.217 80.918 102.255 80.809 103.255 78.409 104.082 75.758 102.217 75.292 102.217 70.804 97.883 68.529 99.363 67.048 101.039 65.786 100.217 64.553 100.217 61.751 102.685 59.9 103.217 60.218 103.217 58.278 104.955 57.496 104.37 56.677 103.217 55.985"/>
    <g id="gaenserndorf">
        <polygon points="331.272 174.01 332.364 170.951 334.938 170.951 335.853 171.958 337.217 171.413 337.217 168.365 335.217 164.052 335.217 163.488 334.286 161.905 333.217 160.303 333.217 155.545 333.956 154.806 332.55 153.752 330.454 153.752 328.305 150.635 327.269 148.575 326.151 145.783 327.217 144.291 327.217 143.367 323.333 141.523 322.411 139.403 320.613 139.673 319.217 138.835 319.217 136.964 318.265 134.966 317.052 132.907 318.559 131.851 319.217 131.851 319.217 130.845 320.127 129.935 319.119 127.517 321.096 125.737 319.217 122.072 319.217 119.542 320.742 118.78 320.217 118.412 320.217 116.513 321.349 116.06 322.45 113.749 323.435 114.045 324.217 112.247 324.217 109.976 326.217 109.876 326.217 107.808 327.217 106.708 327.217 105.634 330.217 105.434 330.217 104.061 331.217 103.261 331.217 101.738 330.217 100.038 330.217 98.542 329.217 97.742 329.217 93.971 328.131 90.17 329.217 89.518 329.217 87.854 327.46 87.63 326.119 86.826 327.114 83.741 325.878 83.061 325.217 84.053 325.217 86.627 322.562 86.477 318.979 85.313 318.261 86.823 319.346 89.646 317.717 90.461 314.598 88.902 312.598 88.902 311.217 88.211 311.217 86.612 309.499 86.268 308.754 85.671 306.91 87.515 304.102 87.328 303.042 91.68 299.217 89.385 299.217 89.765 300.217 91.465 300.217 94.813 297.217 97.713 297.217 99.379 298.179 100.312 300.531 106.075 298.818 105.732 296.027 107.498 295.113 108.412 293.981 110.28 292.943 110.177 292.217 111.121 292.217 113.013 294.029 113.761 295.217 114.711 295.217 115.727 293.217 118.227 293.217 119.359 291.444 117.586 289.949 117.063 288.922 118.913 286.587 117.746 284.823 117.658 282.346 118.896 283.217 122.951 283.217 125.068 283.808 125.423 286.217 124.942 286.217 127.133 285.312 128.218 287.076 131.657 288.084 132.06 289.103 134.2 289.973 134.723 293.46 137.277 292.649 138.169 294.217 138.561 294.217 140.513 297.588 141.862 295.079 144.496 291.698 147.207 290.768 146.371 289.864 147.455 282.872 144.47 281.913 145.716 279.937 145.222 278.181 147.856 277.409 151.035 280.532 152.181 279.122 154.784 279.519 155.238 280.896 155.841 284.395 155.479 283.137 159.985 285.224 160.482 283.902 165.773 283.056 168.684 284.076 170.416 283.394 172.008 284.938 171.922 284.836 174.499 287.917 174.798 287.917 177.139 288.634 178.652 288.855 178.652 291.884 180.469 295.934 180.975 296.968 181.905 300.217 182.879 300.217 183.48 302.65 183.156 306.484 182.097 308.771 180.268 310.087 181.715 311.026 182.655 311.855 183.152 314.496 183.152 315.431 182.121 317.848 181.276 318.859 182.286 322.089 181.318 321.162 178.352 322.452 176.676 324.93 176.428 325.925 177.62 326.554 176.865 328.541 177.56 331.272 174.01"/>
        <polygon points="299.839 88.272 298.012 87.495 299.217 88.218 299.217 88.894 299.839 88.272"/>
    </g>
    <polygon id="bruck-an-der-leitha" points="348.293 180.769 349.273 179.789 348.65 179.077 348.325 177.291 345.741 178.066 344.457 177.809 342.417 175.565 340.396 174.636 337.626 172.326 335.58 173.145 334.495 171.951 333.069 171.951 332.113 174.556 328.892 178.743 326.879 178.038 325.217 180.033 325.217 178.333 324.503 177.475 322.981 177.628 322.271 178.551 323.345 181.985 318.574 183.416 317.585 182.427 316.002 182.982 314.938 184.152 311.578 184.152 310.363 183.405 308.663 181.635 306.849 183.034 302.849 184.134 299.855 184.537 304.686 189.07 299.301 187.948 299.487 188.425 296.404 194.993 291.317 196.896 280.644 202.473 283.037 204.467 285.019 206.448 287.489 207.805 286.217 209.333 286.217 211.581 285.178 213.45 284.148 216.746 283.283 217.439 283.671 218.913 286.075 221.751 286.775 223.351 287.555 224.555 288.47 224.998 289.296 225.823 289.454 224.766 291.329 223.443 293.01 221.944 294.417 219.037 294.417 215.732 297.283 215.234 297.198 214.134 300.717 211.178 300.717 212.443 300.984 212.352 302.297 212.265 303.28 211.282 303.337 211.11 301.753 209.738 303.214 207.601 303.108 202.554 305.818 201.938 308.294 202.51 309.241 201.751 311.577 201.751 314.378 200.052 315.639 200.052 317.267 198.774 319.031 198.223 319.481 198.391 318.706 197.676 320.799 195.465 321.775 193.405 322.717 193.234 322.717 192.345 325.473 189.587 326.655 190.496 327.267 189.359 330.852 190.41 332.585 191.335 332.714 192.496 332.717 194.275 336.535 194.501 339.674 196.017 339.875 197.423 340.317 195.592 340.317 193.091 342.139 190.541 340.8 189.438 337.83 187.361 335.436 185.224 338.417 182.907 338.417 181.82 342.737 182.837 342.854 183.365 344.153 182.586 345.538 184.508 345.497 183.852 348.479 182.361 348.293 180.769"/>
    <polygon id="baden" points="279.978 216.955 282.525 216.764 283.285 216.157 284.279 213.009 285.217 211.322 285.217 208.971 285.944 208.097 284.363 207.205 282.363 205.205 279.648 202.945 278.217 203.66 278.217 205.743 275.119 207.498 274.06 210.251 272.559 210.251 270.489 208.803 267.217 207.712 267.217 207.512 266.629 207.1 264.705 207.677 262.437 206.884 260.545 204.896 258.195 205.366 259.827 203.734 256.531 202.416 253.417 200.758 250.773 203.402 249.217 202.312 249.217 202.525 246.728 201.405 246.012 201.763 243.683 204.092 242.399 202.552 240.622 201.663 238.563 201.869 237.454 200.982 235.349 200.034 234.217 197.77 234.217 196.792 231.717 194.792 230.881 195.46 229.049 195.368 227.93 198.163 226.217 196.792 226.217 195.824 225.4 196.068 224.415 193.211 223.632 193.524 222.632 192.724 222.019 192.969 220.519 194.769 219.172 190.592 220.034 189.125 219.217 188.635 219.217 185.837 221.017 184.126 220.526 183.586 218.575 183.878 217.717 183.192 216.862 183.875 213.217 183.389 213.217 182.974 210.108 185.771 209.061 187.553 206.217 188.69 206.217 189.927 204.217 190.027 204.217 193.312 201.902 194.916 199.571 195.848 200.217 196.558 200.217 198.742 202.636 199.952 203.484 199.188 204.896 198.906 207.217 201.458 207.217 204.368 208.33 205.036 207.294 207.833 209.588 210.242 206.799 211.345 203.561 211.884 202.484 210.915 199.828 210.384 199.049 210.929 198.297 211.757 199.292 214.243 198.298 215.435 199.079 217.231 202.004 218.042 202.828 218.619 203.499 218.485 204.816 217.431 205.983 219.064 207.934 219.162 209.217 220.445 209.217 222.943 209.409 222.846 210.515 221.629 212.601 221.837 216.217 219.669 216.217 221.245 214.571 223.055 215.217 223.313 215.217 222.579 217.804 221.803 219.492 222.984 218.217 224.259 218.217 226.395 217.289 227.879 218.025 229.351 218.598 229.351 220.619 228.361 223.619 227.761 225.835 227.751 228.419 229.043 227.544 230.532 228.992 230.677 229.276 231.075 230.552 229.927 234.351 230.402 235.402 228.932 237.393 228.235 238.393 226.735 240.656 225.943 242.217 226.099 242.217 226.797 243.217 227.147 243.217 224.77 244.544 223.178 246.217 223.679 246.217 224.613 246.651 224.787 247.526 224.175 249.82 223.83 250.738 224.382 252.217 223.642 252.217 224.242 252.94 224.604 259.012 226.848 261.572 228.725 263.611 225.362 266.376 227.989 265.297 229.499 266.489 229.625 268.417 227.083 268.417 226.369 266.96 223.455 269.186 222.165 270.828 220.137 272.454 218.526 274.827 217.057 276.075 217.889 276.223 217.83 277.321 216.623 279.978 216.955"/>
    <g id="amstetten">
        <polygon points="68.346 262.559 69.531 261.916 68.911 261.522 68.346 262.559"/>
        <polygon points="87.217 227.903 87.217 226.882 85.72 226.658 80.217 227.538 80.217 223.691 81.86 221.39 79.929 221.004 81.217 218.792 79.717 219.167 77.595 218.637 74.709 217.963 72.976 218.309 71.917 219.474 70.667 219.349 66.981 219.727 66.113 220.856 65.217 222.387 65.217 223.615 66.217 225.315 66.217 227.391 67.217 228.091 67.217 230.261 65.94 230.899 65.402 231.279 66.569 233.03 63.924 233.426 63.068 234.11 61.026 236.561 59.214 237.367 58.084 238.591 56.786 240.215 53.535 240.723 52.942 241.231 52.129 242.2 52.141 242.221 53.817 242.667 53.817 246.395 52.817 247.995 52.817 248.632 55.346 250.95 54.113 253.055 52.902 253.943 53.375 255.441 55.253 258.446 57.612 259.363 55.566 261.451 57.287 262.827 58.24 263.304 59.173 263.895 63.638 262.185 65.709 261.04 68.887 261.306 69.274 259.76 71.678 257.917 70.404 257.442 69.294 256.553 68.139 253.322 69.479 251.982 71.46 251.685 73.217 249.664 73.217 248.861 75.437 248.306 76.217 247.37 76.217 245.391 77.619 244.461 80.534 243.878 81.217 243.468 81.217 242.761 80.313 242.309 79.126 238.984 80.217 238.111 80.217 236.268 82.396 234.961 83.217 234.058 83.217 231.845 84.552 230.58 86.728 229.818 87.525 230.137 88.116 229.251 87.217 227.903"/>
        <polygon points="51.847 213.815 52.881 213.609 54.154 214.909 55.089 216.592 55.676 216.944 56.553 216.242 58.52 216.341 59.552 215.379 61.667 214.654 63.217 214.499 63.217 213.852 66.37 212.17 67.458 210.538 69.217 210.626 69.217 208.652 71.632 208.652 74.217 207.747 74.217 206.961 76.506 206.388 77.595 205.667 79.595 205.167 83.217 204.711 83.217 203.512 82.217 202.812 82.217 200.333 85.641 198.735 87.375 198.995 88.149 196.671 86.903 195.3 88.217 194.642 88.217 191.524 87.217 191.824 87.217 191.123 85.993 191.491 84.618 193.004 83.217 190.481 83.217 186.121 82.217 184.822 82.217 179.992 81.217 179.192 81.217 177.011 83.441 177.567 84.051 176.287 83.035 176.145 81.251 175.592 80.075 174.416 78.882 170.44 78.508 170.128 75.803 169.768 73.535 170.901 71.711 170.134 71.028 170.731 69.517 170.899 69.517 171.351 69.257 173.49 67.163 177.363 64.875 178.126 61.827 178.624 60.77 179.428 57.97 180.327 55.217 180.865 55.217 182.839 51.519 180.598 51.117 181.287 51.117 183.175 47.74 184.689 44.845 183.671 42.617 182.223 42.617 181.698 41.211 181.146 40.31 180.447 38.063 178.205 36.912 177.145 33.809 172.842 33.13 172.171 30.313 170.908 27.361 169.862 27.117 169.893 27.117 170.331 23.841 172.339 23.172 173.092 22.417 176.113 22.417 181.851 21.973 184.769 21.07 185.271 20.935 186.081 21.624 187.556 21.476 189.448 21.005 190.55 22.043 191.668 24.866 193.55 20.786 195.28 19.317 196.577 19.317 197.778 18.707 198.91 19.816 200.424 19.041 201.718 20.359 202.283 19.19 205.259 20.572 206.945 21.572 209.144 23.717 212.298 23.717 214.291 24.226 214.461 26.797 214.784 28.096 215.284 31.081 217.127 35.681 219.887 36.614 221.441 37.963 222.791 38.958 223.013 40.867 224.064 42.864 224.254 44.217 224.179 44.262 222.644 45.142 220.707 43.987 219.09 47.217 217.26 47.217 215.176 50.751 212.938 51.847 213.815"/>
        <polygon id="waidehofen-an-der-ybbs" points="71.514 218.431 72.457 217.393 74.724 216.94 77.217 217.521 77.217 216.262 75.537 216.597 74.346 215.288 71.819 213.274 74.217 211.956 74.217 211.556 72.753 212.069 71.217 211.761 71.217 210.547 70.217 209.997 70.217 211.678 67.975 211.565 67.063 212.933 64.217 214.451 64.217 215.404 61.826 215.643 59.989 216.285 58.913 217.362 56.881 217.261 55.758 218.159 54.345 217.311 53.313 215.456 52.553 214.694 51.586 214.888 50.682 214.165 48.217 215.727 48.217 217.843 45.446 219.413 46.291 220.596 45.222 222.947 45.328 224.942 46.286 225.726 48.848 226.926 49.731 225.691 53.451 225.092 54.259 227.399 55.299 228.629 56.198 230.019 59.375 232.742 58.285 233.723 59.417 235.29 59.417 236.182 60.407 235.742 62.404 233.361 63.51 232.477 64.864 232.274 64.029 231.022 65.429 230.042 66.217 229.644 66.217 228.612 65.217 227.912 65.217 225.588 64.217 223.888 64.217 222.116 65.286 220.298 66.452 218.776 70.667 218.354 71.514 218.431"/>
    </g>
</svg>