<?xml version="1.0" encoding="UTF-8"?>
<svg id="map" xmlns="http://www.w3.org/2000/svg" viewBox="0 0 362 252.526">
    <defs>
        <style th:utext="${style}">
        </style>
    </defs>
    <polygon id="graz" points="265.191 152.047 267.121 150.213 267.121 149.538 264.916 149.097 266.058 146.47 265.35 145.337 262.726 145.425 261.61 145.87 259.586 144.96 256.646 145.842 255.692 145.652 254.728 146.134 252.366 146.015 251.414 144.779 251.121 144.838 251.085 145.913 249.96 148.728 248.401 148.728 247.39 147.617 246.496 147.572 247.361 149.127 245.121 149.8 245.121 150.097 247.121 150.397 247.121 154.019 247.964 154.44 249.206 156.304 246.923 160.528 246.398 160.528 248.121 164.428 248.121 164.988 250.694 166.018 253.572 165.731 257.121 164.778 257.121 165.756 257.667 165.592 259.633 166.574 261.345 165.804 262.121 165.105 262.121 163.096 263.958 161.535 263.027 160.137 264.198 158.263 265.036 156.406 264.054 155.229 265.191 152.047"/>
    <polygon id="deutschlandsberg" points="251.121 205.021 253.121 203.021 253.121 199.796 255.416 197.845 255.676 197.82 255.121 197.098 255.121 194.759 253.482 193.365 252.414 193.579 251.225 192.032 250.186 191 249.293 188.411 247.194 187.046 246.338 184.136 245.574 184.671 243.121 182.343 243.121 181.096 244.884 179.598 244.268 178.982 243.121 178.189 243.121 176.756 240.838 175.767 239.992 177.264 239.121 178.221 239.121 179.168 237.508 180.459 236.257 178.583 235.452 178.02 233.345 177.915 232.543 176.713 231.849 177.407 228.671 177.725 226.772 177.821 225.786 178.4 223.907 179.058 222.772 180.305 216.89 178.344 216.121 180.036 216.121 182.558 214.947 184.673 213.922 184.877 212.917 186.386 209.703 186.921 208.683 187.232 206.723 187.134 204.523 188.19 203.692 190.496 203.114 193.815 203.121 193.995 202.822 195.095 202.822 198.183 204.071 200.161 202.923 203.604 200.511 204.591 199.846 204.994 200.043 207.362 198.829 208.272 198.912 211.014 199.092 211.104 199.561 211.01 200.792 211.458 206.385 213.76 205.173 216.514 205.719 217.682 205.809 218.663 206.83 220.298 206.733 221.949 207.575 222.884 208.165 225.129 206.814 227 206.701 228.965 205.867 231.89 205.045 232.711 205.123 232.848 206.38 232.953 207.999 233.512 208.299 233.712 210.421 235.275 210.421 236.469 211.548 237.265 212.375 236.392 216.121 234.271 216.121 235.575 217.506 235.714 219.565 234.478 222.646 235.513 224.785 235.085 226.868 237.167 229.597 237.713 230.729 237.373 231.735 238.178 235.566 237.125 237.449 237.219 239.416 235.545 241.357 235.352 242.121 234.358 242.121 233.178 239.891 231.505 242.121 228.942 242.121 226.834 243.364 225.499 244.027 225.101 243.054 221.988 244.121 220.921 244.121 217.556 246.418 216.866 246.975 216.532 246.254 215.02 245.319 214.645 243.945 212.997 245.121 211.821 245.121 209.921 246.394 208.649 247.47 208.54 249.38 207.489 251.121 206.088 251.121 205.021"/>
    <path id="graz-umgebung" d="M289.37,169.831l1.184.354.567-.341v-2.141l2.805-.467-.805-2.109v-.97l-1.487-.223-2.177.435-1.336-1.336v-3.389l-.706-1.411-.783.471-2.252-1.239-2.095-.94-1.164-1.746v-4.175l1.085-.976.915-2.104v-1.04l.692-1.108-1.435-.286-3.105-3.003-1.952-1.459-2.07-2.265-1.575-1.574,1.445-.434v-1.688l-3-.75v-1.515l-1.669-.084-.988-.691h-2.644l-2.208,2.098-1.301-1.301-1.074-.677-1.106-1.328-1.234-.309-1.315,2.764-1.384-3.46-2.076-1.973v-2.497l-1.101-2.201,1.23-1.353,1.664-1.257-.261.156-4.415-1.986-1.077-2.478-.959-3.25-1.082-.541v-.668l-.403.323-2.42-.847-.907-1.361-1.498.3-1.168,1.401-3.5-2.252-.96-1.249-2.835-2.173-1.674-.168-1.023.717-3.02-.604-1.054.632,1.182.591-3.973,1.588-1.747,1.311v1.173l-1,.9v2.016l-1.196.479-1.004,1.184-2,1.5-1.043.628-2.098,1.051-1.894,2.178-2.864.572-.961,3.559-1.31,1.048-1.631-.326v1.514l-1.879.846.753,2.182,1.484.223,1.004-.804,3.22.537,1.057-.007.906.544,2.059-.824,2.066,1.861,2.33-.233v1.714l.856.343,1.086,2.063,1.13,2.927-.969,1.162.951,1.712-1.055,2.531v.907l.947,1.069.943,1.887,1.004.703,1,2.1,1.105.773v1.754l.599.599,1.046-.523,1.062,1.38,1.012-.202,1.188,1.663,1.093,1.961v2.423l1,1v3.5l.955,1,.906,1.993.428.129,1.211-1.816,1.373,2.06,1.058.888,1.295,2.202-2.226.891v2.071l1.621.405,3.379,1.457v1.567l.787.552,1.45,1.439-2.237,1.9v.354l1.548,1.471,1.235-.865,1.145,3.891,1.845,1.199-.065.101.266-.045.963,2.791.918.919.853,1.103.695-.14,1.428-.577-1.105-2.433h3.448l.922-2.12,2.229-1.672,2.262-.112,1.102.44.701.134,1.826-1.279.787-.712v-1.419l1-.8.019-1.693,1.007-3.824.975-2.923v-1.579l1.219-1.707,2.781-.37v-1.106l1-1.6v-2.618l1.635,1.146,2.019-.202,1.347,1.078v1.409l1.705.274,2.295,1.033v2.368l1.665.583,1.752.254.716-.357,1.116-2.121ZM268.121,150.643l-2.069,1.965-.863,2.42,1.018,1.221-1.13,2.486-.86,1.384,1.068,1.603-2.163,1.838v1.991l-1.295,1.134-2.217.998-2.034-1.018-1.454.436v-1.021l-2.371.633-3.201.326-3.428-1.371v-1.13l-2.276-5.009h1.475l1.717-3.177-.758-1.136-1.157-.579v-3.378l-2-.3v-1.902l1.761-.528-1.136-2.045,3.106.156.989,1.089h.44l.839-2.097v-1.613l1.707-.342,1.049,1.364,1.638.082,1.036-.518,1.046.208,3.06-.917,1.977.889.972-.356,3.288-.11,1.292,2.068-.858,1.973,1.795.359v1.925Z"/>
    <polygon id="leibnitz" points="298.479 225.163 299.121 224.521 299.121 224.38 298.336 224.459 297.208 222.317 296.401 221.428 294.121 221.428 294.121 219.288 290.417 216.696 294.676 215.701 297.121 216.843 297.121 216.408 295.938 214.987 298.051 212.98 297.31 210.608 294.45 211.847 293.358 210.319 290.221 210.215 289.121 205.428 289.138 200.001 290.121 196.263 290.121 195.237 288.306 195.601 287.049 192.333 288.121 191.047 288.121 190.269 286.121 190.769 286.121 189.327 285.5 189.313 283.61 188.84 281.52 189.258 279.52 187.958 277.741 188.315 279.121 185.414 279.121 184.614 277.121 182.315 277.121 179.264 276.121 177.564 276.166 172.821 277.225 170.523 279.121 168.058 279.121 166.868 278.468 166.345 276.487 166.543 276.121 166.288 276.121 167.272 275.121 168.871 275.121 170.566 271.903 170.994 271.121 172.088 271.096 173.586 270.103 176.762 269.121 180.296 269.121 182.268 268.121 183.068 268.121 184.45 266.956 185.499 264.733 187.06 263.523 186.818 262.539 186.433 260.799 186.52 259.028 187.848 257.95 190.327 255.398 190.327 256.293 192.297 254.577 192.984 256.121 194.296 256.121 196.758 257.567 198.636 255.826 198.81 254.121 200.259 254.121 203.435 252.121 205.435 252.121 206.568 249.934 208.319 247.671 209.525 246.849 209.608 246.121 210.335 246.121 212.235 245.298 213.058 245.925 213.811 246.989 214.237 248.268 216.923 246.765 217.806 245.121 218.3 245.121 221.335 244.189 222.268 245.216 225.554 243.942 226.319 243.121 227.221 243.121 229.315 241.352 231.351 243.121 232.678 243.121 234.697 242.3 235.766 242.604 236.038 243.457 235.185 245.563 235.607 248.121 234.454 248.121 235.493 250.588 235.328 255.7 234.508 256.998 235.199 258.744 237.207 259.644 236.757 261.121 237.645 261.121 239.477 262.121 240.977 262.121 242.153 263.363 242.214 264.404 240.653 267.483 241.473 270.394 238.756 272.121 238.497 272.121 236.598 273.01 234.998 272.121 234.021 272.121 231.432 274.318 230.224 275.357 229.186 277.324 228.595 278.414 227.176 280.868 227.667 281.917 228.717 282.644 229.08 283.121 228.889 283.121 227.104 285.917 226.638 284.91 224.219 288.693 223.714 291.76 225.043 295.574 225.615 297.61 224.903 298.479 225.163"/>
    <polygon id="leoben" points="217.398 116.58 218.365 115.999 220.275 114.564 221.319 113.311 222.121 112.988 222.121 111.205 223.121 110.305 223.121 109.077 225.436 107.363 227.275 106.628 226.4 106.628 224.121 104.121 224.121 102.968 223.186 102.22 222.121 98.528 222.121 96.247 222.971 95.228 222.359 94.493 220.121 94.158 220.121 92.036 219.203 90.017 217.121 87.935 217.121 86.255 215.614 85.752 214.819 85.99 211.682 87.768 209.301 87.054 207.121 83.675 207.121 83.211 204.121 81.411 204.121 79.721 203.121 78.621 203.121 74.068 202.121 73.268 202.121 71.166 200.549 70.537 199.506 70.642 198.446 70.005 195.368 69.492 194.01 67.999 195.043 66.139 193.451 63.512 191.49 64.69 189.121 61.492 189.121 59.851 188.121 58.95 188.121 55.944 189.725 56.906 191.32 56.668 192.121 55.353 188.475 55.535 187.464 54.827 186.121 54.827 186.121 56.467 183.703 57.421 180.898 57.889 179.838 59.266 177.739 58.951 175.435 60.487 176.381 61.338 174.121 63.259 174.121 67.649 171.238 65.748 169.238 63.348 167.394 61.228 166.824 61.228 164.121 63.84 164.121 64.335 162.018 66.439 159.935 69.875 157.952 70.271 157.121 71.851 157.121 73.408 156.121 74.609 156.121 75.979 154.862 77.869 152.621 77.533 151.121 77.758 151.121 79.992 152.169 81.773 151.121 84.812 151.121 86.335 149.807 87.592 147.972 88.326 147.121 89.858 147.121 96.417 147.931 96.579 149.238 98.67 148.507 99.546 150.506 100.08 151.536 99.255 153.807 100.164 156.878 102.099 160.121 103.61 160.121 104.305 161.921 105.127 163.727 106.482 165.699 105.956 164.882 105.058 167.422 103.153 169.121 102.897 169.121 102.235 170.528 100.688 172.018 101.623 172.971 102.862 173.664 103.348 174.632 102.863 176.816 104.064 179.495 104.868 180.807 103.688 183.018 108.883 185.121 110.145 185.121 110.977 186.037 112.351 187.076 114.62 187.89 116.164 190.121 115.717 190.121 112.735 192.992 115.892 193.817 116.544 196.932 116.856 197.972 118.73 199.121 119.189 199.121 120.857 201.008 122.083 201.914 123.896 202.941 123.793 204.039 126.432 204.713 127.038 206.121 126.404 206.121 124.319 208.491 124.791 209.181 124.239 210.22 120.398 213.356 119.771 216.121 116.591 216.121 117.219 217.398 116.58"/>
    <polygon id="liezen" points="212.478 31.15 214.121 30.655 214.121 29.88 207.457 30.536 206.372 30.143 203.195 30.655 200.773 28.884 200.487 29.17 194.658 30.94 193.478 30.758 192.753 31.402 190.788 32.651 188.711 34.652 188.598 36.789 184.581 37.133 180.139 36.023 180.028 33.568 178.803 31.363 175.765 33.029 173.573 31.224 172.154 31.97 166.851 34.305 165.317 33.124 164.198 32.575 161.194 30.359 161.292 29.467 159.155 27.963 158.34 28.675 157.539 28.052 156.637 29.405 155.321 31.491 152.607 31.865 152.498 35.141 149.446 33.995 147.781 33.652 146.695 34.153 144.446 36.095 141.531 36.635 138.925 36.248 137.197 37.286 136.614 38.367 136.484 40.119 135.197 43.23 132.33 44.186 131.623 43.654 129.023 45.626 127.374 46.6 126.368 48.111 124.127 49.289 122.022 48.237 122.022 48.168 120.091 48.651 120.057 48.736 120.973 51.257 118.866 51.877 118.145 52.475 115.815 53.64 114.855 53.543 112.826 54.956 111.666 57.696 108.216 58.04 107.386 57.58 106.36 57.991 104.49 56.713 103.26 57.374 101.01 56.546 100.071 55.294 98.12 53.96 96.565 50.404 96.847 49.887 96.191 49.931 94.784 49.667 91.639 52.709 90.196 52.154 88.462 52.636 87.647 52.545 85.798 53.722 82.675 54.21 81.621 54.737 81.621 56.028 78.857 56.028 77.111 57.055 72.558 56.169 74.04 54.116 73.715 51.412 74.69 46.053 74.221 45.428 73.368 44.581 70.086 42.176 68.974 40.228 68.855 40.18 66.815 41.302 62.406 38.739 60.323 38.913 58.879 40.134 53.776 37.264 52.434 36.181 51.64 36.876 50.763 36.194 50.421 36.535 50.421 38.407 46.69 37.241 41.054 38.247 40.098 37.806 39.433 39.549 38.438 40.246 37.402 43.148 35.539 43.613 35.638 45.668 32.897 46.696 31.521 47.345 31.488 50.207 30.488 52.808 30.226 53.686 30.52 58.497 30.521 59.571 29.604 61.039 30.112 61.928 30.621 61.928 32.621 61.793 32.621 62.441 35.523 61.972 36.779 64.826 38.728 67.579 38.603 70.582 36.752 70.768 37.159 72.325 39.02 73.639 37.337 78.35 34.197 80.479 33.633 81.445 33.719 82.487 34.296 86.405 31.084 86.533 29.976 85.828 25.721 85.828 20.15 84.848 18.599 83.845 17.921 83.92 17.921 85.697 16.921 86.998 16.921 88.363 15.852 90.182 14.872 92.242 13.921 93.771 13.921 94.547 14.929 95.756 14.826 98.229 15.921 100.728 15.921 102.9 19.23 108.914 19.12 110.561 19.121 111.556 18.109 113.412 18.921 113.82 18.921 116.335 18.167 117.09 19.24 117.96 21.444 118.381 22.265 119.841 24.538 119.204 26.144 119.766 26.335 118.804 27.903 120.685 30.89 121.459 30.72 122.476 30.983 122.454 31.564 121.128 32.023 119.38 36.034 118.807 37.29 119.606 38.798 120.93 40.946 119.857 42.671 116.304 45.689 115.491 47.731 116.641 47.621 120.828 47.779 121.571 49.298 123.002 51.974 124.124 52.491 123.504 53.656 124.086 55.456 123.456 58.121 122.917 58.121 124.573 59.576 125.082 61.38 124.089 63.121 123.475 63.121 121.46 66.588 121.229 69.826 121.651 70.461 122.159 71.29 120.584 72.375 120.367 73.223 119.52 74.29 117.705 75.854 117.237 77.121 119.392 77.121 120.005 77.814 120.628 79.797 120.628 81.684 122.138 83.265 121.347 84.251 119.692 85.193 118.655 86.262 116.089 87.524 115.838 88.481 115.829 89.255 115.364 90.383 113.446 93.477 114.272 96.398 111.481 98.121 110.619 98.121 110.064 96.896 107.98 98.013 107.532 97.063 104.299 99.121 102.034 99.121 100.789 101.436 99.863 105.323 98.791 107.319 96.096 109.645 95.399 110.518 95.747 111.38 94.989 116.523 92.138 117.312 91.98 118.121 90.684 118.121 89.744 120.121 88.544 120.121 88.151 118.955 87.1 120.502 84.935 121.631 85.725 123.547 84.533 127.646 83.919 129.37 84.35 130.453 82.401 132.045 83.563 132.931 84.98 133.391 85.072 134.43 83.513 138.705 85.223 141.121 85.103 141.121 87.088 142.044 87.826 142.947 90.353 144.584 90.025 146.121 90.103 146.121 89.598 147.271 87.529 149.34 86.702 150.121 85.921 150.149 84.565 151.074 81.883 150.121 80.264 150.121 76.898 152.621 76.522 154.381 76.786 155.121 75.677 155.121 74.247 156.121 73.047 156.121 71.604 157.29 69.385 159.308 68.981 161.268 65.775 163.121 63.921 163.121 63.416 166.419 60.228 167.849 60.228 169.998 62.699 171.957 65.05 173.121 65.807 173.121 62.796 174.862 61.317 173.808 60.369 177.504 57.904 179.405 58.19 180.345 56.967 183.486 56.444 185.121 55.789 185.121 53.828 187.779 53.828 188.768 54.52 193.121 54.303 193.121 55.671 192.363 56.886 192.637 56.995 195.463 56.053 196.562 55.613 198.585 55.917 201.478 55.049 203.572 54.831 205.121 54.358 205.121 51.568 206.121 50.168 206.121 48.579 205.04 46.958 206.244 44.671 207.121 44.145 207.121 43.021 206.102 40.371 207.167 35.151 209.309 33.438 210.364 32.799 212.478 31.15"/>
    <polygon id="murau" points="129.771 168.931 130.655 167.253 132.998 166.08 135.791 165.144 135.91 167.755 137.693 168.971 140.428 167.994 141.777 168.513 145.049 168.001 146.007 168.704 146.103 167.7 145.143 166.572 144.183 163.406 143.121 162.45 143.121 161.241 142.227 159.362 141.334 158.737 140.121 158.011 140.121 154.206 139.033 150.829 140.121 150.067 140.121 149.068 136.309 146.019 135.121 144.721 135.121 142.168 134.414 141.603 132.365 141.256 130.681 140.247 129.854 140.991 126.551 141.653 124.259 140.473 122.613 138.743 121.506 139.85 120.121 137.358 120.121 137.114 118.121 134.815 118.121 133.668 116.805 132.615 119.121 130.878 119.121 128.228 118.121 125.728 118.121 124.131 117.121 121.689 115.544 120.584 112.563 121.69 109.251 119.464 107.442 117.474 106.428 117.677 105.333 116.363 104.216 116.029 103.169 112.367 102.324 111.351 99.557 110.336 99.121 110.38 99.121 111.237 96.913 112.341 93.766 115.383 90.86 114.609 89.988 116.091 88.76 116.827 87.621 116.827 86.982 116.962 85.992 119.264 85.026 120.325 83.977 122.109 81.559 123.318 79.446 121.628 77.429 121.628 76.121 120.45 76.121 119.663 75.389 118.419 74.953 118.551 73.975 120.181 72.868 121.288 71.953 121.471 70.782 123.696 69.417 122.606 66.555 122.223 64.121 122.394 64.121 124.182 61.786 124.999 59.667 126.174 57.121 125.282 57.121 124.138 55.72 124.418 53.587 125.17 52.821 124.786 52.793 124.834 54.047 127.132 52.559 128.496 51.399 129.369 52.462 130.362 55.375 133.275 58.302 135.635 57.389 136.913 59.946 138.009 59.852 139.323 61.946 139.78 63.512 140.615 65.447 143.034 67.254 143.986 69.834 145.106 69.714 148.242 68.039 149.918 66.004 150.019 65.007 150.794 63.038 150.056 61.36 148.283 61.098 148.349 60.816 149.098 58.782 150.015 57.247 152.863 56.026 152.355 54.921 154.168 54.921 154.32 55.987 154.852 55.672 156.423 59.405 159.325 56.672 163.255 55.636 166.208 53.211 169.797 52.903 174.214 50.612 175.673 49.724 177.546 48.822 178.268 48.822 180.018 47.197 181.859 45.802 183.028 43.865 183.028 43.26 183.797 43.621 183.888 44.679 185.367 45.729 186.137 46.434 187.125 49.139 188.478 50.044 187.028 53.465 187.028 54.484 185.602 55.257 185.679 55.356 184.203 57.666 184.32 58.668 183.569 60.247 181.536 61.781 182.077 62.285 180.227 64.752 178.457 67.408 177.501 68.345 177.783 69.298 177.17 69.209 176.095 70.25 174.534 70.86 171.383 72.143 170.1 75.228 170.511 77.906 169.083 78.388 167.54 80.356 165.882 81.636 164.175 83.675 163.767 84.45 162.992 84.745 160.927 86.035 159.25 88.366 159.949 90.152 160.661 91.662 159.571 92.767 158.097 95.87 156.259 97.635 158.847 98.888 160.348 99.921 163.128 99.921 165.498 100.086 165.795 100.279 165.658 101.541 164.144 103.726 165.781 104.68 165.521 107.673 165.821 108.698 165.529 112.918 165.318 113.865 166.264 114.66 166.024 116.902 166.137 121.105 169.343 119.921 173.089 120.722 173.534 120.722 174.12 121.937 172.692 123.906 172.101 125.031 170.412 127.342 171.337 127.86 171.389 128.685 168.605 129.771 168.931"/>
    <polygon id="voitsberg" points="239.868 175.455 238.121 175.019 238.121 171.488 239.896 170.779 239.238 169.66 238.205 168.805 237.621 167.929 236.832 169.112 235.26 168.642 234.203 166.317 233.121 165.235 233.121 161.735 232.121 160.735 232.121 158.157 231.184 156.471 230.403 155.381 229.414 155.579 228.477 154.36 227.523 154.836 226.121 153.435 226.121 151.788 225.227 151.161 224.227 149.062 223.231 148.364 222.205 146.313 221.121 145.121 221.16 143.535 222.067 141.359 221.018 139.471 222.049 138.233 221.155 135.907 220.265 134.224 219.121 133.767 219.121 132.481 217.451 132.648 215.518 130.907 213.576 131.685 212.483 131.028 211.621 131.028 208.76 130.557 207.763 131.354 205.838 131.066 204.927 132.25 203.121 132.882 203.121 133.922 198.005 135.15 197.052 137.913 195.955 138.9 192.868 141.988 192.121 142.138 192.121 146.838 190.976 147.068 190.031 149.241 189.121 149.968 189.121 156.651 187.702 157.927 186.286 157.219 185.338 155.891 183.871 155.671 183.087 156.926 182.082 160.944 182.121 160.955 182.121 163.346 180.495 162.998 180.13 163.729 180.475 164.074 181.225 165.097 183.192 165.687 187.187 169.881 191.55 171.044 193.325 171.356 196.711 173.869 196.812 176.38 197.727 177.112 199.976 182.02 200.257 182.433 201.731 183.135 203.758 184.735 204.44 187.12 206.52 186.122 208.56 186.224 209.478 185.949 212.326 185.471 213.321 183.979 214.296 183.782 215.121 182.298 215.166 179.721 216.353 177.112 222.471 179.151 223.336 178.198 225.408 177.473 226.471 176.834 228.597 176.729 231.394 176.448 232.7 175.143 233.898 176.941 235.79 177.035 237.037 177.95 237.735 178.996 238.121 178.688 238.121 177.834 239.212 176.634 239.868 175.455"/>
    <polygon id="weiz" points="314.029 148.137 315.719 149.82 316.121 149.619 316.121 148.157 315.212 146.522 314.121 145.321 314.121 143.077 312.203 141.639 311.176 138.864 310.155 137.407 309.233 135.011 308.291 134.634 307.49 133.431 305.433 134.87 304.248 132.501 303.286 132.02 301.322 129.268 299.313 128.766 298.258 127.183 297.335 126.538 295.999 125.737 296.999 123.237 295.169 122.14 298.121 121.697 298.121 120.821 297.166 119.735 296.121 117.327 296.121 113.408 295.333 112.463 293.277 111.847 292.121 109.651 292.146 107.574 293.191 104.374 294.019 102.965 292.606 101.128 295.493 101.128 297.266 100.153 298.268 98.55 300.798 97.199 297.121 93.431 297.121 90.997 295.309 88.641 293.993 88.114 295.04 85.078 294.187 84.309 293.283 81.506 292.574 81.648 291.313 81.143 289.027 78.284 290.265 75.932 292.324 75.109 294.398 72.78 296.121 71.919 296.121 70.442 299.509 72.925 300.483 71.562 301.621 72.245 302.53 71.699 304.845 72.181 306.482 72.999 308.453 71.422 311.394 71.52 312.199 70.554 313.822 67.212 313.822 66.112 312.613 64.702 312.722 62.404 312.721 61.095 311.222 60.096 309.872 59.796 309.104 61.143 305.322 60.953 305.322 61.319 303.502 61.773 302.309 60.819 300.485 59.178 298.939 59.565 297.971 61.112 296.917 61.639 295.878 62.656 292.975 64.399 291.894 65.946 289.965 67.2 289.018 68.433 286.854 70.392 284.795 70.803 282.863 71.866 281.261 72.989 282.239 74.945 279.791 77.148 278.723 77.04 275.91 78.54 275.3 79.09 276.308 80.4 274.045 82.323 273.152 84.737 274.189 87.848 273.121 89.021 273.121 90.598 271.886 92.203 269.731 92.419 267.984 93.031 267.153 94.776 268.157 98.493 266.984 100.606 264.634 101.728 260.47 101.831 259.544 101.185 257.645 101.849 255.121 101.218 255.121 100.608 253.774 100.81 253.041 101.176 252.121 104.398 252.121 105.775 249.378 107.877 250.121 108.62 250.121 111.419 251.039 111.878 252.101 115.487 253.002 117.551 256.588 119.164 257.6 118.558 259.66 119.588 257.878 120.656 255.921 122.128 255.221 122.908 256.121 124.709 256.121 127.013 258.085 128.943 258.661 130.381 259.346 128.944 262.121 129.637 262.121 130.047 262.951 131.043 263.975 131.674 264.63 132.329 266.422 130.628 269.779 130.628 270.79 131.335 273.121 131.452 273.121 133.137 274.121 133.387 274.121 132.056 276.121 132.655 276.121 137.1 275.567 137.266 275.975 137.674 277.992 139.892 279.921 141.327 282.863 144.166 285.429 144.679 284.121 146.772 284.08 147.827 282.955 150.3 282.121 151.05 282.121 154.477 282.957 155.731 284.826 156.571 286.611 157.552 287.827 156.821 289.121 159.409 289.121 162.62 289.785 163.284 291.609 162.92 293.696 163.234 294.909 163.618 296.744 164.904 298.348 164.663 299.225 163.523 301.201 160.456 302.443 158.717 303.705 159.223 306.121 159.103 306.121 161.019 306.934 161.437 308.005 162.308 308.874 163.35 309.121 163.375 309.121 162.197 311.365 161.861 313.121 159.841 313.121 156.979 312.305 155.754 311.597 155.542 310.403 155.781 309.3 154.237 308.121 153.767 308.121 152.305 309.37 149.93 310.449 150.253 311.059 149.522 310.184 146.899 309.121 145.835 309.121 143.082 312.029 144.737 313.121 146.268 313.121 146.867 314.029 148.137"/>
    <polygon id="murtal" points="195.268 138.174 196.191 137.343 197.238 134.306 202.121 133.133 202.121 132.173 204.316 131.404 205.061 130.436 204.191 127.913 203.16 126.92 202.302 124.862 201.328 124.96 200.235 122.773 198.121 121.4 198.121 119.866 197.271 119.527 196.311 117.799 193.424 117.51 192.309 116.618 191.121 115.317 191.121 116.988 189.121 118.389 189.121 116.938 187.353 117.291 186.179 115.06 185.166 112.835 184.121 111.279 184.121 110.711 182.225 109.572 180.436 105.367 179.747 105.987 176.38 104.966 174.611 103.992 173.578 104.508 172.225 103.532 171.283 102.308 170.715 101.967 170.121 102.621 170.121 103.758 167.821 104.104 166.361 105.198 167.544 106.499 163.516 107.573 161.366 105.961 159.121 104.951 159.121 104.246 156.41 102.981 155.365 102.357 153.349 101.047 151.707 100.399 150.737 101.176 146.736 100.109 148.005 98.586 147.312 97.476 146.121 97.237 146.121 91.104 144.659 91.03 142.296 91.503 141.199 88.43 140.121 87.568 140.121 86.154 138.537 86.233 134.813 84.743 133.852 86.184 132.312 85.876 131.251 84.179 130.789 83.856 129.872 85.506 127.597 84.937 123.803 85.506 121.612 86.93 120.741 86.321 120.287 86.955 121.121 87.705 121.121 89.111 119.121 90.311 119.121 90.971 117.931 92.876 116.798 93.103 111.913 95.838 110.725 96.907 109.598 96.457 107.924 96.959 105.92 99.664 101.754 100.81 100.121 101.466 100.121 102.421 98.18 104.557 99.23 108.122 98.347 108.476 98.89 109.399 99.686 109.319 102.919 110.505 104.102 111.99 105.027 115.228 105.91 115.492 106.815 116.579 107.801 116.382 109.95 118.746 112.68 120.567 113.436 120.264 115.699 119.471 118.121 121.167 118.121 121.624 119.121 124.028 119.121 125.628 120.121 128.128 120.121 131.378 118.438 132.641 119.121 133.188 119.121 134.442 121.121 136.741 121.121 137.098 121.737 138.205 122.63 137.312 124.923 139.72 126.692 140.604 129.389 140.064 130.562 139.009 132.793 140.348 134.828 140.654 136.121 141.688 136.121 144.334 136.992 145.292 141.121 148.587 141.121 150.588 140.21 151.226 141.121 154.128 141.121 157.445 141.878 157.899 143.016 158.694 144.121 161.128 144.121 162.005 145.071 162.86 145.871 166.162 147.143 167.327 146.933 169.532 147.452 170.571 148.78 170.771 149.75 167.859 153.318 167.534 155.497 166.828 159.628 166.622 160.459 167.037 161.437 166.255 162.453 166.662 165.149 164.759 166.912 164.109 167.986 162.714 171.949 162.929 173.948 162.741 177.496 160.342 180.4 161.954 181.121 162.11 181.121 161.699 179.478 161.206 179.621 160.228 181.231 160.228 182.198 156.463 183.371 154.585 185.905 154.965 186.956 156.436 187.54 156.728 188.121 156.205 188.121 149.487 189.212 148.614 190.267 146.189 191.121 146.018 191.121 141.318 192.375 141.067 195.268 138.174"/>
    <polygon id="bruck-muerzzuschlag" points="306.513 51.045 304.434 51.565 302.621 50.402 302.621 48.157 302.295 47.878 300.562 48.334 299.355 48.213 297.529 47.061 296.083 47.382 294.945 48.575 293.573 49.261 290.304 48.346 290.995 46.962 288.268 46.279 289.651 42.342 288.846 41.382 287.613 37.581 287.825 35.575 287.739 34.048 286.076 34.118 285.218 35.233 283.314 38.365 281.8 34.328 280.407 33.181 276.522 34.291 276.522 31.274 273.8 27.009 271.522 27.628 269.797 27.628 268.714 28.493 266.414 27.657 264.621 28.228 261.944 28.228 260.652 26.161 261.494 24.383 261.125 24.106 258.404 23.73 255.36 23.933 252.83 23.128 251.902 20.443 251.695 20.294 250.913 21.09 249.345 21.742 246.512 17.777 246.604 16.042 245.657 15.571 244.178 13.999 241.56 13.638 240.539 13.945 238.923 13.585 237.941 14.862 235.579 14.54 235.08 14.727 234.336 16.216 234.518 17.665 234.878 21.028 229.621 21.028 228.211 21.138 226.227 20.046 223.823 20.39 223.522 20.871 223.522 22.058 224.157 24.28 222.186 28.106 219.447 27.448 217.016 28.294 215.65 27.137 214.322 27.203 214.322 28.788 214.036 28.883 215.121 28.775 215.121 31.4 212.858 32.079 210.934 33.618 209.878 34.256 208.076 35.704 207.141 40.284 208.121 42.928 208.121 44.711 206.998 45.384 206.202 46.898 207.121 48.277 207.121 50.487 206.121 51.888 206.121 55.1 203.765 55.806 201.671 56.025 198.658 56.939 196.681 56.643 195.807 56.991 192.606 58.06 191.562 57.643 189.518 57.949 189.121 57.711 189.121 58.505 190.121 59.405 190.121 61.162 191.753 63.365 193.791 62.143 196.2 66.117 195.233 67.857 195.874 68.563 198.879 69.099 199.737 69.614 200.694 69.518 203.121 70.488 203.121 72.787 204.121 73.587 204.121 78.235 205.121 79.334 205.121 80.845 208.121 82.645 208.121 83.38 209.942 86.202 211.561 86.688 214.478 85.049 215.629 84.703 218.78 85.753 218.671 86.725 218.121 86.78 218.121 87.521 220.076 89.521 221.121 91.928 221.121 93.297 222.884 93.562 224.272 95.228 223.121 96.609 223.121 98.455 224.057 101.636 225.121 102.487 225.121 103.735 226.843 105.628 227.483 105.628 229.53 104.4 232.51 104.995 233.487 104.312 235.813 104.544 239.018 107.023 239.964 108.253 242.518 109.87 243.35 108.871 245.852 108.372 246.945 110.011 248.525 110.565 249.121 110.087 249.121 109.034 247.865 107.778 251.121 105.28 251.141 104.19 252.201 100.479 253.547 99.833 256.121 99.447 256.121 100.437 257.598 100.806 259.699 100.071 260.773 100.823 264.497 100.731 266.259 99.85 267.086 98.362 266.09 94.68 267.259 92.225 269.572 91.431 271.357 91.252 272.121 90.258 272.121 88.634 273.054 87.608 272.091 84.719 273.198 81.732 274.935 80.255 273.943 78.965 275.386 77.687 278.52 76.015 279.451 76.109 281.004 74.71 279.981 72.665 282.334 71.018 284.524 69.837 286.389 69.464 288.287 67.756 289.349 66.408 291.263 65.164 292.365 63.599 295.312 61.83 296.398 60.78 297.272 60.343 298.304 58.692 300.758 58.078 302.955 60.056 303.741 60.683 304.322 60.537 304.322 60.228 304.718 56.43 304.503 54.491 305.916 52.534 306.675 51.092 306.513 51.045"/>
    <polygon id="fuerstenfeld" points="344.621 168.628 346.014 166.77 348.319 167.275 348.205 167.105 345.646 164.257 343.721 160.962 343.721 160.327 343.632 158.545 342.453 157.304 341.989 156.064 341.018 156.161 339.522 152.827 339.522 151.449 338.181 150.231 339.739 148.793 339.823 147.69 339.822 144.612 341.598 144.279 341.921 143.697 341.921 141.737 342.721 140.837 342.721 136.511 341.621 135.211 341.621 133.065 340.597 132.227 340.015 130.578 337.809 129.409 339.466 128.107 339.393 127.985 337.923 124.769 337.724 122.368 337.817 119.858 336.132 117.051 337.35 116.341 336.921 115.556 336.921 115.268 334.921 113.668 334.921 111.117 333.921 108.327 333.921 107.528 332.921 105.028 332.921 104.108 331.022 101.808 331.022 101.075 330.187 100.982 329.85 98.846 327.616 96.238 330.044 95.632 329.292 94.692 333.055 93.356 334.496 93.096 335.489 89.622 338.174 87.704 338.725 88.633 338.437 86.254 342.087 87.228 343.399 87.228 344.265 86.266 346.8 85.813 346.024 84.678 344.996 84.473 342.749 80.428 343.201 79.614 342.161 78.523 340.761 75.223 339.407 71.836 340.694 70.979 340.639 70.428 339.834 69.445 339.654 69.126 339.741 70.129 338.173 71.576 335.634 72.302 335.732 75.348 333.26 76.446 331.521 74.127 330.741 72.582 329.75 71.988 328.868 70.418 327.568 69.85 325.711 70.24 322.433 69.445 320.357 70.037 318.702 69.801 316.953 68.258 315.331 67.59 314.812 67.463 313.005 71.148 311.849 72.535 308.789 72.434 307.121 73.768 307.121 74.437 304.457 73.106 302.713 72.756 301.621 73.41 300.76 72.894 299.734 74.331 297.121 72.414 297.121 72.536 294.934 73.631 292.919 75.946 290.978 76.723 290.216 78.171 291.93 80.313 292.669 80.609 293.96 80.35 295.056 83.746 296.202 84.778 295.249 87.54 295.934 87.815 298.121 90.657 298.121 93.025 302.445 97.455 298.975 99.306 297.977 100.903 295.75 102.128 294.637 102.128 295.224 102.891 294.08 104.834 293.121 107.807 293.121 109.404 293.966 111.009 295.91 111.592 297.121 113.047 297.121 117.219 298.044 119.249 299.121 120.435 299.121 122.559 298.074 122.716 298.243 122.818 297.243 125.318 297.879 125.699 299.037 126.55 299.93 127.889 301.921 128.387 303.956 131.237 304.994 131.755 305.81 133.386 307.753 132.025 308.951 133.821 310.01 134.245 311.065 136.988 312.09 138.454 313.039 141.016 315.121 142.577 315.121 144.935 316.059 145.985 317.121 147.898 317.121 150.237 315.523 151.036 313.268 148.781 312.121 147.188 312.121 146.588 311.281 145.41 310.121 144.774 310.121 145.421 311.059 146.358 312.184 149.735 310.794 151.402 309.872 151.125 309.121 152.551 309.121 153.089 309.943 153.417 310.84 154.674 311.646 154.513 312.938 154.901 314.121 156.676 314.121 160.148 315.458 159.946 317.298 158.935 318.47 157.529 319.536 157.955 320.121 157.487 320.121 155.827 323.826 155.871 326.121 156.904 326.121 158.52 327.181 160.85 326.252 162.523 326.813 163.028 329.121 163.028 329.121 165.044 329.748 165.421 331.535 165.331 332.657 164.995 334.826 165.972 336.54 166.828 338.121 165.404 338.121 168.021 339.975 169.874 340.685 170.364 343.121 169.39 343.121 171.149 343.372 171.455 343.953 170.352 344.621 168.628"/>
    <polygon id="suedost-steiermark" points="341.86 175.135 342.778 172.933 342.121 171.327 342.121 170.866 340.556 171.492 339.334 170.637 337.121 168.435 337.121 167.651 336.702 168.028 334.398 166.875 332.586 166.06 331.647 166.326 329.494 166.435 328.121 165.611 328.121 164.028 326.43 164.028 324.991 162.734 326.062 160.805 325.121 158.628 325.121 157.551 323.514 156.827 321.121 156.827 321.121 157.968 319.706 159.1 318.773 158.727 317.863 159.766 315.696 160.922 313.178 161.3 311.878 162.794 310.121 163.059 310.121 164.481 308.368 164.305 307.27 162.987 306.35 162.251 305.121 161.636 305.121 160.154 303.537 160.233 302.8 159.938 302.029 161.019 300.041 164.099 298.895 165.593 296.498 165.952 294.401 164.484 294.121 164.4 294.121 165.031 295.317 168.019 292.121 168.552 292.121 170.411 290.689 171.27 289.872 171.025 288.989 172.702 287.703 173.345 285.547 173.022 283.121 172.182 283.121 169.751 281.479 169.012 279.838 168.766 278.053 171.087 277.121 173.136 277.121 177.292 278.121 178.992 278.121 181.942 280.121 184.241 280.073 185.742 279.502 186.942 279.723 186.898 281.723 188.197 283.633 187.815 285.683 188.327 287.121 188.327 287.121 189.487 289.121 188.987 289.121 191.408 288.194 192.523 288.937 194.454 291.121 194.019 291.105 196.454 290.121 200.193 290.121 205.37 291.022 209.24 293.885 209.336 294.793 210.609 297.933 209.248 299.192 213.277 297.305 215.068 298.121 216.047 298.121 218.413 294.567 216.754 292.826 217.16 295.121 218.767 295.121 220.428 296.842 220.428 298.064 221.795 298.907 223.397 300.121 223.275 300.121 224.935 300.02 225.036 301.413 224.851 305.467 221.552 309.609 220.228 313.664 220.127 315.863 220.589 317.806 221.658 319.908 222.218 320.908 222.917 324.823 226.048 329.863 226.69 332.008 227.869 333.001 230.055 336.121 231.537 336.121 226.955 334.182 223.365 332.429 221.277 331.121 221.538 331.121 219.987 330.136 218.549 329.121 214.428 329.121 204.258 329.968 203.157 328.967 202.036 328.261 200.506 329.345 198.556 329.863 195.828 330.825 193.616 330.921 190.612 330.681 188.375 333.185 187.578 333.813 187.09 333.71 184.325 336.579 182.93 337.539 182.849 337.703 182.604 337.507 180.929 339.148 177.88 341.57 178.252 341.86 175.135"/>
</svg>