<?xml version="1.0" encoding="UTF-8"?>
<svg id="map" xmlns="http://www.w3.org/2000/svg" viewBox="0 0 423.2 249.527">
    <defs>
        <style th:utext="${style}">
        </style>
    </defs>
    <g th:if="${showStroke}" id="stroke">
        <polygon points="395.756 202.72 392.808 201.009 391.787 198.764 390.708 198.361 389.756 198.361 389.103 197.968 389.01 196.387 387.776 194.661 387.025 194.661 385.913 193.549 382.219 191.748 382.218 188.326 382.114 185.335 381.291 183.686 382.23 182.159 380.219 181.151 380.219 180.352 377.885 179.884 376.002 179.229 375.219 178.367 375.219 176.866 373.104 175.703 372.04 173.361 370.219 173.361 370.219 173.009 369.219 171.509 369.219 168.687 367.432 166.451 369.219 165.111 369.219 163.068 371.219 161.068 371.219 159.531 376.595 156.171 368.721 157.156 365.968 156.79 365.118 155.894 363.759 152.11 358.909 146.228 356.026 145.332 354.769 143.593 352.915 142.393 349.87 141.725 349.34 140.56 348.364 140.56 347.068 139.737 345.288 141.308 343.854 140.946 341.443 139.248 340.712 136.945 339.725 136.748 337.028 135.247 336.684 136.635 334.368 137.971 331.738 138.152 329.9 137.071 328.849 137.772 326.698 137.943 325.116 136.468 321.286 138.208 320.26 142.725 318.769 144.391 315.859 144.777 314.768 145.382 313.377 147.516 309.719 146.923 306.372 150.878 303.795 151.076 302.449 152.424 301.053 152.888 300.8 155.711 299.58 158.76 298.469 158.76 295.316 159.393 294.481 159.976 292.324 158.848 291.025 160.146 288.804 161.712 288.919 163.689 289.455 166.605 290.505 167.654 290.334 170.292 289.461 170.917 290.566 172.855 293.162 173.952 294.255 175.971 292.45 179.58 290.289 180.579 293.533 181.968 294.868 181.873 295.639 182.45 297.236 182.545 298.22 184.058 297.823 184.651 299.948 188.072 302.764 187.949 303.876 186.591 304.001 186.092 307.287 186.345 308.436 187.57 308.013 188.629 310.171 190.271 309.903 191.696 310.827 194.465 311.777 194.75 311.982 195.989 309.815 198.156 308.958 199.645 310.051 201.934 308.564 204.411 309.291 206.304 312.767 205.87 316.144 206.973 316.908 207.641 318.591 207.818 318.916 209.692 319.641 211.551 319.814 212.771 320.934 215.65 321.131 217.63 321.961 218.929 325.458 221.027 326.003 221.9 327.572 222.271 327.654 222.846 329.93 224.439 334.035 225.013 334.542 226.635 336.281 226.766 339.411 226.378 340.854 227.211 343.601 230.161 343.924 230.161 345.055 231.197 346.547 231.739 347.613 230.673 351.027 230.867 353.293 229.686 354.002 229.827 354.862 230.513 356.138 231.66 358.337 230.56 362.018 230.56 362.116 223.663 362.598 221.116 362.688 220.841 364.618 220.734 364.617 217.511 364.72 215.434 364.719 214.983 366.266 213.6 368.188 213.983 369.941 213.107 370.915 212.492 372.216 212.771 374.896 212.235 375.976 211.607 378.527 210.89 378.81 212.395 382.041 212.145 384.054 210.133 386.944 209.734 389.666 207.198 391.128 208.185 392.025 209.181 393.882 209.924 395.618 208.724 395.618 207.467 397.618 205.467 397.618 203.885 395.756 202.72"/>
        <polygon points="291.083 149.309 289.536 146.654 289.938 143.433 287.931 140.521 288.023 139.307 287.888 138.051 285.412 136.663 285.32 132.609 284.313 128.73 284.225 126.768 285.256 124.704 284.69 122.914 285.736 121.956 287.027 118.879 288.062 118.103 286.988 115.55 285.877 115.217 283.598 113.023 284.2 111.315 284.78 110.154 286.769 109.358 287.977 107.11 289.089 105.998 289.767 106.429 292.752 109.29 294.454 108.241 295.554 106.868 298.631 106.955 299.32 107.531 301.311 106.785 302.759 105.144 303.529 105.084 304.542 107.008 306.371 106.729 307.053 105.97 308.25 107.069 310.634 104.452 312.21 102.972 312.872 101.942 313.592 101.583 314.722 101.795 314.966 102.648 317.2 102.163 317.258 102.565 319.378 103.861 320.264 103.861 322.571 105.435 324.006 104.771 327.364 105.085 328.547 103.365 331.361 102.185 333.771 102.762 336.343 102.646 337.037 101.161 338.143 101.161 338.562 98.636 337.159 97.633 337.349 96.406 335.996 94.861 336.581 93.401 338.164 93.104 339.396 90.45 341.413 90.976 344.275 90.29 344.962 88.721 347.519 88.402 348.184 89.828 349.618 89.985 350.818 88.652 350.818 87.216 352.38 86.087 355.193 84.211 356.283 82.224 356.888 81.721 357.137 79.855 356.123 78.132 356.203 75.815 358.688 75.565 361.015 76.095 363.426 74.391 365.937 73.635 363.265 72.206 360.118 69.244 360.118 67.981 359.018 64.698 359.018 63.586 357.983 63.002 355.811 60.495 357.12 59.264 359.148 56.361 360.83 55.065 359.329 53.869 357.348 52.816 352.375 51.259 348.93 50.535 348.233 47.659 349.023 44.264 343.997 43.33 342.384 44.516 340.862 45.469 339.638 45.541 338.728 43.446 335.362 40.839 333.985 38.22 333.881 37.589 332.397 36.404 332.322 35.581 332.774 32.981 330.488 31.836 326.819 32.569 323.134 33.983 322.258 34.119 321.486 32.961 319.154 32.961 317.407 31.933 310.671 33.3 308.965 35.006 308.622 34.92 307.039 32.666 306.942 32.424 307.647 29.395 308.874 27.818 310.073 25.14 308.786 22.697 307.223 23.01 304.093 27.55 302.312 28.814 300.486 29.199 298.752 30.739 295.616 30.391 296.343 34.75 298.185 37.452 298.84 39.606 300.25 42.488 300.824 45.943 301.291 47.633 300.858 48.714 298.76 49.063 298.933 48.241 298.594 47.06 296.721 47.06 292.82 48.661 291.87 48.661 290.053 47.45 285.781 47.748 283.513 45.893 281.517 46.629 280.003 46.088 278.825 47.161 278.055 47.161 277.128 44.896 272.659 45.7 271.989 46.453 271.088 46.043 266.598 46.757 263.863 46.547 262.467 47.643 261.566 47.552 257.759 48.755 256.04 48.632 255.034 52.457 253.122 52.447 246.572 50.857 246.556 50.724 246.154 50.755 245.532 50.605 245.557 50.802 242.353 51.055 239.517 50.86 236.427 50.756 234.082 51.734 232.651 51.353 231.268 51.537 229.074 49.742 227.49 49.902 227.169 51.755 226.674 51.371 225.19 52.116 224.073 51.697 223.27 54.802 221.868 56.202 221.114 59.11 221.305 62.808 220.164 63.598 219.443 64.589 216.214 64.959 214.692 65.443 212.758 65.012 211.833 65.939 209.304 65.686 209.092 65.367 204.743 65.258 204.162 65.452 203.064 63.367 199.449 66.532 197.964 68.876 195.613 70.64 194.748 72.618 195.758 74.06 198.198 74.06 198.514 75.875 199.084 77.068 197.66 76.653 195.86 76.853 194.053 76.321 192.763 77.058 191.91 76.376 189.241 76.143 187.816 77.438 187.816 78.169 186.772 78.431 186.294 79.386 184.146 79.573 182.551 80.637 182.904 82.164 182.459 84.211 181.335 85.384 180.563 85.734 179.358 85.456 174.958 85.71 175.875 83.895 178.781 80.575 178.264 79.025 174.75 79.355 171.926 78.703 170.963 79.878 168.855 80.053 167.22 80.672 165.861 80.769 163.542 82.208 161.706 82.614 160.827 83.996 160.743 85.173 158.384 85.847 155.216 85.352 152.509 85.358 151.685 85.724 150.082 85.224 149.025 85.704 148.222 85.303 148.368 84.829 147.67 85.028 147.311 84.848 147.215 85.157 146.198 85.446 144.342 85.074 142.187 84.384 142.029 82.646 142.388 81.856 144.139 81.199 144.009 78.876 139.912 73.652 137.529 71.263 137.266 70.899 138.914 69.132 134.756 67.745 132.482 68.159 131.27 68.64 129.904 68.352 129.824 66.031 130.511 65.193 135.818 63.528 135.818 61.242 134.159 61.597 132.965 59.686 132.501 57.833 129.084 58.062 127.104 58.496 125.266 59.875 124.17 59.327 121.367 60.093 121.444 60.707 119.717 60.549 117.545 61.682 116.318 60.889 116.318 59.424 115.462 57.958 112.922 56.965 110.233 56.867 109.354 55.989 107.443 55.716 107.044 53.631 105.355 53.314 105.135 52.876 99.59 52.568 97.439 51.032 96.221 51.237 94.688 50.292 93.276 52.346 91.882 53.203 92.103 54.972 91.073 57.034 90.283 56.732 89.518 56.353 85.164 56.657 81.672 55.761 80.761 55.596 78.708 53.543 77.044 52.786 79.261 50.304 78.972 48.958 81.157 47.213 77.418 46.744 76.506 47.251 73.678 47.042 72.565 48.57 73.218 50.654 74.764 51.169 75.675 52.993 73.513 58.885 73.61 60.628 72.374 62.584 73.52 66.363 76.504 67.258 77.078 69.469 76.518 70.309 76.518 72.579 77.057 73.6 77.544 75.955 75.491 76.795 75.089 78.502 72.77 79.512 72.555 80.802 71.756 81.502 71.299 84.232 71.621 84.913 70.26 84.718 69.615 85.794 67.251 86.089 65.947 87.752 65.561 90.065 64.467 90.793 63.496 92.157 61.518 93.719 61.518 94.522 59.911 97.202 60.236 97.609 58.267 99.42 56.297 99.026 51.863 102.353 49.778 102.247 48.814 103.532 46.659 104.218 45.516 105.28 44.521 104.369 41.506 104.256 40.267 104.912 35.52 106.282 39.998 107.43 44.075 109.009 43.129 110.529 42.234 110.435 40.8 112.284 42.035 113.093 42.714 114.747 42.531 118.22 40.388 120.055 40.738 122.845 42.123 124.825 41.562 126.32 42.458 127.725 43.404 128.316 42.98 128.563 43.172 128.87 42.584 129.4 40.859 129.767 41.151 131.903 38.618 132.097 38.618 133.802 37.135 133.637 35.604 135.175 33.178 138.087 31.418 141.955 31.418 145.056 33.534 145.559 33.616 147.618 33.862 148.546 32.505 150.215 31.381 150.82 29.497 152.317 30.637 154.725 33.542 156.274 33.615 157.143 33.416 158.439 33.484 159.461 32.208 159.461 31.865 161.175 31.055 161.783 30.584 165.177 28.836 168.06 27.754 168.06 26.595 169.748 25.6 170.12 25.727 172.521 26.812 174.198 26.715 176.669 27.814 178.871 29.668 180.507 30.703 180.825 30.616 183.008 31.212 185.631 34.31 185.868 35.826 185.169 37.708 183.006 39.653 183.376 40.871 182.971 42.943 183.214 43.546 179.114 42.604 177.964 42.538 177.171 43.26 176.538 44.06 173.642 44.818 172.991 44.818 171.066 47.422 171.561 50.351 172.775 54.518 172.196 54.518 170.565 53.346 169.295 53.57 167.65 55.957 166.953 56.325 164.752 56.985 163.269 58.286 161.505 58.905 160.126 59.38 159.889 61.104 160.294 63.812 158.648 64.517 159.098 64.995 160.244 67.942 163.19 67.412 164.692 67.537 166.425 68.593 167.216 72.181 168.242 72.351 168.277 72.34 168.338 73.55 169.022 74.404 170.064 75.742 170.694 75.271 171.637 75.698 172.706 75.363 174.298 74.357 175.201 73.749 178.449 72.254 180.371 73.097 182.688 72.613 184.618 72.773 186.678 74.413 186.022 74.63 186.673 76.227 187.1 76.942 188.017 79.915 188.567 83.6 187.939 83.902 189.952 86.564 189.422 87.673 188.313 89.363 187.89 89.938 186.739 91.139 186.654 93.628 185.547 96.451 185.36 97.548 185.122 99.056 183.852 99.375 184.488 101.833 185.104 102.368 185.773 101.845 187.654 103.852 189.161 105.158 189.161 105.718 190.842 107.738 191.627 109.904 192.015 110.687 193.368 109.303 194.665 108.527 196.409 105.722 198.028 106.428 200.286 110.046 201.079 113.572 199.901 114.222 199.325 115.082 200.055 117.321 203.313 119.362 203.718 120.234 202.301 121.04 202.114 122.354 203.618 124.151 203.977 124.249 205.136 126.608 205.881 128.044 205.488 128.53 204.678 129.722 205.135 131.321 203.736 132.459 204.175 135.384 203.77 138.093 204.517 139.768 205.346 141.379 205.572 143.481 204.751 144.891 206.286 147.203 200.353 148.465 198.747 148.143 198.371 149.76 198.019 151.988 195.852 153.747 195.147 152.702 192.191 152.255 188.715 152.916 188.303 154.594 184.366 156.49 182.024 155.759 181.294 156.038 179.807 155.555 178.647 155.799 177.976 157.382 177.554 157.603 175.248 157.889 174.867 159.623 175.56 160.941 175.56 163.235 174.358 165.34 171.906 164.539 170.648 164.815 168.716 165.66 169.139 167.453 167.872 169.131 168.032 169.862 169.128 171.853 167.958 174.6 167.958 175.749 166.953 177.04 166.334 178.418 166.162 181.267 165.111 182.263 165.71 183.69 165.191 184.806 164.076 187.463 165.505 188.336 164.306 189.519 164.515 190.27 165.641 191.53 166.318 192.373 168.214 193.893 168.433 195.077 169.508 198.742 168.62 199.937 167.659 201 167.126 202.264 164.309 204.817 163.884 204.817 162.226 205.731 161.008 207.539 161.336 209.458 162.06 209.921 162.988 212.016 164.584 212.898 166.475 215.255 165.061 216.132 165.061 219.038 163.661 220.06 162.361 221.288 162.361 222.623 161.333 224.511 161.019 225.23 162.73 228.766 164.444 229.135 165.06 231.444 165.06 232.634 164.419 234.039 165.076 235.358 164.9 236.772 167.229 237.209 168.864 240.124 169.682 242.769 168.876 243.883 166.59 244.958 165.36 245.949 165.773 247.604 165.565 249.227 165.87 252.218 165.206 253.203 163.773 254.209 164.177 255.323 162.506 257.096 162.112 257.956 161.06 259.488 161.06 260.077 160.033 262.641 157.963 264.515 157.11 266.368 157.984 267.8 156.141 269.403 156.642 270.631 155.037 271.363 155.525 272.68 154.977 275.876 155.476 277.654 154.766 278.816 152.926 279.971 152.771 281.438 153.26 283.701 153.26 284.158 151.552 286.485 149.742 288.867 150.834 291.083 149.309"/>
    </g>
    <polygon id="innsbruck" points="198.923 120.977 201.166 121.226 202.322 121.886 202.415 121.835 201.395 120.748 199.621 119.598 198.942 118.048 197.378 117.422 196.962 115.203 198.127 114.537 199.721 114.814 199.489 114.236 202.006 112.874 202.889 112.67 202.837 111.941 202.29 111.576 201.675 109.483 202.257 108.568 200.91 107.473 200.6 106.775 198.18 106.88 197.939 104.96 195.92 102.379 197.426 101.174 199.637 100.998 199.805 96.875 197.819 95.965 195.535 96.069 194.449 95.083 193.642 95.172 191.519 94.25 190.331 95.359 188.915 98.429 189.331 100.997 188.701 102.882 187.101 104.783 184.865 106.734 184.403 108.582 184.321 110.509 184.509 111.26 186.802 111.26 187.809 112.939 190.076 114.991 189.951 115.49 191.357 115.556 194.206 114.712 196.075 116.007 195.399 117.224 195.122 119.069 195.382 121.322 197.311 119.595 198.923 120.977"/>
    <polygon id="imst" points="164.098 171.817 163.497 170.873 163.833 168.518 162.013 168.692 161.398 167.361 160.552 167.361 158.521 165.837 156.383 165.532 154.226 163.375 155.227 161.037 155.541 157.591 157.125 156.428 157.936 154.805 158.291 152.591 157.464 151.468 156.364 149.069 154.394 145.925 153.152 144.485 152.542 141.329 151.623 139.531 151.104 135.901 151.755 134.23 150.139 131.902 149.303 129.08 149.603 127.674 149.336 126.692 148.75 123.886 150.153 123.184 150.859 121.874 153.014 120.905 154.623 120.517 155.885 118.791 155.356 118.75 152.387 116.879 151.657 114.201 153.042 112.913 152.686 111.845 153.107 110.791 152.821 108.113 152.911 105.56 152.311 104.961 151.219 104.961 148.31 105.552 147.952 103.409 146.993 103.665 146.458 102.06 143.778 102.06 143.215 97.66 143.741 93.658 146.142 90.657 146.623 87.093 146.869 86.295 146.239 86.474 144.634 86.153 143.921 90.78 144.078 92.808 141.317 91.757 138.7 91.661 135.532 91.211 134.352 94.06 132.802 94.06 130.24 96.228 126.959 96.836 126.377 94.739 124.19 92.837 121.406 89.712 122.241 88.997 121.721 87.361 120.192 87.361 117.879 88.064 116.344 87.979 115.911 88.97 114.877 90.285 114.415 92.136 110.95 92.36 107.659 91.93 107.302 91.503 107.219 91.55 107.219 93.244 106.168 93.874 105.69 96.379 103.186 95.241 101.682 96.411 100.289 98.34 98.486 98.49 97.961 97.125 95.687 96.872 95.027 97.135 94.857 97.702 95.656 99.138 97.368 99.642 98.018 101.041 98.094 102.926 99.358 102.611 100.926 104.047 100.778 107.358 99.996 109.183 96.123 107.857 91.918 107.635 91.918 106.528 91.195 105.563 90.04 104.988 88.784 103.54 87.249 102.515 85.94 102.977 86.819 103.636 87.352 104.792 88.246 104.881 89.518 106.154 89.518 109.236 89.135 109.714 89.349 111.955 89.201 112.028 90.505 113.62 92.435 114.147 93.025 114.029 93.597 112.126 95.388 111.102 97.418 111.99 98.06 113.811 98.807 114.723 100.186 115.138 101.492 115.969 101.808 119.132 102.362 120.4 103.295 120.516 103.623 126.432 102.791 128.825 102.392 129.707 103.54 131.348 105.768 132.197 106.052 134.036 105.127 134.96 105.427 135.56 106.726 135.56 107.266 136.637 109.38 139.671 109.976 141.118 112.641 141.611 113.143 142.515 114.531 142.793 116.021 143.94 117.118 146.461 117.118 147.39 118.124 148.699 118.024 151.505 121.084 155.699 119.636 155.987 119.237 157.78 117.406 158.186 116.542 160.867 117.438 163.857 116.256 168.05 115.278 168.833 115.055 170.101 116.454 171.601 116.059 173.696 115.318 175.086 115.318 176.211 113.77 177.372 113.924 178.139 113.725 179.933 113.841 180.456 115.225 180.825 116.398 182.519 115.818 183.678 115.818 187.174 113.809 189.089 114.529 190.891 114.394 192.1 112.651 193.726 111.553 193.926 110.135 195.256 109.309 197.112 106.915 198.494 107.209 199.434 109.991 200.043 113.062 199.018 114.208 198.002 115.83 199.378 117.915 202.411 118.875 202.602 119.601 201.421 121.398 201.005 122.883 202.704 125.085 203.143 125.189 204.384 126.629 204.839 127.393 204.63 128.105 203.443 129.517 203.985 131.117 202.586 132.578 203.148 135.451 202.751 138.451 203.578 140.067 204.378 141.259 204.546 143.755 203.57 144.542 204.428 146.325 199.852 147.172 198.774 146.294 197.75 149.268 197.103 151.433 194.997 152.484 194.576 151.723 192.424 151.182 188.207 152.119 187.621 153.729 183.846 155.146 182.095 154.679 181.628 155 179.916 154.482 178.673 155.037 177.144 156.453 176.767 156.634 174.873 157.549 173.654 159.815 174.56 160.695 174.56 162.601 173.562 164.098 171.817"/>
    <path id="innsbruck-land" d="M235.205,122.218l-.991-2.578.105-2.006-.292-2.962-.336-.923-1.806-1.617-3.042-3.247-.196-1.475-.85-.78-1.404-2.192-1.533.408-1.385-2.654-1.177-2.935-.954-.835.359-1.15-2.06.305-2.735-1.262-2.585-1.016-2.396.998-.901-.337h-2.49l.888-2.813,1.912-.503.819-2.295-.757-.983-1.576-.7-2.368.103-2.843-2.233-1.426-.219-1.674-3.35-1.404-1.288,1.047-2.19-1.346-.673-.183-.548-2.053-.599-1.801.2-1.592-.468-1.51.862-1.147-.917-1.932-.169-.774.704v1.069l-1.355.339-.522,1.045-2.451.213-.807.538.248,1.072-.553,2.542-1.452,1.516-1.255.57-1.396-.322-5.99.346,1.757-3.478,2.611-2.984-.084-.252-2.885.271-2.376-.549-.837,1.023-2.531.21-1.487.608-1.272.091-2.254,1.398-1.598.354-.521.819-.116,1.622-3.243.927-3.308-.517-2.417.006-.976.433-1.598-.499-1.143.52-1.089-.544-.324,1.04-.501,3.755-2.398,2.999-.474,3.598.437,3.398h2.52l.465,1.396,2.516-.669-1.211,1.512.179,1.07,1.994-.398,1.604-.01,1.2,1.2-.107,2.918.311,2.852-.378.945.443,1.332-1.414,1.312.47,1.721,2.431,1.53,2.071.16-2.539,3.474-1.88.442-1.754.799-.695,1.29-.997.499.421,2.023.325,1.188-.299,1.394.74,2.498,1.808,2.553-.75,1.928.469,3.284.909,1.763.574,2.97,1.114,1.3,2.044,3.261,1.107,2.406.996,1.327-.48,2.854-.953,1.908-1.416,1.038-.317,3.228-.768,1.788,1.442,1.442,2.062.295,1.97,1.477h1.153l.585,1.27,1.89-.181,1.061.53,1.607-1.135,2.521.24.47.705,1.411-.829h2.643l.969-.848,1.562-.749,1.54-.191,3.071-1.166,1.003.603.771-.28,1.485-1.484,2.543,1.368.727-.999,2.219.392.849,1.274,1.342.722.757,1.703,1.277.183,1.018.925,2.932-.71,1.104-.889.841-.42,1.337-2.982,2.246-.374v-1.144l1.485-1.979,2.505.455,2.37.895.535,1.07,2.106,1.604.517,1.109,1.643-.986h.925l2.493-1.2,1.178-1.499h1.373l1.265-.973,2.124-.354.1-2.179,2.031-.45.403-.404.534-1.958-.232-1.161,1.229-1.125-.076-.991-1.77-4.995.624-.803-1.123-1.414-.555-1.333.592-3.556-.47-.752-.124-3.114,1.583-.121,1.967-2.153,1.568-1.21v-.698l-1.287-.938,1.227-1.785-.759-1.992.423-1.977,2.587.225,2.15-1.204.246-1.727ZM202.314,123.035l-1.55-.886-2.25-.205-1.189-1.019-1.849,1.653-1.027-.616-.335-2.911.367-2.234.279-.503-.73-.506-2.552.756-2.793-.133.275-1.101-1.972-1.813-.754-1.257h-2.508l-.412-1.65.104-2.173.552-2.251,2.42-2.103,1.48-1.768.435-1.392-.561-3.462-.227-.301.753-.654.293.293,1.013-2.105,1.739-1.623,2.479,1.077.991-.111,1.115,1.014,2.114-.096,2.815,1.29-.232,5.678-2.789.224-.494.395,1.58,2.02.16,1.28,2.18-.096.49,1.103,1.853,1.505-.816,1.284.385,1.308.652.436.147,2.07-1.648.382-1.552.853.569,1.422-3.006-.523-.235.135.184.979,1.436.575.722,1.649,1.667,1.097,1.939,2.067-1.708.948Z"/>
    <polygon id="kitzbuehel" points="362.975 73.482 363.33 73.375 362.676 73.025 359.118 69.676 359.118 68.144 358.018 64.861 358.018 64.17 357.341 63.788 354.426 60.425 356.435 58.535 358.414 55.664 359.209 55.052 358.706 54.651 356.886 53.703 352.169 52.238 348.106 51.384 347.205 47.663 347.813 45.056 344.239 44.392 342.914 45.364 341.176 46.452 338.999 46.58 337.912 44.08 334.578 41.497 333.025 38.543 332.957 38.131 331.44 36.919 331.314 35.54 331.662 33.542 330.348 32.884 327.016 33.55 323.394 34.955 321.779 35.204 320.951 33.961 319.651 33.961 319.989 35.377 321.617 38.285 318.251 39.863 318.432 41.671 317.756 42.832 318.436 45.365 317.757 47.7 316.628 49.77 316.71 50.825 317.331 52.068 315.174 54.122 315.382 54.956 316.622 56.815 316.52 60.978 316.944 62.145 316.115 64.942 316.022 67.642 316.787 69.06 316.007 70.508 315.702 73.868 314.783 74.918 313.492 75.176 310.282 74.173 307.83 74.582 306.705 73.968 305.557 74.04 305.269 74.709 303.317 75.034 302.226 75.816 300.907 76.415 299.052 75.486 298.849 73.657 296.042 71.903 294.156 72.441 292.286 73.065 293.008 73.721 292.331 75.48 290.66 76.674 289.018 76.469 288.448 78.275 287.413 77.979 287.603 78.74 288.314 80.398 288.582 82.54 285.54 82.653 283.818 84.461 283.818 85.934 284.506 87.248 285.837 92.982 284.648 96.658 284.146 97.059 282.716 101.35 277.686 103.126 277.517 104.909 276.803 107.686 275.266 112.03 276.377 112.357 278.095 112.266 282.913 110.01 283.585 110.309 284.056 109.367 286.06 108.565 287.165 106.507 288.948 104.724 290.387 105.638 292.886 108.033 293.782 107.481 295.084 105.854 299.006 105.965 299.515 106.39 300.726 105.936 302.277 104.178 304.107 104.037 305.095 105.912 305.866 105.794 306.984 104.55 308.187 105.654 309.949 103.723 311.525 102.243 312.165 101.178 313.445 100.538 315.514 100.926 315.67 101.472 318.037 100.958 318.181 101.957 319.659 102.861 320.572 102.861 322.666 104.289 323.83 103.75 326.873 104.035 327.89 102.556 331.276 101.136 333.866 101.757 335.693 101.675 336.4 100.161 337.295 100.161 337.474 99.087 336.077 98.089 336.289 96.714 334.84 95.059 335.856 92.52 337.474 92.216 338.841 89.272 341.423 89.945 343.559 89.433 344.274 87.799 348.117 87.32 348.852 88.895 349.218 88.935 349.818 88.268 349.818 86.705 351.825 85.255 354.435 83.515 355.498 81.577 355.948 81.202 356.1 80.065 355.113 78.388 355.234 74.907 358.75 74.554 360.819 75.025 361.241 74.745 362.975 73.482"/>
    <polygon id="kufstein" points="316.682 42.689 317.404 41.449 317.186 39.257 320.219 37.836 319.032 35.676 318.581 33.784 317.23 32.989 311.165 34.22 309.271 36.114 308.018 35.8 306.154 33.146 305.896 32.504 306.724 28.954 308.085 27.204 308.965 25.181 308.25 23.824 307.816 23.911 304.815 28.263 302.722 29.75 300.952 30.123 299.084 31.782 296.82 31.531 297.293 34.368 299.097 37.015 299.797 39.315 301.212 42.178 301.811 45.779 302.346 47.69 301.578 49.608 299.02 50.034 297.256 51.359 297.903 48.278 297.841 48.06 296.918 48.06 293.018 49.661 291.567 49.661 289.782 48.471 285.455 48.773 283.322 47.029 281.521 47.693 280.232 47.232 279.212 48.161 277.383 48.161 276.509 46.024 273.177 46.623 272.247 47.668 270.948 47.078 266.639 47.763 264.175 47.574 262.768 48.678 261.671 48.568 257.878 49.766 256.796 49.689 255.804 53.461 253 53.447 246.704 51.918 246.964 53.997 245.424 54.547 244.746 56.771 244.587 56.883 246.65 57.258 248.953 57.143 250.36 60.76 253.726 60.76 254.815 63.007 255.06 65.332 253.934 65.637 254.123 69.955 253.398 71.61 252.875 74.333 251.497 75.461 249.557 75.461 248.28 77.032 246.881 77.207 246.654 79.305 245.908 80.631 246.967 82.143 248.425 82.046 249.687 83.422 251.618 85.026 251.618 86.294 254.077 85.212 254.178 87.019 255.318 86.531 256.296 88.121 258.368 89.722 259.969 90.362 260.495 91.309 262.867 92.857 263.146 94.253 264.749 94.652 265.324 97.642 265.134 99.255 265.367 99.662 267.779 100.645 271.687 100.044 272.886 100.622 273.966 101.791 277.168 102.248 281.921 100.571 283.291 96.462 283.789 96.064 284.8 92.939 283.547 87.539 282.818 86.186 282.818 84.06 285.097 81.669 287.455 81.581 287.331 80.594 286.66 79.061 286.024 76.542 287.788 77.046 288.419 75.051 289.456 75.57 290.377 75.647 291.505 74.841 291.828 74.001 290.351 72.657 293.86 71.486 296.194 70.819 299.788 73.065 299.985 74.836 300.929 75.307 301.766 74.926 302.919 74.087 304.566 73.812 304.881 73.081 306.932 72.953 308.006 73.539 310.354 73.148 313.545 74.145 314.254 74.004 314.735 73.454 315.078 70.124 315.65 69.06 315.015 67.879 315.139 64.719 315.892 62.176 315.517 61.142 315.614 57.106 314.433 55.282 314.062 53.799 316.106 51.853 315.721 51 315.608 49.551 316.852 47.27 317.399 45.357 316.682 42.689"/>
    <polygon id="landeck" points="117.013 151.816 117.112 149.023 116.118 147.73 116.118 146.569 115.215 144.581 114.105 143.728 112.493 143.406 111.996 142.509 109.26 142.003 108.477 140.102 106.409 137.148 106.111 136.56 104.809 136.56 103.91 134.762 104.985 133.686 104.868 132.923 102.897 132.172 101.245 129.813 101.863 128.454 102.613 126.291 102.342 121.405 101.675 121.322 100.821 119.31 100.545 116.551 99.711 116.021 98.23 115.598 97.146 114.226 96.619 112.732 95.448 112.219 94.44 112.796 93.81 114.892 92.4 115.174 89.933 114.501 88.154 112.329 87.366 112.215 86.642 114.48 85.627 115.155 83.953 114.109 81.612 114.89 78.809 113.853 77.145 112.54 74.136 113.867 72.235 116.285 73.247 117.802 70.842 120.536 70.272 121.769 68.559 124.879 65.811 125.715 63.722 124.044 62.054 123.885 60.937 125.409 58.515 124.968 55.601 125.454 53.916 125.46 53.376 126.449 50.568 127.658 45.677 128.147 44.375 128.907 44.465 129.051 43.054 130.322 41.976 130.552 42.286 132.819 39.618 133.023 39.618 134.92 37.502 134.684 36.372 135.814 33.947 138.727 32.418 142.167 32.418 144.266 34.503 144.762 34.615 147.578 34.972 148.766 33.155 151.001 31.855 151.701 30.738 152.602 31.399 153.998 34.494 155.648 34.621 157.178 34.421 158.482 34.553 160.461 33.028 160.461 32.771 161.746 31.988 162.333 31.546 165.519 29.399 169.06 28.281 169.06 27.241 170.574 26.637 170.8 26.711 172.202 27.824 173.921 27.724 176.452 28.622 178.25 30.168 179.614 31.733 180.096 31.62 182.915 32.024 184.69 34.127 184.852 35.212 184.351 37.33 181.916 39.584 182.345 40.766 181.951 42.095 182.107 42.492 179.406 41.633 178.357 41.499 176.751 42.376 175.983 43.177 173.081 43.818 172.531 43.818 169.858 47.71 170.598 50.483 171.747 53.518 171.325 53.518 170.956 52.291 169.627 52.667 166.872 55.074 166.169 55.36 164.461 56.116 162.763 57.481 160.911 58.131 159.395 59.257 158.833 60.934 159.227 63.824 157.471 65.319 158.423 65.842 159.677 69.095 162.929 68.424 164.829 68.501 165.897 69.045 166.305 72.456 167.28 73.508 167.468 73.447 167.815 74.205 168.244 75.034 169.256 77.094 170.226 76.366 171.683 76.739 172.616 76.274 174.823 75.278 175.719 74.687 178.872 73.383 180.549 74.141 182.633 73.623 184.703 73.665 185.244 75.025 184.7 75.408 185.846 76.809 186.221 77.497 187.103 79.922 187.552 84.437 186.782 84.735 188.767 86.072 188.5 87.162 187.41 88.674 187.031 89.298 185.782 90.893 185.669 93.385 184.561 96.385 184.362 97.089 184.201 99.382 182.269 100.063 183.63 102.403 184.216 103.468 185.548 102.991 187.265 104.185 188.161 105.879 188.161 106.518 190.08 108.1 190.695 110.534 191.107 111.575 192.906 112.184 192.795 113.441 191.622 113.508 191.03 112.629 188.832 114.818 186.747 114.818 183.442 115.238 182.601 114.611 181.696 112.995 181.266 112.713 179.988 112.912 178.182 112.667 176.95 114.318 175.711 114.318 174.836 115.14 173.296 115.382 171.92 113.982 170.42 114.358 168.288 115.381 167.47 116.397 163.865 115.495 160.855 116.631 157.335 118.399 156.942 118.802 155.133 119.353 155.023 117.013 151.816"/>
    <polygon id="lienz" points="394.618 207.053 396.618 205.053 396.618 204.438 395.254 203.585 392.029 201.713 391.049 199.556 390.527 199.361 389.479 199.361 388.135 198.553 388.028 196.733 387.262 195.661 386.611 195.661 385.324 194.374 381.219 192.373 381.219 188.361 381.122 185.587 380.147 183.635 380.807 182.564 379.219 181.769 379.219 181.171 377.621 180.851 375.434 180.09 374.219 178.754 374.219 177.457 372.332 176.419 371.396 174.361 369.219 174.361 369.219 173.312 368.219 171.812 368.219 169.037 366.006 166.27 368.219 164.611 368.219 162.654 370.219 160.654 370.219 158.977 372.219 157.727 368.717 158.165 365.485 157.734 364.248 156.429 362.877 152.612 358.327 147.094 355.411 146.188 354.067 144.33 352.523 143.33 349.167 142.595 348.696 141.56 348.073 141.56 347.167 140.984 345.555 142.406 343.43 141.87 340.593 139.872 339.937 137.811 339.375 137.698 337.684 136.757 337.552 137.288 334.668 138.952 331.498 139.171 329.934 138.251 329.187 138.749 326.339 138.976 324.922 137.654 322.151 138.913 321.178 143.198 319.268 145.333 316.179 145.744 315.47 146.137 313.859 148.606 310.117 148 306.865 151.843 304.241 152.045 302.989 153.298 301.99 153.63 301.782 155.946 300.257 159.76 298.469 159.76 295.721 160.33 294.556 161.144 292.512 160.074 291.672 160.914 289.834 162.209 289.917 163.631 290.381 166.117 291.532 167.267 291.302 170.829 290.776 171.205 291.268 172.066 293.875 173.168 295.382 175.952 293.187 180.341 292.748 180.544 293.704 180.953 295.169 180.849 295.998 181.47 297.8 181.576 299.417 184.064 299.013 184.671 300.489 187.048 302.273 186.97 302.96 186.131 303.235 185.029 307.751 185.378 309.601 187.351 309.224 188.294 311.268 189.849 310.934 191.626 311.611 193.656 312.661 193.971 313.054 196.333 310.522 198.863 310.08 199.675 311.185 201.987 309.673 204.508 309.944 205.215 312.864 204.851 316.647 206.085 317.328 206.68 319.446 206.903 319.901 209.521 320.613 211.29 320.805 212.629 321.915 215.411 322.103 217.293 322.677 218.192 326.179 220.294 326.633 221.021 328.466 221.453 328.583 222.275 330.307 223.482 334.801 224.109 335.294 225.688 336.257 225.761 339.621 225.345 341.484 226.42 344.036 229.161 344.312 229.161 345.583 230.325 346.29 230.582 347.223 229.649 350.809 229.854 353.143 228.636 354.436 228.894 355.531 229.77 356.3 230.461 358.101 229.56 361.018 229.56 361.018 228.361 361.118 223.56 361.627 220.866 361.951 219.88 363.618 219.788 363.618 217.461 363.72 215.435 363.719 214.537 365.971 212.521 368.048 212.936 369.495 212.213 370.723 211.428 372.223 211.75 374.536 211.287 375.583 210.679 379.309 209.631 379.627 211.328 381.596 211.176 383.584 209.188 386.494 208.787 389.566 205.924 391.789 207.425 392.612 208.339 393.755 208.796 394.618 208.199 394.618 207.053"/>
    <g id="reutte">
        <polygon points="133.684 93.06 134.905 90.111 138.789 90.666 141.596 90.794 142.959 91.312 142.915 90.742 143.659 85.906 141.251 85.135 141.009 82.473 141.649 81.065 143.099 80.521 143.028 79.245 139.125 74.269 136.765 71.914 135.974 70.818 137.121 69.588 134.683 68.775 132.661 69.143 131.367 69.682 128.932 69.169 128.812 65.689 129.927 64.328 134.818 62.794 134.818 62.479 133.683 62.722 132.033 60.082 131.734 58.886 129.151 59.059 127.533 59.424 125.371 61.046 124.065 60.392 122.468 60.829 122.592 61.815 119.919 61.572 117.491 62.838 115.318 61.433 115.318 59.695 114.774 58.762 112.716 57.958 109.805 57.852 108.883 56.932 106.595 56.605 106.19 54.489 104.683 54.206 104.501 53.843 99.245 53.551 97.196 52.087 96.016 52.285 94.973 51.642 93.98 53.087 92.954 53.718 93.133 55.148 91.562 58.291 89.839 57.628 89.317 57.369 85.072 57.666 81.493 56.745 80.275 56.524 78.129 54.379 76.503 53.639 74.523 59.036 74.626 60.892 73.464 62.732 74.321 65.559 77.331 66.462 78.158 69.651 77.518 70.612 77.518 72.331 78.008 73.259 78.692 76.566 76.346 77.526 75.948 79.219 73.667 80.212 73.482 81.319 72.683 82.019 72.337 84.088 73.171 85.846 72.419 86.461 71.721 85.937 70.776 85.802 70.222 86.726 67.784 87.031 66.891 88.169 66.476 90.657 65.175 91.524 64.227 92.853 62.518 94.203 62.518 94.799 61.126 97.12 61.6 97.713 58.569 100.501 56.539 100.094 52.174 103.37 50.259 103.273 49.422 104.388 47.176 105.103 45.52 106.641 44.116 105.354 41.737 105.265 40.644 105.844 39.324 106.225 40.303 106.476 45.561 108.512 43.647 111.59 42.683 111.488 42.254 112.041 42.843 112.427 43.724 114.575 43.507 118.701 41.447 120.465 41.699 122.475 42.879 124.161 43.44 124.161 42.674 126.203 43.18 126.996 44.427 127.776 45.568 127.164 50.489 126.671 52.742 125.679 53.296 124.461 55.618 124.461 58.52 123.953 60.515 124.315 61.697 122.836 64.108 123.077 66.118 124.608 67.978 124.042 69.48 121.319 70.043 119.93 71.989 117.718 70.994 116.225 72.143 114.86 72.096 114.86 73.501 113.054 77.292 111.381 79.364 113.017 81.624 113.831 84.084 113.011 85.609 113.965 85.796 113.841 86.671 111.106 88.285 111.337 88.101 109.406 88.518 108.884 88.518 106.567 87.791 105.839 86.684 105.729 86.017 104.285 84.507 103.151 85.316 102.136 87.388 101.406 89.496 102.834 90.725 104.251 91.842 104.758 92.918 106.194 92.918 106.686 96.381 106.888 99.441 107.937 99.822 107.05 99.91 104.473 99.079 103.711 97.143 104.194 97.023 101.187 96.669 100.478 94.98 99.982 93.779 97.819 94.209 96.385 95.549 95.85 98.676 96.197 99.15 97.431 99.748 97.381 101.012 95.666 103.05 94.081 104.946 94.942 105.269 93.247 106.219 92.677 106.219 90.97 107.534 90.219 108.177 90.991 110.984 91.365 113.621 91.186 114.025 89.751 115.083 88.405 115.693 86.942 117.758 87.056 120.118 86.36 122.227 86.36 122.559 86.694 123.395 89.325 122.83 89.809 124.893 92.129 127.26 94.182 127.678 95.685 129.797 95.293 132.434 93.06 133.684 93.06"/>
        <polygon points="74.159 48.08 73.67 48.752 74.019 49.867 75.473 50.351 76.336 52.078 78.177 50.017 77.864 48.563 78.681 47.91 77.618 47.777 76.73 48.27 74.159 48.08"/>
    </g>
    <polygon id="schwaz" points="288.768 149.688 289.752 149.011 288.502 146.866 288.898 143.687 286.906 140.798 287.02 139.322 286.949 138.671 284.425 137.257 284.32 132.632 283.319 128.883 283.214 126.553 284.181 124.619 283.545 122.607 284.899 121.366 286.21 118.242 286.838 117.771 286.249 116.372 285.358 116.105 282.44 113.298 282.991 111.736 282.897 111.696 278.245 113.259 276.26 113.365 273.971 112.692 275.847 107.393 276.534 104.735 276.677 103.188 273.472 102.73 272.221 101.376 271.549 101.077 267.658 101.676 264.67 100.459 264.102 99.466 264.312 97.679 263.888 95.468 262.291 95.069 261.969 93.464 259.741 92.012 259.268 91.159 257.812 90.556 255.492 88.722 254.918 87.791 253.26 88.502 253.159 86.709 250.618 87.827 250.618 85.495 248.998 84.144 248.014 83.075 246.471 83.178 244.728 80.69 245.729 78.909 245.955 76.314 247.757 76.088 249.08 74.461 251.14 74.461 251.961 73.788 252.46 71.26 253.113 69.767 252.901 64.883 253.976 64.589 253.831 63.203 253.109 61.76 249.677 61.76 248.283 58.178 246.586 58.262 242.05 57.438 243.891 56.15 244.613 53.775 245.872 53.325 245.682 51.796 242.357 52.058 239.483 51.86 236.61 51.763 234.153 52.788 232.586 52.37 230.97 52.585 228.762 50.779 228.346 50.821 227.869 53.566 226.559 52.548 225.248 53.206 224.763 53.024 224.169 55.317 222.768 56.717 222.121 59.212 222.332 63.313 220.873 64.323 219.994 65.532 216.327 65.952 214.745 66.479 213.077 66.108 212.205 66.982 208.733 66.634 208.547 66.354 204.893 66.262 203.673 66.669 202.77 64.954 200.108 67.284 198.718 69.561 196.424 71.282 195.889 72.504 196.279 73.06 199.039 73.06 199.499 75.703 200.466 77.637 200.626 78.105 202.481 79.033 201.329 81.442 202.365 82.437 203.85 85.406 205.024 85.586 207.781 87.753 210.014 87.656 212.038 88.555 213.281 90.171 212.101 93.476 210.212 93.973 209.9 94.961 211.294 94.993 211.908 95.222 214.312 94.221 217.301 95.395 219.793 96.544 223.133 96.049 222.492 98.098 223.139 98.664 224.382 101.775 225.376 103.674 226.839 103.285 228.699 106.129 229.589 106.909 229.793 108.436 232.584 111.419 234.545 113.171 235.017 114.512 235.316 117.613 235.224 119.479 236.232 122.103 235.878 124.576 233.028 126.172 231.015 125.997 230.838 126.821 231.679 129.028 230.706 130.442 231.618 131.106 231.618 132.807 229.722 134.258 227.554 136.644 226.537 136.722 226.612 138.608 227.143 139.456 226.535 143.101 226.952 144.102 228.457 145.954 227.681 146.952 229.317 151.623 229.435 153.165 228.264 154.239 228.432 155.078 227.766 157.52 226.97 158.317 225.4 158.666 225.323 160.371 226.006 161.994 229.471 163.675 229.701 164.06 231.192 164.06 232.602 163.301 234.197 164.046 235.874 163.823 237.702 166.832 238.028 168.056 240.112 168.64 242.061 168.046 243.042 166.032 244.679 164.161 246.088 164.748 247.634 164.554 249.21 164.85 251.617 164.315 252.833 162.548 253.827 162.946 254.714 161.616 256.541 161.211 257.481 160.06 258.909 160.06 259.303 159.373 262.111 157.105 264.522 156.009 266.069 156.738 267.436 154.979 269.034 155.479 270.406 153.685 271.473 154.396 272.556 153.945 275.76 154.445 276.982 153.957 278.221 151.996 280.067 151.75 281.6 152.26 282.934 152.26 283.279 150.969 286.351 148.58 288.768 149.688"/>
</svg>