<?xml version="1.0" encoding="UTF-8"?>
<svg id="map" xmlns="http://www.w3.org/2000/svg" viewBox="0 0 423.2 249.527">
    <defs>
        <style th:utext="${style}">
        </style>
    </defs>
    <polygon id="innsbruck" points="198.923 120.977 201.166 121.226 202.322 121.886 202.415 121.835 201.395 120.748 199.621 119.598 198.942 118.048 197.378 117.422 196.962 115.203 198.127 114.537 199.721 114.814 199.489 114.236 202.006 112.874 202.889 112.67 202.837 111.941 202.29 111.576 201.675 109.483 202.257 108.568 200.91 107.473 200.6 106.775 198.18 106.88 197.939 104.96 195.92 102.379 197.426 101.174 199.637 100.998 199.805 96.875 197.819 95.965 195.535 96.069 194.449 95.083 193.642 95.172 191.519 94.25 190.331 95.359 188.915 98.429 189.331 100.997 188.701 102.882 187.101 104.783 184.865 106.734 184.403 108.582 184.321 110.509 184.509 111.26 186.802 111.26 187.809 112.939 190.076 114.991 189.951 115.49 191.357 115.556 194.206 114.712 196.075 116.007 195.399 117.224 195.122 119.069 195.382 121.322 197.311 119.595 198.923 120.977"/>
    <polygon id="imst" points="164.098 171.817 163.497 170.873 163.833 168.518 162.013 168.692 161.398 167.361 160.552 167.361 158.521 165.837 156.383 165.532 154.226 163.375 155.227 161.037 155.541 157.591 157.125 156.428 157.936 154.805 158.291 152.591 157.464 151.468 156.364 149.069 154.394 145.925 153.152 144.485 152.542 141.329 151.623 139.531 151.104 135.901 151.755 134.23 150.139 131.902 149.303 129.08 149.603 127.674 149.336 126.692 148.75 123.886 150.153 123.184 150.859 121.874 153.014 120.905 154.623 120.517 155.885 118.791 155.356 118.75 152.387 116.879 151.657 114.201 153.042 112.913 152.686 111.845 153.107 110.791 152.821 108.113 152.911 105.56 152.311 104.961 151.219 104.961 148.31 105.552 147.952 103.409 146.993 103.665 146.458 102.06 143.778 102.06 143.215 97.66 143.741 93.658 146.142 90.657 146.623 87.093 146.869 86.295 146.239 86.474 144.634 86.153 143.921 90.78 144.078 92.808 141.317 91.757 138.7 91.661 135.532 91.211 134.352 94.06 132.802 94.06 130.24 96.228 126.959 96.836 126.377 94.739 124.19 92.837 121.406 89.712 122.241 88.997 121.721 87.361 120.192 87.361 117.879 88.064 116.344 87.979 115.911 88.97 114.877 90.285 114.415 92.136 110.95 92.36 107.659 91.93 107.302 91.503 107.219 91.55 107.219 93.244 106.168 93.874 105.69 96.379 103.186 95.241 101.682 96.411 100.289 98.34 98.486 98.49 97.961 97.125 95.687 96.872 95.027 97.135 94.857 97.702 95.656 99.138 97.368 99.642 98.018 101.041 98.094 102.926 99.358 102.611 100.926 104.047 100.778 107.358 99.996 109.183 96.123 107.857 91.918 107.635 91.918 106.528 91.195 105.563 90.04 104.988 88.784 103.54 87.249 102.515 85.94 102.977 86.819 103.636 87.352 104.792 88.246 104.881 89.518 106.154 89.518 109.236 89.135 109.714 89.349 111.955 89.201 112.028 90.505 113.62 92.435 114.147 93.025 114.029 93.597 112.126 95.388 111.102 97.418 111.99 98.06 113.811 98.807 114.723 100.186 115.138 101.492 115.969 101.808 119.132 102.362 120.4 103.295 120.516 103.623 126.432 102.791 128.825 102.392 129.707 103.54 131.348 105.768 132.197 106.052 134.036 105.127 134.96 105.427 135.56 106.726 135.56 107.266 136.637 109.38 139.671 109.976 141.118 112.641 141.611 113.143 142.515 114.531 142.793 116.021 143.94 117.118 146.461 117.118 147.39 118.124 148.699 118.024 151.505 121.084 155.699 119.636 155.987 119.237 157.78 117.406 158.186 116.542 160.867 117.438 163.857 116.256 168.05 115.278 168.833 115.055 170.101 116.454 171.601 116.059 173.696 115.318 175.086 115.318 176.211 113.77 177.372 113.924 178.139 113.725 179.933 113.841 180.456 115.225 180.825 116.398 182.519 115.818 183.678 115.818 187.174 113.809 189.089 114.529 190.891 114.394 192.1 112.651 193.726 111.553 193.926 110.135 195.256 109.309 197.112 106.915 198.494 107.209 199.434 109.991 200.043 113.062 199.018 114.208 198.002 115.83 199.378 117.915 202.411 118.875 202.602 119.601 201.421 121.398 201.005 122.883 202.704 125.085 203.143 125.189 204.384 126.629 204.839 127.393 204.63 128.105 203.443 129.517 203.985 131.117 202.586 132.578 203.148 135.451 202.751 138.451 203.578 140.067 204.378 141.259 204.546 143.755 203.57 144.542 204.428 146.325 199.852 147.172 198.774 146.294 197.75 149.268 197.103 151.433 194.997 152.484 194.576 151.723 192.424 151.182 188.207 152.119 187.621 153.729 183.846 155.146 182.095 154.679 181.628 155 179.916 154.482 178.673 155.037 177.144 156.453 176.767 156.634 174.873 157.549 173.654 159.815 174.56 160.695 174.56 162.601 173.562 164.098 171.817"/>
    <path id="innsbruck-land" d="M235.205,122.218l-.991-2.578.105-2.006-.292-2.962-.336-.923-1.806-1.617-3.042-3.247-.196-1.475-.85-.78-1.404-2.192-1.533.408-1.385-2.654-1.177-2.935-.954-.835.359-1.15-2.06.305-2.735-1.262-2.585-1.016-2.396.998-.901-.337h-2.49l.888-2.813,1.912-.503.819-2.295-.757-.983-1.576-.7-2.368.103-2.843-2.233-1.426-.219-1.674-3.35-1.404-1.288,1.047-2.19-1.346-.673-.183-.548-2.053-.599-1.801.2-1.592-.468-1.51.862-1.147-.917-1.932-.169-.774.704v1.069l-1.355.339-.522,1.045-2.451.213-.807.538.248,1.072-.553,2.542-1.452,1.516-1.255.57-1.396-.322-5.99.346,1.757-3.478,2.611-2.984-.084-.252-2.885.271-2.376-.549-.837,1.023-2.531.21-1.487.608-1.272.091-2.254,1.398-1.598.354-.521.819-.116,1.622-3.243.927-3.308-.517-2.417.006-.976.433-1.598-.499-1.143.52-1.089-.544-.324,1.04-.501,3.755-2.398,2.999-.474,3.598.437,3.398h2.52l.465,1.396,2.516-.669-1.211,1.512.179,1.07,1.994-.398,1.604-.01,1.2,1.2-.107,2.918.311,2.852-.378.945.443,1.332-1.414,1.312.47,1.721,2.431,1.53,2.071.16-2.539,3.474-1.88.442-1.754.799-.695,1.29-.997.499.421,2.023.325,1.188-.299,1.394.74,2.498,1.808,2.553-.75,1.928.469,3.284.909,1.763.574,2.97,1.114,1.3,2.044,3.261,1.107,2.406.996,1.327-.48,2.854-.953,1.908-1.416,1.038-.317,3.228-.768,1.788,1.442,1.442,2.062.295,1.97,1.477h1.153l.585,1.27,1.89-.181,1.061.53,1.607-1.135,2.521.24.47.705,1.411-.829h2.643l.969-.848,1.562-.749,1.54-.191,3.071-1.166,1.003.603.771-.28,1.485-1.484,2.543,1.368.727-.999,2.219.392.849,1.274,1.342.722.757,1.703,1.277.183,1.018.925,2.932-.71,1.104-.889.841-.42,1.337-2.982,2.246-.374v-1.144l1.485-1.979,2.505.455,2.37.895.535,1.07,2.106,1.604.517,1.109,1.643-.986h.925l2.493-1.2,1.178-1.499h1.373l1.265-.973,2.124-.354.1-2.179,2.031-.45.403-.404.534-1.958-.232-1.161,1.229-1.125-.076-.991-1.77-4.995.624-.803-1.123-1.414-.555-1.333.592-3.556-.47-.752-.124-3.114,1.583-.121,1.967-2.153,1.568-1.21v-.698l-1.287-.938,1.227-1.785-.759-1.992.423-1.977,2.587.225,2.15-1.204.246-1.727ZM202.314,123.035l-1.55-.886-2.25-.205-1.189-1.019-1.849,1.653-1.027-.616-.335-2.911.367-2.234.279-.503-.73-.506-2.552.756-2.793-.133.275-1.101-1.972-1.813-.754-1.257h-2.508l-.412-1.65.104-2.173.552-2.251,2.42-2.103,1.48-1.768.435-1.392-.561-3.462-.227-.301.753-.654.293.293,1.013-2.105,1.739-1.623,2.479,1.077.991-.111,1.115,1.014,2.114-.096,2.815,1.29-.232,5.678-2.789.224-.494.395,1.58,2.02.16,1.28,2.18-.096.49,1.103,1.853,1.505-.816,1.284.385,1.308.652.436.147,2.07-1.648.382-1.552.853.569,1.422-3.006-.523-.235.135.184.979,1.436.575.722,1.649,1.667,1.097,1.939,2.067-1.708.948Z"/>
    <polygon id="kitzbuehel" points="362.975 73.482 363.33 73.375 362.676 73.025 359.118 69.676 359.118 68.144 358.018 64.861 358.018 64.17 357.341 63.788 354.426 60.425 356.435 58.535 358.414 55.664 359.209 55.052 358.706 54.651 356.886 53.703 352.169 52.238 348.106 51.384 347.205 47.663 347.813 45.056 344.239 44.392 342.914 45.364 341.176 46.452 338.999 46.58 337.912 44.08 334.578 41.497 333.025 38.543 332.957 38.131 331.44 36.919 331.314 35.54 331.662 33.542 330.348 32.884 327.016 33.55 323.394 34.955 321.779 35.204 320.951 33.961 319.651 33.961 319.989 35.377 321.617 38.285 318.251 39.863 318.432 41.671 317.756 42.832 318.436 45.365 317.757 47.7 316.628 49.77 316.71 50.825 317.331 52.068 315.174 54.122 315.382 54.956 316.622 56.815 316.52 60.978 316.944 62.145 316.115 64.942 316.022 67.642 316.787 69.06 316.007 70.508 315.702 73.868 314.783 74.918 313.492 75.176 310.282 74.173 307.83 74.582 306.705 73.968 305.557 74.04 305.269 74.709 303.317 75.034 302.226 75.816 300.907 76.415 299.052 75.486 298.849 73.657 296.042 71.903 294.156 72.441 292.286 73.065 293.008 73.721 292.331 75.48 290.66 76.674 289.018 76.469 288.448 78.275 287.413 77.979 287.603 78.74 288.314 80.398 288.582 82.54 285.54 82.653 283.818 84.461 283.818 85.934 284.506 87.248 285.837 92.982 284.648 96.658 284.146 97.059 282.716 101.35 277.686 103.126 277.517 104.909 276.803 107.686 275.266 112.03 276.377 112.357 278.095 112.266 282.913 110.01 283.585 110.309 284.056 109.367 286.06 108.565 287.165 106.507 288.948 104.724 290.387 105.638 292.886 108.033 293.782 107.481 295.084 105.854 299.006 105.965 299.515 106.39 300.726 105.936 302.277 104.178 304.107 104.037 305.095 105.912 305.866 105.794 306.984 104.55 308.187 105.654 309.949 103.723 311.525 102.243 312.165 101.178 313.445 100.538 315.514 100.926 315.67 101.472 318.037 100.958 318.181 101.957 319.659 102.861 320.572 102.861 322.666 104.289 323.83 103.75 326.873 104.035 327.89 102.556 331.276 101.136 333.866 101.757 335.693 101.675 336.4 100.161 337.295 100.161 337.474 99.087 336.077 98.089 336.289 96.714 334.84 95.059 335.856 92.52 337.474 92.216 338.841 89.272 341.423 89.945 343.559 89.433 344.274 87.799 348.117 87.32 348.852 88.895 349.218 88.935 349.818 88.268 349.818 86.705 351.825 85.255 354.435 83.515 355.498 81.577 355.948 81.202 356.1 80.065 355.113 78.388 355.234 74.907 358.75 74.554 360.819 75.025 361.241 74.745 362.975 73.482"/>
    <polygon id="kufstein" points="316.682 42.689 317.404 41.449 317.186 39.257 320.219 37.836 319.032 35.676 318.581 33.784 317.23 32.989 311.165 34.22 309.271 36.114 308.018 35.8 306.154 33.146 305.896 32.504 306.724 28.954 308.085 27.204 308.965 25.181 308.25 23.824 307.816 23.911 304.815 28.263 302.722 29.75 300.952 30.123 299.084 31.782 296.82 31.531 297.293 34.368 299.097 37.015 299.797 39.315 301.212 42.178 301.811 45.779 302.346 47.69 301.578 49.608 299.02 50.034 297.256 51.359 297.903 48.278 297.841 48.06 296.918 48.06 293.018 49.661 291.567 49.661 289.782 48.471 285.455 48.773 283.322 47.029 281.521 47.693 280.232 47.232 279.212 48.161 277.383 48.161 276.509 46.024 273.177 46.623 272.247 47.668 270.948 47.078 266.639 47.763 264.175 47.574 262.768 48.678 261.671 48.568 257.878 49.766 256.796 49.689 255.804 53.461 253 53.447 246.704 51.918 246.964 53.997 245.424 54.547 244.746 56.771 244.587 56.883 246.65 57.258 248.953 57.143 250.36 60.76 253.726 60.76 254.815 63.007 255.06 65.332 253.934 65.637 254.123 69.955 253.398 71.61 252.875 74.333 251.497 75.461 249.557 75.461 248.28 77.032 246.881 77.207 246.654 79.305 245.908 80.631 246.967 82.143 248.425 82.046 249.687 83.422 251.618 85.026 251.618 86.294 254.077 85.212 254.178 87.019 255.318 86.531 256.296 88.121 258.368 89.722 259.969 90.362 260.495 91.309 262.867 92.857 263.146 94.253 264.749 94.652 265.324 97.642 265.134 99.255 265.367 99.662 267.779 100.645 271.687 100.044 272.886 100.622 273.966 101.791 277.168 102.248 281.921 100.571 283.291 96.462 283.789 96.064 284.8 92.939 283.547 87.539 282.818 86.186 282.818 84.06 285.097 81.669 287.455 81.581 287.331 80.594 286.66 79.061 286.024 76.542 287.788 77.046 288.419 75.051 289.456 75.57 290.377 75.647 291.505 74.841 291.828 74.001 290.351 72.657 293.86 71.486 296.194 70.819 299.788 73.065 299.985 74.836 300.929 75.307 301.766 74.926 302.919 74.087 304.566 73.812 304.881 73.081 306.932 72.953 308.006 73.539 310.354 73.148 313.545 74.145 314.254 74.004 314.735 73.454 315.078 70.124 315.65 69.06 315.015 67.879 315.139 64.719 315.892 62.176 315.517 61.142 315.614 57.106 314.433 55.282 314.062 53.799 316.106 51.853 315.721 51 315.608 49.551 316.852 47.27 317.399 45.357 316.682 42.689"/>
    <polygon id="landeck" points="117.013 151.816 117.112 149.023 116.118 147.73 116.118 146.569 115.215 144.581 114.105 143.728 112.493 143.406 111.996 142.509 109.26 142.003 108.477 140.102 106.409 137.148 106.111 136.56 104.809 136.56 103.91 134.762 104.985 133.686 104.868 132.923 102.897 132.172 101.245 129.813 101.863 128.454 102.613 126.291 102.342 121.405 101.675 121.322 100.821 119.31 100.545 116.551 99.711 116.021 98.23 115.598 97.146 114.226 96.619 112.732 95.448 112.219 94.44 112.796 93.81 114.892 92.4 115.174 89.933 114.501 88.154 112.329 87.366 112.215 86.642 114.48 85.627 115.155 83.953 114.109 81.612 114.89 78.809 113.853 77.145 112.54 74.136 113.867 72.235 116.285 73.247 117.802 70.842 120.536 70.272 121.769 68.559 124.879 65.811 125.715 63.722 124.044 62.054 123.885 60.937 125.409 58.515 124.968 55.601 125.454 53.916 125.46 53.376 126.449 50.568 127.658 45.677 128.147 44.375 128.907 44.465 129.051 43.054 130.322 41.976 130.552 42.286 132.819 39.618 133.023 39.618 134.92 37.502 134.684 36.372 135.814 33.947 138.727 32.418 142.167 32.418 144.266 34.503 144.762 34.615 147.578 34.972 148.766 33.155 151.001 31.855 151.701 30.738 152.602 31.399 153.998 34.494 155.648 34.621 157.178 34.421 158.482 34.553 160.461 33.028 160.461 32.771 161.746 31.988 162.333 31.546 165.519 29.399 169.06 28.281 169.06 27.241 170.574 26.637 170.8 26.711 172.202 27.824 173.921 27.724 176.452 28.622 178.25 30.168 179.614 31.733 180.096 31.62 182.915 32.024 184.69 34.127 184.852 35.212 184.351 37.33 181.916 39.584 182.345 40.766 181.951 42.095 182.107 42.492 179.406 41.633 178.357 41.499 176.751 42.376 175.983 43.177 173.081 43.818 172.531 43.818 169.858 47.71 170.598 50.483 171.747 53.518 171.325 53.518 170.956 52.291 169.627 52.667 166.872 55.074 166.169 55.36 164.461 56.116 162.763 57.481 160.911 58.131 159.395 59.257 158.833 60.934 159.227 63.824 157.471 65.319 158.423 65.842 159.677 69.095 162.929 68.424 164.829 68.501 165.897 69.045 166.305 72.456 167.28 73.508 167.468 73.447 167.815 74.205 168.244 75.034 169.256 77.094 170.226 76.366 171.683 76.739 172.616 76.274 174.823 75.278 175.719 74.687 178.872 73.383 180.549 74.141 182.633 73.623 184.703 73.665 185.244 75.025 184.7 75.408 185.846 76.809 186.221 77.497 187.103 79.922 187.552 84.437 186.782 84.735 188.767 86.072 188.5 87.162 187.41 88.674 187.031 89.298 185.782 90.893 185.669 93.385 184.561 96.385 184.362 97.089 184.201 99.382 182.269 100.063 183.63 102.403 184.216 103.468 185.548 102.991 187.265 104.185 188.161 105.879 188.161 106.518 190.08 108.1 190.695 110.534 191.107 111.575 192.906 112.184 192.795 113.441 191.622 113.508 191.03 112.629 188.832 114.818 186.747 114.818 183.442 115.238 182.601 114.611 181.696 112.995 181.266 112.713 179.988 112.912 178.182 112.667 176.95 114.318 175.711 114.318 174.836 115.14 173.296 115.382 171.92 113.982 170.42 114.358 168.288 115.381 167.47 116.397 163.865 115.495 160.855 116.631 157.335 118.399 156.942 118.802 155.133 119.353 155.023 117.013 151.816"/>
    <polygon id="lienz" points="394.618 207.053 396.618 205.053 396.618 204.438 395.254 203.585 392.029 201.713 391.049 199.556 390.527 199.361 389.479 199.361 388.135 198.553 388.028 196.733 387.262 195.661 386.611 195.661 385.324 194.374 381.219 192.373 381.219 188.361 381.122 185.587 380.147 183.635 380.807 182.564 379.219 181.769 379.219 181.171 377.621 180.851 375.434 180.09 374.219 178.754 374.219 177.457 372.332 176.419 371.396 174.361 369.219 174.361 369.219 173.312 368.219 171.812 368.219 169.037 366.006 166.27 368.219 164.611 368.219 162.654 370.219 160.654 370.219 158.977 372.219 157.727 368.717 158.165 365.485 157.734 364.248 156.429 362.877 152.612 358.327 147.094 355.411 146.188 354.067 144.33 352.523 143.33 349.167 142.595 348.696 141.56 348.073 141.56 347.167 140.984 345.555 142.406 343.43 141.87 340.593 139.872 339.937 137.811 339.375 137.698 337.684 136.757 337.552 137.288 334.668 138.952 331.498 139.171 329.934 138.251 329.187 138.749 326.339 138.976 324.922 137.654 322.151 138.913 321.178 143.198 319.268 145.333 316.179 145.744 315.47 146.137 313.859 148.606 310.117 148 306.865 151.843 304.241 152.045 302.989 153.298 301.99 153.63 301.782 155.946 300.257 159.76 298.469 159.76 295.721 160.33 294.556 161.144 292.512 160.074 291.672 160.914 289.834 162.209 289.917 163.631 290.381 166.117 291.532 167.267 291.302 170.829 290.776 171.205 291.268 172.066 293.875 173.168 295.382 175.952 293.187 180.341 292.748 180.544 293.704 180.953 295.169 180.849 295.998 181.47 297.8 181.576 299.417 184.064 299.013 184.671 300.489 187.048 302.273 186.97 302.96 186.131 303.235 185.029 307.751 185.378 309.601 187.351 309.224 188.294 311.268 189.849 310.934 191.626 311.611 193.656 312.661 193.971 313.054 196.333 310.522 198.863 310.08 199.675 311.185 201.987 309.673 204.508 309.944 205.215 312.864 204.851 316.647 206.085 317.328 206.68 319.446 206.903 319.901 209.521 320.613 211.29 320.805 212.629 321.915 215.411 322.103 217.293 322.677 218.192 326.179 220.294 326.633 221.021 328.466 221.453 328.583 222.275 330.307 223.482 334.801 224.109 335.294 225.688 336.257 225.761 339.621 225.345 341.484 226.42 344.036 229.161 344.312 229.161 345.583 230.325 346.29 230.582 347.223 229.649 350.809 229.854 353.143 228.636 354.436 228.894 355.531 229.77 356.3 230.461 358.101 229.56 361.018 229.56 361.018 228.361 361.118 223.56 361.627 220.866 361.951 219.88 363.618 219.788 363.618 217.461 363.72 215.435 363.719 214.537 365.971 212.521 368.048 212.936 369.495 212.213 370.723 211.428 372.223 211.75 374.536 211.287 375.583 210.679 379.309 209.631 379.627 211.328 381.596 211.176 383.584 209.188 386.494 208.787 389.566 205.924 391.789 207.425 392.612 208.339 393.755 208.796 394.618 208.199 394.618 207.053"/>
    <g id="reutte">
        <polygon points="133.684 93.06 134.905 90.111 138.789 90.666 141.596 90.794 142.959 91.312 142.915 90.742 143.659 85.906 141.251 85.135 141.009 82.473 141.649 81.065 143.099 80.521 143.028 79.245 139.125 74.269 136.765 71.914 135.974 70.818 137.121 69.588 134.683 68.775 132.661 69.143 131.367 69.682 128.932 69.169 128.812 65.689 129.927 64.328 134.818 62.794 134.818 62.479 133.683 62.722 132.033 60.082 131.734 58.886 129.151 59.059 127.533 59.424 125.371 61.046 124.065 60.392 122.468 60.829 122.592 61.815 119.919 61.572 117.491 62.838 115.318 61.433 115.318 59.695 114.774 58.762 112.716 57.958 109.805 57.852 108.883 56.932 106.595 56.605 106.19 54.489 104.683 54.206 104.501 53.843 99.245 53.551 97.196 52.087 96.016 52.285 94.973 51.642 93.98 53.087 92.954 53.718 93.133 55.148 91.562 58.291 89.839 57.628 89.317 57.369 85.072 57.666 81.493 56.745 80.275 56.524 78.129 54.379 76.503 53.639 74.523 59.036 74.626 60.892 73.464 62.732 74.321 65.559 77.331 66.462 78.158 69.651 77.518 70.612 77.518 72.331 78.008 73.259 78.692 76.566 76.346 77.526 75.948 79.219 73.667 80.212 73.482 81.319 72.683 82.019 72.337 84.088 73.171 85.846 72.419 86.461 71.721 85.937 70.776 85.802 70.222 86.726 67.784 87.031 66.891 88.169 66.476 90.657 65.175 91.524 64.227 92.853 62.518 94.203 62.518 94.799 61.126 97.12 61.6 97.713 58.569 100.501 56.539 100.094 52.174 103.37 50.259 103.273 49.422 104.388 47.176 105.103 45.52 106.641 44.116 105.354 41.737 105.265 40.644 105.844 39.324 106.225 40.303 106.476 45.561 108.512 43.647 111.59 42.683 111.488 42.254 112.041 42.843 112.427 43.724 114.575 43.507 118.701 41.447 120.465 41.699 122.475 42.879 124.161 43.44 124.161 42.674 126.203 43.18 126.996 44.427 127.776 45.568 127.164 50.489 126.671 52.742 125.679 53.296 124.461 55.618 124.461 58.52 123.953 60.515 124.315 61.697 122.836 64.108 123.077 66.118 124.608 67.978 124.042 69.48 121.319 70.043 119.93 71.989 117.718 70.994 116.225 72.143 114.86 72.096 114.86 73.501 113.054 77.292 111.381 79.364 113.017 81.624 113.831 84.084 113.011 85.609 113.965 85.796 113.841 86.671 111.106 88.285 111.337 88.101 109.406 88.518 108.884 88.518 106.567 87.791 105.839 86.684 105.729 86.017 104.285 84.507 103.151 85.316 102.136 87.388 101.406 89.496 102.834 90.725 104.251 91.842 104.758 92.918 106.194 92.918 106.686 96.381 106.888 99.441 107.937 99.822 107.05 99.91 104.473 99.079 103.711 97.143 104.194 97.023 101.187 96.669 100.478 94.98 99.982 93.779 97.819 94.209 96.385 95.549 95.85 98.676 96.197 99.15 97.431 99.748 97.381 101.012 95.666 103.05 94.081 104.946 94.942 105.269 93.247 106.219 92.677 106.219 90.97 107.534 90.219 108.177 90.991 110.984 91.365 113.621 91.186 114.025 89.751 115.083 88.405 115.693 86.942 117.758 87.056 120.118 86.36 122.227 86.36 122.559 86.694 123.395 89.325 122.83 89.809 124.893 92.129 127.26 94.182 127.678 95.685 129.797 95.293 132.434 93.06 133.684 93.06"/>
        <polygon points="74.159 48.08 73.67 48.752 74.019 49.867 75.473 50.351 76.336 52.078 78.177 50.017 77.864 48.563 78.681 47.91 77.618 47.777 76.73 48.27 74.159 48.08"/>
    </g>
    <polygon id="schwaz" points="288.768 149.688 289.752 149.011 288.502 146.866 288.898 143.687 286.906 140.798 287.02 139.322 286.949 138.671 284.425 137.257 284.32 132.632 283.319 128.883 283.214 126.553 284.181 124.619 283.545 122.607 284.899 121.366 286.21 118.242 286.838 117.771 286.249 116.372 285.358 116.105 282.44 113.298 282.991 111.736 282.897 111.696 278.245 113.259 276.26 113.365 273.971 112.692 275.847 107.393 276.534 104.735 276.677 103.188 273.472 102.73 272.221 101.376 271.549 101.077 267.658 101.676 264.67 100.459 264.102 99.466 264.312 97.679 263.888 95.468 262.291 95.069 261.969 93.464 259.741 92.012 259.268 91.159 257.812 90.556 255.492 88.722 254.918 87.791 253.26 88.502 253.159 86.709 250.618 87.827 250.618 85.495 248.998 84.144 248.014 83.075 246.471 83.178 244.728 80.69 245.729 78.909 245.955 76.314 247.757 76.088 249.08 74.461 251.14 74.461 251.961 73.788 252.46 71.26 253.113 69.767 252.901 64.883 253.976 64.589 253.831 63.203 253.109 61.76 249.677 61.76 248.283 58.178 246.586 58.262 242.05 57.438 243.891 56.15 244.613 53.775 245.872 53.325 245.682 51.796 242.357 52.058 239.483 51.86 236.61 51.763 234.153 52.788 232.586 52.37 230.97 52.585 228.762 50.779 228.346 50.821 227.869 53.566 226.559 52.548 225.248 53.206 224.763 53.024 224.169 55.317 222.768 56.717 222.121 59.212 222.332 63.313 220.873 64.323 219.994 65.532 216.327 65.952 214.745 66.479 213.077 66.108 212.205 66.982 208.733 66.634 208.547 66.354 204.893 66.262 203.673 66.669 202.77 64.954 200.108 67.284 198.718 69.561 196.424 71.282 195.889 72.504 196.279 73.06 199.039 73.06 199.499 75.703 200.466 77.637 200.626 78.105 202.481 79.033 201.329 81.442 202.365 82.437 203.85 85.406 205.024 85.586 207.781 87.753 210.014 87.656 212.038 88.555 213.281 90.171 212.101 93.476 210.212 93.973 209.9 94.961 211.294 94.993 211.908 95.222 214.312 94.221 217.301 95.395 219.793 96.544 223.133 96.049 222.492 98.098 223.139 98.664 224.382 101.775 225.376 103.674 226.839 103.285 228.699 106.129 229.589 106.909 229.793 108.436 232.584 111.419 234.545 113.171 235.017 114.512 235.316 117.613 235.224 119.479 236.232 122.103 235.878 124.576 233.028 126.172 231.015 125.997 230.838 126.821 231.679 129.028 230.706 130.442 231.618 131.106 231.618 132.807 229.722 134.258 227.554 136.644 226.537 136.722 226.612 138.608 227.143 139.456 226.535 143.101 226.952 144.102 228.457 145.954 227.681 146.952 229.317 151.623 229.435 153.165 228.264 154.239 228.432 155.078 227.766 157.52 226.97 158.317 225.4 158.666 225.323 160.371 226.006 161.994 229.471 163.675 229.701 164.06 231.192 164.06 232.602 163.301 234.197 164.046 235.874 163.823 237.702 166.832 238.028 168.056 240.112 168.64 242.061 168.046 243.042 166.032 244.679 164.161 246.088 164.748 247.634 164.554 249.21 164.85 251.617 164.315 252.833 162.548 253.827 162.946 254.714 161.616 256.541 161.211 257.481 160.06 258.909 160.06 259.303 159.373 262.111 157.105 264.522 156.009 266.069 156.738 267.436 154.979 269.034 155.479 270.406 153.685 271.473 154.396 272.556 153.945 275.76 154.445 276.982 153.957 278.221 151.996 280.067 151.75 281.6 152.26 282.934 152.26 283.279 150.969 286.351 148.58 288.768 149.688"/>
</svg>