<?xml version="1.0" encoding="UTF-8"?>
<svg id="map" xmlns="http://www.w3.org/2000/svg" viewBox="0 0 313.919 276.354">
    <defs>
        <style th:utext="${style}">
        </style>
    </defs>
    <polygon id="linz" points="221.297 112.274 223.159 113.019 224.059 111.553 225.721 110.223 224.996 108.99 222.085 106.952 220.038 105.915 217.91 103.936 215.941 99.21 213.397 96.283 216.219 95.86 216.941 95.499 215.654 93.567 217.014 92.818 215.872 92.533 215.872 91.354 215.273 91.233 212.38 90.178 210.872 90.782 210.872 89.348 209.774 91.872 207.483 93.476 206.872 93.354 206.872 97.1 208.247 99.3 206.606 99.382 207.814 100.51 209.007 102.774 208.401 103.26 211.344 104.24 209.872 105.565 209.872 109.926 208.679 110.642 210.687 112.749 211.499 113.236 213.666 113.127 215.577 116.76 216.872 116.047 216.872 114.091 219.183 113.859 221.297 112.274"/>
    <polygon id="steyr" points="230.638 145.911 231.879 143.772 231.298 143.037 229.505 142.769 226.872 144.743 226.872 143.983 223.684 146.533 222.872 147.103 222.872 149.007 223.64 150.313 224.432 150.234 226.703 151.029 227.516 152.331 230.228 150.465 231.692 150.025 231.235 148.96 232.133 146.445 230.638 145.911"/>
    <polygon id="wels" points="176.049 129.833 177.064 128.413 179.346 127.744 181.208 127.65 184.872 125.178 184.872 124.653 183.977 124.474 182.872 120.715 181.139 121.234 180.054 119.39 178.347 119.048 177.585 119.124 176.527 120.076 173.872 119.633 173.872 121.536 172.562 122.978 170.576 122.679 169.975 123.399 170.872 125.013 170.872 125.683 171.954 127.197 170.989 129.126 172.144 130.165 170.872 131.184 170.872 132.308 171.019 132.056 174.16 130.59 176.049 129.833"/>
    <g id="braunau">
        <polygon points="92.706 119.716 89.599 116.921 90.872 115.902 90.872 115.143 89.086 115.143 88.316 113.835 87.47 114.936 83.934 112.286 83.13 110.838 82.185 111.121 81.145 109.769 78.872 109.996 78.917 108.436 79.567 107.005 76.58 107.23 74.563 109.043 72.872 109.043 72.872 105.227 72.015 102.743 71.429 102.743 68.562 103.412 64.446 105.837 62.446 106.137 58.451 106.045 56.632 106.682 54.537 108.515 50.644 109.878 49.779 110.743 48.684 112.733 46.723 114.302 43.595 117.99 41.595 118.99 40.388 119.443 37.388 119.543 34.438 119.938 31.585 120.225 30.798 120.932 29.756 123.663 28.872 124.724 28.872 126.715 26.872 127.315 26.872 128.35 25.609 129.612 23.504 129.929 21.872 130.582 21.872 133.266 19.431 135.462 17.372 134.226 16.872 134.526 16.872 136.05 15.872 137.05 15.872 141.556 16.783 144.106 18.629 145.214 26.819 152.72 27.783 154.647 29.872 156.736 29.872 157.729 31.566 158.052 32.848 158.526 33.812 156.84 35.405 151.95 36.789 152.907 38.238 150.1 40.048 149.738 41.245 149.874 43.31 150.635 44.099 151.95 45.115 151.637 47.505 151.808 47.606 150.172 50.109 150.528 52.346 149.613 54.978 150.403 54.536 152.086 55.445 152.011 56.21 154.813 59.372 154.705 57.799 156.591 59.272 156.661 59.635 158.204 61.673 157.562 61.704 157.86 64.272 158.562 64.272 158.945 66.153 157.31 68.123 159.983 66.202 162.012 66.258 162.413 66.752 161.497 70.625 163.22 72.145 162.881 73.048 162.129 72.786 159.51 75.297 160.705 76.015 159.714 78.144 158.436 80.255 158.537 81.889 157.638 81.995 155.856 85.436 154.906 85.878 155.151 85.872 154.252 86.239 154.16 84.769 153.131 85.964 149.905 86.97 149.301 87.908 146.957 88.872 145.214 88.872 142.857 86.584 140.685 87.872 139.782 87.872 137.925 88.872 135.925 88.872 133.318 89.827 131.504 88.829 128.71 89.813 126.743 88.924 124.967 87.573 123.224 91.069 121.826 91.988 120.723 92.706 119.716"/>
        <polygon points="87.872 153.581 86.731 154.037 87.872 153.752 87.872 153.581"/>
    </g>
    <polygon id="eferding" points="184.249 110.401 186.148 108.896 189.148 107.396 191.126 106.699 193.154 105.076 193.744 104.959 192.872 104.566 192.872 102.481 191.872 102.881 191.872 98.166 190.594 99.315 188.268 99.664 186.203 98.426 183.305 98.039 182.139 97.806 181.08 96.854 179.131 95.781 176.872 93.983 176.889 90.712 177.835 87.215 176.941 85.697 172.978 79.257 172.185 78.465 171.872 78.496 171.872 78.752 170.465 79.455 168.691 79.277 167.753 81.528 165.872 82.282 165.872 81.523 163.872 79.124 163.872 75.151 162.99 73.211 161.444 72.438 159.555 74.043 158.186 74.007 156.348 73.272 156.097 73.348 156.739 74.568 159.138 75.768 157.955 77.305 158.786 79.05 160.658 80.922 163.872 82.314 163.872 84.483 162.872 85.283 162.872 87.553 161.704 87.786 160.953 89.213 162.028 90.826 161.252 91.523 162.872 92.334 162.872 95.036 162.023 95.97 163.387 97.743 160.555 97.743 158.423 99.557 157.872 99.227 157.872 100.695 155.872 100.896 155.872 102.712 157.306 102.928 161.366 101.202 162.872 101.804 162.872 104.593 160.027 105.635 161.696 109.808 162.388 109.739 165.872 110.319 165.872 110.538 167.36 110.018 170.872 111.071 170.872 112.635 171.442 112.919 173.189 112.569 174.298 111.949 176.088 111.68 177.183 110.147 179.481 110.952 180.145 111.018 181.172 109.683 184.249 110.401"/>
    <polygon id="freistadt" points="275.978 89.317 276.995 87.387 278.349 86.572 279.214 87.004 280.115 85.743 281.179 85.743 282.037 84.972 283.872 82.949 283.872 81.333 285.872 80.933 285.872 79.833 289.872 79.033 289.872 77.89 291.038 77.774 291.291 77.228 290.518 76.897 288.518 74.897 286.545 71.953 284.471 71.164 283.272 69.724 283.272 68.136 281.769 64.204 284.501 63.957 285.109 63.551 285.169 63.135 284.942 61.101 286.994 59.69 287.972 60.017 287.972 59.623 286.782 58.177 284.47 57.466 283.504 57.756 277.734 56.774 279.424 55.085 277.98 53.93 275.142 53.712 274.923 52.381 273.232 51.628 272.532 51.526 269.858 52.573 269.338 50.938 268.483 51.146 265.684 53.131 265.433 51.223 264.817 51.223 262.615 48.233 259.772 48.124 259.772 46.543 257.032 46.995 255.897 43.591 255.158 41.894 253.46 43.082 251.979 42.637 250.919 39.454 250.302 38.53 248.606 40.313 247.585 40.414 246.571 41.292 243.2 42.752 242.096 41.207 239.174 40.915 238.309 40.223 237.227 40.765 235.872 39.003 235.872 38.386 232.872 36.186 232.872 35.26 230.096 35.606 230.872 37.493 230.872 40.817 229.756 42.913 228.872 43.974 228.872 46.298 226.299 45.397 222.872 45.568 222.872 46.5 223.742 47.457 224.872 48.813 224.872 51.237 225.683 52.414 226.67 52.71 227.598 53.918 228.872 53.79 228.872 56.453 227.071 56.092 226.132 54.685 224.725 54.896 223.594 57.608 222.203 56.635 221.752 56.612 221.872 56.721 221.846 58.001 220.973 60.62 223.246 61.984 221.872 63.083 221.872 63.605 223.702 64.337 224.788 65.966 226.126 68.502 225.088 68.709 225.827 70.336 226.923 72.304 225.989 74.73 226.585 75.088 228.765 75.852 229.751 78.709 231.872 79.133 231.872 80.672 234.265 82.228 232.999 83.114 234.116 85.57 231.585 85.824 229.119 88.043 230.623 89.397 232.872 90.071 232.872 91.039 233.831 93.244 234.656 94.557 236.558 94.651 238.479 96.188 239.498 95.884 240.475 96.763 241.042 96.537 242.132 94.901 244.595 95.296 245.595 95.796 248.032 96.519 246.995 99.216 248.252 99.906 249.158 98.819 252.103 99.113 253.006 97.58 253.872 97.06 253.872 92.605 255.613 91.908 256.773 94.229 258.555 95.743 259.674 95.743 260.307 96.947 262.048 93.962 264.188 92.143 265.51 92.143 267.233 93.177 268.143 91.903 270.213 92.214 271.186 91.379 272.427 90.883 274.149 92.002 274.963 90.131 275.978 89.317"/>
    <polygon id="gmunden" points="185.768 189.3 186.681 187.657 185.872 187.252 185.872 185.526 185.114 185.071 179.293 182.554 178.513 182.631 177.35 183.213 175.189 181.917 173.004 181.48 171.755 178.23 172.872 177.56 172.872 176.456 171.872 174.243 171.872 172.149 172.949 170.965 173.78 169.136 173.002 168.279 171.782 166.343 172.763 164.772 172.126 163.943 170.07 163.943 168.709 161.357 172.872 158.859 172.872 157.818 170.981 155.455 170.031 153.94 167.449 152.821 166.479 153.598 164.36 152.962 163.233 153.243 164.474 154.855 160.632 154.472 159.241 156.696 157.872 152.643 157.872 150.896 157.119 150.819 155.1 148.399 154.613 148.302 153.872 149.486 153.872 150.504 152.742 151.295 151.721 152.928 150.717 153.429 148.872 156.29 148.872 159.554 147.09 159.196 146.372 158.264 145.872 158.913 145.872 161.58 142.521 162.027 141.872 162.352 141.872 164.024 142.928 166.137 141.872 168.356 141.872 169.724 140.665 171.173 137.872 172.104 137.872 172.173 136.744 174.202 135.872 174.727 135.872 176.333 132.646 175.796 132.007 177.011 133.268 178.021 131.001 179.268 131.927 181.585 130.689 183.689 128.726 184.082 127.757 186.31 126.872 186.752 126.872 189.274 125.132 190.754 125.623 191.196 126.515 191.465 130.506 193.581 127.725 194.833 125.872 198.076 125.84 199.017 124.725 201.897 123.609 203.013 121.872 203.273 121.872 204.459 117.872 202.992 117.872 201.426 117.355 201.116 115.505 202.086 113.027 202.992 109.717 201.129 107.228 200.872 106.585 201.834 105.689 202.55 105.056 204.176 104.666 206.525 104.21 207.761 109.61 209.939 109.988 210.544 111.01 210.203 112.739 211.067 115.476 211.653 118.141 211.882 118.393 215.427 116.327 216.563 115.937 219.006 113.717 220.874 112.59 220.686 112.272 221.109 112.272 223.513 110.29 226.091 110.428 227.476 114.544 227.776 114.657 229.585 116.203 230.773 112.772 234.634 112.772 238.371 111.099 239.821 109.797 240.863 109.86 241.495 110.83 243.327 109.58 246.037 109.667 247.346 110.449 249.693 112.384 249.984 113.604 252.092 114.324 252.963 116.539 253.155 120.044 255.423 123.372 257.132 124.327 257.045 126.019 257.043 127.756 258.166 132.651 258.949 137.429 258.943 138.429 259.643 138.492 259.643 138.278 258.217 138.164 256.215 139.488 254.132 142.257 252.222 143.162 249.755 142.04 249.063 140.738 244.097 143.172 243.885 143.172 243.689 141.451 241.014 140.877 239.79 137.172 240.319 137.172 239.543 135.865 239.543 135.236 238.889 133.797 236.342 135.072 234.11 135.072 233.543 134.768 228.702 135.085 227.331 136.072 224.943 136.072 221.213 140.157 219.51 140.054 217.147 142.401 216.614 143.36 214.121 144.365 213.418 145.173 211.444 145.173 210.08 148.034 211.324 153.611 210.327 155.072 210.838 155.072 210.827 157.325 208.699 158.437 209.479 159.447 209.074 161.672 210.742 165.325 212.84 166.182 212.153 169.691 211.935 173.578 214.17 175.538 213.091 176.757 213.579 177.298 213.91 179.208 212 181.291 212.417 182.731 211.624 181.872 209.543 181.872 208.383 179.941 206.797 178.941 205.097 177.872 203.823 177.872 202.383 178.672 201.263 178.329 201.023 177.249 201.563 174.872 198.829 174.872 195.319 178.145 194.774 181.037 192.171 182.168 191.266 185.233 190.856 186.566 190.258 185.768 189.3"/>
    <polygon id="grieskirchen" points="173.081 113.611 171.301 113.968 169.872 113.252 169.872 111.815 167.383 111.068 164.872 111.948 164.872 111.167 162.355 110.747 161.048 110.878 158.716 105.051 161.872 103.894 161.872 102.481 161.378 102.284 157.437 103.959 154.872 103.573 154.872 99.991 156.872 99.791 156.872 97.459 158.321 98.33 160.188 96.743 161.356 96.743 160.72 95.917 161.872 94.649 161.872 92.951 159.492 91.762 160.715 90.661 159.791 89.273 161.04 86.899 161.872 86.732 161.872 84.803 162.872 84.003 162.872 82.971 160.018 81.696 157.921 79.558 157.2 78.045 155.566 79.435 153.396 79.542 152.062 79.415 151.185 77.837 149.428 78.893 147.057 78.063 145.965 76.534 145.262 75.691 144.312 76.262 141.18 73.443 140.579 73.443 139.567 74.403 135.872 75.974 135.823 79.158 134.975 80.939 135.807 81.771 136.798 84.644 138.781 86.23 139.96 88.939 138.872 90.137 138.872 98.782 137.557 99.307 136.469 99.934 135.604 100.106 134.553 101.053 132.78 100.964 131.738 105.026 130.872 104.854 130.872 106.953 129.872 107.153 129.872 108.199 130.872 109.8 130.872 111.359 127.437 111.245 123.872 112.314 123.872 110.896 122.557 110.765 121.536 111.786 119.872 111.453 119.872 113.671 121.872 114.271 121.872 117.506 124.872 117.905 124.872 119.443 125.548 119.443 127.144 120.721 125.872 121.865 125.872 127.187 124.872 128.786 124.872 132.617 126.499 132.536 127.439 133.101 129.461 132.494 131.437 133.879 132.186 133.579 134.872 133.032 134.872 134.732 135.347 134.828 137.228 134.265 138.551 133.997 140.648 136.304 142.161 136.758 142.872 135.691 142.872 134.371 145.01 133.729 145.78 132.036 144.664 130.807 146.17 129.453 148.499 129.336 148.887 129.569 149.956 127.966 152.372 124.1 153.663 126.164 156.656 126.404 158.645 124.116 156.067 122.14 153.872 120.383 153.872 118.643 156.872 118.643 156.872 117.963 159.279 118.323 161.131 117.305 161.872 117.006 161.872 116.304 163.417 115.687 165.548 116.966 167.872 117.354 167.872 116.201 172.481 115.625 173.22 116.069 173.801 115.197 173.081 113.611"/>
    <g id="kirchdorf">
        <polygon points="234.631 219.105 237.872 216.598 237.872 215.758 236.114 214.087 233.872 213.415 233.872 210.452 235.872 209.952 235.872 208.936 237.752 207.056 236.968 205.647 235.872 204.55 235.872 203.778 234.872 202.079 234.872 201.239 233.131 200.281 230.872 199.151 230.872 197.116 229.179 197.878 227.948 195.907 226.872 194.736 226.872 192.552 224.737 191.484 225.792 188.848 224.689 187.635 226.689 185.535 225.798 184.554 226.872 181.653 226.872 180.651 226.038 180.215 225.191 179.453 222.872 179.568 222.872 178.354 222.185 178.49 220.171 176.174 217.38 176.546 215.322 176.34 211.872 175.881 211.872 172.333 213.08 172.092 213.73 171.181 213.002 170.379 211.712 168.331 212.872 167.402 212.872 164.189 213.892 164.088 212.936 161.508 211.755 160.206 212.769 158.48 212.286 157.852 210.872 158.983 210.872 161.073 209.71 163.164 207.408 163.854 203.495 163.268 202.449 164 200.009 163.147 198.022 158.884 197.273 158.733 194.538 158.05 195.965 156.052 196.647 155.363 196.18 154.943 195.104 154.943 193.405 152.395 195.872 152.518 195.872 151.16 196.872 150.56 196.872 150.426 193.975 148.647 192.547 146.791 196.322 145.546 197.042 145.474 197.508 144.493 194.872 144.933 194.872 143.529 192.872 141.23 192.872 140.451 191.372 139.701 189.745 140.516 188.756 142.463 187.523 143.941 186.55 143.553 186.013 144.305 186.983 145.373 185.742 147.579 184.592 148.843 182.215 148.843 181.249 148.167 179.872 148.374 179.872 154.184 177.479 156.098 176.872 155.915 176.872 156.651 174.595 157.79 173.872 158.012 173.872 159.426 170.035 161.729 170.674 162.943 172.618 162.943 173.98 164.714 172.962 166.343 173.796 167.679 174.964 168.95 173.742 171.579 172.872 172.536 172.872 174.13 173.872 176.343 173.872 178.126 172.989 178.656 173.74 180.606 175.629 181.015 177.393 182.072 178.322 181.646 179.452 181.532 185.571 184.184 186.872 184.96 186.872 186.635 188.062 187.23 186.975 189.187 188.177 190.629 185.438 191.838 182.576 192.221 181.684 192.934 178.598 195.712 175.872 196.167 175.872 198.456 177.495 200.323 178.415 199.863 180.072 201.022 178.872 202.703 178.872 203.462 179.756 204.522 180.756 206.21 182.872 207.902 182.872 209.438 184.012 212.062 181.453 213.47 179.536 213.086 177.828 214.794 178.556 216.105 181.468 218.239 182.526 219.289 183.704 220.699 182.677 226.756 182.826 228.024 184.257 228.309 182.94 230.03 183.302 230.113 185.043 229.244 186.272 229.171 186.272 228.628 188.805 227.448 191.705 227.061 193.959 225.73 195.023 225.835 197.095 225.214 197.957 225.559 200.913 222.701 203.107 223.14 207.494 222.89 205.726 225.795 206.483 227.816 208.256 229.022 209.174 230.126 209.849 230.396 211.294 229.673 213.317 230.887 214.316 230.486 215.387 231.129 216.936 230.975 217.876 228.906 221.121 226.743 222.154 226.743 223.997 225.822 224.664 225.266 224.982 225.226 224.542 224.053 225.192 222.102 230.595 221.162 230.736 222.151 230.885 222.251 231.511 221.876 232.516 220.268 234.631 219.105"/>
        <polygon points="196.872 149.683 198.644 148.442 196.872 149.093 196.872 149.683"/>
    </g>
    <polygon id="linz-land" points="239.572 111.888 238.313 111.739 237.408 111.56 233.396 112.965 231.116 112.395 230.372 111.65 229.514 112.508 227.107 111.785 226.335 111.013 224.756 112.276 223.585 114.267 221.447 113.411 219.56 114.826 217.872 114.995 217.872 116.639 215.167 118.127 213.078 114.158 211.245 114.25 210.009 113.487 208.119 111.502 206.006 111.079 208.872 109.359 208.872 105.12 209.399 104.647 206.342 103.627 207.737 102.511 206.971 101.055 205.223 99.482 203.301 99.866 202.009 99.188 200.009 97.088 198.118 95.579 197.383 95.286 195.872 95.966 195.872 97.15 194.59 98.434 192.872 98.519 192.872 101.404 193.872 101.005 193.872 103.92 197 105.326 193.59 106.01 191.537 107.614 189.537 108.314 187.232 109.471 189.341 111.475 186.872 112.215 186.872 113.449 187.613 114.265 188.647 114.368 189.625 115.736 193.736 115.633 194.915 119.405 193.981 120.993 194.756 121.923 196.972 124.36 195.696 126.824 193.872 128.374 193.872 129.615 191.757 130.249 190.842 132.811 190.027 134.291 190.585 134.682 196.715 136.276 193.613 137.981 192.292 139.044 193.872 139.834 193.872 140.856 195.872 143.156 195.872 143.753 198.29 143.35 199.062 143.345 200.148 141.172 201.478 141.837 203.14 141.754 204.214 140.573 205.105 140.841 205.872 139.23 205.872 137.391 209.507 137.027 209.872 137.282 209.872 136.389 212.383 135.509 214.372 136.305 216.015 135.647 217.067 133.746 220.369 131.215 222.236 132.616 223.208 131.062 224.629 131.914 225.872 132.782 225.872 133.09 227.396 132.938 229.522 133.362 227.872 134.684 227.872 135.96 228.456 136.31 231.475 135.605 232.518 136.335 234.872 136.218 234.872 136.313 235.138 136.209 233.195 134.049 233.979 132.03 234.064 130.927 233.467 129.535 233.587 126.798 234.623 126.385 234.878 124.765 234.872 118.979 235.923 114.985 237.018 113.89 239.572 112.177 239.572 111.888"/>
    <g id="perg">
        <polygon points="297.973 100.875 297.696 96.526 295.32 95.848 291.724 96.096 293.006 92.764 293.824 90.309 292.817 88.697 294.374 84.584 295.298 84.122 295.338 83.637 294.757 83.494 292.976 82.647 291.15 84.473 288.073 80.993 289.948 80.025 286.872 80.563 286.872 81.753 284.872 82.153 284.872 83.336 282.742 85.679 281.564 86.743 280.629 86.743 279.53 88.281 278.394 87.713 277.749 88.1 276.684 90.033 275.781 90.756 274.594 93.484 272.316 92.004 271.64 92.274 270.531 93.272 268.6 92.982 267.51 94.509 265.233 93.143 264.555 93.143 262.762 94.667 260.872 97.976 260.872 98.143 259.929 98.376 259.07 96.743 258.188 96.743 255.924 94.767 255.131 93.178 254.872 93.281 254.872 97.626 253.738 98.306 252.64 100.172 249.586 99.866 248.492 101.18 245.749 99.67 246.712 97.167 245.228 96.722 244.22 96.226 242.612 95.984 241.702 97.349 240.268 97.923 239.247 97.002 238.264 97.298 236.185 95.634 234.328 95.541 232.872 97.543 235.872 97.543 235.872 100.314 233.515 101.022 230.28 101.671 228.169 100.403 227.872 100.314 227.872 100.983 226.032 102.455 226.988 103.984 225.872 105.323 225.872 108.507 226.77 110.034 227.636 110.9 229.229 111.378 230.372 110.235 231.628 111.491 233.348 111.921 237.336 110.525 238.47 110.753 239.126 110.938 242.353 110.737 245.458 111.979 249.06 113.316 250.142 114.507 251.188 116.065 253.174 118.745 254.126 119.689 257.032 122.404 259.272 123.188 259.272 123.989 260.507 124.896 262.244 125.503 263.643 124.84 263.559 123.932 264.965 121.471 266.387 121.329 267.876 122.222 272.174 121.253 274.437 120.591 275.459 119.773 278.882 119.15 280.435 118.718 281.983 115.896 282.174 113.601 282.173 112.337 284.853 111.778 285.972 110.882 288.14 111.605 289.99 110.729 294.175 111.265 295.408 112.251 295.492 112.538 295.672 111.943 296.173 111.275 296.173 108.991 297.351 107.223 298.246 106.924 298.025 106.703 298.755 103.367 297.973 100.875"/>
        <polygon points="291.538 78.73 290.872 78.796 290.872 79.548 291.743 79.099 292.512 78.584 292.321 78.24 291.538 78.73"/>
    </g>
    <polygon id="ried" points="125.196 120.442 123.872 120.442 123.872 118.78 120.872 118.38 120.872 115.015 118.872 114.415 118.872 110.232 121.208 110.7 122.018 109.89 124.152 107.862 125.087 107.77 125.913 106.53 126.83 103.319 126.086 102.129 124.518 102.051 123.298 102.905 122.122 101.61 120.098 101.308 119.126 100.043 117.872 100.043 117.872 95.952 115.28 96.471 114.872 96.226 114.872 96.824 112.167 96.398 110.464 95.633 109.482 96.516 106.248 95.33 104.165 95.018 103.39 94.398 102.475 95.223 99.594 94.07 100.872 92.282 100.872 91.692 98.872 90.192 98.872 88.626 94.692 91.134 93.742 92.179 91.685 95.59 90.625 95.802 88.734 97.788 87.62 98.777 80.62 102.777 79.451 103.25 73.091 102.796 73.872 105.143 73.872 108.043 74.18 108.043 76.164 106.257 81.176 105.882 79.872 108.751 79.872 108.891 81.598 108.718 82.558 109.965 83.614 109.648 84.756 111.704 87.273 113.551 88.427 112.052 89.658 114.143 91.872 114.143 91.872 116.383 91.144 116.966 94.038 119.569 92.779 121.334 91.674 122.66 89.171 123.662 89.768 124.438 90.93 126.743 89.915 128.776 90.917 131.581 89.872 133.566 89.872 136.161 88.872 138.161 88.872 140.304 88.16 140.802 89.872 142.428 89.872 144.843 91.872 144.843 91.872 146.82 92.706 147.57 93.403 148.055 95.492 146.906 96.327 147.908 96.872 147.092 96.872 143.249 98.137 141.857 100.872 141.675 100.872 140.512 103.148 138.596 105.278 137.531 107.335 137.737 109.383 137.225 110.264 137.488 112.218 135.925 114.315 136.135 117.523 135.065 118.446 136.081 119.283 135.494 121.15 136.054 122.07 134.583 123.872 134.313 123.872 128.499 124.872 126.899 124.872 121.42 125.599 120.766 125.196 120.442"/>
    <polygon id="rohrbach" points="197.648 63.577 198.872 63.333 198.872 61.486 197.872 59.887 197.872 57.466 197.333 56.98 196.333 57.681 194.872 56.365 194.872 54.854 192.542 54.387 193.789 52.516 192.818 50.722 193.91 48.101 194.714 46.807 193.975 46.197 193.155 45.131 191.29 45.41 190.434 44.982 188.503 46.529 184.408 45.71 185.408 44.61 184.335 44.396 181.872 44.519 181.872 43.403 180.165 43.745 178.872 42.063 178.872 39.203 175.872 38.604 175.872 37.302 174.558 36.646 175.872 35.199 175.872 33.655 179.413 33.184 180.084 33.385 180.872 31.493 180.872 30.348 179.287 29.793 178.233 29.793 175.872 28.376 175.872 27.401 174.978 26.955 173.872 24.093 173.872 23.845 170.186 23.457 168.037 22.564 167.088 21.71 166.048 21.174 163.872 19.324 163.872 18.674 162.988 17.613 160.018 14.647 158.048 12.974 157.213 12.479 153.64 12.122 152.802 13.546 151.836 14.717 150.81 19.533 149.761 20.058 148.872 22.192 148.872 23.402 151.48 24.879 154.375 24.591 152.592 27.264 150.872 26.834 150.872 27.97 151.912 29.946 150.872 33.172 150.872 34.642 151.872 36.142 151.872 36.97 152.948 39.015 151.872 40.736 151.872 41.716 149.747 43.628 148.937 44.762 149.92 47.216 148.734 49.587 147.674 50.01 146.798 51.063 145.485 53.886 144.016 52.049 143.438 51.586 141.872 53.427 141.872 54.536 142.872 55.536 142.872 57.981 140.872 58.782 140.872 60.426 140.079 60.902 140.788 61.966 142.761 65.123 146.656 68.726 147.595 69.195 149.707 69.871 152.707 72.571 155.672 76.024 157.206 76.639 157.605 76.119 156.009 75.321 154.632 72.842 156.395 72.313 158.468 73.143 159.188 73.143 161.289 71.357 163.749 72.464 164.872 75.043 164.872 78.763 166.648 80.894 166.991 80.757 168.052 78.209 170.278 78.432 170.872 78.135 170.872 78.043 171.352 78.043 171.274 77.652 172.551 77.397 173.742 78.707 178.547 86.454 179.872 85.66 179.901 84.375 181.136 80.915 182.434 81.953 183.701 81.319 182.732 79.381 184.022 78.478 184.975 77.238 186.872 74.583 186.872 72.688 191.719 74.747 192.284 75.706 192.872 74.883 192.908 74.558 193.966 71.91 195.872 70.672 195.872 69.04 194.806 66.375 195.741 65.066 194.762 63.893 196.407 61.096 197.648 63.577"/>
    <polygon id="schaerding" points="155.069 76.96 151.988 73.264 149.126 70.791 146.872 70.115 146.872 69.981 146.018 69.597 145.018 68.597 141.948 65.708 139.06 61.178 136.1 60.389 135.04 59.221 133.085 57.854 130.99 56.703 130.199 55.043 129.137 55.043 128.109 53.809 126.128 53.512 125.009 52.338 124.082 51.137 122.517 50.745 120.462 52.697 119.059 51.983 117.059 50.384 116.037 49.464 113.051 46.977 112.579 46.697 111.872 48.111 111.872 49.109 108.525 52.234 107.872 52.104 107.872 52.981 106.264 53.625 104.394 51.895 103.872 52.443 103.872 53.83 104.928 56.048 103.98 57.944 104.802 58.789 105.872 60.607 105.842 61.611 104.842 64.411 103.872 66.36 103.823 67.658 101.924 71.647 103.942 76.089 102.825 77.765 101.846 80.701 100.872 82.566 100.834 85.535 99.872 87.843 99.872 89.693 101.872 91.193 101.872 92.604 101.149 93.615 102.268 94.063 103.353 93.088 104.579 94.068 106.544 94.373 109.261 95.37 110.28 94.453 112.514 95.459 113.872 95.663 113.872 94.459 115.464 95.415 118.872 94.732 118.872 99.043 119.618 99.043 120.645 100.378 122.622 100.675 123.446 101.581 124.225 101.035 126.658 101.156 127.914 103.167 126.788 107.021 125.657 108.717 124.591 108.823 123.507 109.855 124.872 109.991 124.872 110.971 127.306 110.24 129.872 110.326 129.872 110.087 128.872 108.486 128.872 106.333 129.872 106.133 129.872 103.633 131.006 103.86 131.872 100.48 131.872 100.018 132.396 99.944 134.19 100.033 135.139 99.179 136.189 98.97 137.114 98.414 137.872 98.106 137.872 96.184 135.739 94.476 137.872 94.69 137.872 89.75 138.784 88.746 137.963 86.856 135.949 85.245 134.934 82.405 133.776 81.131 134.872 78.83 134.872 75.42 139.095 73.52 140.179 72.543 141.563 72.543 143.706 74.471 144.413 75.035 145.482 74.394 146.756 75.923 147.687 77.315 149.303 77.801 151.558 76.448 152.697 78.498 153.396 78.638 155.174 78.461 156.389 77.488 155.069 76.96"/>
    <polygon id="steyr-land" points="271.872 179.436 271.872 179.105 269.863 176.315 270.626 175.807 269.049 174.508 268.049 172.907 267.006 171.623 266.655 170.711 265.644 170.901 264.228 172.644 261.886 171.707 259.759 170.634 258.844 169.902 256.951 169.429 254.927 169.336 252.817 168.13 251.745 168.022 249.619 165.897 248.627 164.519 244.715 162.172 241.705 160.266 240.858 159.936 238.487 159.707 236.173 158.782 236.173 156.095 234.257 153.221 233.344 151.113 232.872 150.573 232.872 150.715 230.592 151.399 227.227 153.755 226.041 151.857 224.311 151.252 223.103 151.372 221.872 149.278 221.872 146.582 223.085 145.733 227.872 141.903 227.872 142.743 229.174 141.767 231.16 141.483 231.772 140.41 231.772 138.836 233.363 137.294 232.225 137.351 231.268 136.681 228.288 137.376 226.872 136.526 226.872 134.203 227.168 133.966 224.872 134.195 224.872 133.304 223.536 132.424 222.507 134.069 220.375 132.471 217.763 134.473 216.728 136.438 214.372 137.381 212.36 136.577 210.872 137.098 210.872 139.204 209.237 138.059 206.872 138.295 206.823 139.558 205.638 142.046 204.53 141.712 203.603 142.732 201.265 142.849 200.595 142.514 199.68 144.343 198.687 144.343 197.702 146.413 196.477 146.535 194.197 147.295 194.711 147.963 195.872 148.66 195.872 148.394 199.872 146.927 199.872 148.804 197.872 150.204 197.872 151.126 196.872 151.727 196.872 153.568 195.339 153.492 195.639 153.943 196.563 153.943 198.098 155.323 196.725 156.696 196.202 157.436 198.721 158.003 200.734 162.34 202.295 162.887 203.249 162.219 207.336 162.832 209.034 162.322 209.872 160.813 209.872 158.503 212.458 156.434 213.974 158.406 212.989 160.079 213.84 161.069 214.772 163.585 217.142 164.77 213.872 165.096 213.872 167.883 213.032 168.556 213.796 169.778 215.013 171.105 213.664 172.994 212.872 173.153 212.872 175.006 215.438 175.347 217.363 175.54 220.573 175.111 222.558 177.397 223.872 177.133 223.872 178.518 225.552 178.434 226.656 179.426 227.872 180.034 227.84 181.917 226.946 184.332 228.054 185.551 226.054 187.65 226.952 188.639 226.007 191.002 227.872 191.935 227.872 194.35 228.742 195.307 229.563 196.608 231.872 195.569 231.872 198.534 233.595 199.396 235.872 200.647 235.872 201.808 236.872 203.507 236.872 204.136 237.809 205.1 238.992 207.23 236.872 209.35 236.872 210.733 234.872 211.233 234.872 212.671 236.63 213.198 238.872 215.328 238.872 216.618 239.394 217.082 240.215 216.83 241.173 214.83 241.173 213.213 242.295 211.194 245.258 209.218 248.364 209.735 250.139 209.38 252.194 207.576 254.435 206.722 256.783 207.256 257.173 207.408 257.173 205.313 260.662 204.784 261.542 203.289 263.892 199.995 265.102 201.095 265.859 200.527 267.373 201.567 266.142 199.499 264.981 196.389 267.174 194.491 265.272 192.874 265.272 190.707 266.272 189.007 266.272 187.354 265.471 187.192 264.153 185.217 265.981 182.931 267.145 181.874 270.106 181.38 270.988 180.322 271.872 179.436"/>
    <g id="urfahr-umgebung">
        <polygon points="234.872 98.543 231.872 98.543 231.872 97.178 233.632 94.802 232.948 93.708 231.872 91.143 231.872 90.815 230.038 90.215 227.625 88.043 231.159 84.861 232.628 84.715 231.745 82.772 232.478 82.259 230.872 81.215 230.872 79.953 228.989 79.576 227.975 76.533 226.207 75.915 224.747 75.19 225.82 72.292 224.941 70.797 223.656 67.977 224.618 67.783 223.929 66.477 223.043 65.149 220.872 64.282 220.872 62.603 221.498 62.102 219.77 61.065 220.872 57.762 220.872 57.15 219.1 55.38 222.541 55.551 223.149 55.977 224.018 53.89 226.079 53.581 226.074 53.575 225.06 53.272 223.872 51.548 223.872 49.174 223.355 48.555 222.632 49.351 220.26 49.825 219.459 49.265 216.595 52.59 215.595 53.09 215.423 52.743 214.872 52.743 214.872 52.476 214.065 51.064 212.115 50.821 209.115 49.022 207.368 47.887 207.322 47.89 206.507 47.809 205.422 48.568 202.237 47.082 201.186 46.957 198.263 45.788 196.445 45.697 195.389 46.066 196.032 46.581 194.796 48.558 193.924 50.665 194.955 52.57 194.202 53.699 195.872 54.033 195.872 55.92 196.411 56.405 197.411 55.705 198.872 57.021 198.872 59.6 199.872 61.199 199.872 64.153 197.095 64.708 196.337 63.189 195.981 63.793 197.003 65.02 195.937 66.512 196.872 68.943 196.872 71.215 194.777 72.576 193.872 74.84 193.872 75.203 192.872 76.604 192.872 78.679 191.024 75.538 187.872 74.199 187.872 74.898 185.783 77.927 184.659 79.252 184.011 79.705 185.043 81.767 182.309 83.133 181.607 82.571 180.872 84.63 180.872 86.227 178.801 87.468 177.872 90.909 177.872 93.503 179.684 94.952 181.706 96.071 182.604 96.879 183.47 97.053 186.629 97.515 188.475 98.621 190.149 98.37 192.872 95.92 192.872 97.518 194.154 97.453 194.872 96.736 194.872 95.319 197.36 94.2 198.684 94.752 200.684 96.353 202.674 98.435 203.442 98.819 205.274 98.453 206.498 98.389 205.872 97.387 205.872 92.133 207.26 92.411 208.969 91.214 209.872 89.14 209.899 88.78 210.899 85.88 211.083 85.943 211.872 85.943 211.872 89.304 212.364 89.107 215.544 90.273 216.872 90.533 216.872 91.752 219.729 92.467 217.09 93.919 217.631 94.73 219.872 94.617 219.872 96.343 217.49 96.343 216.446 96.837 215.346 97.002 216.834 98.751 218.79 103.447 220.656 105.126 222.595 106.096 224.872 107.684 224.872 104.962 225.756 103.901 224.712 102.23 226.872 100.503 226.872 98.97 228.629 99.515 230.464 100.614 233.274 100.053 234.872 99.571 234.872 98.543"/>
        <polygon points="227.872 54.896 227.561 54.926 227.673 55.094 227.872 55.133 227.872 54.896"/>
    </g>
    <polygon id="voecklabruck" points="151.022 152.158 152.085 150.534 152.872 149.982 152.872 149.513 151.975 148.348 150.721 146.223 152.676 144.659 152.251 144.128 150.116 143.594 148.872 142.35 148.872 139.783 148.218 139.261 147.171 139.365 146.151 138.243 144.196 138.243 143.007 137.292 142.583 137.928 140.095 137.183 138.192 135.089 137.47 135.233 135.396 135.857 133.872 135.553 133.872 134.253 132.47 134.533 131.306 135.008 129.283 133.592 127.304 134.185 126.245 133.55 124.872 133.618 124.872 135.174 122.674 135.503 121.593 137.231 119.461 136.592 118.298 137.405 117.22 136.22 114.428 137.15 112.525 136.961 110.479 138.598 109.36 138.262 107.409 138.749 105.465 138.555 103.649 139.463 101.872 140.975 101.872 142.61 98.606 142.828 97.872 143.637 97.872 147.395 96.417 149.578 95.252 148.18 93.34 149.23 92.086 148.354 90.872 147.266 90.872 145.843 89.666 145.843 88.809 147.386 87.773 149.984 86.78 150.581 85.974 152.755 86.437 153.078 88.872 152.105 88.872 154.533 86.872 155.033 86.836 157.129 86.472 158.039 86.472 158.635 87.09 158.943 88.536 158.943 91.668 161.239 92.594 162.159 95.272 162.383 95.272 165.062 94.272 167.062 94.272 169.325 92.833 171.028 89.59 169.905 89.493 168.054 87.285 167.594 86.566 166.634 85.563 167.351 84.369 167.953 83.662 168.66 84.572 170.943 84.572 172.924 83.799 173.853 84.673 174.488 84.673 178.239 82.906 179.21 83.673 180.283 83.673 181.383 85.673 184.183 85.632 188.643 84.767 190.63 85.437 191.301 87.504 191.92 88.459 193.543 92.948 193.543 92.812 194.494 94.629 195.614 97.342 196.878 98.309 196.347 102.309 195.847 104.372 195.243 106.515 195.265 108.676 195.912 109.404 196.912 111.173 196.699 111.173 195.317 116.173 195.567 116.173 196.817 117.789 199.834 117.553 200.069 118.872 200.859 118.872 202.293 120.872 203.027 120.872 202.412 123.134 202.073 123.941 201.267 124.872 198.753 124.872 197.811 127.018 194.054 128.238 193.505 126.136 192.385 125.038 192.015 123.612 190.732 125.872 188.812 125.872 186.135 126.986 185.577 128.017 183.203 130.054 182.797 130.816 181.501 129.743 178.818 131.475 177.866 130.737 177.274 132.097 174.69 134.872 175.153 134.872 174.16 136 173.483 136.872 171.913 136.872 171.383 140.079 170.313 140.872 169.362 140.921 168.028 141.815 166.148 140.872 164.261 140.872 161.734 142.305 161.048 144.872 160.705 144.872 158.573 146.372 156.623 147.654 158.29 147.872 158.333 147.872 155.995 150.026 152.657 151.022 152.158"/>
    <path id="wels-land" d="M188.999,139.77l2.103-1.051,1.958-1.566.976-.54-3.949-1.06-1.37-.958,1.219-2.195,1.052-2.963,1.886-.565v-.96l2.099-1.783.801-1.602-1.77-1.947-1.239-1.486,1.066-1.812-.821-2.628-3.889.098-1.022-1.433-.966-.096-1.259-1.386v-2.365l1.53-.459-1.059-1.006-1.849,1.479-2.923-.682-.974,1.265-1.392-.153-1.646-.576-.904,1.267-2.112.317-.532.319.931,2.047-1.419,2.128-1.261-.757-3.391.424v1.449l-3.757-.661-1.788-1.072-.455.182v.7l-1.314.525-2.093,1.155-1.593-.239v.52h-3v.26l1.812,1.45,3.414,2.617-1.984,2.282,2.051,1.437-7.084-.567-.709-1.135-2.5,3.908v1.433l-1.627-.978-1.671.084-.494.445.884.972-1.23,2.706-1.861.559v1.588l.676.54h2.045l.98,1.077.952-.095,1.347,1.077v2.633l.756.756,1.244.311v-1.028l2.195,2.854-2.045,1.636.78,1.326.525.68.803-1.284,1.513.303,1.981,2.379,1.247.125v2.567l.631,1.831.609-.975,2.157.216-.759-.987,2.873-.719,1.881.563,1.03-.823,3.419,1.481,1.082,1.731,1.756,2.188.677-.202,1.644-.829v-1.464l1.393.417,1.607-1.285v-6.19l2.623-.395,1.034.725h1.622l.812-.894.798-1.436-1.03-1.134,1.463-2.046,1.027.41.73-.877,1.048-2.098ZM185.872,125.709l-4.336,2.926-2.078.104-1.778.533-.986,1.381-2.136.854-2.833,1.324-1.853,3.146v-5.274l.728-.583-.845-.76,1.035-2.071-.918-1.286v-.73l-1.104-1.986,1.399-1.68,2.014.303.69-.76v-2.696l3.345.557.942-.849,1.237-.123,2.293.459.915,1.554,2.268-.68v1.199l.895,3.042,1.105.221v1.876Z"/>
</svg>