<?xml version="1.0" encoding="UTF-8"?>
<svg id="map" xmlns="http://www.w3.org/2000/svg" viewBox="0 0 313.919 276.354">
    <defs>
        <style th:utext="${style}">
        </style>
    </defs>
    <polygon th:if="${showStroke}" id="stroke" points="300.096 107.36 299.312 106.576 299.119 106.383 299.177 106.115 299.732 103.581 299.789 103.321 299.709 103.068 298.981 100.749 298.963 100.691 298.959 100.631 298.694 96.462 298.649 95.758 297.97 95.564 295.594 94.886 295.426 94.838 295.251 94.85 294.004 94.936 293.221 94.99 293.503 94.258 293.939 93.123 294.773 90.625 294.922 90.178 294.672 89.779 294.059 88.798 293.928 88.588 294.015 88.356 295.102 85.486 295.171 85.304 295.346 85.216 295.745 85.016 296.248 84.765 296.295 84.204 296.335 83.719 296.405 82.87 295.577 82.666 295.144 82.56 295.095 82.547 295.049 82.526 293.405 81.744 292.768 81.441 292.269 81.94 291.571 82.638 291.195 83.014 290.843 82.616 290.098 81.773 289.673 81.292 290.243 80.998 290.407 80.914 291.242 80.482 291.33 80.437 292.201 79.988 292.246 79.965 293.724 78.885 293.349 78.027 293.195 77.755 292.748 76.95 292.625 76.727 292.631 76.714 292.613 76.706 292.613 76.706 292.535 76.673 291.685 76.309 291.177 76.092 291.089 76.054 291.021 75.985 289.329 74.294 289.294 74.259 289.267 74.218 287.376 71.396 287.198 71.132 286.901 71.018 285.194 70.369 285.072 70.323 284.988 70.222 284.388 69.501 284.272 69.362 284.272 69.181 284.272 68.136 284.272 67.951 284.206 67.779 283.411 65.698 283.175 65.081 283.833 65.022 284.591 64.953 284.845 64.93 285.056 64.789 285.664 64.383 286.035 64.135 286.099 63.694 286.159 63.278 286.177 63.151 286.163 63.024 286.036 61.883 286.002 61.586 286.249 61.416 286.944 60.938 287.15 60.797 287.386 60.876 287.655 60.965 288.972 61.406 288.972 60.017 288.972 59.623 288.972 59.264 288.744 58.988 287.554 57.542 287.363 57.31 287.076 57.221 284.764 56.51 284.474 56.421 284.183 56.508 283.553 56.697 283.441 56.731 283.325 56.711 280.764 56.275 279.81 56.113 280.495 55.429 280.922 55.002 280.049 54.304 278.605 53.149 278.364 52.957 278.057 52.933 276.393 52.805 276.001 52.775 275.938 52.388 275.91 52.219 275.822 51.687 275.33 51.467 273.639 50.714 273.513 50.658 273.376 50.638 272.676 50.536 272.414 50.498 272.167 50.595 270.984 51.058 270.488 51.253 270.326 50.744 270.291 50.635 270.008 49.746 269.102 49.966 268.247 50.174 268.061 50.22 267.905 50.33 267.136 50.875 266.459 51.355 266.351 50.533 266.31 50.223 265.575 50.223 265.322 50.223 265.173 50.019 263.42 47.64 263.135 47.252 262.653 47.234 261.253 47.18 260.772 47.162 260.772 46.68 260.772 46.543 260.772 45.365 259.609 45.556 258.132 45.8 257.711 45.87 257.576 45.465 256.846 43.275 256.825 43.212 256.814 43.192 256.075 41.495 255.587 40.374 254.585 41.075 253.482 41.846 253.284 41.985 253.052 41.915 252.803 41.841 252.682 41.582 251.868 39.138 251.825 39.01 251.751 38.899 251.134 37.975 250.439 36.935 249.577 37.841 248.266 39.22 248.138 39.354 247.953 39.373 247.487 39.419 247.171 39.45 246.93 39.658 246.091 40.385 246.033 40.435 245.962 40.466 243.915 41.353 243.544 41.513 243.309 41.185 242.91 40.626 242.646 40.257 242.195 40.212 239.715 39.964 239.568 39.949 239.452 39.857 238.934 39.442 238.434 39.042 237.886 39.317 237.517 39.501 237.265 39.174 236.976 38.798 236.872 38.663 236.872 38.493 236.872 38.386 236.872 37.879 236.463 37.58 234.076 35.829 233.872 35.679 233.872 35.426 233.872 35.26 233.872 34.128 232.748 34.268 229.972 34.614 228.673 34.776 229.171 35.986 229.834 37.599 229.872 37.691 229.872 37.789 229.872 40.443 229.872 40.567 229.813 40.678 228.946 42.307 228.922 42.352 228.889 42.392 228.104 43.334 227.872 43.612 227.872 43.974 227.872 44.183 227.872 44.888 227.207 44.655 226.629 44.453 226.445 44.388 226.249 44.398 222.822 44.569 221.872 44.617 221.872 45.568 221.872 46.5 221.872 46.887 222.132 47.173 222.39 47.457 222.696 47.793 222.391 48.129 222.224 48.313 222.113 48.435 221.952 48.467 220.692 48.719 220.483 48.761 220.308 48.638 220.032 48.445 219.291 47.928 218.701 48.612 216.226 51.486 215.764 52.022 215.413 51.408 214.933 50.568 214.685 50.134 214.189 50.072 212.553 49.868 212.448 49.855 212.358 49.8 209.652 48.178 207.913 47.048 207.634 46.867 207.38 46.884 207.339 46.887 207.298 46.883 206.606 46.814 206.237 46.777 205.934 46.99 205.558 47.252 205.322 47.418 205.06 47.296 202.66 46.176 202.514 46.108 202.355 46.089 201.5 45.987 201.435 45.98 201.374 45.955 198.634 44.859 198.48 44.798 198.313 44.789 196.495 44.698 196.3 44.688 196.115 44.753 195.059 45.122 194.888 45.182 194.547 45.301 194.327 45.015 193.948 44.521 193.589 44.055 193.007 44.142 191.611 44.351 191.455 44.374 191.313 44.304 190.881 44.088 190.309 43.801 189.809 44.202 188.424 45.311 188.242 45.457 188.013 45.411 187.202 45.249 186.336 45.076 186.93 44.422 187.337 43.975 185.604 43.629 184.531 43.415 184.409 43.391 184.285 43.397 183.397 43.442 182.872 43.468 182.872 42.942 182.872 42.183 181.676 42.422 180.884 42.581 180.579 42.642 180.389 42.396 179.976 41.858 179.872 41.723 179.872 41.553 179.872 39.203 179.872 38.383 179.068 38.222 177.274 37.864 176.872 37.784 176.872 37.374 176.872 37.302 176.872 36.684 176.776 36.636 176.186 36.341 176.63 35.852 176.872 35.585 176.872 35.199 176.872 34.969 176.872 34.531 177.306 34.473 179.225 34.218 179.332 34.204 179.435 34.234 179.797 34.343 180.661 34.602 181.007 33.769 181.795 31.878 181.872 31.693 181.872 31.493 181.872 30.348 181.872 29.639 181.202 29.404 179.617 28.849 179.457 28.793 179.287 28.793 178.649 28.793 178.51 28.793 178.391 28.722 177.115 27.956 176.872 27.81 176.872 27.527 176.872 27.401 176.872 26.782 176.318 26.506 175.944 26.32 175.771 26.233 175.701 26.052 174.906 23.993 174.872 23.906 174.872 23.813 174.872 22.945 173.977 22.85 170.508 22.485 170.435 22.478 170.368 22.45 168.658 21.739 168.579 21.706 168.515 21.649 167.757 20.967 167.661 20.88 167.546 20.821 166.659 20.364 166.608 20.338 166.564 20.3 165.048 19.011 164.872 18.862 164.872 18.63 164.872 18.312 164.64 18.034 163.756 16.973 163.712 16.92 163.695 16.906 160.725 13.939 160.682 13.897 160.665 13.885 158.695 12.212 158.631 12.157 158.558 12.114 157.723 11.619 157.533 11.506 157.312 11.484 153.739 11.127 153.103 11.063 152.778 11.615 152 12.937 151.98 12.971 151.955 13.001 151.065 14.081 150.909 14.269 150.858 14.509 149.982 18.619 149.932 18.854 149.717 18.962 149.313 19.164 148.981 19.33 148.838 19.673 147.949 21.807 147.872 21.992 147.872 22.192 147.872 23.402 147.872 23.985 148.379 24.272 149.618 24.974 149.872 25.118 149.872 25.409 149.872 26.834 149.872 27.97 149.872 28.217 149.987 28.436 150.733 29.853 150.831 30.039 150.767 30.24 149.92 32.865 149.872 33.015 149.872 33.172 149.872 34.642 149.872 34.945 150.04 35.197 150.788 36.319 150.872 36.445 150.872 36.596 150.872 36.97 150.872 37.217 150.987 37.436 151.662 38.718 151.795 38.972 151.643 39.216 151.024 40.206 150.872 40.449 150.872 40.736 150.872 41.048 150.872 41.271 150.706 41.42 149.078 42.885 148.997 42.958 148.933 43.047 148.123 44.181 147.805 44.626 148.009 45.134 148.741 46.962 148.825 47.171 148.724 47.372 148.095 48.629 148.01 48.799 147.833 48.87 147.303 49.081 147.068 49.175 146.905 49.37 146.029 50.423 145.946 50.523 145.891 50.641 145.599 51.27 145.258 52.002 144.755 51.372 144.728 51.338 144.641 51.269 144.063 50.806 143.305 50.199 142.676 50.938 141.11 52.779 140.872 53.059 140.872 53.427 140.872 54.536 140.872 54.95 141.165 55.243 141.726 55.804 141.872 55.95 141.872 56.157 141.872 56.966 141.872 57.304 141.558 57.43 140.5 57.854 139.872 58.105 139.872 58.782 139.872 59.577 139.872 59.86 139.629 60.006 139.564 60.045 139.477 60.097 139.296 60.206 139.091 60.151 136.785 59.537 136.642 59.499 136.543 59.39 135.781 58.549 135.705 58.466 135.613 58.401 133.658 57.034 133.614 57.004 133.567 56.978 131.895 56.06 131.754 55.982 131.685 55.836 131.102 54.613 130.83 54.043 130.199 54.043 129.84 54.043 129.605 54.043 129.456 53.863 128.877 53.169 128.634 52.877 128.257 52.82 126.785 52.599 126.615 52.574 126.497 52.45 125.787 51.705 125.769 51.686 125.753 51.665 124.874 50.526 124.662 50.251 124.325 50.167 122.76 49.775 122.227 49.641 121.828 50.02 120.542 51.242 120.286 51.485 119.971 51.325 119.649 51.161 119.604 51.138 119.564 51.106 117.718 49.63 116.706 48.721 113.691 46.209 113.63 46.158 113.561 46.117 113.089 45.837 112.165 45.289 111.685 46.25 110.978 47.664 110.872 47.875 110.872 48.111 110.872 48.457 110.872 48.675 110.713 48.823 108.405 50.978 108.217 51.153 107.966 51.103 106.872 50.885 106.872 51.681 106.872 52.825 106.032 52.049 105.073 51.161 104.35 50.492 103.67 51.205 103.148 51.753 102.872 52.043 102.872 52.443 102.872 53.83 102.872 54.056 102.969 54.26 103.71 55.817 103.815 56.037 103.706 56.256 103.086 57.497 102.768 58.132 103.263 58.641 103.959 59.357 104.001 59.4 104.032 59.452 104.791 60.741 104.864 60.866 104.859 61.01 104.849 61.344 104.847 61.423 104.821 61.498 103.93 63.991 103.92 64.019 103.907 64.045 102.977 65.914 102.881 66.107 102.873 66.322 102.835 67.311 102.831 67.414 102.787 67.507 101.021 71.217 100.821 71.637 101.014 72.061 102.687 75.744 102.802 75.997 102.648 76.228 101.993 77.21 101.919 77.322 101.876 77.449 100.935 80.271 100.923 80.309 100.904 80.344 99.986 82.103 99.875 82.315 99.872 82.553 99.838 85.232 99.837 85.329 99.799 85.418 99.037 87.247 98.974 87.399 98.833 87.483 98.357 87.768 94.177 90.277 94.051 90.352 93.952 90.461 93.002 91.506 92.936 91.579 92.886 91.663 91.17 94.507 91.056 94.696 90.84 94.739 90.429 94.821 90.119 94.883 89.901 95.112 88.053 97.053 87.073 97.926 87.034 97.96 86.989 97.986 80.212 101.859 80.182 101.875 80.151 101.888 79.398 102.193 79.291 102.236 79.175 102.228 73.162 101.799 73.066 101.792 72.736 101.768 72.727 101.743 72.402 101.743 71.566 101.684 71.126 101.787 68.335 102.438 68.186 102.473 68.054 102.55 64.189 104.828 64.106 104.877 64.01 104.891 62.425 105.129 62.383 105.135 62.34 105.134 58.474 105.045 58.292 105.041 58.12 105.101 56.302 105.738 56.119 105.802 55.974 105.929 54.097 107.571 54.024 107.635 53.933 107.667 50.314 108.934 50.098 109.01 49.937 109.171 49.072 110.036 48.971 110.136 48.903 110.261 47.952 111.989 47.904 112.077 47.826 112.139 46.098 113.521 46.023 113.582 45.96 113.655 43.031 117.109 42.965 117.187 42.873 117.233 41.218 118.06 41.195 118.072 41.17 118.081 40.267 118.42 40.19 118.449 40.108 118.452 37.355 118.544 37.28 118.546 37.255 118.552 34.305 118.947 31.485 119.23 31.16 119.263 30.917 119.481 30.13 120.188 29.95 120.35 29.864 120.576 28.911 123.073 28.881 123.151 28.828 123.215 28.104 124.084 27.872 124.362 27.872 124.724 27.872 125.599 27.872 125.971 27.516 126.078 26.585 126.357 25.872 126.571 25.872 127.315 25.872 127.728 25.872 127.936 25.725 128.082 25.251 128.556 25.135 128.672 24.972 128.697 23.355 128.94 23.24 128.957 23.133 129.001 21.501 129.654 20.872 129.905 20.872 130.582 20.872 132.598 20.872 132.82 20.706 132.97 19.587 133.977 19.312 134.224 18.995 134.034 17.887 133.369 17.372 133.06 16.858 133.369 16.357 133.669 15.872 133.96 15.872 134.526 15.872 135.429 15.872 135.636 15.726 135.782 15.165 136.343 14.872 136.636 14.872 137.05 14.872 141.556 14.872 141.729 14.93 141.893 15.841 144.442 15.962 144.779 16.268 144.963 17.985 145.994 18.028 146.019 18.065 146.054 25.939 153.27 26.007 153.333 26.049 153.415 26.889 155.094 26.961 155.24 27.076 155.354 28.726 157.004 28.872 157.15 28.872 157.357 28.872 157.729 28.872 158.556 29.685 158.711 31.256 159.011 31.297 159.019 31.336 159.033 32.501 159.464 33.296 159.758 33.716 159.022 34.68 157.336 34.731 157.247 34.763 157.15 35.732 154.174 35.94 153.536 36.492 153.917 37.156 154.376 37.678 153.366 38.796 151.2 38.906 150.986 39.142 150.939 40.014 150.765 40.091 150.749 40.168 150.758 40.952 150.847 41.012 150.854 41.069 150.875 42.469 151.391 42.634 151.452 42.724 151.603 43.241 152.465 43.645 153.136 44.393 152.906 45.141 152.675 45.23 152.648 45.324 152.654 47.434 152.805 48.441 152.878 48.503 151.87 48.536 151.329 49.073 151.391 49.968 151.518 50.237 151.556 50.488 151.454 52.234 150.739 52.397 150.672 52.567 150.723 53.303 150.944 53.765 151.083 53.643 151.55 53.569 151.832 53.21 153.199 54.285 153.11 54.699 153.076 54.809 153.477 55.245 155.076 55.454 155.839 56.056 155.819 57.173 155.781 56.457 156.639 55.743 157.495 57.752 157.59 58.095 157.606 58.471 157.624 58.558 157.991 58.662 158.433 58.908 159.481 59.935 159.158 61.061 158.803 61.201 158.759 61.343 158.798 61.44 158.825 62.904 159.225 63.272 159.325 63.272 159.707 63.272 161.139 64.928 159.7 65.582 159.131 65.991 158.776 66.313 159.212 66.574 159.566 66.822 159.903 66.534 160.207 65.476 161.325 65.145 161.674 65.212 162.15 65.268 162.551 65.69 165.574 66.972 163.195 67.192 162.787 67.616 162.976 70.219 164.134 70.52 164.268 70.843 164.196 72.363 163.857 72.599 163.804 72.785 163.649 73.688 162.897 74.096 162.558 74.046 162.057 73.958 161.174 74.758 161.556 74.867 161.608 75.619 161.966 76.107 161.292 76.645 160.549 76.705 160.466 76.792 160.414 78.269 159.527 78.399 159.449 78.55 159.457 80.207 159.536 80.489 159.549 80.737 159.413 82.371 158.514 82.854 158.248 82.887 157.697 82.93 156.987 82.951 156.63 83.296 156.534 85.112 156.033 85.308 155.979 85.487 156.078 85.588 156.134 85.85 156.279 85.845 156.579 85.841 156.836 85.839 156.928 85.805 157.013 85.544 157.668 85.472 157.846 85.472 158.039 85.472 158.635 85.472 159.254 86.026 159.53 86.644 159.838 86.855 159.943 87.09 159.943 88.045 159.943 88.209 159.943 88.341 160.04 90.986 161.979 91.016 162.001 91.043 162.028 91.889 162.868 92.148 163.125 92.511 163.156 93.814 163.265 94.272 163.303 94.272 163.763 94.272 164.708 94.272 164.826 94.219 164.932 93.378 166.615 93.272 166.826 93.272 167.062 93.272 168.776 93.272 168.959 93.154 169.099 92.733 169.597 92.512 169.859 92.188 169.746 90.871 169.29 90.553 169.18 90.536 168.844 90.492 168.002 90.451 167.232 89.697 167.075 88.044 166.731 87.859 166.692 87.746 166.541 87.366 166.035 86.78 165.252 85.984 165.82 85.075 166.47 85.044 166.493 85.01 166.51 83.919 167.06 83.775 167.132 83.662 167.246 82.955 167.953 82.489 168.419 82.733 169.03 83.536 171.046 83.572 171.135 83.572 171.231 83.572 172.382 83.572 172.562 83.456 172.701 83.03 173.213 82.347 174.034 83.211 174.662 83.467 174.848 83.673 174.997 83.673 175.252 83.673 177.352 83.673 177.647 83.414 177.79 82.424 178.334 81.438 178.876 82.093 179.792 82.58 180.473 82.673 180.604 82.673 180.764 82.673 181.383 82.673 181.703 82.859 181.964 84.575 184.367 84.67 184.499 84.669 184.662 84.635 188.329 84.634 188.43 84.593 188.524 83.85 190.231 83.578 190.855 84.059 191.337 84.729 192.008 84.908 192.186 85.15 192.259 86.653 192.709 86.841 192.765 86.941 192.935 87.597 194.05 87.887 194.543 88.459 194.543 91.218 194.543 91.795 194.543 91.729 195.001 92.287 195.345 94.104 196.465 94.154 196.496 94.207 196.521 96.92 197.784 97.379 197.999 97.823 197.755 98.539 197.362 98.623 197.316 98.718 197.304 102.433 196.839 102.513 196.829 102.59 196.807 104.439 196.265 104.51 196.245 104.585 196.245 106.293 196.263 106.364 196.264 106.431 196.284 107.904 196.725 108.066 196.773 108.165 196.91 108.596 197.501 108.941 197.975 109.524 197.905 111.292 197.692 112.173 197.586 112.173 196.894 112.173 196.368 112.698 196.394 114.698 196.495 115.173 196.518 115.173 196.994 115.173 197.068 115.291 197.289 116.381 199.323 116.556 199.65 116.293 199.913 115.937 200.267 116.35 200.514 115.56 200.928 115.129 201.154 115.099 201.17 115.068 201.181 113.332 201.816 113.116 201.895 112.915 201.782 110.208 200.258 110.026 200.156 109.82 200.134 107.331 199.877 106.731 199.815 106.397 200.316 105.883 201.085 105.84 201.15 105.779 201.198 105.065 201.769 104.855 201.937 104.757 202.187 104.124 203.813 104.086 203.91 104.069 204.012 103.703 206.221 103.695 206.268 103.679 206.312 103.272 207.415 102.936 208.325 103.836 208.688 108.783 210.684 108.934 210.745 109.02 210.883 109.14 211.074 109.557 211.742 110.305 211.493 110.737 211.348 110.934 211.283 111.119 211.375 112.292 211.962 112.405 212.018 112.53 212.045 115.267 212.631 115.328 212.644 115.391 212.649 116.778 212.769 117.204 212.805 117.234 213.231 117.327 214.54 117.35 214.859 117.07 215.013 115.845 215.687 115.417 215.922 115.339 216.405 115.038 218.297 115.008 218.481 114.866 218.6 113.603 219.663 113.426 219.812 113.199 219.774 112.755 219.7 112.156 219.6 111.791 220.085 111.473 220.508 111.272 220.775 111.272 221.109 111.272 223.003 111.272 223.173 111.168 223.308 109.497 225.482 109.256 225.796 109.295 226.19 109.433 227.575 109.516 228.412 110.355 228.473 113.165 228.678 113.6 228.71 113.628 229.146 113.659 229.647 113.687 230.101 114.048 230.378 114.316 230.584 114.742 230.912 114.385 231.313 112.024 233.97 111.772 234.254 111.772 234.634 111.772 237.686 111.772 237.914 111.599 238.064 110.466 239.046 109.172 240.082 108.748 240.422 108.802 240.962 108.865 241.594 108.884 241.789 108.976 241.963 109.599 243.139 109.715 243.358 109.611 243.582 108.672 245.618 108.565 245.849 108.582 246.103 108.669 247.412 108.678 247.54 108.718 247.662 109.5 250.009 109.694 250.591 110.3 250.682 111.522 250.866 111.76 250.901 111.88 251.11 112.739 252.593 112.78 252.665 112.833 252.729 113.553 253.6 113.82 253.923 114.238 253.959 116.081 254.119 116.205 254.13 116.309 254.197 119.501 256.263 119.564 256.303 119.587 256.313 122.915 258.022 123.174 258.154 123.463 258.128 124.351 258.047 125.577 258.044 125.724 258.043 125.849 258.124 127.213 259.006 127.39 259.12 127.598 259.153 132.493 259.936 132.572 259.949 132.652 259.949 136.956 259.944 137.114 259.943 137.244 260.034 137.855 260.462 138.114 260.643 138.429 260.643 138.492 260.643 139.653 260.643 139.481 259.495 139.277 258.137 139.19 256.64 139.181 256.48 139.267 256.344 140.169 254.926 140.223 254.84 140.307 254.782 142.825 253.045 143.086 252.865 143.196 252.566 144.101 250.099 144.382 249.333 143.687 248.904 143.076 248.527 142.906 248.422 142.855 248.228 142.156 245.564 142.006 244.99 142.597 244.939 143.259 244.881 144.172 244.802 144.172 243.885 144.172 243.689 144.172 243.395 144.013 243.148 142.346 240.557 142.328 240.529 142.314 240.499 141.782 239.365 141.468 238.695 140.736 238.8 138.743 239.085 138.172 239.166 138.172 238.59 138.172 238.543 137.172 238.543 136.503 238.543 136.291 238.543 136.143 238.39 136.088 238.333 136.044 238.287 136.013 238.232 135.087 236.592 134.947 236.345 135.088 236.098 135.94 234.606 136.072 234.376 136.072 234.11 136.072 233.543 136.569 233.449 136.07 233.48 135.78 228.858 135.775 228.785 135.792 228.714 136.031 227.677 136.041 227.637 136.056 227.599 136.996 225.325 137.072 225.141 137.072 224.943 137.072 222.213 137.072 221.88 137.38 221.751 140.542 220.433 141.186 220.164 141.156 219.466 141.108 218.354 141.089 217.937 141.496 217.845 142.622 217.589 143.143 217.471 143.334 216.973 144.129 214.908 144.184 214.765 144.309 214.678 144.938 214.237 145.179 214.069 145.291 213.797 145.992 212.084 146.185 211.611 146.654 211.814 147.635 212.241 147.912 212.362 148.21 212.308 153.399 211.381 153.529 211.358 153.653 211.401 154.742 211.782 156.072 212.247 156.072 211.474 156.072 211.258 156.229 211.11 157.122 210.266 157.419 209.986 157.753 210.22 157.863 210.298 158.306 210.609 158.809 210.407 159.036 210.316 159.297 210.211 159.522 210.38 161.072 211.542 161.121 211.579 161.174 211.609 164.827 213.707 165.418 214.047 165.95 213.62 166.437 213.231 166.56 213.131 166.718 213.122 169.303 212.961 169.453 212.952 169.583 213.027 173.08 215.037 173.567 215.317 174.06 215.046 175.398 214.309 175.606 214.195 175.825 214.283 176.268 214.46 176.307 214.476 176.343 214.498 176.499 214.593 176.611 214.662 176.675 214.777 176.954 215.28 177.682 216.59 177.788 216.782 177.965 216.912 180.786 218.979 180.817 219.001 180.843 219.028 181.772 219.95 182.493 220.809 182.641 220.986 182.602 221.214 181.691 226.589 181.667 226.73 181.684 226.873 181.833 228.141 181.918 228.863 182.487 228.976 181.999 229.614 181.201 230.657 182.716 231.005 183.078 231.088 183.428 231.168 183.749 231.008 185.215 230.276 185.307 230.23 185.409 230.224 186.331 230.169 187.272 230.113 187.272 229.584 187.272 229.265 187.561 229.131 189.02 228.451 189.089 228.419 189.165 228.409 191.837 228.052 192.039 228.025 192.213 227.922 194.045 226.84 194.186 226.757 194.349 226.773 194.925 226.83 195.121 226.85 195.31 226.793 196.88 226.322 197.048 226.272 197.21 226.337 197.586 226.487 198.187 226.728 198.652 226.278 201.043 223.967 201.231 223.784 201.488 223.836 202.911 224.121 203.036 224.146 203.164 224.138 204.699 224.051 205.65 223.997 205.155 224.81 204.872 225.275 204.619 225.69 204.789 226.146 205.547 228.167 205.658 228.464 205.921 228.643 207.519 229.73 207.577 229.77 207.622 229.824 208.405 230.765 208.567 230.96 208.803 231.054 209.478 231.324 209.895 231.491 210.297 231.29 211.005 230.936 211.25 230.813 211.486 230.954 212.802 231.744 213.228 232 213.69 231.815 213.997 231.692 214.227 231.599 214.44 231.727 214.872 231.986 215.156 232.157 215.486 232.124 217.035 231.97 217.608 231.913 217.846 231.389 218.609 229.71 218.668 229.58 218.787 229.5 221.298 227.827 221.424 227.743 221.575 227.743 222.154 227.743 222.39 227.743 222.601 227.638 224.444 226.717 224.548 226.664 224.637 226.59 224.967 226.315 225.079 226.222 225.225 226.203 226.363 226.06 225.918 224.875 225.665 224.199 225.603 224.033 225.659 223.865 225.857 223.268 225.952 222.985 226.246 222.934 229.243 222.412 229.751 222.324 229.809 222.733 230.179 222.981 230.328 223.081 230.855 223.435 231.399 223.109 232.025 222.734 232.231 222.61 232.359 222.406 233.157 221.129 233.226 221.019 233.34 220.956 235.113 219.981 235.181 219.944 235.243 219.896 238.022 217.746 238.35 217.492 238.66 217.768 238.73 217.829 239.15 218.203 239.688 218.038 240.508 217.786 240.927 217.657 241.117 217.262 242.075 215.262 242.173 215.057 242.173 214.83 242.173 213.602 242.173 213.472 242.236 213.359 242.993 211.997 243.051 211.892 243.152 211.824 245.319 210.379 245.484 210.269 245.679 210.302 248.2 210.721 248.38 210.752 248.56 210.716 250.335 210.361 250.598 210.308 250.799 210.131 252.651 208.506 252.718 208.446 252.802 208.414 254.367 207.818 254.508 207.764 254.656 207.798 256.453 208.206 256.489 208.215 256.523 208.228 256.81 208.34 258.173 208.871 258.173 207.408 258.173 206.603 258.173 206.173 258.598 206.108 260.812 205.773 261.282 205.701 261.524 205.291 262.371 203.853 263.725 201.95 264.052 201.492 264.469 201.871 265.041 202.391 265.598 201.973 265.885 201.758 266.181 201.961 266.807 202.391 270.564 204.972 268.232 201.055 267.07 199.104 267.047 199.065 267.032 199.023 266.282 197.016 266.161 196.69 266.424 196.463 267.828 195.247 268.71 194.484 267.822 193.729 266.448 192.561 266.272 192.412 266.272 192.18 266.272 191.115 266.272 190.979 266.341 190.862 267.134 189.514 267.272 189.279 267.272 189.007 267.272 187.354 267.272 186.536 266.47 186.374 266.276 186.335 266.074 186.294 265.959 186.122 265.594 185.574 265.391 185.27 265.619 184.985 266.687 183.649 266.712 183.618 266.742 183.591 267.491 182.911 267.6 182.812 267.745 182.788 270.271 182.366 270.637 182.305 270.874 182.02 271.713 181.014 272.58 180.142 272.872 179.85 272.872 179.436 272.872 179.105 272.872 178.782 272.684 178.521 271.584 176.993 271.281 176.573 271.713 176.285 272.302 175.892 271.262 175.035 269.874 173.892 269.811 173.84 269.768 173.771 268.897 172.377 268.864 172.325 268.825 172.276 267.932 171.177 267.882 171.116 267.854 171.042 267.588 170.352 267.289 169.574 266.47 169.728 265.459 169.918 265.099 169.986 264.868 170.271 264.148 171.156 263.916 171.442 263.574 171.305 262.318 170.803 260.349 169.812 260.302 169.788 260.262 169.756 259.469 169.121 259.298 168.985 259.086 168.932 257.193 168.459 257.097 168.435 256.997 168.43 255.334 168.354 255.214 168.348 255.109 168.288 253.313 167.262 253.129 167.156 252.917 167.135 252.377 167.081 252.2 167.063 252.074 166.937 250.412 165.276 250.383 165.247 250.36 165.214 249.439 163.935 249.318 163.768 249.141 163.661 245.229 161.315 242.24 159.421 242.158 159.369 242.068 159.334 241.221 159.004 241.092 158.954 240.954 158.941 238.797 158.732 238.725 158.725 238.659 158.699 237.487 158.23 237.173 158.105 237.173 157.766 237.173 156.095 237.173 155.792 237.005 155.54 235.164 152.779 235.139 152.741 235.121 152.7 234.262 150.716 234.2 150.572 234.097 150.455 233.625 149.915 232.633 148.78 232.44 148.559 232.539 148.283 233.075 146.781 233.411 145.84 232.672 145.576 232.106 145.374 232.407 144.854 232.744 144.274 233.085 143.685 232.664 143.152 232.115 142.458 231.906 142.193 232.073 141.9 232.641 140.905 232.772 140.675 232.772 140.41 232.772 139.471 232.772 139.259 232.924 139.112 234.059 138.012 234.518 137.567 234.591 137.497 234.684 137.46 235.236 137.244 235.502 137.14 236.848 136.614 236.543 136.275 236.421 136.14 236.421 136.14 236.264 135.966 236.221 135.917 235.881 135.54 234.556 134.066 234.35 133.838 234.461 133.551 234.911 132.392 234.965 132.254 234.976 132.107 235.061 131.004 235.08 130.759 234.983 130.533 234.521 129.456 234.476 129.351 234.481 129.237 234.544 127.81 234.558 127.488 234.858 127.368 234.993 127.314 235.522 127.103 235.611 126.541 235.866 124.921 235.878 124.843 235.878 124.764 235.872 119.173 235.872 119.108 235.889 119.045 236.787 115.632 236.821 115.501 236.917 115.405 237.622 114.701 237.656 114.666 237.697 114.639 240.129 113.008 240.572 112.71 240.572 112.32 240.572 111.85 241.041 111.821 242.078 111.756 242.191 111.749 242.295 111.791 245.087 112.907 248.369 114.126 248.484 114.169 248.565 114.259 249.328 115.098 249.353 115.125 249.373 115.156 250.358 116.622 252.371 119.34 252.416 119.401 252.47 119.455 253.422 120.399 256.349 123.135 256.503 123.278 256.702 123.348 257.937 123.78 258.272 123.897 258.272 124.252 258.272 124.495 258.68 124.795 259.915 125.702 260.036 125.791 260.177 125.84 261.914 126.447 262.301 126.582 262.672 126.407 264.071 125.744 264.703 125.444 264.639 124.748 264.598 124.311 264.584 124.154 264.662 124.017 265.45 122.639 265.578 122.415 265.834 122.389 265.992 122.373 266.157 122.357 266.299 122.442 267.362 123.08 267.705 123.286 268.096 123.198 272.394 122.229 272.455 122.213 274.718 121.551 274.908 121.495 275.062 121.372 275.788 120.791 275.887 120.712 276.011 120.689 279.061 120.134 279.128 120.122 279.15 120.113 280.703 119.681 281.109 119.569 281.312 119.199 282.86 116.377 282.962 116.191 282.98 115.979 283.171 113.684 283.176 113.621 283.174 113.6 283.174 113.193 283.572 113.067 285.057 112.757 285.291 112.708 285.478 112.559 285.96 112.173 286.172 112.003 286.43 112.089 287.824 112.554 288.205 112.681 288.568 112.509 290.021 111.821 290.153 111.758 290.299 111.777 293.63 112.203 293.77 112.221 293.879 112.309 294.414 112.736 294.537 112.835 294.581 112.986 295.476 116.044 296.449 112.828 296.552 112.486 296.578 112.402 296.631 112.331 296.973 111.875 297.173 111.608 297.173 111.275 297.173 109.445 297.173 109.294 297.257 109.168 297.898 108.206 297.993 108.063 298.156 108.009 298.563 107.872 300.096 107.36"/>
    <polygon id="linz" points="221.297 112.274 223.159 113.019 224.059 111.553 225.721 110.223 224.996 108.99 222.085 106.952 220.038 105.915 217.91 103.936 215.941 99.21 213.397 96.283 216.219 95.86 216.941 95.499 215.654 93.567 217.014 92.818 215.872 92.533 215.872 91.354 215.273 91.233 212.38 90.178 210.872 90.782 210.872 89.348 209.774 91.872 207.483 93.476 206.872 93.354 206.872 97.1 208.247 99.3 206.606 99.382 207.814 100.51 209.007 102.774 208.401 103.26 211.344 104.24 209.872 105.565 209.872 109.926 208.679 110.642 210.687 112.749 211.499 113.236 213.666 113.127 215.577 116.76 216.872 116.047 216.872 114.091 219.183 113.859 221.297 112.274"/>
    <polygon id="steyr" points="230.638 145.911 231.879 143.772 231.298 143.037 229.505 142.769 226.872 144.743 226.872 143.983 223.684 146.533 222.872 147.103 222.872 149.007 223.64 150.313 224.432 150.234 226.703 151.029 227.516 152.331 230.228 150.465 231.692 150.025 231.235 148.96 232.133 146.445 230.638 145.911"/>
    <polygon id="wels" points="176.049 129.833 177.064 128.413 179.346 127.744 181.208 127.65 184.872 125.178 184.872 124.653 183.977 124.474 182.872 120.715 181.139 121.234 180.054 119.39 178.347 119.048 177.585 119.124 176.527 120.076 173.872 119.633 173.872 121.536 172.562 122.978 170.576 122.679 169.975 123.399 170.872 125.013 170.872 125.683 171.954 127.197 170.989 129.126 172.144 130.165 170.872 131.184 170.872 132.308 171.019 132.056 174.16 130.59 176.049 129.833"/>
    <g id="braunau">
        <polygon points="92.706 119.716 89.599 116.921 90.872 115.902 90.872 115.143 89.086 115.143 88.316 113.835 87.47 114.936 83.934 112.286 83.13 110.838 82.185 111.121 81.145 109.769 78.872 109.996 78.917 108.436 79.567 107.005 76.58 107.23 74.563 109.043 72.872 109.043 72.872 105.227 72.015 102.743 71.429 102.743 68.562 103.412 64.446 105.837 62.446 106.137 58.451 106.045 56.632 106.682 54.537 108.515 50.644 109.878 49.779 110.743 48.684 112.733 46.723 114.302 43.595 117.99 41.595 118.99 40.388 119.443 37.388 119.543 34.438 119.938 31.585 120.225 30.798 120.932 29.756 123.663 28.872 124.724 28.872 126.715 26.872 127.315 26.872 128.35 25.609 129.612 23.504 129.929 21.872 130.582 21.872 133.266 19.431 135.462 17.372 134.226 16.872 134.526 16.872 136.05 15.872 137.05 15.872 141.556 16.783 144.106 18.629 145.214 26.819 152.72 27.783 154.647 29.872 156.736 29.872 157.729 31.566 158.052 32.848 158.526 33.812 156.84 35.405 151.95 36.789 152.907 38.238 150.1 40.048 149.738 41.245 149.874 43.31 150.635 44.099 151.95 45.115 151.637 47.505 151.808 47.606 150.172 50.109 150.528 52.346 149.613 54.978 150.403 54.536 152.086 55.445 152.011 56.21 154.813 59.372 154.705 57.799 156.591 59.272 156.661 59.635 158.204 61.673 157.562 61.704 157.86 64.272 158.562 64.272 158.945 66.153 157.31 68.123 159.983 66.202 162.012 66.258 162.413 66.752 161.497 70.625 163.22 72.145 162.881 73.048 162.129 72.786 159.51 75.297 160.705 76.015 159.714 78.144 158.436 80.255 158.537 81.889 157.638 81.995 155.856 85.436 154.906 85.878 155.151 85.872 154.252 86.239 154.16 84.769 153.131 85.964 149.905 86.97 149.301 87.908 146.957 88.872 145.214 88.872 142.857 86.584 140.685 87.872 139.782 87.872 137.925 88.872 135.925 88.872 133.318 89.827 131.504 88.829 128.71 89.813 126.743 88.924 124.967 87.573 123.224 91.069 121.826 91.988 120.723 92.706 119.716"/>
        <polygon points="87.872 153.581 86.731 154.037 87.872 153.752 87.872 153.581"/>
    </g>
    <polygon id="eferding" points="184.249 110.401 186.148 108.896 189.148 107.396 191.126 106.699 193.154 105.076 193.744 104.959 192.872 104.566 192.872 102.481 191.872 102.881 191.872 98.166 190.594 99.315 188.268 99.664 186.203 98.426 183.305 98.039 182.139 97.806 181.08 96.854 179.131 95.781 176.872 93.983 176.889 90.712 177.835 87.215 176.941 85.697 172.978 79.257 172.185 78.465 171.872 78.496 171.872 78.752 170.465 79.455 168.691 79.277 167.753 81.528 165.872 82.282 165.872 81.523 163.872 79.124 163.872 75.151 162.99 73.211 161.444 72.438 159.555 74.043 158.186 74.007 156.348 73.272 156.097 73.348 156.739 74.568 159.138 75.768 157.955 77.305 158.786 79.05 160.658 80.922 163.872 82.314 163.872 84.483 162.872 85.283 162.872 87.553 161.704 87.786 160.953 89.213 162.028 90.826 161.252 91.523 162.872 92.334 162.872 95.036 162.023 95.97 163.387 97.743 160.555 97.743 158.423 99.557 157.872 99.227 157.872 100.695 155.872 100.896 155.872 102.712 157.306 102.928 161.366 101.202 162.872 101.804 162.872 104.593 160.027 105.635 161.696 109.808 162.388 109.739 165.872 110.319 165.872 110.538 167.36 110.018 170.872 111.071 170.872 112.635 171.442 112.919 173.189 112.569 174.298 111.949 176.088 111.68 177.183 110.147 179.481 110.952 180.145 111.018 181.172 109.683 184.249 110.401"/>
    <polygon id="freistadt" points="275.978 89.317 276.995 87.387 278.349 86.572 279.214 87.004 280.115 85.743 281.179 85.743 282.037 84.972 283.872 82.949 283.872 81.333 285.872 80.933 285.872 79.833 289.872 79.033 289.872 77.89 291.038 77.774 291.291 77.228 290.518 76.897 288.518 74.897 286.545 71.953 284.471 71.164 283.272 69.724 283.272 68.136 281.769 64.204 284.501 63.957 285.109 63.551 285.169 63.135 284.942 61.101 286.994 59.69 287.972 60.017 287.972 59.623 286.782 58.177 284.47 57.466 283.504 57.756 277.734 56.774 279.424 55.085 277.98 53.93 275.142 53.712 274.923 52.381 273.232 51.628 272.532 51.526 269.858 52.573 269.338 50.938 268.483 51.146 265.684 53.131 265.433 51.223 264.817 51.223 262.615 48.233 259.772 48.124 259.772 46.543 257.032 46.995 255.897 43.591 255.158 41.894 253.46 43.082 251.979 42.637 250.919 39.454 250.302 38.53 248.606 40.313 247.585 40.414 246.571 41.292 243.2 42.752 242.096 41.207 239.174 40.915 238.309 40.223 237.227 40.765 235.872 39.003 235.872 38.386 232.872 36.186 232.872 35.26 230.096 35.606 230.872 37.493 230.872 40.817 229.756 42.913 228.872 43.974 228.872 46.298 226.299 45.397 222.872 45.568 222.872 46.5 223.742 47.457 224.872 48.813 224.872 51.237 225.683 52.414 226.67 52.71 227.598 53.918 228.872 53.79 228.872 56.453 227.071 56.092 226.132 54.685 224.725 54.896 223.594 57.608 222.203 56.635 221.752 56.612 221.872 56.721 221.846 58.001 220.973 60.62 223.246 61.984 221.872 63.083 221.872 63.605 223.702 64.337 224.788 65.966 226.126 68.502 225.088 68.709 225.827 70.336 226.923 72.304 225.989 74.73 226.585 75.088 228.765 75.852 229.751 78.709 231.872 79.133 231.872 80.672 234.265 82.228 232.999 83.114 234.116 85.57 231.585 85.824 229.119 88.043 230.623 89.397 232.872 90.071 232.872 91.039 233.831 93.244 234.656 94.557 236.558 94.651 238.479 96.188 239.498 95.884 240.475 96.763 241.042 96.537 242.132 94.901 244.595 95.296 245.595 95.796 248.032 96.519 246.995 99.216 248.252 99.906 249.158 98.819 252.103 99.113 253.006 97.58 253.872 97.06 253.872 92.605 255.613 91.908 256.773 94.229 258.555 95.743 259.674 95.743 260.307 96.947 262.048 93.962 264.188 92.143 265.51 92.143 267.233 93.177 268.143 91.903 270.213 92.214 271.186 91.379 272.427 90.883 274.149 92.002 274.963 90.131 275.978 89.317"/>
    <polygon id="gmunden" points="185.768 189.3 186.681 187.657 185.872 187.252 185.872 185.526 185.114 185.071 179.293 182.554 178.513 182.631 177.35 183.213 175.189 181.917 173.004 181.48 171.755 178.23 172.872 177.56 172.872 176.456 171.872 174.243 171.872 172.149 172.949 170.965 173.78 169.136 173.002 168.279 171.782 166.343 172.763 164.772 172.126 163.943 170.07 163.943 168.709 161.357 172.872 158.859 172.872 157.818 170.981 155.455 170.031 153.94 167.449 152.821 166.479 153.598 164.36 152.962 163.233 153.243 164.474 154.855 160.632 154.472 159.241 156.696 157.872 152.643 157.872 150.896 157.119 150.819 155.1 148.399 154.613 148.302 153.872 149.486 153.872 150.504 152.742 151.295 151.721 152.928 150.717 153.429 148.872 156.29 148.872 159.554 147.09 159.196 146.372 158.264 145.872 158.913 145.872 161.58 142.521 162.027 141.872 162.352 141.872 164.024 142.928 166.137 141.872 168.356 141.872 169.724 140.665 171.173 137.872 172.104 137.872 172.173 136.744 174.202 135.872 174.727 135.872 176.333 132.646 175.796 132.007 177.011 133.268 178.021 131.001 179.268 131.927 181.585 130.689 183.689 128.726 184.082 127.757 186.31 126.872 186.752 126.872 189.274 125.132 190.754 125.623 191.196 126.515 191.465 130.506 193.581 127.725 194.833 125.872 198.076 125.84 199.017 124.725 201.897 123.609 203.013 121.872 203.273 121.872 204.459 117.872 202.992 117.872 201.426 117.355 201.116 115.505 202.086 113.027 202.992 109.717 201.129 107.228 200.872 106.585 201.834 105.689 202.55 105.056 204.176 104.666 206.525 104.21 207.761 109.61 209.939 109.988 210.544 111.01 210.203 112.739 211.067 115.476 211.653 118.141 211.882 118.393 215.427 116.327 216.563 115.937 219.006 113.717 220.874 112.59 220.686 112.272 221.109 112.272 223.513 110.29 226.091 110.428 227.476 114.544 227.776 114.657 229.585 116.203 230.773 112.772 234.634 112.772 238.371 111.099 239.821 109.797 240.863 109.86 241.495 110.83 243.327 109.58 246.037 109.667 247.346 110.449 249.693 112.384 249.984 113.604 252.092 114.324 252.963 116.539 253.155 120.044 255.423 123.372 257.132 124.327 257.045 126.019 257.043 127.756 258.166 132.651 258.949 137.429 258.943 138.429 259.643 138.492 259.643 138.278 258.217 138.164 256.215 139.488 254.132 142.257 252.222 143.162 249.755 142.04 249.063 140.738 244.097 143.172 243.885 143.172 243.689 141.451 241.014 140.877 239.79 137.172 240.319 137.172 239.543 135.865 239.543 135.236 238.889 133.797 236.342 135.072 234.11 135.072 233.543 134.768 228.702 135.085 227.331 136.072 224.943 136.072 221.213 140.157 219.51 140.054 217.147 142.401 216.614 143.36 214.121 144.365 213.418 145.173 211.444 145.173 210.08 148.034 211.324 153.611 210.327 155.072 210.838 155.072 210.827 157.325 208.699 158.437 209.479 159.447 209.074 161.672 210.742 165.325 212.84 166.182 212.153 169.691 211.935 173.578 214.17 175.538 213.091 176.757 213.579 177.298 213.91 179.208 212 181.291 212.417 182.731 211.624 181.872 209.543 181.872 208.383 179.941 206.797 178.941 205.097 177.872 203.823 177.872 202.383 178.672 201.263 178.329 201.023 177.249 201.563 174.872 198.829 174.872 195.319 178.145 194.774 181.037 192.171 182.168 191.266 185.233 190.856 186.566 190.258 185.768 189.3"/>
    <polygon id="grieskirchen" points="173.081 113.611 171.301 113.968 169.872 113.252 169.872 111.815 167.383 111.068 164.872 111.948 164.872 111.167 162.355 110.747 161.048 110.878 158.716 105.051 161.872 103.894 161.872 102.481 161.378 102.284 157.437 103.959 154.872 103.573 154.872 99.991 156.872 99.791 156.872 97.459 158.321 98.33 160.188 96.743 161.356 96.743 160.72 95.917 161.872 94.649 161.872 92.951 159.492 91.762 160.715 90.661 159.791 89.273 161.04 86.899 161.872 86.732 161.872 84.803 162.872 84.003 162.872 82.971 160.018 81.696 157.921 79.558 157.2 78.045 155.566 79.435 153.396 79.542 152.062 79.415 151.185 77.837 149.428 78.893 147.057 78.063 145.965 76.534 145.262 75.691 144.312 76.262 141.18 73.443 140.579 73.443 139.567 74.403 135.872 75.974 135.823 79.158 134.975 80.939 135.807 81.771 136.798 84.644 138.781 86.23 139.96 88.939 138.872 90.137 138.872 98.782 137.557 99.307 136.469 99.934 135.604 100.106 134.553 101.053 132.78 100.964 131.738 105.026 130.872 104.854 130.872 106.953 129.872 107.153 129.872 108.199 130.872 109.8 130.872 111.359 127.437 111.245 123.872 112.314 123.872 110.896 122.557 110.765 121.536 111.786 119.872 111.453 119.872 113.671 121.872 114.271 121.872 117.506 124.872 117.905 124.872 119.443 125.548 119.443 127.144 120.721 125.872 121.865 125.872 127.187 124.872 128.786 124.872 132.617 126.499 132.536 127.439 133.101 129.461 132.494 131.437 133.879 132.186 133.579 134.872 133.032 134.872 134.732 135.347 134.828 137.228 134.265 138.551 133.997 140.648 136.304 142.161 136.758 142.872 135.691 142.872 134.371 145.01 133.729 145.78 132.036 144.664 130.807 146.17 129.453 148.499 129.336 148.887 129.569 149.956 127.966 152.372 124.1 153.663 126.164 156.656 126.404 158.645 124.116 156.067 122.14 153.872 120.383 153.872 118.643 156.872 118.643 156.872 117.963 159.279 118.323 161.131 117.305 161.872 117.006 161.872 116.304 163.417 115.687 165.548 116.966 167.872 117.354 167.872 116.201 172.481 115.625 173.22 116.069 173.801 115.197 173.081 113.611"/>
    <g id="kirchdorf">
        <polygon points="234.631 219.105 237.872 216.598 237.872 215.758 236.114 214.087 233.872 213.415 233.872 210.452 235.872 209.952 235.872 208.936 237.752 207.056 236.968 205.647 235.872 204.55 235.872 203.778 234.872 202.079 234.872 201.239 233.131 200.281 230.872 199.151 230.872 197.116 229.179 197.878 227.948 195.907 226.872 194.736 226.872 192.552 224.737 191.484 225.792 188.848 224.689 187.635 226.689 185.535 225.798 184.554 226.872 181.653 226.872 180.651 226.038 180.215 225.191 179.453 222.872 179.568 222.872 178.354 222.185 178.49 220.171 176.174 217.38 176.546 215.322 176.34 211.872 175.881 211.872 172.333 213.08 172.092 213.73 171.181 213.002 170.379 211.712 168.331 212.872 167.402 212.872 164.189 213.892 164.088 212.936 161.508 211.755 160.206 212.769 158.48 212.286 157.852 210.872 158.983 210.872 161.073 209.71 163.164 207.408 163.854 203.495 163.268 202.449 164 200.009 163.147 198.022 158.884 197.273 158.733 194.538 158.05 195.965 156.052 196.647 155.363 196.18 154.943 195.104 154.943 193.405 152.395 195.872 152.518 195.872 151.16 196.872 150.56 196.872 150.426 193.975 148.647 192.547 146.791 196.322 145.546 197.042 145.474 197.508 144.493 194.872 144.933 194.872 143.529 192.872 141.23 192.872 140.451 191.372 139.701 189.745 140.516 188.756 142.463 187.523 143.941 186.55 143.553 186.013 144.305 186.983 145.373 185.742 147.579 184.592 148.843 182.215 148.843 181.249 148.167 179.872 148.374 179.872 154.184 177.479 156.098 176.872 155.915 176.872 156.651 174.595 157.79 173.872 158.012 173.872 159.426 170.035 161.729 170.674 162.943 172.618 162.943 173.98 164.714 172.962 166.343 173.796 167.679 174.964 168.95 173.742 171.579 172.872 172.536 172.872 174.13 173.872 176.343 173.872 178.126 172.989 178.656 173.74 180.606 175.629 181.015 177.393 182.072 178.322 181.646 179.452 181.532 185.571 184.184 186.872 184.96 186.872 186.635 188.062 187.23 186.975 189.187 188.177 190.629 185.438 191.838 182.576 192.221 181.684 192.934 178.598 195.712 175.872 196.167 175.872 198.456 177.495 200.323 178.415 199.863 180.072 201.022 178.872 202.703 178.872 203.462 179.756 204.522 180.756 206.21 182.872 207.902 182.872 209.438 184.012 212.062 181.453 213.47 179.536 213.086 177.828 214.794 178.556 216.105 181.468 218.239 182.526 219.289 183.704 220.699 182.677 226.756 182.826 228.024 184.257 228.309 182.94 230.03 183.302 230.113 185.043 229.244 186.272 229.171 186.272 228.628 188.805 227.448 191.705 227.061 193.959 225.73 195.023 225.835 197.095 225.214 197.957 225.559 200.913 222.701 203.107 223.14 207.494 222.89 205.726 225.795 206.483 227.816 208.256 229.022 209.174 230.126 209.849 230.396 211.294 229.673 213.317 230.887 214.316 230.486 215.387 231.129 216.936 230.975 217.876 228.906 221.121 226.743 222.154 226.743 223.997 225.822 224.664 225.266 224.982 225.226 224.542 224.053 225.192 222.102 230.595 221.162 230.736 222.151 230.885 222.251 231.511 221.876 232.516 220.268 234.631 219.105"/>
        <polygon points="196.872 149.683 198.644 148.442 196.872 149.093 196.872 149.683"/>
    </g>
    <polygon id="linz-land" points="239.572 111.888 238.313 111.739 237.408 111.56 233.396 112.965 231.116 112.395 230.372 111.65 229.514 112.508 227.107 111.785 226.335 111.013 224.756 112.276 223.585 114.267 221.447 113.411 219.56 114.826 217.872 114.995 217.872 116.639 215.167 118.127 213.078 114.158 211.245 114.25 210.009 113.487 208.119 111.502 206.006 111.079 208.872 109.359 208.872 105.12 209.399 104.647 206.342 103.627 207.737 102.511 206.971 101.055 205.223 99.482 203.301 99.866 202.009 99.188 200.009 97.088 198.118 95.579 197.383 95.286 195.872 95.966 195.872 97.15 194.59 98.434 192.872 98.519 192.872 101.404 193.872 101.005 193.872 103.92 197 105.326 193.59 106.01 191.537 107.614 189.537 108.314 187.232 109.471 189.341 111.475 186.872 112.215 186.872 113.449 187.613 114.265 188.647 114.368 189.625 115.736 193.736 115.633 194.915 119.405 193.981 120.993 194.756 121.923 196.972 124.36 195.696 126.824 193.872 128.374 193.872 129.615 191.757 130.249 190.842 132.811 190.027 134.291 190.585 134.682 196.715 136.276 193.613 137.981 192.292 139.044 193.872 139.834 193.872 140.856 195.872 143.156 195.872 143.753 198.29 143.35 199.062 143.345 200.148 141.172 201.478 141.837 203.14 141.754 204.214 140.573 205.105 140.841 205.872 139.23 205.872 137.391 209.507 137.027 209.872 137.282 209.872 136.389 212.383 135.509 214.372 136.305 216.015 135.647 217.067 133.746 220.369 131.215 222.236 132.616 223.208 131.062 224.629 131.914 225.872 132.782 225.872 133.09 227.396 132.938 229.522 133.362 227.872 134.684 227.872 135.96 228.456 136.31 231.475 135.605 232.518 136.335 234.872 136.218 234.872 136.313 235.138 136.209 233.195 134.049 233.979 132.03 234.064 130.927 233.467 129.535 233.587 126.798 234.623 126.385 234.878 124.765 234.872 118.979 235.923 114.985 237.018 113.89 239.572 112.177 239.572 111.888"/>
    <g id="perg">
        <polygon points="297.973 100.875 297.696 96.526 295.32 95.848 291.724 96.096 293.006 92.764 293.824 90.309 292.817 88.697 294.374 84.584 295.298 84.122 295.338 83.637 294.757 83.494 292.976 82.647 291.15 84.473 288.073 80.993 289.948 80.025 286.872 80.563 286.872 81.753 284.872 82.153 284.872 83.336 282.742 85.679 281.564 86.743 280.629 86.743 279.53 88.281 278.394 87.713 277.749 88.1 276.684 90.033 275.781 90.756 274.594 93.484 272.316 92.004 271.64 92.274 270.531 93.272 268.6 92.982 267.51 94.509 265.233 93.143 264.555 93.143 262.762 94.667 260.872 97.976 260.872 98.143 259.929 98.376 259.07 96.743 258.188 96.743 255.924 94.767 255.131 93.178 254.872 93.281 254.872 97.626 253.738 98.306 252.64 100.172 249.586 99.866 248.492 101.18 245.749 99.67 246.712 97.167 245.228 96.722 244.22 96.226 242.612 95.984 241.702 97.349 240.268 97.923 239.247 97.002 238.264 97.298 236.185 95.634 234.328 95.541 232.872 97.543 235.872 97.543 235.872 100.314 233.515 101.022 230.28 101.671 228.169 100.403 227.872 100.314 227.872 100.983 226.032 102.455 226.988 103.984 225.872 105.323 225.872 108.507 226.77 110.034 227.636 110.9 229.229 111.378 230.372 110.235 231.628 111.491 233.348 111.921 237.336 110.525 238.47 110.753 239.126 110.938 242.353 110.737 245.458 111.979 249.06 113.316 250.142 114.507 251.188 116.065 253.174 118.745 254.126 119.689 257.032 122.404 259.272 123.188 259.272 123.989 260.507 124.896 262.244 125.503 263.643 124.84 263.559 123.932 264.965 121.471 266.387 121.329 267.876 122.222 272.174 121.253 274.437 120.591 275.459 119.773 278.882 119.15 280.435 118.718 281.983 115.896 282.174 113.601 282.173 112.337 284.853 111.778 285.972 110.882 288.14 111.605 289.99 110.729 294.175 111.265 295.408 112.251 295.492 112.538 295.672 111.943 296.173 111.275 296.173 108.991 297.351 107.223 298.246 106.924 298.025 106.703 298.755 103.367 297.973 100.875"/>
        <polygon points="291.538 78.73 290.872 78.796 290.872 79.548 291.743 79.099 292.512 78.584 292.321 78.24 291.538 78.73"/>
    </g>
    <polygon id="ried" points="125.196 120.442 123.872 120.442 123.872 118.78 120.872 118.38 120.872 115.015 118.872 114.415 118.872 110.232 121.208 110.7 122.018 109.89 124.152 107.862 125.087 107.77 125.913 106.53 126.83 103.319 126.086 102.129 124.518 102.051 123.298 102.905 122.122 101.61 120.098 101.308 119.126 100.043 117.872 100.043 117.872 95.952 115.28 96.471 114.872 96.226 114.872 96.824 112.167 96.398 110.464 95.633 109.482 96.516 106.248 95.33 104.165 95.018 103.39 94.398 102.475 95.223 99.594 94.07 100.872 92.282 100.872 91.692 98.872 90.192 98.872 88.626 94.692 91.134 93.742 92.179 91.685 95.59 90.625 95.802 88.734 97.788 87.62 98.777 80.62 102.777 79.451 103.25 73.091 102.796 73.872 105.143 73.872 108.043 74.18 108.043 76.164 106.257 81.176 105.882 79.872 108.751 79.872 108.891 81.598 108.718 82.558 109.965 83.614 109.648 84.756 111.704 87.273 113.551 88.427 112.052 89.658 114.143 91.872 114.143 91.872 116.383 91.144 116.966 94.038 119.569 92.779 121.334 91.674 122.66 89.171 123.662 89.768 124.438 90.93 126.743 89.915 128.776 90.917 131.581 89.872 133.566 89.872 136.161 88.872 138.161 88.872 140.304 88.16 140.802 89.872 142.428 89.872 144.843 91.872 144.843 91.872 146.82 92.706 147.57 93.403 148.055 95.492 146.906 96.327 147.908 96.872 147.092 96.872 143.249 98.137 141.857 100.872 141.675 100.872 140.512 103.148 138.596 105.278 137.531 107.335 137.737 109.383 137.225 110.264 137.488 112.218 135.925 114.315 136.135 117.523 135.065 118.446 136.081 119.283 135.494 121.15 136.054 122.07 134.583 123.872 134.313 123.872 128.499 124.872 126.899 124.872 121.42 125.599 120.766 125.196 120.442"/>
    <polygon id="rohrbach" points="197.648 63.577 198.872 63.333 198.872 61.486 197.872 59.887 197.872 57.466 197.333 56.98 196.333 57.681 194.872 56.365 194.872 54.854 192.542 54.387 193.789 52.516 192.818 50.722 193.91 48.101 194.714 46.807 193.975 46.197 193.155 45.131 191.29 45.41 190.434 44.982 188.503 46.529 184.408 45.71 185.408 44.61 184.335 44.396 181.872 44.519 181.872 43.403 180.165 43.745 178.872 42.063 178.872 39.203 175.872 38.604 175.872 37.302 174.558 36.646 175.872 35.199 175.872 33.655 179.413 33.184 180.084 33.385 180.872 31.493 180.872 30.348 179.287 29.793 178.233 29.793 175.872 28.376 175.872 27.401 174.978 26.955 173.872 24.093 173.872 23.845 170.186 23.457 168.037 22.564 167.088 21.71 166.048 21.174 163.872 19.324 163.872 18.674 162.988 17.613 160.018 14.647 158.048 12.974 157.213 12.479 153.64 12.122 152.802 13.546 151.836 14.717 150.81 19.533 149.761 20.058 148.872 22.192 148.872 23.402 151.48 24.879 154.375 24.591 152.592 27.264 150.872 26.834 150.872 27.97 151.912 29.946 150.872 33.172 150.872 34.642 151.872 36.142 151.872 36.97 152.948 39.015 151.872 40.736 151.872 41.716 149.747 43.628 148.937 44.762 149.92 47.216 148.734 49.587 147.674 50.01 146.798 51.063 145.485 53.886 144.016 52.049 143.438 51.586 141.872 53.427 141.872 54.536 142.872 55.536 142.872 57.981 140.872 58.782 140.872 60.426 140.079 60.902 140.788 61.966 142.761 65.123 146.656 68.726 147.595 69.195 149.707 69.871 152.707 72.571 155.672 76.024 157.206 76.639 157.605 76.119 156.009 75.321 154.632 72.842 156.395 72.313 158.468 73.143 159.188 73.143 161.289 71.357 163.749 72.464 164.872 75.043 164.872 78.763 166.648 80.894 166.991 80.757 168.052 78.209 170.278 78.432 170.872 78.135 170.872 78.043 171.352 78.043 171.274 77.652 172.551 77.397 173.742 78.707 178.547 86.454 179.872 85.66 179.901 84.375 181.136 80.915 182.434 81.953 183.701 81.319 182.732 79.381 184.022 78.478 184.975 77.238 186.872 74.583 186.872 72.688 191.719 74.747 192.284 75.706 192.872 74.883 192.908 74.558 193.966 71.91 195.872 70.672 195.872 69.04 194.806 66.375 195.741 65.066 194.762 63.893 196.407 61.096 197.648 63.577"/>
    <polygon id="schaerding" points="155.069 76.96 151.988 73.264 149.126 70.791 146.872 70.115 146.872 69.981 146.018 69.597 145.018 68.597 141.948 65.708 139.06 61.178 136.1 60.389 135.04 59.221 133.085 57.854 130.99 56.703 130.199 55.043 129.137 55.043 128.109 53.809 126.128 53.512 125.009 52.338 124.082 51.137 122.517 50.745 120.462 52.697 119.059 51.983 117.059 50.384 116.037 49.464 113.051 46.977 112.579 46.697 111.872 48.111 111.872 49.109 108.525 52.234 107.872 52.104 107.872 52.981 106.264 53.625 104.394 51.895 103.872 52.443 103.872 53.83 104.928 56.048 103.98 57.944 104.802 58.789 105.872 60.607 105.842 61.611 104.842 64.411 103.872 66.36 103.823 67.658 101.924 71.647 103.942 76.089 102.825 77.765 101.846 80.701 100.872 82.566 100.834 85.535 99.872 87.843 99.872 89.693 101.872 91.193 101.872 92.604 101.149 93.615 102.268 94.063 103.353 93.088 104.579 94.068 106.544 94.373 109.261 95.37 110.28 94.453 112.514 95.459 113.872 95.663 113.872 94.459 115.464 95.415 118.872 94.732 118.872 99.043 119.618 99.043 120.645 100.378 122.622 100.675 123.446 101.581 124.225 101.035 126.658 101.156 127.914 103.167 126.788 107.021 125.657 108.717 124.591 108.823 123.507 109.855 124.872 109.991 124.872 110.971 127.306 110.24 129.872 110.326 129.872 110.087 128.872 108.486 128.872 106.333 129.872 106.133 129.872 103.633 131.006 103.86 131.872 100.48 131.872 100.018 132.396 99.944 134.19 100.033 135.139 99.179 136.189 98.97 137.114 98.414 137.872 98.106 137.872 96.184 135.739 94.476 137.872 94.69 137.872 89.75 138.784 88.746 137.963 86.856 135.949 85.245 134.934 82.405 133.776 81.131 134.872 78.83 134.872 75.42 139.095 73.52 140.179 72.543 141.563 72.543 143.706 74.471 144.413 75.035 145.482 74.394 146.756 75.923 147.687 77.315 149.303 77.801 151.558 76.448 152.697 78.498 153.396 78.638 155.174 78.461 156.389 77.488 155.069 76.96"/>
    <polygon id="steyr-land" points="271.872 179.436 271.872 179.105 269.863 176.315 270.626 175.807 269.049 174.508 268.049 172.907 267.006 171.623 266.655 170.711 265.644 170.901 264.228 172.644 261.886 171.707 259.759 170.634 258.844 169.902 256.951 169.429 254.927 169.336 252.817 168.13 251.745 168.022 249.619 165.897 248.627 164.519 244.715 162.172 241.705 160.266 240.858 159.936 238.487 159.707 236.173 158.782 236.173 156.095 234.257 153.221 233.344 151.113 232.872 150.573 232.872 150.715 230.592 151.399 227.227 153.755 226.041 151.857 224.311 151.252 223.103 151.372 221.872 149.278 221.872 146.582 223.085 145.733 227.872 141.903 227.872 142.743 229.174 141.767 231.16 141.483 231.772 140.41 231.772 138.836 233.363 137.294 232.225 137.351 231.268 136.681 228.288 137.376 226.872 136.526 226.872 134.203 227.168 133.966 224.872 134.195 224.872 133.304 223.536 132.424 222.507 134.069 220.375 132.471 217.763 134.473 216.728 136.438 214.372 137.381 212.36 136.577 210.872 137.098 210.872 139.204 209.237 138.059 206.872 138.295 206.823 139.558 205.638 142.046 204.53 141.712 203.603 142.732 201.265 142.849 200.595 142.514 199.68 144.343 198.687 144.343 197.702 146.413 196.477 146.535 194.197 147.295 194.711 147.963 195.872 148.66 195.872 148.394 199.872 146.927 199.872 148.804 197.872 150.204 197.872 151.126 196.872 151.727 196.872 153.568 195.339 153.492 195.639 153.943 196.563 153.943 198.098 155.323 196.725 156.696 196.202 157.436 198.721 158.003 200.734 162.34 202.295 162.887 203.249 162.219 207.336 162.832 209.034 162.322 209.872 160.813 209.872 158.503 212.458 156.434 213.974 158.406 212.989 160.079 213.84 161.069 214.772 163.585 217.142 164.77 213.872 165.096 213.872 167.883 213.032 168.556 213.796 169.778 215.013 171.105 213.664 172.994 212.872 173.153 212.872 175.006 215.438 175.347 217.363 175.54 220.573 175.111 222.558 177.397 223.872 177.133 223.872 178.518 225.552 178.434 226.656 179.426 227.872 180.034 227.84 181.917 226.946 184.332 228.054 185.551 226.054 187.65 226.952 188.639 226.007 191.002 227.872 191.935 227.872 194.35 228.742 195.307 229.563 196.608 231.872 195.569 231.872 198.534 233.595 199.396 235.872 200.647 235.872 201.808 236.872 203.507 236.872 204.136 237.809 205.1 238.992 207.23 236.872 209.35 236.872 210.733 234.872 211.233 234.872 212.671 236.63 213.198 238.872 215.328 238.872 216.618 239.394 217.082 240.215 216.83 241.173 214.83 241.173 213.213 242.295 211.194 245.258 209.218 248.364 209.735 250.139 209.38 252.194 207.576 254.435 206.722 256.783 207.256 257.173 207.408 257.173 205.313 260.662 204.784 261.542 203.289 263.892 199.995 265.102 201.095 265.859 200.527 267.373 201.567 266.142 199.499 264.981 196.389 267.174 194.491 265.272 192.874 265.272 190.707 266.272 189.007 266.272 187.354 265.471 187.192 264.153 185.217 265.981 182.931 267.145 181.874 270.106 181.38 270.988 180.322 271.872 179.436"/>
    <g id="urfahr-umgebung">
        <polygon points="234.872 98.543 231.872 98.543 231.872 97.178 233.632 94.802 232.948 93.708 231.872 91.143 231.872 90.815 230.038 90.215 227.625 88.043 231.159 84.861 232.628 84.715 231.745 82.772 232.478 82.259 230.872 81.215 230.872 79.953 228.989 79.576 227.975 76.533 226.207 75.915 224.747 75.19 225.82 72.292 224.941 70.797 223.656 67.977 224.618 67.783 223.929 66.477 223.043 65.149 220.872 64.282 220.872 62.603 221.498 62.102 219.77 61.065 220.872 57.762 220.872 57.15 219.1 55.38 222.541 55.551 223.149 55.977 224.018 53.89 226.079 53.581 226.074 53.575 225.06 53.272 223.872 51.548 223.872 49.174 223.355 48.555 222.632 49.351 220.26 49.825 219.459 49.265 216.595 52.59 215.595 53.09 215.423 52.743 214.872 52.743 214.872 52.476 214.065 51.064 212.115 50.821 209.115 49.022 207.368 47.887 207.322 47.89 206.507 47.809 205.422 48.568 202.237 47.082 201.186 46.957 198.263 45.788 196.445 45.697 195.389 46.066 196.032 46.581 194.796 48.558 193.924 50.665 194.955 52.57 194.202 53.699 195.872 54.033 195.872 55.92 196.411 56.405 197.411 55.705 198.872 57.021 198.872 59.6 199.872 61.199 199.872 64.153 197.095 64.708 196.337 63.189 195.981 63.793 197.003 65.02 195.937 66.512 196.872 68.943 196.872 71.215 194.777 72.576 193.872 74.84 193.872 75.203 192.872 76.604 192.872 78.679 191.024 75.538 187.872 74.199 187.872 74.898 185.783 77.927 184.659 79.252 184.011 79.705 185.043 81.767 182.309 83.133 181.607 82.571 180.872 84.63 180.872 86.227 178.801 87.468 177.872 90.909 177.872 93.503 179.684 94.952 181.706 96.071 182.604 96.879 183.47 97.053 186.629 97.515 188.475 98.621 190.149 98.37 192.872 95.92 192.872 97.518 194.154 97.453 194.872 96.736 194.872 95.319 197.36 94.2 198.684 94.752 200.684 96.353 202.674 98.435 203.442 98.819 205.274 98.453 206.498 98.389 205.872 97.387 205.872 92.133 207.26 92.411 208.969 91.214 209.872 89.14 209.899 88.78 210.899 85.88 211.083 85.943 211.872 85.943 211.872 89.304 212.364 89.107 215.544 90.273 216.872 90.533 216.872 91.752 219.729 92.467 217.09 93.919 217.631 94.73 219.872 94.617 219.872 96.343 217.49 96.343 216.446 96.837 215.346 97.002 216.834 98.751 218.79 103.447 220.656 105.126 222.595 106.096 224.872 107.684 224.872 104.962 225.756 103.901 224.712 102.23 226.872 100.503 226.872 98.97 228.629 99.515 230.464 100.614 233.274 100.053 234.872 99.571 234.872 98.543"/>
        <polygon points="227.872 54.896 227.561 54.926 227.673 55.094 227.872 55.133 227.872 54.896"/>
    </g>
    <polygon id="voecklabruck" points="151.022 152.158 152.085 150.534 152.872 149.982 152.872 149.513 151.975 148.348 150.721 146.223 152.676 144.659 152.251 144.128 150.116 143.594 148.872 142.35 148.872 139.783 148.218 139.261 147.171 139.365 146.151 138.243 144.196 138.243 143.007 137.292 142.583 137.928 140.095 137.183 138.192 135.089 137.47 135.233 135.396 135.857 133.872 135.553 133.872 134.253 132.47 134.533 131.306 135.008 129.283 133.592 127.304 134.185 126.245 133.55 124.872 133.618 124.872 135.174 122.674 135.503 121.593 137.231 119.461 136.592 118.298 137.405 117.22 136.22 114.428 137.15 112.525 136.961 110.479 138.598 109.36 138.262 107.409 138.749 105.465 138.555 103.649 139.463 101.872 140.975 101.872 142.61 98.606 142.828 97.872 143.637 97.872 147.395 96.417 149.578 95.252 148.18 93.34 149.23 92.086 148.354 90.872 147.266 90.872 145.843 89.666 145.843 88.809 147.386 87.773 149.984 86.78 150.581 85.974 152.755 86.437 153.078 88.872 152.105 88.872 154.533 86.872 155.033 86.836 157.129 86.472 158.039 86.472 158.635 87.09 158.943 88.536 158.943 91.668 161.239 92.594 162.159 95.272 162.383 95.272 165.062 94.272 167.062 94.272 169.325 92.833 171.028 89.59 169.905 89.493 168.054 87.285 167.594 86.566 166.634 85.563 167.351 84.369 167.953 83.662 168.66 84.572 170.943 84.572 172.924 83.799 173.853 84.673 174.488 84.673 178.239 82.906 179.21 83.673 180.283 83.673 181.383 85.673 184.183 85.632 188.643 84.767 190.63 85.437 191.301 87.504 191.92 88.459 193.543 92.948 193.543 92.812 194.494 94.629 195.614 97.342 196.878 98.309 196.347 102.309 195.847 104.372 195.243 106.515 195.265 108.676 195.912 109.404 196.912 111.173 196.699 111.173 195.317 116.173 195.567 116.173 196.817 117.789 199.834 117.553 200.069 118.872 200.859 118.872 202.293 120.872 203.027 120.872 202.412 123.134 202.073 123.941 201.267 124.872 198.753 124.872 197.811 127.018 194.054 128.238 193.505 126.136 192.385 125.038 192.015 123.612 190.732 125.872 188.812 125.872 186.135 126.986 185.577 128.017 183.203 130.054 182.797 130.816 181.501 129.743 178.818 131.475 177.866 130.737 177.274 132.097 174.69 134.872 175.153 134.872 174.16 136 173.483 136.872 171.913 136.872 171.383 140.079 170.313 140.872 169.362 140.921 168.028 141.815 166.148 140.872 164.261 140.872 161.734 142.305 161.048 144.872 160.705 144.872 158.573 146.372 156.623 147.654 158.29 147.872 158.333 147.872 155.995 150.026 152.657 151.022 152.158"/>
    <path id="wels-land" d="M188.999,139.77l2.103-1.051,1.958-1.566.976-.54-3.949-1.06-1.37-.958,1.219-2.195,1.052-2.963,1.886-.565v-.96l2.099-1.783.801-1.602-1.77-1.947-1.239-1.486,1.066-1.812-.821-2.628-3.889.098-1.022-1.433-.966-.096-1.259-1.386v-2.365l1.53-.459-1.059-1.006-1.849,1.479-2.923-.682-.974,1.265-1.392-.153-1.646-.576-.904,1.267-2.112.317-.532.319.931,2.047-1.419,2.128-1.261-.757-3.391.424v1.449l-3.757-.661-1.788-1.072-.455.182v.7l-1.314.525-2.093,1.155-1.593-.239v.52h-3v.26l1.812,1.45,3.414,2.617-1.984,2.282,2.051,1.437-7.084-.567-.709-1.135-2.5,3.908v1.433l-1.627-.978-1.671.084-.494.445.884.972-1.23,2.706-1.861.559v1.588l.676.54h2.045l.98,1.077.952-.095,1.347,1.077v2.633l.756.756,1.244.311v-1.028l2.195,2.854-2.045,1.636.78,1.326.525.68.803-1.284,1.513.303,1.981,2.379,1.247.125v2.567l.631,1.831.609-.975,2.157.216-.759-.987,2.873-.719,1.881.563,1.03-.823,3.419,1.481,1.082,1.731,1.756,2.188.677-.202,1.644-.829v-1.464l1.393.417,1.607-1.285v-6.19l2.623-.395,1.034.725h1.622l.812-.894.798-1.436-1.03-1.134,1.463-2.046,1.027.41.73-.877,1.048-2.098ZM185.872,125.709l-4.336,2.926-2.078.104-1.778.533-.986,1.381-2.136.854-2.833,1.324-1.853,3.146v-5.274l.728-.583-.845-.76,1.035-2.071-.918-1.286v-.73l-1.104-1.986,1.399-1.68,2.014.303.69-.76v-2.696l3.345.557.942-.849,1.237-.123,2.293.459.915,1.554,2.268-.68v1.199l.895,3.042,1.105.221v1.876Z"/>
</svg>