<?xml version="1.0" encoding="UTF-8"?>
<svg id="op_icon" xmlns="http://www.w3.org/2000/svg" xmlns:xlink="http://www.w3.org/1999/xlink" viewBox="0 0 512 512">
  <defs>
    <style>
      .cls-1 {
        fill: #f8951d;
      }

      .cls-2 {
        fill: url(#linear-gradient);
      }

      .cls-3 {
        fill: #fbe200;
      }
    </style>
    <linearGradient id="linear-gradient" x1="256" y1="9.77" x2="256" y2="502.23" gradientUnits="userSpaceOnUse">
      <stop offset="0" stop-color="#f7931e"/>
      <stop offset="1" stop-color="#f05323"/>
    </linearGradient>
  </defs>
  <g id="op_icon-2" data-name="op_icon">
    <path class="cls-2" d="M483.4,314.22l-49.75-44.25c.75-6.89,1.21-13.98,1.21-21.15h-.07c0-62.28-29.05-201.15-66.65-201.15-32.2,12.78-73.8,60.27-73.8,60.27,0,0-46.8-96.7-91.5-98.16-50.83-1.65-131.49,156.64-125.62,239.03h-.03c0,7.17.37,14.25,1.21,21.15l-49.75,44.25c-10.62,9.41-13.14,24.88-6.06,37.17l27.86,48.26c7.08,12.3,21.8,17.89,35.22,13.42l63.45-20.96c11.27,8.48,23.48,15.65,36.62,21.24l13.42,65.12c2.8,13.79,15,23.76,29.16,23.76h55.71c14.07,0,26.27-9.88,29.16-23.76l13.42-65.12c13.04-5.68,25.34-12.76,36.62-21.24l63.17,20.96c13.42,4.47,28.14-1.21,35.22-13.42l27.86-48.26c6.99-12.21,4.57-27.76-6.06-37.17ZM216.01,150.36c11.9-8.04,24.55,23.91,39.99,23.91s29.78,4.69,41.67,12.73c19.83,13.39,32.86,36.08,32.86,61.81h-.31c.03,41.05-33.16,74.34-74.24,74.53-41.16,0-74.52-33.37-74.52-74.53,0-25.73,14.72-85.06,34.54-98.45Z"/>
    <path class="cls-1" d="M483.4,314.22l-49.75-44.25c.75-6.89,1.21-13.98,1.21-21.15h-.07c0-11.07-.92-24.56-2.64-39.25-3.19-2.52-6.1-5.48-8.87-8.44-4.91-5.26-10.05-10.94-17-12.79-11-2.93-21.77,4.67-30.63,11.82-11.5,9.28-23.01,18.57-34.51,27.85-11.25-8.58-.6-29.71-10.82-39.49-6.94-6.65-18.15-2.81-25.47,4,15.74,13.67,25.7,33.82,25.7,56.3h-.31c.03,41.05-33.16,74.34-74.24,74.53-41.16,0-74.52-33.37-74.52-74.53,0-7.23,1.16-17.13,3.28-27.91-4.28-2.52-7.75-6.01-9.89-10.82-2.37-5.34-2.51-11.44-4.63-16.88-2.12-5.45-7.63-10.51-13.25-8.9-2.37.68-4.26,2.41-6.22,3.91-11.56,8.81-27.68,10.35-38.48,20.08-14.6,13.15-14.27,35.89-11.34,55.31,7.02,46.48,24.82,94.81,63.62,121.35,0,0-3.96,4.25-9.75,11.26,9.66,6.7,19.95,12.48,30.91,17.14l13.42,65.12c2.8,13.79,15,23.76,29.16,23.76h55.71c14.07,0,26.27-9.88,29.16-23.76l13.42-65.12c13.04-5.68,25.34-12.76,36.62-21.24l63.17,20.96c13.42,4.47,28.14-1.21,35.22-13.42l27.86-48.26c6.99-12.21,4.57-27.76-6.06-37.17Z"/>
    <path class="cls-3" d="M255.99,323.35c-16.58,0-31.89-5.43-44.27-14.59-1.92,4.65-2.4,9.8-.7,14.51,1.77,4.88,5.62,8.78,7.53,13.61,4.62,11.68-3.03,24.22-5.61,36.51-4.78,22.8,18.85,47.65,36.38,50.67,17.53,3.01,34.44-2.84,47.39-13.38,11.94-9.72,17.46-25.08,22.45-39.65,4.09-11.94,8.23-24.32,7.09-36.89-.97-10.67-5.68-20.59-10.32-30.24-1.09-2.26-2.22-4.56-3.53-6.73-13.61,15.93-33.81,26.08-56.42,26.18Z"/>
  </g>
</svg>