<?xml version="1.0" encoding="UTF-8"?>
<svg id="op_icon" xmlns="http://www.w3.org/2000/svg" xmlns:xlink="http://www.w3.org/1999/xlink" viewBox="0 0 919.19 266.18">
  <defs>
    <style>
      .cls-1 {
        fill: #f8951d;
      }

      .cls-2 {
        fill: #f05525;
      }

      .cls-3 {
        fill: url(#linear-gradient);
      }

      .cls-4 {
        fill: #fbe200;
      }
    </style>
    <linearGradient id="linear-gradient" x1="128.17" y1="45.98" x2="128.17" y2="220.21" gradientUnits="userSpaceOnUse">
      <stop offset="0" stop-color="#f7931e"/>
      <stop offset="1" stop-color="#f05323"/>
    </linearGradient>
  </defs>
  <g id="op_icon-2" data-name="op_icon">
    <path class="cls-3" d="M208.63,153.69l-17.6-15.66c.26-2.44.43-4.94.43-7.48h-.02c0-22.03-10.28-71.17-23.58-71.17-11.39,4.52-26.11,21.32-26.11,21.32,0,0-16.56-34.21-32.37-34.73-17.98-.58-46.52,55.42-44.44,84.57h0c0,2.54.13,5.04.43,7.48l-17.6,15.66c-3.76,3.33-4.65,8.8-2.14,13.15l9.86,17.07c2.51,4.35,7.71,6.33,12.46,4.75l22.45-7.42c3.99,3,8.31,5.54,12.95,7.52l4.75,23.04c.99,4.88,5.31,8.41,10.32,8.41h19.71c4.98,0,9.3-3.49,10.32-8.41l4.75-23.04c4.61-2.01,8.97-4.52,12.95-7.52l22.35,7.42c4.75,1.58,9.95-.43,12.46-4.75l9.86-17.07c2.47-4.32,1.62-9.82-2.14-13.15ZM114.03,95.72c4.21-2.84,8.69,8.46,14.15,8.46s10.54,1.66,14.74,4.5c7.01,4.74,11.63,12.76,11.63,21.87h-.11c.01,14.52-11.73,26.3-26.26,26.37-14.56,0-26.36-11.81-26.36-26.37,0-9.1,5.21-30.09,12.22-34.83Z"/>
    <path class="cls-1" d="M208.63,153.69l-17.6-15.66c.26-2.44.43-4.94.43-7.48h-.02c0-3.92-.33-8.69-.93-13.89-1.13-.89-2.16-1.94-3.14-2.99-1.74-1.86-3.56-3.87-6.02-4.53-3.89-1.04-7.7,1.65-10.84,4.18-4.07,3.28-8.14,6.57-12.21,9.85-3.98-3.03-.21-10.51-3.83-13.97-2.46-2.35-6.42-.99-9.01,1.41,5.57,4.83,9.09,11.97,9.09,19.92h-.11c.01,14.52-11.73,26.3-26.26,26.37-14.56,0-26.36-11.81-26.36-26.37,0-2.56.41-6.06,1.16-9.87-1.51-.89-2.74-2.13-3.5-3.83-.84-1.89-.89-4.05-1.64-5.97-.75-1.93-2.7-3.72-4.69-3.15-.84.24-1.51.85-2.2,1.38-4.09,3.12-9.79,3.66-13.61,7.1-5.16,4.65-5.05,12.7-4.01,19.57,2.48,16.44,8.78,33.54,22.51,42.93,0,0-1.4,1.5-3.45,3.98,3.42,2.37,7.06,4.41,10.93,6.06l4.75,23.04c.99,4.88,5.31,8.41,10.32,8.41h19.71c4.98,0,9.3-3.49,10.32-8.41l4.75-23.04c4.61-2.01,8.97-4.52,12.95-7.52l22.35,7.42c4.75,1.58,9.95-.43,12.46-4.75l9.86-17.07c2.47-4.32,1.62-9.82-2.14-13.15Z"/>
    <path class="cls-4" d="M128.17,156.92c-5.87,0-11.28-1.92-15.66-5.16-.68,1.65-.85,3.47-.25,5.13.63,1.73,1.99,3.11,2.66,4.82,1.64,4.13-1.07,8.57-1.98,12.92-1.69,8.07,6.67,16.86,12.87,17.93s12.19-1,16.77-4.73c4.23-3.44,6.18-8.87,7.94-14.03,1.45-4.22,2.91-8.61,2.51-13.05-.34-3.77-2.01-7.28-3.65-10.7-.38-.8-.79-1.61-1.25-2.38-4.81,5.64-11.96,9.23-19.96,9.26Z"/>
  </g>
  <g>
    <path class="cls-1" d="M296.69,128.63c-2.45,4.42-6.21,7.98-11.28,10.69-5.07,2.71-11.37,4.07-18.89,4.07h-13.9v33.05h-22.43v-92.06h36.33c7.34,0,13.55,1.27,18.62,3.8,5.07,2.54,8.87,6.03,11.41,10.49,2.53,4.46,3.8,9.57,3.8,15.34,0,5.33-1.23,10.21-3.67,14.62ZM274.39,122.53c2.1-2.01,3.15-4.85,3.15-8.52s-1.05-6.51-3.15-8.52c-2.1-2.01-5.29-3.02-9.57-3.02h-12.2v23.08h12.2c4.28,0,7.48-1,9.57-3.02Z"/>
    <path class="cls-1" d="M334.46,102.34v18.62h30.03v17.31h-30.03v20.2h33.97v17.97h-56.39v-92.06h56.39v17.97h-33.97Z"/>
    <path class="cls-1" d="M429.93,176.43l-19.15-34.75h-5.38v34.75h-22.43v-92.06h37.64c7.26,0,13.44,1.27,18.56,3.8,5.11,2.54,8.94,6.01,11.48,10.43,2.53,4.42,3.8,9.33,3.8,14.75,0,6.12-1.73,11.59-5.18,16.39-3.45,4.81-8.55,8.22-15.28,10.23l21.25,36.46h-25.31ZM405.4,125.81h13.9c4.11,0,7.19-1,9.25-3.02,2.05-2.01,3.08-4.85,3.08-8.52s-1.03-6.25-3.08-8.26c-2.06-2.01-5.14-3.02-9.25-3.02h-13.9v22.82Z"/>
    <path class="cls-1" d="M525.79,160.17h-34.36l-5.51,16.26h-23.47l33.31-92.06h25.97l33.31,92.06h-23.74l-5.51-16.26ZM520.02,142.86l-11.41-33.7-11.28,33.7h22.69Z"/>
    <path class="cls-1" d="M631.36,84.37v17.97h-24.39v74.1h-22.43v-74.1h-24.39v-17.97h71.21Z"/>
    <path class="cls-1" d="M665.07,84.37v92.06h-22.43v-92.06h22.43Z"/>
    <path class="cls-1" d="M701.07,171.32c-7.21-4.02-12.94-9.64-17.18-16.85-4.24-7.21-6.36-15.32-6.36-24.33s2.12-17.09,6.36-24.26c4.24-7.17,9.97-12.76,17.18-16.79,7.21-4.02,15.15-6.03,23.8-6.03s16.59,2.01,23.8,6.03c7.21,4.02,12.89,9.62,17.05,16.79,4.15,7.17,6.23,15.26,6.23,24.26s-2.1,17.11-6.3,24.33-9.88,12.83-17.05,16.85c-7.17,4.02-15.08,6.03-23.74,6.03s-16.59-2.01-23.8-6.03ZM742.51,149.55c4.41-4.9,6.62-11.36,6.62-19.41s-2.21-14.62-6.62-19.47c-4.42-4.85-10.3-7.28-17.64-7.28s-13.36,2.41-17.77,7.21c-4.42,4.81-6.62,11.32-6.62,19.54s2.21,14.62,6.62,19.48c4.41,4.85,10.34,7.28,17.77,7.28s13.22-2.45,17.64-7.34Z"/>
    <path class="cls-1" d="M866.77,176.43h-22.43l-37.51-56.79v56.79h-22.43v-92.06h22.43l37.51,57.05v-57.05h22.43v92.06Z"/>
  </g>
  <g>
    <path class="cls-2" d="M695.65,218.71c-1.3,2.35-3.31,4.25-6.01,5.69-2.7,1.44-6.05,2.17-10.06,2.17h-7.4v17.6h-11.95v-49.04h19.35c3.91,0,7.22.68,9.92,2.02,2.7,1.35,4.73,3.21,6.08,5.59,1.35,2.38,2.02,5.1,2.02,8.17,0,2.84-.65,5.44-1.96,7.79ZM683.78,215.46c1.12-1.07,1.68-2.59,1.68-4.54s-.56-3.47-1.68-4.54-2.82-1.61-5.1-1.61h-6.5v12.29h6.5c2.28,0,3.98-.53,5.1-1.61Z"/>
    <path class="cls-2" d="M714.34,241.44c-3.84-2.14-6.89-5.13-9.15-8.98-2.26-3.84-3.39-8.16-3.39-12.96s1.13-9.1,3.39-12.92c2.26-3.82,5.31-6.8,9.15-8.94s8.07-3.21,12.68-3.21,8.84,1.07,12.68,3.21c3.84,2.14,6.87,5.12,9.08,8.94,2.21,3.82,3.32,8.13,3.32,12.92s-1.12,9.12-3.35,12.96c-2.23,3.84-5.26,6.84-9.08,8.98-3.82,2.14-8.03,3.21-12.64,3.21s-8.84-1.07-12.68-3.21ZM736.41,229.85c2.35-2.61,3.53-6.05,3.53-10.34s-1.18-7.79-3.53-10.37c-2.35-2.58-5.48-3.88-9.39-3.88s-7.11,1.28-9.47,3.84c-2.35,2.56-3.53,6.03-3.53,10.41s1.17,7.79,3.53,10.37c2.35,2.58,5.51,3.88,9.47,3.88s7.04-1.3,9.39-3.91Z"/>
    <path class="cls-2" d="M770.67,195.13v49.04h-11.95v-49.04h11.95Z"/>
    <path class="cls-2" d="M823.2,244.17h-11.94l-19.98-30.25v30.25h-11.95v-49.04h11.95l19.98,30.39v-30.39h11.94v49.04Z"/>
    <path class="cls-2" d="M867.14,195.13v9.57h-12.99v39.47h-11.94v-39.47h-12.99v-9.57h37.93Z"/>
  </g>
</svg>